<svg width="18" height="18" viewBox="0 0 18 18" fill="none" xmlns="http://www.w3.org/2000/svg">
<path d="M8.73529 13.4538C8.97463 13.2156 8.81235 12.7861 8.46108 12.7566C8.31496 12.7333 8.1818 12.7815 8.09896 12.8873L6.49544 14.4836C6.1925 14.7852 5.81779 15.0073 5.41042 15.0807L5.40968 15.0809C4.71567 15.2115 4.04279 15.0067 3.55722 14.5226L3.55716 14.5225C3.16383 14.1309 2.95909 13.6294 2.95909 13.09C2.95909 12.5492 3.1655 12.0293 3.55545 11.6592L3.55547 11.6592L3.55716 11.6575L6.34228 8.88504C6.84679 8.38281 7.55623 8.1776 8.26764 8.34517C8.4791 8.40274 8.68184 8.47704 8.84534 8.58555L8.8453 8.5856L8.84838 8.58749C9.09337 8.73762 9.29732 8.92341 9.4451 9.14371L9.44508 9.14373L9.44632 9.14548C9.6104 9.37909 9.92119 9.43674 10.1447 9.25617C10.1511 9.25344 10.1574 9.25007 10.1635 9.24603C10.1809 9.23448 10.1924 9.22014 10.2 9.20724C10.3785 9.05407 10.4211 8.77523 10.2767 8.58066C10.0517 8.23615 9.72766 7.9342 9.36408 7.7128L9.36409 7.71278L9.36227 7.71172C9.12442 7.57366 8.87887 7.45018 8.58909 7.38804C7.53614 7.12637 6.48126 7.42898 5.75016 8.15651C5.75008 8.15659 5.75 8.15667 5.74992 8.15675L2.76834 11.086L2.76834 11.086L2.76787 11.0864C1.61115 12.2379 1.61017 14.0979 2.76817 15.2313C3.31574 15.7762 4.06633 16.0999 4.85895 16.0999C5.65036 16.0999 6.38209 15.7963 6.95002 15.231L6.95003 15.231L8.73529 13.4538Z" fill="#252525" stroke="#252525" stroke-width="0.2"/>
<path d="M10.3024 10.4651L10.3024 10.4651L10.3007 10.4661C9.85395 10.7254 9.31136 10.8013 8.76641 10.6705C8.54323 10.6148 8.33873 10.5223 8.15305 10.3932C7.94278 10.241 7.75585 10.073 7.608 9.86973C7.43923 9.63025 7.13035 9.60389 6.91443 9.75798C6.90726 9.76069 6.90075 9.76393 6.89491 9.76743C6.89354 9.76825 6.89221 9.76909 6.89093 9.76993H6.8821L6.85402 9.79398C6.76454 9.87061 6.71074 9.98146 6.69301 10.0937C6.67525 10.2061 6.69221 10.329 6.7562 10.4311L6.7562 10.4311C6.85963 10.596 6.98317 10.7384 7.12359 10.8782C7.67118 11.4233 8.4219 11.7471 9.21467 11.7471C9.78262 11.7471 10.3306 11.5856 10.798 11.2825C11.0479 11.1297 11.0884 10.8081 10.9232 10.5729L10.9014 10.542L10.894 10.5402C10.7426 10.3875 10.5082 10.3511 10.3024 10.4651Z" fill="#252525" stroke="#252525" stroke-width="0.2"/>
<path d="M12.771 6.60562L12.7709 6.60578L12.7766 6.60733C13.0432 6.67979 13.3399 6.51467 13.3913 6.23745C13.7666 4.48469 13.458 3.22038 12.3896 2.52353C12.3447 2.49039 12.2594 2.44045 12.1819 2.39513L12.1771 2.39232C12.0907 2.34174 12.0137 2.29655 11.9799 2.2714L11.9735 2.26665L11.9664 2.26297C11.5426 2.04181 11.0564 1.9 10.5671 1.9C10.0384 1.9 9.51222 1.97435 9.03072 2.2052C8.54759 2.43682 8.11592 2.82294 7.77278 3.43541L7.77276 3.4354L7.77183 3.43714L6.6347 5.56379C6.43791 5.90849 6.73132 6.34347 7.14271 6.27818H7.1735H7.18069L7.18781 6.27715C7.35237 6.25336 7.50048 6.15903 7.57627 6.00944L8.65428 4.01947C8.6543 4.01944 8.65431 4.01941 8.65433 4.01938C9.00903 3.36847 9.70152 2.95879 10.4498 2.95879C10.7832 2.95879 11.1201 3.05057 11.4424 3.20112C11.8046 3.42022 12.1212 3.68455 12.307 4.1051C12.4941 4.52852 12.5553 5.12542 12.3716 6.02161L12.3654 6.05166L12.3663 6.05377C12.3365 6.28267 12.4728 6.5351 12.7177 6.5877L12.771 6.60562Z" fill="#252525" stroke="#252525" stroke-width="0.2"/>
<path d="M15.4325 7.65374L15.4325 7.65338C15.4085 7.39402 15.2132 7.18788 14.9343 7.21115L13.9777 7.24989C13.7024 7.25105 13.5028 7.47797 13.527 7.74927L13.527 7.74927L13.527 7.74962C13.551 8.00909 13.7472 8.21513 14.0252 8.19185L14.9818 8.15312C15.2571 8.15195 15.4567 7.92504 15.4325 7.65374Z" fill="#252525" stroke="#252525" stroke-width="0.2"/>
<path d="M13.2004 9.32412C13.1008 9.57308 13.2272 9.84492 13.4722 9.94226C13.4723 9.9423 13.4724 9.94234 13.4725 9.94239L15.4534 10.743L15.4534 10.743L15.454 10.7433C15.7032 10.8421 15.9762 10.717 16.0741 10.4724L16.0744 10.4725L16.077 10.4638C16.1471 10.2289 16.0555 9.95483 15.8023 9.85423C15.8022 9.85419 15.8021 9.85415 15.802 9.8541L13.8211 9.05347L13.8211 9.05346L13.8205 9.05322C13.5713 8.95438 13.2983 9.07953 13.2004 9.32412Z" fill="#252525" stroke="#252525" stroke-width="0.2"/>
<path d="M12.5219 10.4963L12.5219 10.4963C12.3172 10.6742 12.3239 10.9727 12.4924 11.1647L12.4923 11.1648L12.4955 11.1681L13.3766 12.0841C13.5553 12.2858 13.8532 12.2786 14.0453 12.1117C14.2499 11.9338 14.2432 11.6352 14.0748 11.4432L14.0748 11.4431L14.0716 11.4398L13.1905 10.5238C13.0118 10.3222 12.7139 10.3294 12.5219 10.4963Z" fill="#252525" stroke="#252525" stroke-width="0.2"/>
</svg>
