<svg width="18" height="18" viewBox="0 0 18 18" fill="none" xmlns="http://www.w3.org/2000/svg">
<path d="M12.5 4.5L5.5 13.5" stroke="#FFAE93" stroke-linecap="round"/>
<path opacity="0.5" fill-rule="evenodd" clip-rule="evenodd" d="M10.1301 5.10379C9.75099 5.03687 9.37416 5.00081 9.006 5C9.005 5 9.004 5.00025 9.003 5.0005C9.002 5.00075 9.001 5.001 9 5.001H8.994C6.283 5.007 3.102 6.923 2 9C2.55562 10.0472 3.63976 11.0538 4.92569 11.7952L5.50691 11.0479C4.51269 10.5111 3.63464 9.79033 3 9.00002C4.325 7.35002 6.711 6.003 9 6.001C9.13988 6.00112 9.28012 6.00627 9.42046 6.0162L10.1301 5.10379ZM8.6248 7.03918C7.6905 7.20896 7.001 8.01103 7.001 9C7.001 9.04112 7.00219 9.08192 7.00454 9.12237L8.6248 7.03918ZM9.37656 10.9591L10.9889 8.88606C10.991 8.92374 10.992 8.96173 10.992 9C10.992 9.98568 10.3063 10.7857 9.37656 10.9591ZM8.57957 11.9838C8.7199 11.9937 8.86013 11.9989 9 11.999C11.289 11.997 13.675 10.65 15 9.00002C14.3654 8.20972 13.4873 7.48892 12.4931 6.95213L13.0743 6.20482C14.3603 6.94626 15.4444 7.95279 16 9C14.898 11.077 11.717 12.993 9.006 12.999H9C8.99873 12.999 8.99746 12.9994 8.99619 12.9997C8.99546 12.9999 8.99473 13 8.994 13C8.62585 12.9992 8.24902 12.9631 7.86992 12.8962L8.57957 11.9838Z" fill="#FFAE93"/>
</svg>
