<svg width="18" height="18" viewBox="0 0 18 18" fill="none" xmlns="http://www.w3.org/2000/svg">
<path fill-rule="evenodd" clip-rule="evenodd" d="M16 9C14.898 11.077 11.717 12.993 9.006 12.999C9.004 12.999 9.002 12.999 9 12.999C8.998 12.999 8.996 13 8.994 13C6.283 12.994 3.102 11.077 2 9C3.102 6.923 6.283 5.007 8.994 5.001C8.996 5.001 8.998 5.001 9 5.001C9.002 5.001 9.004 5 9.006 5C11.717 5.006 14.898 6.923 16 9ZM9 6.001C6.711 6.003 4.325 7.35002 3 9.00002C4.325 10.65 6.711 11.997 9 11.999C11.289 11.997 13.675 10.65 15 9.00002C13.675 7.35002 11.289 6.003 9 6.001ZM8.996 10.994C7.879 10.994 7.001 10.116 7.001 9C7.001 7.884 7.879 7.006 8.996 7.006C10.113 7.006 10.992 7.884 10.992 9C10.992 10.116 10.113 10.994 8.996 10.994V10.994Z" fill="#FFAE93"/>
</svg>
