<svg width="18" height="18" viewBox="0 0 18 18" fill="none" xmlns="http://www.w3.org/2000/svg">
<path d="M13.5 1C13.2239 1 13 1.22386 13 1.5V4.5C13 4.77614 13.2239 5 13.5 5H16.5C16.7761 5 17 4.77614 17 4.5C17 4.22386 16.7761 4 16.5 4H14V1.5C14 1.22386 13.7761 1 13.5 1Z" fill="#252525"/>
<path d="M1.5 4C1.22386 4 1 4.22386 1 4.5C1 4.77614 1.22386 5 1.5 5H4.5C4.77614 5 5 4.77614 5 4.5V1.5C5 1.22386 4.77614 1 4.5 1C4.22386 1 4 1.22386 4 1.5V4H1.5Z" fill="#252525"/>
<path d="M13.5 13C13.2239 13 13 13.2239 13 13.5V16.5C13 16.7761 13.2239 17 13.5 17C13.7761 17 14 16.7761 14 16.5V14H16.5C16.7761 14 17 13.7761 17 13.5C17 13.2239 16.7761 13 16.5 13H13.5Z" fill="#252525"/>
<path d="M5 13.5C5 13.2239 4.77614 13 4.5 13H1.5C1.22386 13 1 13.2239 1 13.5C1 13.7761 1.22386 14 1.5 14H4V16.5C4 16.7761 4.22386 17 4.5 17C4.77614 17 5 16.7761 5 16.5V13.5Z" fill="#252525"/>
<path fill-rule="evenodd" clip-rule="evenodd" d="M11 7H7V11H11V7ZM7 6C6.44772 6 6 6.44772 6 7V11C6 11.5523 6.44772 12 7 12H11C11.5523 12 12 11.5523 12 11V7C12 6.44772 11.5523 6 11 6H7Z" fill="#252525"/>
</svg>
