<svg width="18" height="18" viewBox="0 0 18 18" fill="none" xmlns="http://www.w3.org/2000/svg">
<path fill-rule="evenodd" clip-rule="evenodd" d="M7 8.5C7 8.224 6.776 8 6.5 8C6.224 8 6 8.224 6 8.5V13.5C6 13.776 6.224 14 6.5 14C6.776 14 7 13.776 7 13.5V8.5Z" fill="#252525"/>
<path fill-rule="evenodd" clip-rule="evenodd" d="M9 8.5C9 8.224 8.776 8 8.5 8C8.224 8 8 8.224 8 8.5V13.5C8 13.776 8.224 14 8.5 14C8.776 14 9 13.776 9 13.5V8.5Z" fill="#252525"/>
<path fill-rule="evenodd" clip-rule="evenodd" d="M11 8.5C11 8.224 10.776 8 10.5 8C10.224 8 10 8.224 10 8.5V13.5C10 13.776 10.224 14 10.5 14C10.776 14 11 13.776 11 13.5V8.5Z" fill="#252525"/>
<path fill-rule="evenodd" clip-rule="evenodd" d="M3 4.5C3 4.776 3.224 5 3.5 5H13.5C13.776 5 14 4.776 14 4.5C14 4.224 13.776 4 13.5 4H11V3C11 2.448 10.552 2 9.99999 2H6.99999C6.44799 2 5.99999 2.448 5.99999 3V4H3.5C3.224 4 3 4.224 3 4.5ZM9.99999 3H6.99999V4H9.99999V3Z" fill="#252525"/>
<path fill-rule="evenodd" clip-rule="evenodd" d="M5 7V15H12V7H5ZM4 15C4 15.552 4.448 16 5 16H12C12.552 16 13 15.552 13 15V6H4V15Z" fill="#252525"/>
</svg>
