<svg width="18" height="18" viewBox="0 0 18 18" fill="none" xmlns="http://www.w3.org/2000/svg">
<path d="M8.44855 12.8559C8.33055 12.8361 8.23247 12.8757 8.17425 12.9535L6.56599 14.5545C6.25184 14.8673 5.85954 15.1014 5.42817 15.1792C4.70258 15.3157 3.99613 15.1014 3.48661 14.5934C3.07439 14.1831 2.85909 13.656 2.85909 13.0901C2.85909 12.5241 3.07517 11.9772 3.48661 11.5867L6.27173 8.81422C6.80117 8.28717 7.54669 8.07207 8.29225 8.24828C8.50833 8.30701 8.72363 8.38481 8.90063 8.50227C9.15578 8.65863 9.37107 8.8539 9.52815 9.08805C9.6653 9.28331 9.92045 9.32221 10.0967 9.16585C10.1166 9.16585 10.1166 9.14602 10.1166 9.14602C10.2737 9.02856 10.3127 8.7944 10.1947 8.63803C9.97866 8.30624 9.6653 8.01335 9.31207 7.79825C9.07685 7.66172 8.84163 7.54426 8.56655 7.48553C7.54673 7.23153 6.527 7.52443 5.82047 8.22767L2.83842 11.1574C1.72053 12.2702 1.72053 14.0663 2.83842 15.1602C3.36786 15.6872 4.09346 16 4.85895 16C5.62361 16 6.33006 15.7071 6.87947 15.1602L8.66474 13.383C8.84097 13.2076 8.72297 12.8758 8.44866 12.856L8.44855 12.8559Z" fill="#545FD9"/>
<path fill-rule="evenodd" clip-rule="evenodd" d="M8.4732 12.6573C8.90181 12.6962 9.10834 13.2237 8.80589 13.5248L7.02062 15.3019C6.43417 15.8857 5.67716 16.2 4.859 16.2C4.03925 16.2 3.26366 15.8654 2.69798 15.3025C1.49985 14.1295 1.50183 12.2057 2.69737 11.0156L2.6983 11.0147L5.67991 8.08544C6.43557 7.33362 7.52561 7.02131 8.6117 7.29065C8.91617 7.35621 9.17201 7.48568 9.41252 7.62528L9.41617 7.6274C9.7902 7.85517 10.125 8.16631 10.3589 8.52363C10.531 8.75828 10.4824 9.08639 10.2765 9.27318C10.2629 9.29247 10.2443 9.31252 10.2188 9.3294C10.212 9.33395 10.205 9.33802 10.1979 9.34165C9.92723 9.5519 9.55707 9.47712 9.36454 9.20301L9.36207 9.1995C9.22358 8.99305 9.03101 8.81671 8.79618 8.6728L8.79002 8.66903C8.63998 8.56946 8.44985 8.49855 8.24309 8.44216C7.56584 8.28322 6.89247 8.47854 6.41288 8.95596L3.62438 11.7318C3.25591 12.0816 3.05914 12.5744 3.05914 13.0901C3.05914 13.6029 3.25332 14.0789 3.62776 14.4517C4.0894 14.9119 4.72882 15.1073 5.39124 14.9827L5.39272 14.9824C5.77609 14.9132 6.1332 14.7032 6.42494 14.4128L8.02433 12.8206C8.13141 12.6877 8.29879 12.6307 8.4732 12.6573ZM8.1743 12.9535L6.56604 14.5545C6.25189 14.8673 5.85959 15.1014 5.42822 15.1792C4.70263 15.3157 3.99618 15.1014 3.48666 14.5934C3.07443 14.1831 2.85914 13.656 2.85914 13.0901C2.85914 12.5241 3.07522 11.9772 3.48666 11.5867L6.27178 8.81422C6.80122 8.28717 7.54674 8.07208 8.2923 8.24828C8.50838 8.30701 8.72367 8.38481 8.90068 8.50227C9.15583 8.65863 9.37112 8.8539 9.5282 9.08805C9.66535 9.28331 9.9205 9.32221 10.0967 9.16585C10.1166 9.16585 10.1166 9.14602 10.1166 9.14602C10.2737 9.02856 10.3128 8.7944 10.1948 8.63803C9.97871 8.30625 9.66534 8.01336 9.31212 7.79826C9.0769 7.66173 8.84168 7.54426 8.5666 7.48553C7.54678 7.23153 6.52704 7.52443 5.82052 8.22767L2.83847 11.1574C1.72058 12.2702 1.72058 14.0664 2.83847 15.1602C3.36791 15.6872 4.09351 16 4.859 16C5.62366 16 6.33011 15.7071 6.87952 15.1602L8.66479 13.383C8.84102 13.2076 8.72302 12.8758 8.44871 12.856C8.33072 12.8361 8.23252 12.8757 8.1743 12.9535Z" fill="#545FD9"/>
<path d="M10.8415 10.6304C10.7235 10.4938 10.5274 10.4549 10.3511 10.5526C9.88069 10.8256 9.31139 10.9042 8.74287 10.7677C8.50765 10.7089 8.29157 10.6113 8.09542 10.4748C7.87935 10.3184 7.6832 10.143 7.52691 9.9279C7.38975 9.73264 7.13461 9.7128 6.95839 9.8501C6.93847 9.8501 6.93847 9.86993 6.91931 9.86993C6.78216 9.98739 6.74308 10.2216 6.84116 10.3779C6.93923 10.5343 7.05724 10.6708 7.19438 10.8073C7.72383 11.3344 8.44942 11.6471 9.21491 11.6471C9.76428 11.6471 10.2937 11.4908 10.745 11.1979C10.9396 11.0796 10.9787 10.8257 10.8416 10.6304L10.8415 10.6304Z" fill="#545FD9"/>
<path fill-rule="evenodd" clip-rule="evenodd" d="M6.91933 9.86994C6.92882 9.86994 6.93361 9.86508 6.93844 9.86017C6.94337 9.85516 6.94835 9.85011 6.95841 9.85011C7.13463 9.71281 7.38978 9.73265 7.52693 9.92791C7.68322 10.143 7.87937 10.3184 8.09545 10.4748C8.2916 10.6113 8.50767 10.709 8.74289 10.7677C9.31141 10.9042 9.88071 10.8256 10.3512 10.5526C10.5274 10.455 10.7235 10.4939 10.8415 10.6304L10.8416 10.6304C10.9787 10.8257 10.9397 11.0796 10.7451 11.1979C10.2938 11.4908 9.76431 11.6471 9.21493 11.6471C8.44944 11.6471 7.72385 11.3344 7.19441 10.8073C7.05726 10.6708 6.93926 10.5343 6.84118 10.3779C6.74311 10.2216 6.78218 9.9874 6.91933 9.86994ZM10.8516 11.3671C10.368 11.6804 9.80151 11.8471 9.21493 11.8471C8.3949 11.8471 7.61904 11.5123 7.05331 10.9491C6.90962 10.8061 6.78054 10.6576 6.67175 10.4842L6.67175 10.4842C6.59282 10.3584 6.57365 10.2101 6.5945 10.0781C6.61531 9.94636 6.67886 9.81257 6.78924 9.71804L6.8454 9.66994H6.86612C6.86613 9.66993 6.86614 9.66993 6.86616 9.66992C7.12214 9.49455 7.488 9.5262 7.68956 9.81149C7.82898 10.003 8.00672 10.1636 8.21119 10.3117C8.3864 10.4334 8.57932 10.5206 8.79047 10.5734C9.31185 10.6984 9.82771 10.6252 10.2508 10.3796L10.2542 10.3776L10.2542 10.3776C10.489 10.2476 10.7604 10.2817 10.9439 10.4493L10.9618 10.4536L11.0053 10.5154C11.1986 10.7907 11.1566 11.1797 10.8516 11.3671ZM6.83916 10.3792L6.84103 10.378L6.83916 10.3792Z" fill="#545FD9"/>
<path d="M12.4696 6.04174C12.4305 6.237 12.5477 6.4521 12.7439 6.491L12.8028 6.51083C13.0189 6.56956 13.2541 6.43303 13.2932 6.21794C13.6656 4.48043 13.3522 3.26911 12.3324 2.60562C12.2543 2.54689 11.9991 2.41036 11.9202 2.35163C11.508 2.13653 11.0375 2 10.5671 2C9.52732 2 8.52751 2.29289 7.86002 3.48429L6.7222 5.61224C6.56513 5.88529 6.80035 6.23692 7.13442 6.17818H7.1735C7.31065 6.15835 7.42865 6.08055 7.48765 5.96308L8.56647 3.97162C8.93884 3.28821 9.66522 2.85879 10.4498 2.85879C10.803 2.85879 11.1563 2.95642 11.4896 3.11279C12.2343 3.56204 12.8419 4.22562 12.4695 6.0417L12.4696 6.04174Z" fill="#545FD9"/>
<path fill-rule="evenodd" clip-rule="evenodd" d="M12.8028 6.51083L12.7438 6.491C12.5477 6.4521 12.4305 6.23701 12.4695 6.04174C12.8419 4.22567 12.2343 3.56205 11.4895 3.11279C11.1562 2.95643 10.803 2.8588 10.4498 2.8588C9.6652 2.8588 8.93882 3.28821 8.56645 3.97163L7.48763 5.96309C7.42863 6.08055 7.31063 6.15835 7.17348 6.17818H7.13441C6.80033 6.23692 6.56511 5.88529 6.72218 5.61224L7.86 3.48429C8.52749 2.29289 9.5273 2 10.567 2C11.0375 2 11.5079 2.13653 11.9202 2.35163C11.9593 2.38074 12.0417 2.42895 12.1244 2.47734C12.2085 2.52658 12.293 2.576 12.3324 2.60562C13.3522 3.26912 13.6656 4.48044 13.2932 6.21794C13.2541 6.43303 13.0189 6.56956 12.8028 6.51083ZM13.4894 6.25709C13.4256 6.5963 13.0675 6.79003 12.7504 6.70383L12.739 6.70074L12.6909 6.68421C12.4001 6.61857 12.2434 6.33122 12.2642 6.06878L12.2613 6.06162L12.2736 6.00153C12.4549 5.11719 12.3913 4.5433 12.2155 4.14553C12.0422 3.75334 11.7471 3.50292 11.3952 3.28946C11.0841 3.14478 10.7633 3.0588 10.4498 3.0588C9.7378 3.0588 9.07921 3.44873 8.74217 4.06714C8.74214 4.0672 8.7422 4.06709 8.74217 4.06714L7.66481 6.05591C7.57224 6.23752 7.39408 6.34837 7.2021 6.37613L7.18787 6.37819H7.15026C6.66186 6.4495 6.31088 5.93149 6.54713 5.51547L7.68548 3.38652C8.03803 2.75727 8.48457 2.35613 8.98747 2.11503C9.48712 1.87548 10.0296 1.8 10.567 1.8C11.0753 1.8 11.5772 1.94711 12.0127 2.17432L12.0268 2.18168L12.0396 2.19118C12.0677 2.21211 12.1382 2.25368 12.2276 2.30601L12.2368 2.31142C12.3095 2.35393 12.3965 2.40481 12.4465 2.44127C13.5636 3.17141 13.8677 4.48871 13.4894 6.25709Z" fill="#545FD9"/>
<path d="M14.0189 8.09207L14.9797 8.05317C15.1958 8.05317 15.3521 7.87774 15.3329 7.66265C15.313 7.44755 15.1567 7.29197 14.9406 7.31103L13.9798 7.34993C13.7637 7.34993 13.6074 7.52536 13.6266 7.74045C13.6465 7.95555 13.8036 8.11113 14.0189 8.09207Z" fill="#545FD9"/>
<path fill-rule="evenodd" clip-rule="evenodd" d="M15.333 7.66265C15.3521 7.87774 15.1958 8.05317 14.9797 8.05317L14.0189 8.09207C13.8036 8.11113 13.6466 7.95554 13.6266 7.74045C13.6075 7.52535 13.7638 7.34992 13.9799 7.34992L14.9407 7.31103C15.1567 7.29197 15.3131 7.44755 15.333 7.66265ZM14.9283 7.11136C15.2698 7.08401 15.504 7.34057 15.5321 7.64421L15.5322 7.64492L15.5322 7.64492C15.5613 7.97238 15.3186 8.25071 14.9842 8.25315L14.0314 8.29173C13.6907 8.31908 13.4556 8.06274 13.4275 7.75889L13.4274 7.75818L13.4274 7.75818C13.3983 7.43072 13.641 7.15239 13.9754 7.14994L14.9283 7.11136Z" fill="#545FD9"/>
<path d="M15.7651 9.94706L13.7836 9.14618C13.5875 9.06838 13.3714 9.16601 13.2933 9.36128C13.2151 9.55655 13.3132 9.77164 13.5093 9.84943L15.4908 10.6503C15.687 10.7281 15.9031 10.6305 15.9812 10.4352C16.0394 10.2399 15.9613 10.0249 15.7651 9.94706Z" fill="#545FD9"/>
<path fill-rule="evenodd" clip-rule="evenodd" d="M15.4909 10.6503L13.5094 9.84943C13.3132 9.77164 13.2152 9.55655 13.2933 9.36128C13.3715 9.16601 13.5875 9.06838 13.7837 9.14618L15.7652 9.94706C15.9613 10.0249 16.0395 10.24 15.9813 10.4352C15.9031 10.6305 15.687 10.7281 15.4909 10.6503ZM15.8396 9.76141C16.1496 9.88479 16.2548 10.2178 16.1729 10.4924L16.1703 10.5011L16.1669 10.5095C16.0493 10.8034 15.7194 10.9561 15.4171 10.8362L15.4159 10.8357L15.4159 10.8357L13.435 10.0351C13.1413 9.91819 12.9865 9.58961 13.1076 9.28697C13.2252 8.99306 13.5552 8.84039 13.8574 8.96027L13.8586 8.96075L13.8586 8.96076L15.8396 9.76141Z" fill="#545FD9"/>
<path d="M13.1171 10.5916C12.98 10.4352 12.7448 10.4352 12.5877 10.5717C12.4306 10.7083 12.4306 10.9424 12.5678 11.0988L13.4505 12.0163C13.5876 12.1727 13.8228 12.1727 13.9799 12.0362C14.137 11.8996 14.137 11.6655 13.9998 11.5091L13.1171 10.5916Z" fill="#545FD9"/>
<path fill-rule="evenodd" clip-rule="evenodd" d="M12.4563 10.4208C12.6833 10.2235 13.0438 10.2091 13.264 10.4559L14.1502 11.3771C14.3498 11.6048 14.3632 11.9678 14.1109 12.1871C13.884 12.3844 13.5235 12.3988 13.3033 12.152L12.4171 11.2308C12.2174 11.0031 12.2041 10.6401 12.4563 10.4208ZM13.4503 12.0163C13.5874 12.1727 13.8227 12.1727 13.9797 12.0362C14.1368 11.8996 14.1368 11.6655 13.9996 11.5091L13.117 10.5916C12.9798 10.4352 12.7446 10.4352 12.5875 10.5717C12.4305 10.7083 12.4305 10.9424 12.5676 11.0988L13.4503 12.0163Z" fill="#545FD9"/>
</svg>
