<svg width="18" height="18" viewBox="0 0 18 18" fill="none" xmlns="http://www.w3.org/2000/svg">
<path fill-rule="evenodd" clip-rule="evenodd" d="M5.98848 5.24177C6.37887 5.08105 6.79712 4.9989 7.21929 5.00001C7.21954 5.00001 7.21904 5.00001 7.21929 5.00001L10.5 5C10.7761 5 11 5.22386 11 5.5C11 5.77614 10.7761 6 10.5 6L7.21716 6.00001C6.9263 5.99918 6.63813 6.05574 6.36917 6.16647C6.10021 6.2772 5.85574 6.43991 5.64978 6.64529C5.44381 6.85067 5.28039 7.09467 5.16889 7.36331C5.05739 7.63195 5 7.91996 5 8.21082V11.5C5 11.7761 4.77614 12 4.5 12C4.22386 12 4 11.7761 4 11.5V8.21082C4 7.7884 4.08335 7.37012 4.24529 6.97996C4.40722 6.58981 4.64455 6.23544 4.94368 5.93717C5.24281 5.6389 5.59786 5.40258 5.98848 5.24177Z" fill="#F7F7F7"/>
<path fill-rule="evenodd" clip-rule="evenodd" d="M12.0115 12.7582C11.6211 12.919 11.2029 13.0011 10.7807 13L7.5 13C7.22386 13 7 12.7761 7 12.5C7 12.2239 7.22386 12 7.5 12L10.7828 12C11.0737 12.0008 11.3619 11.9443 11.6308 11.8335C11.8998 11.7228 12.1443 11.5601 12.3502 11.3547C12.5562 11.1493 12.7196 10.9053 12.8311 10.6367C12.9426 10.368 13 10.08 13 9.78918L13 6.5C13 6.22386 13.2239 6 13.5 6C13.7761 6 14 6.22386 14 6.5L14 9.78918C14 10.2116 13.9166 10.6299 13.7547 11.02C13.5928 11.4102 13.3554 11.7646 13.0563 12.0628C12.7572 12.3611 12.4021 12.5974 12.0115 12.7582Z" fill="#F7F7F7"/>
<path fill-rule="evenodd" clip-rule="evenodd" d="M10.8536 5.14645C11.0488 5.34171 11.0488 5.65829 10.8536 5.85355L8.85355 7.85355C8.65829 8.04882 8.34171 8.04882 8.14645 7.85355C7.95118 7.65829 7.95118 7.34171 8.14645 7.14645L10.1464 5.14645C10.3417 4.95118 10.6583 4.95118 10.8536 5.14645Z" fill="#F7F7F7"/>
<path fill-rule="evenodd" clip-rule="evenodd" d="M7.14645 12.8536C6.95118 12.6583 6.95118 12.3417 7.14645 12.1464L9.14645 10.1464C9.34171 9.95118 9.65829 9.95118 9.85355 10.1464C10.0488 10.3417 10.0488 10.6583 9.85355 10.8536L7.85355 12.8536C7.65829 13.0488 7.34171 13.0488 7.14645 12.8536Z" fill="#F7F7F7"/>
<path fill-rule="evenodd" clip-rule="evenodd" d="M10.8536 5.85355C10.6583 6.04882 10.3417 6.04882 10.1464 5.85355L8.14645 3.85355C7.95118 3.65829 7.95118 3.34171 8.14645 3.14645C8.34171 2.95118 8.65829 2.95118 8.85355 3.14645L10.8536 5.14645C11.0488 5.34171 11.0488 5.65829 10.8536 5.85355Z" fill="#F7F7F7"/>
<path fill-rule="evenodd" clip-rule="evenodd" d="M7.14645 12.1464C7.34171 11.9512 7.65829 11.9512 7.85355 12.1464L9.85355 14.1464C10.0488 14.3417 10.0488 14.6583 9.85355 14.8536C9.65829 15.0488 9.34171 15.0488 9.14645 14.8536L7.14645 12.8536C6.95118 12.6583 6.95118 12.3417 7.14645 12.1464Z" fill="#F7F7F7"/>
</svg>
