<svg width="18" height="18" viewBox="0 0 18 18" fill="none" xmlns="http://www.w3.org/2000/svg">
<path fill-rule="evenodd" clip-rule="evenodd" d="M11.3536 6.64646C11.5488 6.84172 11.5488 7.15831 11.3536 7.35357L7.35355 11.3536C7.15829 11.5488 6.84171 11.5488 6.64645 11.3536C6.45118 11.1583 6.45118 10.8417 6.64645 10.6465L10.6464 6.64646C10.8417 6.4512 11.1583 6.4512 11.3536 6.64646Z" fill="#FFAE93"/>
<path fill-rule="evenodd" clip-rule="evenodd" d="M10.8282 2.70711C11.6093 1.92606 12.8756 1.92606 13.6566 2.70711L15.0701 4.12058C15.8512 4.90163 15.8512 6.16796 15.0701 6.949L12.9488 9.07033C12.1677 9.85137 10.9014 9.85137 10.1204 9.07033L8.7069 7.65685C7.92585 6.87581 7.92585 5.60947 8.7069 4.82843L10.8282 2.70711ZM12.9495 3.41421C12.559 3.02369 11.9258 3.02369 11.5353 3.41421L9.414 5.53553C9.02348 5.92606 9.02348 6.55922 9.414 6.94975L10.8275 8.36322C11.218 8.75374 11.8512 8.75374 12.2417 8.36322L14.363 6.2419C14.7535 5.85137 14.7535 5.21821 14.363 4.82768L12.9495 3.41421Z" fill="#FFAE93"/>
<path fill-rule="evenodd" clip-rule="evenodd" d="M5.12119 8.70712C5.90224 7.92607 7.16857 7.92607 7.94961 8.70712L9.36309 10.1206C10.1441 10.9016 10.1441 12.168 9.36309 12.949L7.24177 15.0703C6.46072 15.8514 5.19439 15.8514 4.41334 15.0703L2.99987 13.6569C2.21882 12.8758 2.21882 11.6095 2.99987 10.8284L5.12119 8.70712ZM7.24251 9.41423C6.85198 9.0237 6.21882 9.0237 5.82829 9.41423L3.70697 11.5355C3.31645 11.9261 3.31645 12.5592 3.70697 12.9498L5.12045 14.3632C5.51097 14.7538 6.14413 14.7538 6.53466 14.3632L8.65598 12.2419C9.0465 11.8514 9.0465 11.2182 8.65598 10.8277L7.24251 9.41423Z" fill="#FFAE93"/>
</svg>
