<svg width="18" height="18" viewBox="0 0 18 18" fill="none" xmlns="http://www.w3.org/2000/svg">
<g opacity="0.4">
<path fill-rule="evenodd" clip-rule="evenodd" d="M11.3536 6.64646C11.5488 6.84172 11.5488 7.15831 11.3536 7.35357L7.35355 11.3536C7.15829 11.5488 6.84171 11.5488 6.64645 11.3536C6.45118 11.1583 6.45118 10.8417 6.64645 10.6465L10.6464 6.64646C10.8417 6.4512 11.1583 6.4512 11.3536 6.64646Z" fill="#545FD9"/>
<path fill-rule="evenodd" clip-rule="evenodd" d="M10.8282 2.70711C11.6093 1.92606 12.8756 1.92606 13.6566 2.70711L15.0701 4.12058C15.8512 4.90163 15.8512 6.16796 15.0701 6.949L12.8881 9.13099C12.6929 9.32625 12.3763 9.32625 12.181 9.13099C11.9858 8.93572 11.9858 8.61914 12.181 8.42388L14.363 6.2419C14.7535 5.85137 14.7535 5.21821 14.363 4.82768L12.9495 3.41421C12.559 3.02369 11.9258 3.02369 11.5353 3.41421L9.35334 5.59619C9.15808 5.79146 8.8415 5.79146 8.64624 5.59619C8.45098 5.40093 8.45098 5.08435 8.64624 4.88909L10.8282 2.70711Z" fill="#545FD9"/>
<path fill-rule="evenodd" clip-rule="evenodd" d="M5.88895 8.64646C6.08422 8.84172 6.08422 9.15831 5.88895 9.35357L3.70697 11.5355C3.31645 11.9261 3.31645 12.5592 3.70697 12.9498L5.12044 14.3632C5.51097 14.7538 6.14413 14.7538 6.53466 14.3632L8.71664 12.1813C8.9119 11.986 9.22848 11.986 9.42375 12.1813C9.61901 12.3765 9.61901 12.6931 9.42375 12.8884L7.24177 15.0703C6.46072 15.8514 5.19439 15.8514 4.41334 15.0703L2.99987 13.6569C2.21882 12.8758 2.21882 11.6095 2.99987 10.8284L5.18185 8.64646C5.37711 8.4512 5.69369 8.4512 5.88895 8.64646Z" fill="#545FD9"/>
</g>
</svg>
