<svg width="18" height="18" viewBox="0 0 18 18" fill="none" xmlns="http://www.w3.org/2000/svg">
<path fill-rule="evenodd" clip-rule="evenodd" d="M13 12.738V15C13 15.553 12.553 16 12 16H6C5.447 16 5 15.553 5 15V12C5 11.982 5.004 11.967 5.005 11.95C3.309 11.708 2 10.264 2 8.5C2 6.567 3.566 5 5.5 5C6.398 5 7.209 5.348 7.828 5.904C8.644 4.753 9.982 4 11.5 4C13.985 4 16 6.015 16 8.5C16 10.459 14.746 12.12 13 12.738V12.738ZM11.5 5C10.219 5 9.109 5.696 8.5 6.724C8.811 7.246 9 7.849 9 8.5C9 8.776 8.775 9 8.5 9C8.224 9 8 8.776 8 8.5C8 7.119 6.881 6 5.5 6C4.119 6 3 7.119 3 8.5C3 9.881 4.119 11 5.5 11C6.111 11 6 11.814 6 11.949V15H12V12.971C11.836 12.989 11.669 13 11.5 13C10.452 13 10 13 10 13C10 13 9.775 13 9.5 13C9.224 13 9 12.776 9 12.5C9 12.224 9.224 12 9.5 12C9.515 12 9.537 12 9.556 12H10C10 12 10.58 12 11.5 12C13.434 12 15 10.433 15 8.5C15 6.567 13.434 5 11.5 5V5Z" fill="#FFAE93"/>
</svg>
