<svg width="18" height="18" viewBox="0 0 18 18" fill="none" xmlns="http://www.w3.org/2000/svg">
<path fill-rule="evenodd" clip-rule="evenodd" d="M11.3538 6.64645C11.5491 6.84171 11.5491 7.15829 11.3538 7.35355L7.3538 11.3536C7.15854 11.5488 6.84195 11.5488 6.64669 11.3536C6.45143 11.1583 6.45143 10.8417 6.64669 10.6464L10.6467 6.64645C10.842 6.45118 11.1585 6.45118 11.3538 6.64645Z" fill="#252525"/>
<path fill-rule="evenodd" clip-rule="evenodd" d="M10.8285 2.70709C11.6095 1.92604 12.8758 1.92604 13.6569 2.70709L15.0704 4.12056C15.8514 4.90161 15.8514 6.16794 15.0704 6.94899L12.949 9.07031C12.168 9.85136 10.9017 9.85136 10.1206 9.07031L8.70714 7.65684C7.92609 6.87579 7.92609 5.60946 8.70714 4.82841L10.8285 2.70709ZM12.9498 3.4142C12.5593 3.02367 11.9261 3.02367 11.5356 3.4142L9.41425 5.53552C9.02372 5.92604 9.02372 6.55921 9.41425 6.94973L10.8277 8.3632C11.2182 8.75373 11.8514 8.75373 12.2419 8.3632L14.3633 6.24188C14.7538 5.85136 14.7538 5.21819 14.3633 4.82767L12.9498 3.4142Z" fill="#252525"/>
<path fill-rule="evenodd" clip-rule="evenodd" d="M5.12143 8.70711C5.90248 7.92606 7.16881 7.92606 7.94986 8.70711L9.36333 10.1206C10.1444 10.9016 10.1444 12.168 9.36333 12.949L7.24201 15.0703C6.46096 15.8514 5.19463 15.8514 4.41358 15.0703L3.00011 13.6569C2.21906 12.8758 2.21906 11.6095 3.00011 10.8284L5.12143 8.70711ZM7.24275 9.41421C6.85223 9.02369 6.21906 9.02369 5.82854 9.41421L3.70722 11.5355C3.31669 11.9261 3.31669 12.5592 3.70722 12.9497L5.12069 14.3632C5.51121 14.7537 6.14438 14.7537 6.5349 14.3632L8.65622 12.2419C9.04675 11.8514 9.04675 11.2182 8.65622 10.8277L7.24275 9.41421Z" fill="#252525"/>
</svg>
