<svg width="18" height="18" viewBox="0 0 18 18" fill="none" xmlns="http://www.w3.org/2000/svg">
<path fill-rule="evenodd" clip-rule="evenodd" d="M13.7546 5.26183C13.6831 5.52843 13.4088 5.68682 13.1422 5.61538L3.48293 3.02719C3.21634 2.95576 3.05795 2.68142 3.12938 2.41482C3.20081 2.14822 3.47516 1.98983 3.74175 2.06127L6.15657 2.70831L6.41539 1.74239C6.55825 1.2092 7.10694 0.892414 7.64013 1.03528L10.5379 1.81174C11.0711 1.95461 11.3879 2.50329 11.245 3.03648L10.9862 4.00241L13.401 4.64946C13.6676 4.72089 13.826 4.99523 13.7546 5.26183ZM7.38131 2.00121L10.2791 2.77767L10.0203 3.74359L7.12249 2.96713L7.38131 2.00121Z" fill="#CC8B76"/>
<path d="M5 15.5C4.72414 15.5 4.5 15.2759 4.5 15V6.5H12.5V15C12.5 15.2759 12.2759 15.5 12 15.5H5Z" stroke="#CC8B76"/>
<path d="M6.49999 9.49998L10.5 13.5" stroke="#CC8B76" stroke-linecap="round"/>
<path d="M10.5 9.49998L6.5 13.5" stroke="#CC8B76" stroke-linecap="round"/>
</svg>
