<svg width="18" height="18" viewBox="0 0 18 18" fill="none" xmlns="http://www.w3.org/2000/svg">
<path opacity="0.4" d="M12.5 5.5H4.5L1.5 8.21069V8.5M12.5 5.5L12.5 13.5L9.80623 16.5H9.5M12.5 5.5L9.5 8.5M9.5 8.5H1.5M9.5 8.5V16.5M1.5 8.5V16.5H9.5" stroke="#252525"/>
<path opacity="0.4" d="M16.5 7C16.5 10.0376 14.0376 12.5 11 12.5C7.96243 12.5 5.5 10.0376 5.5 7C5.5 3.96243 7.96243 1.5 11 1.5C14.0376 1.5 16.5 3.96243 16.5 7Z" stroke="#252525"/>
<path d="M5.70703 5.5V5H5.32884L5.22591 5.36392L5.70703 5.5ZM12.5 5.5L13 5.5L13 5H12.5V5.5ZM12.5 12.293L12.6361 12.7741L13 12.6712L13 12.293L12.5 12.293ZM5.70703 6H12.5V5H5.70703V6ZM12 5.5L12 12.293L13 12.293L13 5.5L12 5.5ZM12.3639 11.8118C11.9309 11.9343 11.4736 12 11 12V13C11.5665 13 12.1154 12.9214 12.6361 12.7741L12.3639 11.8118ZM11 12C8.23858 12 6 9.76142 6 7H5C5 10.3137 7.68629 13 11 13V12ZM6 7C6 6.52645 6.06569 6.06907 6.18816 5.63608L5.22591 5.36392C5.07864 5.88459 5 6.43353 5 7H6ZM9.85355 8.85355L12.8536 5.85355L12.1465 5.14645L9.14645 8.14645L9.85355 8.85355ZM9.5 8H5.70703V9H9.5V8ZM9 8.5V12.293H10V8.5H9Z" fill="#252525"/>
</svg>
