<svg width="18" height="18" viewBox="0 0 18 18" fill="none" xmlns="http://www.w3.org/2000/svg">
<path opacity="0.4" d="M12.5 12.293C14.8085 11.64 16.5 9.51755 16.5 7C16.5 3.96243 14.0376 1.5 11 1.5C8.48244 1.5 6.35996 3.1915 5.70703 5.5" stroke="#F7F7F7"/>
<path opacity="0.4" d="M5.70703 5.5H12.5M12.5 5.5L12.5 12.293M12.5 5.5L9.5 8.5M9.5 8.5H5.70703M9.5 8.5V12.293" stroke="#F7F7F7"/>
<path d="M1.5 8.5V8.21069L4.5 5.5H5.70703C5.57217 5.97683 5.5 6.47999 5.5 7C5.5 10.0376 7.96243 12.5 11 12.5C11.52 12.5 12.0232 12.4278 12.5 12.293L12.5 13.5L9.80623 16.5H9.5M1.5 8.5V16.5H9.5M1.5 8.5H5.70703M9.5 16.5V12.293" stroke="#F7F7F7"/>
</svg>
