<svg width="18" height="18" viewBox="0 0 18 18" fill="none" xmlns="http://www.w3.org/2000/svg">
<circle opacity="0.4" cx="11" cy="7" r="5.5" stroke="#F7F7F7"/>
<path opacity="0.4" d="M12.5 5.5H4.5L1.5 8.5M12.5 5.5L12.5 13.5L9.5 16.5M12.5 5.5L9.5 8.5M1.5 8.5V16.5H9.5M1.5 8.5H9.5M9.5 8.5V16.5" stroke="#F7F7F7"/>
<path d="M12.5 12.293C14.8085 11.64 16.5 9.51755 16.5 7C16.5 3.96243 14.0376 1.5 11 1.5C8.48245 1.5 6.35996 3.1915 5.70703 5.5H4.5L1.5 8.5V16.5L9.5 16.5L12.5 13.5L12.5 12.293Z" stroke="#F7F7F7"/>
</svg>
