<svg width="18" height="18" viewBox="0 0 18 18" fill="none" xmlns="http://www.w3.org/2000/svg">
<path fill-rule="evenodd" clip-rule="evenodd" d="M15.008 16H12.008V15H15.008V12H16.008V16H15.008V16ZM15.016 4H12.008V3H16.008V7H15.008L15.016 4V4ZM12.508 10H10.008V12.5C10.008 12.776 9.784 13 9.508 13C9.233 13 9.008 12.776 9.008 12.5V10H6.508C6.233 10 6.008 9.776 6.008 9.5C6.008 9.224 6.233 9 6.508 9H9.008V6.5C9.008 6.224 9.233 6 9.508 6C9.784 6 10.008 6.224 10.008 6.5V9H12.508C12.783 9 13.008 9.224 13.008 9.5C13.008 9.776 12.783 10 12.508 10V10ZM4.008 7H3.008V3H7.008V4H4.008V7V7ZM4.008 12L4 15H7.008V16H3V15H3.002L3.008 12H4.008V12Z" fill="#FFAE93"/>
</svg>
