<svg width="18" height="18" viewBox="0 0 18 18" fill="none" xmlns="http://www.w3.org/2000/svg">
<path fill-rule="evenodd" clip-rule="evenodd" d="M15.008 16H12.008V15H15.008V12H16.008V16H15.008V16ZM15.016 4.00003H12.008V3.00003H16.008V7.00003H15.008L15.016 4.00003V4.00003ZM12.508 10H10.008V12.5C10.008 12.776 9.784 13 9.508 13C9.233 13 9.008 12.776 9.008 12.5V10H6.508C6.233 10 6.008 9.77603 6.008 9.50003C6.008 9.22403 6.233 9.00003 6.508 9.00003H9.008V6.50003C9.008 6.22403 9.233 6.00003 9.508 6.00003C9.784 6.00003 10.008 6.22403 10.008 6.50003V9.00003H12.508C12.783 9.00003 13.008 9.22403 13.008 9.50003C13.008 9.77603 12.783 10 12.508 10V10ZM4.008 7.00003H3.008V3.00003H7.008V4.00003H4.008V7.00003V7.00003ZM4.008 12L4 15H7.008V16H3V15H3.002L3.008 12H4.008V12Z" fill="#F7F7F7"/>
</svg>
