<svg width="18" height="18" viewBox="0 0 18 18" fill="none" xmlns="http://www.w3.org/2000/svg">
<path fill-rule="evenodd" clip-rule="evenodd" d="M15.008 16H12.008V15H15.008V12H16.008V16H15.008V16ZM15.016 3.99995H12.008V2.99995H16.008V6.99995H15.008L15.016 3.99995V3.99995ZM12.508 9.99995H10.008V12.5C10.008 12.776 9.784 13 9.508 13C9.233 13 9.008 12.776 9.008 12.5V9.99995H6.508C6.233 9.99995 6.008 9.77595 6.008 9.49995C6.008 9.22395 6.233 8.99995 6.508 8.99995H9.008V6.49995C9.008 6.22395 9.233 5.99995 9.508 5.99995C9.784 5.99995 10.008 6.22395 10.008 6.49995V8.99995H12.508C12.783 8.99995 13.008 9.22395 13.008 9.49995C13.008 9.77595 12.783 9.99995 12.508 9.99995V9.99995ZM4.008 6.99995H3.008V2.99995H7.008V3.99995H4.008V6.99995V6.99995ZM4.008 12L4 15H7.008V16H3V15H3.002L3.008 12H4.008V12Z" fill="#545FD9"/>
</svg>
