<svg width="18" height="18" viewBox="0 0 18 18" fill="none" xmlns="http://www.w3.org/2000/svg">
<path fill-rule="evenodd" clip-rule="evenodd" d="M11.7322 2.06066C12.7085 1.08435 14.2914 1.08435 15.2678 2.06066L15.4393 2.23224C16.4156 3.20855 16.4156 4.79146 15.4393 5.76777L13.7071 7.5L14.8535 8.64645L14.1464 9.35356L8.14644 3.35356L8.85354 2.64645L9.99999 3.7929L11.7322 2.06066ZM8.49999 5.2929L11.7071 8.5L8.08304 12.1241C7.89304 12.3141 7.67364 12.4722 7.43331 12.5924L6.01389 13.3021C5.86969 13.3742 5.73805 13.4691 5.62405 13.5831L4.60354 14.6036C3.99407 15.213 3.00591 15.213 2.39644 14.6036C1.78696 13.9941 1.78696 13.0059 2.39644 12.3965L3.41694 11.3759C3.53094 11.2619 3.62582 11.1303 3.69792 10.9861L4.40763 9.56669C4.5278 9.32635 4.68593 9.10696 4.87593 8.91695L8.49999 5.2929ZM8.49999 6.70711L5.58304 9.62406C5.46904 9.73806 5.37416 9.8697 5.30206 10.0139L4.59235 11.4333C4.47218 11.6737 4.31405 11.893 4.12405 12.0831L3.10354 13.1036C2.88459 13.3225 2.88459 13.6775 3.10354 13.8965C3.3225 14.1154 3.67749 14.1154 3.89644 13.8965L4.91694 12.8759C5.10695 12.6859 5.32634 12.5278 5.56668 12.4076L6.98609 11.6979C7.1303 11.6258 7.26193 11.531 7.37593 11.417L10.2929 8.5L8.49999 6.70711Z" fill="#545FD9"/>
</svg>
