<svg width="30" height="30" viewBox="0 0 30 30" fill="none" xmlns="http://www.w3.org/2000/svg">
<path opacity="0.1" fill-rule="evenodd" clip-rule="evenodd" d="M5 0C3.34315 0 2 1.34315 2 3V11H27V7.24264C27 6.44699 26.6839 5.68393 26.1213 5.12132L21.8787 0.87868C21.3161 0.316071 20.553 0 19.7574 0H5ZM27 27H2C2 28.6569 3.34315 30 5 30H24C25.6569 30 27 28.6569 27 27Z" fill="#252525"/>
<rect opacity="0.2" y="11" width="30" height="16" rx="2" fill="#252525"/>
<path opacity="0.2" d="M21 0L27 6H21V0Z" fill="#252525"/>
<path d="M7.86182 23L7.68457 22.2212H7.62012C7.44466 22.4969 7.19401 22.7135 6.86816 22.8711C6.5459 23.0286 6.17708 23.1074 5.76172 23.1074C5.04199 23.1074 4.50488 22.9284 4.15039 22.5703C3.7959 22.2122 3.61865 21.6698 3.61865 20.9429V17.0596H4.8916V20.7227C4.8916 21.1774 4.9847 21.5194 5.1709 21.7485C5.3571 21.9741 5.64893 22.0869 6.04639 22.0869C6.57633 22.0869 6.96484 21.9294 7.21191 21.6143C7.46257 21.2956 7.58789 20.7638 7.58789 20.019V17.0596H8.85547V23H7.86182ZM14.6455 21.3081C14.6455 21.8882 14.4342 22.334 14.0117 22.6455C13.5892 22.9535 12.984 23.1074 12.1963 23.1074C11.4049 23.1074 10.7694 22.9875 10.2896 22.7476V21.6572C10.9878 21.9795 11.6377 22.1406 12.2393 22.1406C13.0163 22.1406 13.4048 21.9061 13.4048 21.437C13.4048 21.2866 13.3618 21.1613 13.2759 21.061C13.1899 20.9608 13.0485 20.8569 12.8516 20.7495C12.6546 20.6421 12.3807 20.5203 12.0298 20.3843C11.3459 20.1193 10.8822 19.8543 10.6387 19.5894C10.3988 19.3244 10.2788 18.9806 10.2788 18.5581C10.2788 18.0496 10.4829 17.6558 10.8911 17.3765C11.3029 17.0936 11.8615 16.9521 12.5669 16.9521C13.2651 16.9521 13.9258 17.0936 14.5488 17.3765L14.1406 18.3271C13.4997 18.0622 12.9608 17.9297 12.5239 17.9297C11.8579 17.9297 11.5249 18.1195 11.5249 18.499C11.5249 18.6852 11.6108 18.8428 11.7827 18.9717C11.9582 19.1006 12.3377 19.2778 12.9214 19.5034C13.4119 19.6932 13.7682 19.8669 13.9902 20.0244C14.2122 20.182 14.377 20.3646 14.4844 20.5723C14.5918 20.7764 14.6455 21.0216 14.6455 21.3081ZM18.0186 23.1074C17.2773 23.1074 16.6991 22.8389 16.2837 22.3018C15.8683 21.7646 15.6606 21.0109 15.6606 20.0405C15.6606 19.0666 15.8701 18.3092 16.2891 17.7686C16.7116 17.2243 17.2952 16.9521 18.04 16.9521C18.8206 16.9521 19.415 17.2404 19.8232 17.8169H19.8877C19.8268 17.3908 19.7964 17.0542 19.7964 16.8071V14.6426H21.064V23H20.0757L19.8555 22.2212H19.7964C19.3918 22.812 18.7992 23.1074 18.0186 23.1074ZM18.3569 22.0869C18.8761 22.0869 19.2539 21.9419 19.4902 21.6519C19.7266 21.3582 19.8483 20.8838 19.8555 20.2285V20.0513C19.8555 19.3029 19.7337 18.7712 19.4902 18.4561C19.2467 18.141 18.8654 17.9834 18.3462 17.9834C17.9022 17.9834 17.5602 18.1642 17.3203 18.5259C17.0804 18.884 16.9604 19.396 16.9604 20.062C16.9604 20.7209 17.0768 21.224 17.3096 21.5713C17.5423 21.915 17.8914 22.0869 18.3569 22.0869ZM26.8379 23H22.3315V22.2212L25.334 18.0264H22.5142V17.0596H26.752V17.9404L23.814 22.0332H26.8379V23Z" fill="#252525"/>
</svg>
