<svg width="30" height="30" viewBox="0 0 30 30" fill="none" xmlns="http://www.w3.org/2000/svg">
<path opacity="0.1" d="M2 3C2 1.34315 3.34315 0 5 0H19.7574C20.553 0 21.3161 0.316071 21.8787 0.87868L26.1213 5.12132C26.6839 5.68393 27 6.44699 27 7.24264V27C27 28.6569 25.6569 30 24 30H5C3.34315 30 2 28.6569 2 27V3Z" fill="#252525"/>
<rect y="11" width="30" height="16" rx="2" fill="#F7F7F7"/>
<rect opacity="0.2" x="0.5" y="11.5" width="29" height="15" rx="1.5" stroke="#252525"/>
<path opacity="0.2" d="M21 0L27 6H21V0Z" fill="#252525"/>
<path d="M10.4292 18.0156H8.979V23H7.71143V18.0156H6.73389V17.4248L7.71143 17.0381V16.6514C7.71143 15.9495 7.87614 15.4303 8.20557 15.0938C8.53499 14.7536 9.03809 14.5835 9.71484 14.5835C10.1589 14.5835 10.5957 14.6569 11.0254 14.8037L10.6924 15.7598C10.3809 15.6595 10.0837 15.6094 9.80078 15.6094C9.51432 15.6094 9.30485 15.6989 9.17236 15.8779C9.04346 16.0534 8.979 16.3184 8.979 16.6729V17.0596H10.4292V18.0156ZM14.479 16.9521C15.2202 16.9521 15.7967 17.2207 16.2085 17.7578C16.6239 18.2949 16.8315 19.0487 16.8315 20.019C16.8315 20.993 16.6221 21.7521 16.2031 22.2964C15.7842 22.8371 15.2023 23.1074 14.4575 23.1074C13.7056 23.1074 13.1219 22.8371 12.7065 22.2964H12.6206L12.3896 23H11.4443V14.6426H12.7065V16.6299C12.7065 16.7767 12.6994 16.9951 12.6851 17.2852C12.6707 17.5752 12.66 17.7596 12.6528 17.8384H12.7065C13.1076 17.2476 13.6984 16.9521 14.479 16.9521ZM14.1514 17.9834C13.6429 17.9834 13.2759 18.1338 13.0503 18.4346C12.8283 18.7318 12.7137 19.2313 12.7065 19.9331V20.019C12.7065 20.7424 12.8211 21.2669 13.0503 21.5928C13.2795 21.915 13.6536 22.0762 14.1729 22.0762C14.6204 22.0762 14.9588 21.8989 15.188 21.5444C15.4207 21.1899 15.5371 20.6779 15.5371 20.0083C15.5371 18.6584 15.0752 17.9834 14.1514 17.9834ZM19.6191 19.9653L17.6265 17.0596H19.0659L20.4194 19.1382L21.7837 17.0596H23.2124L21.2144 19.9653L23.3145 23H21.8857L20.4194 20.7764L18.9585 23H17.5298L19.6191 19.9653Z" fill="#252525"/>
</svg>
