<svg width="30" height="30" viewBox="0 0 30 30" fill="none" xmlns="http://www.w3.org/2000/svg">
<path opacity="0.1" d="M2 3C2 1.34315 3.34315 0 5 0H19.7574C20.553 0 21.3161 0.316071 21.8787 0.87868L26.1213 5.12132C26.6839 5.68393 27 6.44699 27 7.24264V27C27 28.6569 25.6569 30 24 30H5C3.34315 30 2 28.6569 2 27V3Z" fill="#252525"/>
<rect y="11" width="30" height="16" rx="2" fill="#F7F7F7"/>
<rect opacity="0.2" x="0.5" y="11.5" width="29" height="15" rx="1.5" stroke="#252525"/>
<path opacity="0.2" d="M21 0L27 6H21V0Z" fill="#252525"/>
<path d="M8.11963 23.1074C7.37842 23.1074 6.80013 22.8389 6.38477 22.3018C5.9694 21.7646 5.76172 21.0109 5.76172 20.0405C5.76172 19.0666 5.97119 18.3092 6.39014 17.7686C6.81266 17.2243 7.39632 16.9521 8.14111 16.9521C8.92171 16.9521 9.51611 17.2404 9.92432 17.8169H9.98877C9.9279 17.3908 9.89746 17.0542 9.89746 16.8071V14.6426H11.165V23H10.1768L9.95654 22.2212H9.89746C9.49284 22.812 8.90023 23.1074 8.11963 23.1074ZM8.45801 22.0869C8.97721 22.0869 9.35498 21.9419 9.59131 21.6519C9.82764 21.3582 9.94938 20.8838 9.95654 20.2285V20.0513C9.95654 19.3029 9.8348 18.7712 9.59131 18.4561C9.34782 18.141 8.96647 17.9834 8.44727 17.9834C8.00326 17.9834 7.6613 18.1642 7.42139 18.5259C7.18148 18.884 7.06152 19.396 7.06152 20.062C7.06152 20.7209 7.1779 21.224 7.41064 21.5713C7.64339 21.915 7.99251 22.0869 8.45801 22.0869ZM16.6865 23L16.4341 22.1729H16.3911C16.1047 22.5345 15.8164 22.7816 15.5264 22.9141C15.2363 23.043 14.8639 23.1074 14.4092 23.1074C13.8255 23.1074 13.369 22.9499 13.0396 22.6348C12.7137 22.3197 12.5508 21.8739 12.5508 21.2974C12.5508 20.6851 12.7782 20.2231 13.2329 19.9116C13.6877 19.6001 14.3805 19.43 15.3115 19.4014L16.3374 19.3691V19.0522C16.3374 18.6727 16.2479 18.3898 16.0688 18.2036C15.8934 18.0138 15.6195 17.9189 15.2471 17.9189C14.9427 17.9189 14.6509 17.9637 14.3716 18.0532C14.0923 18.1427 13.8237 18.2484 13.5659 18.3701L13.1577 17.4678C13.48 17.2995 13.8327 17.1724 14.2158 17.0864C14.599 16.9969 14.9606 16.9521 15.3008 16.9521C16.0563 16.9521 16.6257 17.1169 17.0088 17.4463C17.3955 17.7757 17.5889 18.2931 17.5889 18.9985V23H16.6865ZM14.8066 22.1406C15.265 22.1406 15.632 22.0135 15.9077 21.7593C16.187 21.5015 16.3267 21.1416 16.3267 20.6797V20.1641L15.564 20.1963C14.9696 20.2178 14.5363 20.318 14.2642 20.4971C13.9956 20.6725 13.8613 20.9429 13.8613 21.3081C13.8613 21.5731 13.9401 21.779 14.0977 21.9258C14.2552 22.069 14.4915 22.1406 14.8066 22.1406ZM21.9448 23.1074C21.021 23.1074 20.2977 22.8389 19.7749 22.3018C19.2557 21.7611 18.9961 21.0181 18.9961 20.0728C18.9961 19.1024 19.2378 18.3397 19.7212 17.7847C20.2046 17.2297 20.8688 16.9521 21.7139 16.9521C22.498 16.9521 23.1175 17.1903 23.5723 17.6665C24.027 18.1427 24.2544 18.798 24.2544 19.6323V20.3145H20.2959C20.3138 20.891 20.4696 21.335 20.7632 21.6465C21.0568 21.9544 21.4704 22.1084 22.0039 22.1084C22.3548 22.1084 22.6807 22.0762 22.9814 22.0117C23.2858 21.9437 23.6117 21.8327 23.959 21.6787V22.7046C23.651 22.8514 23.3395 22.9552 23.0244 23.0161C22.7093 23.077 22.3494 23.1074 21.9448 23.1074ZM21.7139 17.9082C21.3128 17.9082 20.9906 18.0353 20.7471 18.2896C20.5072 18.5438 20.3639 18.9144 20.3174 19.4014H23.0137C23.0065 18.9108 22.8883 18.5402 22.6592 18.2896C22.43 18.0353 22.1149 17.9082 21.7139 17.9082Z" fill="#252525"/>
</svg>
