<svg width="30" height="72" viewBox="0 0 30 72" fill="none" xmlns="http://www.w3.org/2000/svg">
<path opacity="0.4" d="M14.3969 6.00507C14.2856 6.01846 14.1766 6.05193 14.0782 6.10325L1.48152 12.3871C1.18512 12.5355 1 12.8278 1 13.1457C1 13.4649 1.18511 13.756 1.48152 13.9044L4.82745 15.5736L1.48152 17.2427C1.18512 17.3911 1 17.6835 1 18.0014C1 18.3205 1.18511 18.6117 1.48152 18.7601L4.82745 20.4293L1.48152 22.0984C1.18512 22.2468 1 22.5391 1 22.8571C1 23.1762 1.18511 23.4674 1.48152 23.6158L14.0782 29.8996C14.3418 30.0335 14.6582 30.0335 14.9218 29.8996L27.5185 23.6158C27.8149 23.4674 28 23.1762 28 22.8571C28 22.5391 27.8149 22.2468 27.5185 22.0984L24.1725 20.4293L27.5185 18.7601C27.8149 18.6117 28 18.3205 28 18.0014C28 17.6834 27.8149 17.3911 27.5185 17.2427L24.1725 15.5736L27.5185 13.9044C27.8149 13.756 28 13.4648 28 13.1457C28 12.8278 27.8149 12.5354 27.5185 12.3871L14.9218 6.10325C14.7613 6.02069 14.5785 5.9861 14.3969 6.00507ZM14.5 7.83486L25.1565 13.1458L14.5 18.4568L3.84348 13.1458L14.5 7.83486ZM6.76772 16.5376L14.0783 20.1883C14.3419 20.3221 14.6582 20.3221 14.9218 20.1883L22.2324 16.5376L25.1567 18.0015L14.5002 23.3125L3.84363 18.0015L6.76772 16.5376ZM6.76772 21.3933L14.0783 25.0439C14.3419 25.1778 14.6582 25.1778 14.9218 25.0439L22.2324 21.3933L25.1567 22.8572L14.5002 28.1681L3.84363 22.8572L6.76772 21.3933Z" fill="#252525"/>
<path d="M14.3969 42.0051C14.2856 42.0185 14.1766 42.0519 14.0782 42.1033L1.48152 48.3871C1.18512 48.5355 1 48.8278 1 49.1457C1 49.4649 1.18511 49.756 1.48152 49.9044L4.82745 51.5736L1.48152 53.2427C1.18512 53.3911 1 53.6835 1 54.0014C1 54.3205 1.18511 54.6117 1.48152 54.7601L4.82745 56.4293L1.48152 58.0984C1.18512 58.2468 1 58.5391 1 58.8571C1 59.1762 1.18511 59.4674 1.48152 59.6158L14.0782 65.8996C14.3418 66.0335 14.6582 66.0335 14.9218 65.8996L27.5185 59.6158C27.8149 59.4674 28 59.1762 28 58.8571C28 58.5391 27.8149 58.2468 27.5185 58.0984L24.1725 56.4293L27.5185 54.7601C27.8149 54.6117 28 54.3205 28 54.0014C28 53.6834 27.8149 53.3911 27.5185 53.2427L24.1725 51.5736L27.5185 49.9044C27.8149 49.756 28 49.4648 28 49.1457C28 48.8278 27.8149 48.5354 27.5185 48.3871L14.9218 42.1033C14.7613 42.0207 14.5785 41.9861 14.3969 42.0051ZM14.5 43.8349L25.1565 49.1458L14.5 54.4568L3.84348 49.1458L14.5 43.8349ZM6.76772 52.5376L14.0783 56.1883C14.3419 56.3221 14.6582 56.3221 14.9218 56.1883L22.2324 52.5376L25.1567 54.0015L14.5002 59.3125L3.84363 54.0015L6.76772 52.5376ZM6.76772 57.3933L14.0783 61.0439C14.3419 61.1778 14.6582 61.1778 14.9218 61.0439L22.2324 57.3933L25.1567 58.8572L14.5002 64.1681L3.84363 58.8572L6.76772 57.3933Z" fill="#F7F7F7"/>
</svg>
