<svg width="30" height="30" viewBox="0 0 30 30" fill="none" xmlns="http://www.w3.org/2000/svg">
<path d="M7.07337 20.1135C6.56711 19.7634 6.05348 19.4364 5.57252 19.0654C4.32059 18.1084 3.28063 16.9639 2.6435 15.509C1.60884 13.1507 1.84191 10.8743 3.19828 8.70975C4.60525 6.46465 6.6935 5.06003 9.13947 4.16598C13.1939 2.68289 17.2955 2.6095 21.3953 3.97522C23.7937 4.77391 25.8841 6.05577 27.4334 8.10068C29.6546 11.0356 29.4996 14.7878 27.059 17.5695C25.0814 19.823 22.5237 21.0472 19.656 21.7212C17.652 22.1929 15.6218 22.2705 13.5747 22.0923C13.4006 22.0776 13.1781 22.1856 13.0346 22.3019C10.8514 24.1278 8.34655 25.2827 5.56415 25.8655C5.31102 25.9179 5.05157 25.9514 4.79525 25.9881C4.47041 26.0353 4.20462 25.9462 4.03797 25.6444C3.87238 25.3425 3.9325 25.0679 4.13922 24.8184C4.3797 24.5291 4.6244 24.242 4.887 23.9757C5.94804 22.9045 6.70211 21.5705 7.07337 20.1135Z" stroke="#F7F7F7" stroke-width="2"/>
</svg>
