<svg width="30" height="30" viewBox="0 0 30 30" fill="none" xmlns="http://www.w3.org/2000/svg">
<path opacity="0.1" fill-rule="evenodd" clip-rule="evenodd" d="M5 0C3.34315 0 2 1.34315 2 3V11H27V7.24264C27 6.44699 26.6839 5.68393 26.1213 5.12132L21.8787 0.87868C21.3161 0.316071 20.553 0 19.7574 0H5ZM27 27H2C2 28.6569 3.34315 30 5 30H24C25.6569 30 27 28.6569 27 27Z" fill="#252525"/>
<rect opacity="0.2" y="11" width="30" height="16" rx="2" fill="#252525"/>
<path opacity="0.2" d="M21 0L27 6H21V0Z" fill="#252525"/>
<path d="M12.8462 20.019C12.8462 20.9894 12.5973 21.7467 12.0996 22.291C11.6019 22.8353 10.909 23.1074 10.021 23.1074C9.46598 23.1074 8.97542 22.9821 8.54932 22.7314C8.12321 22.4808 7.79557 22.1209 7.56641 21.6519C7.33724 21.1828 7.22266 20.6385 7.22266 20.019C7.22266 19.0558 7.46973 18.3039 7.96387 17.7632C8.45801 17.2225 9.15446 16.9521 10.0532 16.9521C10.9126 16.9521 11.5929 17.2297 12.0942 17.7847C12.5955 18.3361 12.8462 19.0809 12.8462 20.019ZM8.52246 20.019C8.52246 21.3905 9.02913 22.0762 10.0425 22.0762C11.0451 22.0762 11.5464 21.3905 11.5464 20.019C11.5464 18.6619 11.0415 17.9834 10.0317 17.9834C9.50179 17.9834 9.11686 18.1589 8.87695 18.5098C8.64062 18.8607 8.52246 19.3638 8.52246 20.019ZM17.3364 16.9521C18.0776 16.9521 18.6541 17.2207 19.0659 17.7578C19.4813 18.2949 19.689 19.0487 19.689 20.019C19.689 20.993 19.4795 21.7521 19.0605 22.2964C18.6416 22.8371 18.0597 23.1074 17.3149 23.1074C16.563 23.1074 15.9793 22.8371 15.564 22.2964H15.478L15.2471 23H14.3018V14.6426H15.564V16.6299C15.564 16.7767 15.5568 16.9951 15.5425 17.2852C15.5282 17.5752 15.5174 17.7596 15.5103 17.8384H15.564C15.965 17.2476 16.5558 16.9521 17.3364 16.9521ZM17.0088 17.9834C16.5003 17.9834 16.1333 18.1338 15.9077 18.4346C15.6857 18.7318 15.5711 19.2313 15.564 19.9331V20.019C15.564 20.7424 15.6785 21.2669 15.9077 21.5928C16.1369 21.915 16.5111 22.0762 17.0303 22.0762C17.4779 22.0762 17.8162 21.8989 18.0454 21.5444C18.2782 21.1899 18.3945 20.6779 18.3945 20.0083C18.3945 18.6584 17.9326 17.9834 17.0088 17.9834ZM20.5483 25.6426C20.1688 25.6426 19.8537 25.5978 19.603 25.5083V24.5093C19.8465 24.5737 20.0954 24.606 20.3496 24.606C20.8867 24.606 21.1553 24.3016 21.1553 23.6929V17.0596H22.4175V23.7788C22.4175 24.3911 22.2563 24.8548 21.9341 25.1699C21.6154 25.485 21.1535 25.6426 20.5483 25.6426ZM21.0801 15.4858C21.0801 15.2603 21.141 15.0866 21.2627 14.9648C21.388 14.8431 21.5653 14.7822 21.7944 14.7822C22.0164 14.7822 22.1883 14.8431 22.3101 14.9648C22.4354 15.0866 22.498 15.2603 22.498 15.4858C22.498 15.7007 22.4354 15.8708 22.3101 15.9961C22.1883 16.1178 22.0164 16.1787 21.7944 16.1787C21.5653 16.1787 21.388 16.1178 21.2627 15.9961C21.141 15.8708 21.0801 15.7007 21.0801 15.4858Z" fill="#252525"/>
</svg>
