<svg width="30" height="30" viewBox="0 0 30 30" fill="none" xmlns="http://www.w3.org/2000/svg">
<path fill-rule="evenodd" clip-rule="evenodd" d="M28 26.5649C28 27.3575 27.3575 28 26.5651 28H19.9394V17.9316H23.319L23.8249 14.0076H19.9394V11.5024C19.9394 10.3663 20.2548 9.59215 21.884 9.59215L23.9618 9.59124V6.08165C23.6024 6.03383 22.369 5.92699 20.9339 5.92699C17.9382 5.92699 15.8871 7.75563 15.8871 11.1138V14.0076H12.4989V17.9316H15.8871V28H3.435C2.64224 28 2 27.3574 2 26.5649V3.43499C2 2.64233 2.64234 2 3.435 2H26.5651C27.3576 2 28 2.64233 28 3.43499V26.5649Z" fill="#F7F7F7"/>
</svg>
