<svg width="30" height="30" viewBox="0 0 30 30" fill="none" xmlns="http://www.w3.org/2000/svg">
<path opacity="0.1" fill-rule="evenodd" clip-rule="evenodd" d="M5 0C3.34315 0 2 1.34315 2 3V11H27V7.24264C27 6.44699 26.6839 5.68393 26.1213 5.12132L21.8787 0.87868C21.3161 0.316071 20.553 0 19.7574 0H5ZM27 27H2C2 28.6569 3.34315 30 5 30H24C25.6569 30 27 28.6569 27 27Z" fill="#252525"/>
<rect opacity="0.2" y="11" width="30" height="16" rx="2" fill="#252525"/>
<path opacity="0.2" d="M21 0L27 6H21V0Z" fill="#252525"/>
<path d="M13.5122 21.3081C13.5122 21.8882 13.3009 22.334 12.8784 22.6455C12.4559 22.9535 11.8507 23.1074 11.063 23.1074C10.2716 23.1074 9.63607 22.9875 9.15625 22.7476V21.6572C9.85449 21.9795 10.5044 22.1406 11.106 22.1406C11.883 22.1406 12.2715 21.9061 12.2715 21.437C12.2715 21.2866 12.2285 21.1613 12.1426 21.061C12.0566 20.9608 11.9152 20.8569 11.7183 20.7495C11.5213 20.6421 11.2474 20.5203 10.8965 20.3843C10.2126 20.1193 9.74886 19.8543 9.50537 19.5894C9.26546 19.3244 9.14551 18.9806 9.14551 18.5581C9.14551 18.0496 9.34961 17.6558 9.75781 17.3765C10.1696 17.0936 10.7282 16.9521 11.4336 16.9521C12.1318 16.9521 12.7925 17.0936 13.4155 17.3765L13.0073 18.3271C12.3664 18.0622 11.8275 17.9297 11.3906 17.9297C10.7246 17.9297 10.3916 18.1195 10.3916 18.499C10.3916 18.6852 10.4775 18.8428 10.6494 18.9717C10.8249 19.1006 11.2044 19.2778 11.7881 19.5034C12.2786 19.6932 12.6349 19.8669 12.8569 20.0244C13.0789 20.182 13.2437 20.3646 13.3511 20.5723C13.4585 20.7764 13.5122 21.0216 13.5122 21.3081ZM17.0947 22.0869C17.4027 22.0869 17.7106 22.0386 18.0186 21.9419V22.8926C17.8789 22.9535 17.6981 23.0036 17.4761 23.043C17.2576 23.0859 17.0303 23.1074 16.7939 23.1074C15.598 23.1074 15 22.4772 15 21.2168V18.0156H14.189V17.457L15.0591 16.9951L15.4888 15.7383H16.2676V17.0596H17.9595V18.0156H16.2676V21.1953C16.2676 21.4997 16.3428 21.7253 16.4932 21.8721C16.6471 22.0153 16.8477 22.0869 17.0947 22.0869ZM20.4731 23H19.2109V14.6426H20.4731V23Z" fill="#252525"/>
</svg>
