<svg width="30" height="30" viewBox="0 0 30 30" fill="none" xmlns="http://www.w3.org/2000/svg">
<path opacity="0.1" d="M2 3C2 1.34315 3.34315 0 5 0H19.7574C20.553 0 21.3161 0.316071 21.8787 0.87868L26.1213 5.12132C26.6839 5.68393 27 6.44699 27 7.24264V27C27 28.6569 25.6569 30 24 30H5C3.34315 30 2 28.6569 2 27V3Z" fill="#252525"/>
<rect y="11" width="30" height="16" rx="2" fill="#F7F7F7"/>
<rect opacity="0.2" x="0.5" y="11.5" width="29" height="15" rx="1.5" stroke="#252525"/>
<path opacity="0.2" d="M21 0L27 6H21V0Z" fill="#252525"/>
<path d="M12.8945 17.0596V17.7524L11.8794 17.9404C11.9725 18.0658 12.0495 18.2197 12.1104 18.4023C12.1712 18.585 12.2017 18.7783 12.2017 18.9824C12.2017 19.5947 11.9904 20.0763 11.5679 20.4272C11.1453 20.7782 10.5635 20.9536 9.82227 20.9536C9.63249 20.9536 9.46061 20.9393 9.30664 20.9106C9.03451 21.0789 8.89844 21.2759 8.89844 21.5015C8.89844 21.6375 8.9611 21.7396 9.08643 21.8076C9.21533 21.8757 9.44987 21.9097 9.79004 21.9097H10.8267C11.4819 21.9097 11.9797 22.0493 12.3198 22.3286C12.66 22.6079 12.8301 23.0107 12.8301 23.5371C12.8301 24.2103 12.5526 24.7295 11.9976 25.0947C11.4425 25.46 10.6405 25.6426 9.59131 25.6426C8.78206 25.6426 8.16439 25.4993 7.73828 25.2129C7.31217 24.9264 7.09912 24.5182 7.09912 23.9883C7.09912 23.623 7.2137 23.3151 7.44287 23.0645C7.67562 22.8174 7.99967 22.6455 8.41504 22.5488C8.24674 22.4772 8.1071 22.3626 7.99609 22.2051C7.88867 22.0439 7.83496 21.8757 7.83496 21.7002C7.83496 21.4782 7.89762 21.2902 8.02295 21.1362C8.14827 20.9823 8.33447 20.8301 8.58154 20.6797C8.2736 20.5472 8.02295 20.3324 7.82959 20.0352C7.63981 19.7344 7.54492 19.3835 7.54492 18.9824C7.54492 18.3379 7.74723 17.8384 8.15186 17.4839C8.56006 17.1294 9.14014 16.9521 9.89209 16.9521C10.0604 16.9521 10.2358 16.9647 10.4185 16.9897C10.6047 17.0112 10.7443 17.0345 10.8374 17.0596H12.8945ZM8.22705 23.9238C8.22705 24.196 8.3488 24.4054 8.59229 24.5522C8.83936 24.6991 9.1849 24.7725 9.62891 24.7725C10.3164 24.7725 10.8285 24.674 11.165 24.4771C11.5016 24.2801 11.6699 24.0187 11.6699 23.6929C11.6699 23.4351 11.5768 23.2507 11.3906 23.1396C11.208 23.0322 10.866 22.9785 10.3647 22.9785H9.40869C9.04704 22.9785 8.75879 23.0627 8.54395 23.231C8.33268 23.4028 8.22705 23.6338 8.22705 23.9238ZM8.76953 18.9824C8.76953 19.3548 8.86442 19.6413 9.0542 19.8418C9.24756 20.0423 9.52327 20.1426 9.88135 20.1426C10.6118 20.1426 10.9771 19.7523 10.9771 18.9717C10.9771 18.585 10.8857 18.2878 10.7031 18.0801C10.5241 17.8688 10.2502 17.7632 9.88135 17.7632C9.51611 17.7632 9.23861 17.867 9.04883 18.0747C8.86263 18.2824 8.76953 18.585 8.76953 18.9824ZM15.2632 23H14.001V14.6426H15.2632V23ZM20.1079 16.9521C20.8491 16.9521 21.4256 17.2207 21.8374 17.7578C22.2528 18.2949 22.4604 19.0487 22.4604 20.019C22.4604 20.993 22.251 21.7521 21.832 22.2964C21.4131 22.8371 20.8312 23.1074 20.0864 23.1074C19.3345 23.1074 18.7508 22.8371 18.3354 22.2964H18.2495L18.0186 23H17.0732V14.6426H18.3354V16.6299C18.3354 16.7767 18.3283 16.9951 18.314 17.2852C18.2996 17.5752 18.2889 17.7596 18.2817 17.8384H18.3354C18.7365 17.2476 19.3273 16.9521 20.1079 16.9521ZM19.7803 17.9834C19.2718 17.9834 18.9048 18.1338 18.6792 18.4346C18.4572 18.7318 18.3426 19.2313 18.3354 19.9331V20.019C18.3354 20.7424 18.45 21.2669 18.6792 21.5928C18.9084 21.915 19.2826 22.0762 19.8018 22.0762C20.2493 22.0762 20.5877 21.8989 20.8169 21.5444C21.0496 21.1899 21.166 20.6779 21.166 20.0083C21.166 18.6584 20.7041 17.9834 19.7803 17.9834Z" fill="#252525"/>
</svg>
