<svg width="30" height="30" viewBox="0 0 30 30" fill="none" xmlns="http://www.w3.org/2000/svg">
<path opacity="0.1" fill-rule="evenodd" clip-rule="evenodd" d="M5 0C3.34315 0 2 1.34315 2 3V11H27V7.24264C27 6.44699 26.6839 5.68393 26.1213 5.12132L21.8787 0.87868C21.3161 0.316071 20.553 0 19.7574 0H5ZM27 27H2C2 28.6569 3.34315 30 5 30H24C25.6569 30 27 28.6569 27 27Z" fill="#252525"/>
<rect opacity="0.2" y="11" width="30" height="16" rx="2" fill="#252525"/>
<path opacity="0.2" d="M21 0L27 6H21V0Z" fill="#252525"/>
<path d="M12.1587 17.0596V17.7524L11.1436 17.9404C11.2367 18.0658 11.3136 18.2197 11.3745 18.4023C11.4354 18.585 11.4658 18.7783 11.4658 18.9824C11.4658 19.5947 11.2546 20.0763 10.832 20.4272C10.4095 20.7782 9.82764 20.9536 9.08643 20.9536C8.89665 20.9536 8.72477 20.9393 8.5708 20.9106C8.29867 21.0789 8.1626 21.2759 8.1626 21.5015C8.1626 21.6375 8.22526 21.7396 8.35059 21.8076C8.47949 21.8757 8.71403 21.9097 9.0542 21.9097H10.0908C10.7461 21.9097 11.2438 22.0493 11.584 22.3286C11.9242 22.6079 12.0942 23.0107 12.0942 23.5371C12.0942 24.2103 11.8167 24.7295 11.2617 25.0947C10.7067 25.46 9.90462 25.6426 8.85547 25.6426C8.04622 25.6426 7.42855 25.4993 7.00244 25.2129C6.57633 24.9264 6.36328 24.5182 6.36328 23.9883C6.36328 23.623 6.47786 23.3151 6.70703 23.0645C6.93978 22.8174 7.26383 22.6455 7.6792 22.5488C7.5109 22.4772 7.37126 22.3626 7.26025 22.2051C7.15283 22.0439 7.09912 21.8757 7.09912 21.7002C7.09912 21.4782 7.16178 21.2902 7.28711 21.1362C7.41243 20.9823 7.59863 20.8301 7.8457 20.6797C7.53776 20.5472 7.28711 20.3324 7.09375 20.0352C6.90397 19.7344 6.80908 19.3835 6.80908 18.9824C6.80908 18.3379 7.01139 17.8384 7.41602 17.4839C7.82422 17.1294 8.4043 16.9521 9.15625 16.9521C9.32454 16.9521 9.5 16.9647 9.68262 16.9897C9.86882 17.0112 10.0085 17.0345 10.1016 17.0596H12.1587ZM7.49121 23.9238C7.49121 24.196 7.61296 24.4054 7.85645 24.5522C8.10352 24.6991 8.44906 24.7725 8.89307 24.7725C9.58057 24.7725 10.0926 24.674 10.4292 24.4771C10.7658 24.2801 10.9341 24.0187 10.9341 23.6929C10.9341 23.4351 10.841 23.2507 10.6548 23.1396C10.4722 23.0322 10.1302 22.9785 9.62891 22.9785H8.67285C8.3112 22.9785 8.02295 23.0627 7.80811 23.231C7.59684 23.4028 7.49121 23.6338 7.49121 23.9238ZM8.03369 18.9824C8.03369 19.3548 8.12858 19.6413 8.31836 19.8418C8.51172 20.0423 8.78743 20.1426 9.14551 20.1426C9.87598 20.1426 10.2412 19.7523 10.2412 18.9717C10.2412 18.585 10.1499 18.2878 9.96729 18.0801C9.78825 17.8688 9.51432 17.7632 9.14551 17.7632C8.78027 17.7632 8.50277 17.867 8.31299 18.0747C8.12679 18.2824 8.03369 18.585 8.03369 18.9824ZM14.5273 23H13.2651V14.6426H14.5273V23ZM18.5503 22.0869C18.8582 22.0869 19.1662 22.0386 19.4741 21.9419V22.8926C19.3345 22.9535 19.1536 23.0036 18.9316 23.043C18.7132 23.0859 18.4858 23.1074 18.2495 23.1074C17.0535 23.1074 16.4556 22.4772 16.4556 21.2168V18.0156H15.6445V17.457L16.5146 16.9951L16.9443 15.7383H17.7231V17.0596H19.415V18.0156H17.7231V21.1953C17.7231 21.4997 17.7983 21.7253 17.9487 21.8721C18.1027 22.0153 18.3032 22.0869 18.5503 22.0869ZM23.6475 18.0156H22.1973V23H20.9297V18.0156H19.9521V17.4248L20.9297 17.0381V16.6514C20.9297 15.9495 21.0944 15.4303 21.4238 15.0938C21.7533 14.7536 22.2563 14.5835 22.9331 14.5835C23.3771 14.5835 23.814 14.6569 24.2437 14.8037L23.9106 15.7598C23.5991 15.6595 23.3019 15.6094 23.019 15.6094C22.7326 15.6094 22.5231 15.6989 22.3906 15.8779C22.2617 16.0534 22.1973 16.3184 22.1973 16.6729V17.0596H23.6475V18.0156Z" fill="#252525"/>
</svg>
