<svg width="30" height="18" viewBox="0 0 30 18" fill="none" xmlns="http://www.w3.org/2000/svg">
<path fill-rule="evenodd" clip-rule="evenodd" d="M13.7393 2.89132C13.4815 2.77607 13.2131 2.67143 12.9341 2.57697C10.554 1.77095 8.15835 1.81028 5.79371 2.68962C4.23119 3.27023 3.03992 4.1674 2.24134 5.46285C1.39063 6.84299 1.26586 8.30423 1.89922 9.77185C2.26734 10.6264 2.86337 11.3442 3.67907 11.9782C3.83588 12.1012 3.97867 12.2031 4.23594 12.3798C4.03097 12.9862 3.6937 13.5396 3.2476 13.9975C3.1081 14.1412 2.98238 14.2867 2.80305 14.506C2.55705 14.8077 2.5029 15.1831 2.69324 15.5359C2.88843 15.8952 3.23727 16.0453 3.62508 15.9882L3.68285 15.9799L3.76635 15.9678C3.89446 15.9491 3.98747 15.9335 4.08212 15.9136C5.73856 15.5609 7.27184 15.0642 8.49583 13.9981C8.49769 13.9983 8.49942 13.9984 8.50103 13.9986C8.505 13.999 8.50826 13.9993 8.51097 13.9996L8.49599 13.998C9.01728 14.0429 9.5235 14.0573 10.0172 14.0392C10.0058 13.9003 10.0001 13.7599 10.0001 13.618C10.0001 13.4183 10.0115 13.2212 10.0339 13.0275C9.55543 13.0475 9.0619 13.034 8.54995 12.9886C8.31028 12.9681 8.07201 13.069 7.89022 13.2188C6.75866 14.1809 5.3753 14.6057 3.87702 14.9248C3.83549 14.9335 3.79185 14.9415 3.73997 14.95C3.82092 14.8551 3.89008 14.7785 3.96097 14.7054C4.61159 14.0376 5.0751 13.2049 5.3033 12.2944L5.38825 11.9555L5.10417 11.7558L5.10392 11.7556C5.02395 11.6997 5.02387 11.6996 4.94476 11.6451L4.8089 11.5518C4.56086 11.3815 4.42932 11.2877 4.28963 11.1781C3.59943 10.6418 3.11149 10.0543 2.81602 9.36839C2.31608 8.20996 2.41096 7.09885 3.0902 5.9969C3.76237 4.90652 4.77313 4.14529 6.13903 3.63774C8.29077 2.83757 10.4525 2.80208 12.6163 3.53486C12.8547 3.61557 13.0835 3.70418 13.3028 3.80103C13.4184 3.48144 13.5652 3.17696 13.7393 2.89132ZM8.49599 13.998L8.47287 13.9959C8.48216 13.9968 8.48969 13.9975 8.49583 13.9981C8.49589 13.998 8.49594 13.998 8.49599 13.998ZM8.52224 14C8.52356 13.9998 8.52448 13.9995 8.52533 13.999L8.52224 14Z" fill="#252525"/>
<path d="M26 9V11H27V9H29V8H27V6H26V8H24V9H26Z" fill="#252525"/>
<path fill-rule="evenodd" clip-rule="evenodd" d="M20.1309 6.1276C20.1309 7.30182 19.1781 8.2552 17.9997 8.2552C16.8212 8.2552 15.8684 7.30182 15.8684 6.1276C15.8684 4.95381 16.8213 4 17.9997 4C19.178 4 20.1309 4.95381 20.1309 6.1276ZM21.1309 6.1276C21.1309 7.8552 19.7293 9.2552 17.9997 9.2552C16.27 9.2552 14.8684 7.8552 14.8684 6.1276C14.8684 4.40053 16.27 3 17.9997 3C19.7293 3 21.1309 4.40053 21.1309 6.1276ZM23 13.7566V13.7572C23 13.8151 22.9887 13.8487 22.9801 13.8675C22.9708 13.8876 22.9567 13.9073 22.9346 13.9267C22.8838 13.9715 22.8042 14.0015 22.7319 14.0015H13.2681C13.1958 14.0015 13.1162 13.9715 13.0654 13.9267C13.0433 13.9073 13.0292 13.8876 13.0199 13.8675C13.0113 13.8487 13 13.8151 13 13.7573L13 13.7572C13 13.757 13 13.7541 13.0004 13.7486C13.0009 13.7425 13.0017 13.7338 13.0032 13.7227C13.0062 13.7003 13.0116 13.67 13.021 13.6328C13.0399 13.5582 13.0728 13.4621 13.127 13.3518C13.2345 13.1334 13.4243 12.8619 13.7492 12.5936C14.3924 12.0626 15.6439 11.4838 18.0002 11.4838H18.0003C20.3566 11.4838 21.6081 12.0626 22.2512 12.5936C22.5761 12.8618 22.7658 13.1333 22.8732 13.3517C22.9274 13.4619 22.9603 13.5579 22.9791 13.6325C22.9884 13.6697 22.9939 13.6999 22.9969 13.7223C22.9999 13.7452 23 13.7566 23 13.7566ZM18.0002 10.4838C12.9667 10.4838 12 12.9624 12 13.7572C12 14.5515 12.656 15.0015 13.2681 15.0015H22.7319C23.344 15.0015 24 14.5515 24 13.7572C24.0005 12.9624 23.0338 10.4838 18.0003 10.4838H18.0002Z" fill="#252525"/>
</svg>
