<svg width="18" height="19" viewBox="0 0 18 19" fill="none" xmlns="http://www.w3.org/2000/svg">
<path opacity="0.4" d="M1 14.5L7 12L13 14.5" stroke="#F7F7F7"/>
<path d="M5 4L4.77639 3.55279L4.60212 3.63992L4.53276 3.822L5 4ZM11 1L11.2236 0.552786L11 0.440983L10.7764 0.552786L11 1ZM17 4L17.4672 4.178L17.6283 3.75515L17.2236 3.55279L17 4ZM7 17.5L6.77639 17.9472L7 18.059L7.22361 17.9472L7 17.5ZM13 14.5L13.2236 14.9472L13.3979 14.8601L13.4672 14.678L13 14.5ZM1 14.5L0.532756 14.322L0.37167 14.7449L0.776393 14.9472L1 14.5ZM11.2236 6.55279L5.22361 3.55279L4.77639 4.44721L10.7764 7.44721L11.2236 6.55279ZM5.22361 4.44721L11.2236 1.44721L10.7764 0.552786L4.77639 3.55279L5.22361 4.44721ZM10.7764 1.44721L16.7764 4.44721L17.2236 3.55279L11.2236 0.552786L10.7764 1.44721ZM16.7764 3.55279L10.7764 6.55279L11.2236 7.44721L17.2236 4.44721L16.7764 3.55279ZM7.22361 17.9472L13.2236 14.9472L12.7764 14.0528L6.77639 17.0528L7.22361 17.9472ZM7.22361 17.0528L1.22361 14.0528L0.776393 14.9472L6.77639 17.9472L7.22361 17.0528ZM16.5328 3.822L12.5328 14.322L13.4672 14.678L17.4672 4.178L16.5328 3.822ZM10.5328 6.822L6.53276 17.322L7.46724 17.678L11.4672 7.178L10.5328 6.822ZM4.53276 3.822L0.532756 14.322L1.46724 14.678L5.46724 4.178L4.53276 3.822Z" fill="#F7F7F7"/>
</svg>
