<svg width="18" height="18" viewBox="0 0 18 18" fill="none" xmlns="http://www.w3.org/2000/svg">
<path d="M2 9.49999L8.5 14L15 9.49999L11.75 7.24999L8.5 4.99999L2 9.49999Z" stroke="#252525" stroke-linejoin="round"/>
<path opacity="0.4" d="M11.5334 7.31365L5.46669 11.6865M5.46669 7.31365L11.5334 11.6865" stroke="#252525" stroke-linejoin="round"/>
<path d="M9 1.5C8.72386 1.5 8.5 1.72386 8.5 2C8.5 2.27614 8.72386 2.5 9 2.5V1.5ZM15 2.5C15.2761 2.5 15.5 2.27614 15.5 2C15.5 1.72386 15.2761 1.5 15 1.5V2.5ZM9 2.5H15V1.5H9V2.5Z" fill="#252525"/>
<path d="M2 9.49999L8.5 14L15 9.49999L11.75 7.24999L8.5 4.99999L2 9.49999Z" stroke="#252525" stroke-linejoin="round"/>
</svg>
