<svg width="18" height="18" viewBox="0 0 18 18" fill="none" xmlns="http://www.w3.org/2000/svg">
<path d="M6 3.5L3.5 10.5C3.5 10.5 3 11.8393 3 12.5C3 14.7091 5.91015 16.5 9.5 16.5C13.0899 16.5 16 14.7091 16 12.5C16 12.0472 15.5 10.5 15.5 10.5C15.5 10.5 14.0111 6 13 3.5" stroke="#252525" stroke-linecap="round" stroke-linejoin="round"/>
<path d="M13 3.5C13 4.60457 11.433 5.5 9.5 5.5C7.567 5.5 6 4.60457 6 3.5C6 2.39543 7.567 1.5 9.5 1.5C11.433 1.5 13 2.39543 13 3.5Z" stroke="#252525" stroke-linecap="round" stroke-linejoin="round"/>
<path opacity="0.4" d="M3 12.5C3 10.4254 5.91015 8.5 9.5 8.5C13.0899 8.5 16 10.4254 16 12.5" stroke="#252525"/>
<path d="M6 3.5L3.5 10.5C3.5 10.5 3 11.8393 3 12.5C3 14.7091 5.91015 16.5 9.5 16.5C13.0899 16.5 16 14.7091 16 12.5C16 12.0472 15.5 10.5 15.5 10.5C15.5 10.5 14.0111 6 13 3.5" stroke="#252525" stroke-linecap="round" stroke-linejoin="round"/>
</svg>
