<svg width="18" height="18" viewBox="0 0 18 18" fill="none" xmlns="http://www.w3.org/2000/svg">
<path opacity="0.4" fill-rule="evenodd" clip-rule="evenodd" d="M9.23529 0.55884L9 0.43335L8.76471 0.55884L1.26471 4.55884L1 4.70002V5.00002V13.5V13.827L1.29959 13.9581L9.29959 17.4581L9.51414 17.552L9.72361 17.4472L16.7236 13.9472L17 13.809V13.5V5.00002V4.70002L16.7353 4.55884L9.23529 0.55884ZM3.5672 6.45017L2 5.76452V13.173L9 16.2355V15C9.34071 15 9.67479 14.9716 10 14.9171V16.191L16 13.191V5.80903L14.4858 6.56613C14.3495 6.25926 14.1881 5.96596 14.0044 5.68881L15.4106 4.98568L9 1.56668L2.64584 4.95557L4.07034 5.57878C3.87939 5.85341 3.71079 6.14475 3.5672 6.45017Z" fill="#252525"/>
<path d="M14.5 9C14.5 12.0376 12.0376 14.5 9 14.5C5.96243 14.5 3.5 12.0376 3.5 9C3.5 5.96243 5.96243 3.5 9 3.5C12.0376 3.5 14.5 5.96243 14.5 9Z" stroke="#545FD9"/>
<path opacity="0.4" d="M9.5 6C10.2143 6 11.7143 6.4 12 8" stroke="#252525" stroke-linecap="round"/>
</svg>
