<svg width="18" height="18" viewBox="0 0 18 18" fill="none" xmlns="http://www.w3.org/2000/svg">
<path d="M8.5 6.54769L10.5 9.50007M8.5 6.54769L6.5 9.50007M8.5 6.54769L3 4.50012M8.5 6.54769L14 4.50012M10.5 9.50007H6.5M10.5 9.50007L15.5 7.50012M10.5 9.50007V15.5001M6.5 9.50007L1.5 7.50012M6.5 9.50007V15.5001M3 4.50012L8.5 1.71436L14 4.50012M3 4.50012L1.5 7.50012M1.5 7.50012V13.381L6.5 15.5001M14 4.50012L15.5 7.50012M15.5 7.50012V13.381L10.5 15.5001M6.5 15.5001L10.5 15.5001" stroke="#F7F7F7"/>
</svg>
