<svg width="18" height="18" viewBox="0 0 18 18" fill="none" xmlns="http://www.w3.org/2000/svg">
<path opacity="0.4" d="M16 10.5C16 8.5 12.866 7 9 7C5.13401 7 2 8.5 2 10.5" stroke="#F7F7F7"/>
<path d="M9 17C11.2091 17 13 15.8807 13 14.5C13 13.5 16 12 16 10C16 8 13 6 13 4.5V3.5C13 2.11929 11.2091 1 9 1C6.79086 1 5 2.11929 5 3.5V4.5C5 6 2 8 2 10C2 12 5 13.5 5 14.5C5 15.8807 6.79086 17 9 17Z" stroke="#F7F7F7"/>
<path d="M9 17C11.2091 17 13 15.8807 13 14.5C13 13.5 16 12 16 10C16 8 13 6 13 4.5V3.5C13 2.11929 11.2091 1 9 1C6.79086 1 5 2.11929 5 3.5V4.5C5 6 2 8 2 10C2 12 5 13.5 5 14.5C5 15.8807 6.79086 17 9 17Z" stroke="#F7F7F7"/>
<path d="M16 10C16 12 12.866 13.5 9 13.5C5.13401 13.5 2 12 2 10" stroke="#F7F7F7"/>
</svg>
