<svg width="18" height="18" viewBox="0 0 18 18" fill="none" xmlns="http://www.w3.org/2000/svg">
<path d="M15.427 9.76732L15.445 9.7929L15.4659 9.81606C16.1089 10.5261 16.5 11.4668 16.5 12.5C16.5 14.7091 14.7091 16.5 12.5 16.5C10.2909 16.5 8.5 14.7091 8.5 12.5C8.5 11.6364 8.20994 10.8778 7.66605 10.3339C7.12216 9.79006 6.36362 9.5 5.5 9.5C3.29086 9.5 1.5 7.70914 1.5 5.5C1.5 3.29086 3.29086 1.5 5.5 1.5C7.70914 1.5 9.5 3.29086 9.5 5.5C9.5 6.79039 10.1507 7.8263 11.2554 8.27059L11.2667 8.27515L11.2783 8.27916C11.8297 8.47015 12.3203 8.17712 12.5947 7.82906C12.875 7.47357 13.0282 6.96165 12.9196 6.44589L12.9021 6.36297L12.8583 6.29042C12.6309 5.91409 12.5 5.4731 12.5 5C12.5 3.61929 13.6193 2.5 15 2.5C16.3807 2.5 17.5 3.61929 17.5 5C17.5 5.97923 16.9371 6.82789 16.1149 7.23836L16.0963 7.24763L16.0786 7.25842C15.1248 7.83806 14.9136 9.03438 15.427 9.76732Z" stroke="#252525"/>
<path opacity="0.4" d="M4.5 2.99998C5.5 2.49999 7 2.99997 7.5 3.99998" stroke="#252525" stroke-linecap="round"/>
<path opacity="0.4" d="M13.549 10.172C14.6097 10.5256 15.4026 11.7094 15.049 12.7701" stroke="#252525" stroke-linecap="round"/>
<path opacity="0.4" d="M16 5.18994C16 4.68995 15.5 4.18992 15 4.18993" stroke="#252525" stroke-linecap="round"/>
</svg>
