<svg width="18" height="18" viewBox="0 0 18 18" fill="none" xmlns="http://www.w3.org/2000/svg">
<path d="M4.5 17L1.5 14C1.5 7 5 2 13.5 2L16.5 5M4.5 17H12.5C12.5 14.5 14.5 13 16.5 13V5M4.5 17C4.5 6 11 5 16.5 5" stroke="#252525"/>
<path opacity="0.4" d="M4.5 17L1.5 14M4.5 17H12.5M4.5 17C4.5 6 11 5 16.5 5M1.5 14H9.5M1.5 14C1.5 7 5 2 13.5 2M9.5 14L12.5 17M9.5 14C9.5 11.5 11.5 10 13.5 10M12.5 17C12.5 14.5 14.5 13 16.5 13M16.5 13L13.5 10M16.5 13V5M13.5 10V2M13.5 2L16.5 5" stroke="#252525"/>
<path d="M4.5 17L1.5 14C1.5 7 5 2 13.5 2L16.5 5M4.5 17H12.5C12.5 14.5 14.5 13 16.5 13V5M4.5 17C4.5 6 11 5 16.5 5" stroke="#252525"/>
</svg>
