<svg width="18" height="18" viewBox="0 0 18 18" fill="none" xmlns="http://www.w3.org/2000/svg">
<path d="M15.0374 11.9546L16.7874 9.95459L15.0374 7.95459" stroke="#252525" stroke-linecap="round"/>
<path d="M16.5 9.45459C16.7761 9.45459 17 9.67845 17 9.95459C17 10.2307 16.7761 10.4546 16.5 10.4546V9.45459ZM11.0374 9.95459L10.6882 9.59671L10.8338 9.45459H11.0374L11.0374 9.95459ZM6 14.9546L6.35355 15.3081L6.2071 15.4546L6 15.4546L6 14.9546ZM2 15.4546C1.72386 15.4546 1.5 15.2307 1.5 14.9546C1.5 14.6784 1.72386 14.4546 2 14.4546L2 15.4546ZM9.84918 11.8125L9.4913 12.1616L8.79294 11.4459L9.15082 11.0967L9.84918 11.8125ZM7.14644 13.101L7.5 12.7475L8.2071 13.4546L7.85355 13.8081L7.14644 13.101ZM16.5 10.4546L11.0374 10.4546L11.0374 9.45459L16.5 9.45459V10.4546ZM6 15.4546L2 15.4546L2 14.4546L6 14.4546L6 15.4546ZM11.3865 10.3125L9.84918 11.8125L9.15082 11.0967L10.6882 9.59671L11.3865 10.3125ZM7.85355 13.8081L6.35355 15.3081L5.64644 14.601L7.14644 13.101L7.85355 13.8081Z" fill="#252525"/>
<path d="M13.0374 12.9546L14.5374 14.9546M14.5374 14.9546L13.0374 16.9546M14.5374 14.9546L11.0374 14.9546L6.10402 9.95459L2.03735 9.95459" stroke="#252525" stroke-linecap="round"/>
<path d="M5.03735 4.22724L8.03735 3.13633M5.03735 4.22724L2.03735 3.13633M5.03735 4.22724L5.03735 8.04542M8.03735 3.13633L5.03735 2.04542L2.03735 3.13633M8.03735 3.13633L8.03735 6.95451L5.03735 8.04542M2.03735 3.13633L2.03735 6.95451L5.03735 8.04542" stroke="#252525"/>
<path d="M14.0374 3.45456L16.0374 2.72729M14.0374 3.45456L12.0374 2.72729M14.0374 3.45456L14.0374 6.00001M16.0374 2.72729L14.0374 2.00001L12.0374 2.72729M16.0374 2.72729L16.0374 5.27274L14.0374 6.00001M12.0374 2.72729L12.0374 5.27274L14.0374 6.00001" stroke="#252525"/>
</svg>
