<svg width="18" height="19" viewBox="0 0 18 19" fill="none" xmlns="http://www.w3.org/2000/svg">
<path opacity="0.4" fill-rule="evenodd" clip-rule="evenodd" d="M5.99994 13C5.78357 13 5.57304 13.0702 5.39994 13.2L1.39994 16.2C1.0556 16.4583 0.915145 16.9079 1.05126 17.3162C1.18737 17.7246 1.56951 18 1.99994 18H5.42611C5.52975 18.0345 5.64051 18.0334 5.7414 18H12.2585C12.3594 18.0334 12.4701 18.0345 12.5738 18H15.9999C16.4304 18 16.8125 17.7246 16.9486 17.3162C17.0847 16.9079 16.9443 16.4583 16.5999 16.2L12.5999 13.2C12.4268 13.0702 12.2163 13 11.9999 13H5.99994ZM14.3333 17H12.6666L11.9999 16H14.4999C14.5486 16 14.5956 15.9931 14.6401 15.9801L14.6666 16L15.9999 17H14.3333ZM11.3333 15H13.3333L11.9999 14H10.6666L11.3333 15ZM10.1314 15H7.86846L8.53513 14H9.46476L10.1314 15ZM7.20179 16H10.7981L11.4648 17H6.53513L7.20179 16ZM6.66661 15L7.33328 14H5.99994L4.66661 15H6.66661ZM3.35981 15.9801C3.40427 15.9931 3.4513 16 3.49994 16H5.99994L5.33328 17H3.66661H1.99994L3.33328 16L3.35981 15.9801Z" fill="#252525"/>
<path d="M12.5 14C12.5 14.8284 10.933 15.5 9 15.5C7.067 15.5 5.5 14.8284 5.5 14" stroke="#545FD9" stroke-linecap="round"/>
<path d="M5.5 7V14" stroke="#545FD9" stroke-linecap="round"/>
<path d="M12.5 7V14" stroke="#545FD9" stroke-linecap="round"/>
<path fill-rule="evenodd" clip-rule="evenodd" d="M9 8.5C10.933 8.5 12.5 7.82843 12.5 7C12.5 6.17157 10.933 5.5 9 5.5C7.067 5.5 5.5 6.17157 5.5 7C5.5 7.82843 7.067 8.5 9 8.5Z" stroke="#545FD9"/>
</svg>
