<svg width="18" height="18" viewBox="0 0 18 18" fill="none" xmlns="http://www.w3.org/2000/svg">
<path opacity="0.4" d="M1.5 14.5264L5.5 10.5264" stroke="#F7F7F7" stroke-dasharray="1"/>
<path opacity="0.4" d="M5.5 3.02637V10.0264" stroke="#F7F7F7" stroke-dasharray="1"/>
<path fill-rule="evenodd" clip-rule="evenodd" d="M6 14.5264L12.5 2.52637H16.5V10.5264L12.5 14.5264H6Z" fill="#FFAE93"/>
<path d="M12.5 2.52637H16.5" stroke="#F7F7F7" stroke-linecap="round"/>
<path opacity="0.4" d="M6 10.5264H15.5" stroke="#F7F7F7" stroke-dasharray="1"/>
<path d="M10.5 6.52637H12.5" stroke="#F7F7F7" stroke-linecap="round"/>
<path d="M12.5 6.52637L16.5 2.52637" stroke="#F7F7F7" stroke-linecap="round"/>
<path d="M16.5 2.52637V10.5264" stroke="#F7F7F7" stroke-linecap="round"/>
<path d="M12.5 6.52637V14.5264" stroke="#F7F7F7" stroke-linecap="round"/>
<path d="M6 14.5264H12.5" stroke="#F7F7F7" stroke-linecap="round"/>
<path d="M12.5 14.5264L16.5 10.5264" stroke="#F7F7F7" stroke-linecap="round"/>
<path d="M1.5 6.52637H8" stroke="#F7F7F7" stroke-linecap="round"/>
<path d="M5.5 2.52637H10.5" stroke="#F7F7F7" stroke-linecap="round"/>
<path d="M1.5 6.52637L5.5 2.52637" stroke="#F7F7F7" stroke-linecap="round"/>
<path d="M1.5 6.52637V14.5264H4" stroke="#F7F7F7" stroke-linecap="round" stroke-linejoin="round"/>
<path d="M10.5 2.52637L4 14.5264" stroke="#F7F7F7" stroke-linecap="round"/>
<path d="M12.5 2.52637L6 14.5264" stroke="#F7F7F7" stroke-linecap="round"/>
</svg>
