<svg width="18" height="18" viewBox="0 0 18 18" fill="none" xmlns="http://www.w3.org/2000/svg">
<path d="M1 16H11C11.5523 16 12 15.5523 12 15C12 14.4477 11.5523 14 11 14H1C0.447715 14 0 14.4477 0 15C0 15.5523 0.447715 16 1 16Z" fill="#FFAE93"/>
<path fill-rule="evenodd" clip-rule="evenodd" d="M9.01782 8.08953e-08L5.15412 1.03528L5.41294 2.0012L9.27664 0.965926L9.01782 8.08953e-08ZM5.67176 2.96716L9.53546 1.93188L12.1236 11.5911L10.9683 15.0066L8.25995 12.6264L5.67176 2.96716ZM11.0794 11.5575L8.82835 3.15665L6.8965 3.67429L9.14751 12.0752L11.0794 11.5575Z" fill="#252525"/>
<path fill-rule="evenodd" clip-rule="evenodd" d="M0 12.9999H4V16.9999H0V12.9999ZM1 15.9999H3V13.9999H1V15.9999Z" fill="#CC8B76"/>
</svg>
