<svg width="18" height="18" viewBox="0 0 18 18" fill="none" xmlns="http://www.w3.org/2000/svg">
<path opacity="0.4" d="M1.5 14.5L5.5 10.5" stroke="#545FD9" stroke-dasharray="1"/>
<path opacity="0.4" d="M5.5 3V10" stroke="#545FD9" stroke-dasharray="1"/>
<path fill-rule="evenodd" clip-rule="evenodd" d="M6 14.5L12.5 2.5H16.5V10.5L12.5 14.5H6Z" fill="#FFAE93"/>
<path d="M10.5 6.5H12.5" stroke="#545FD9" stroke-linecap="round"/>
<path d="M12.5 6.5L16.5 2.5" stroke="#545FD9" stroke-linecap="round"/>
<path d="M12.5 2.5H16.5" stroke="#545FD9" stroke-linecap="round"/>
<path d="M6 14.5H12.5" stroke="#545FD9" stroke-linecap="round"/>
<path d="M16.5 2.5V10.5" stroke="#545FD9" stroke-linecap="round"/>
<path d="M12.5 6.5V14.5" stroke="#545FD9" stroke-linecap="round"/>
<path d="M12.5 14.5L16.5 10.5" stroke="#545FD9" stroke-linecap="round"/>
<path d="M1.5 6.5H8" stroke="#545FD9" stroke-linecap="round"/>
<path d="M1.5 6.5L5.5 2.5" stroke="#545FD9" stroke-linecap="round"/>
<path d="M1.5 6.5V14.5H4" stroke="#545FD9" stroke-linecap="round" stroke-linejoin="round"/>
<path d="M10.5 2.50001L4 14.5" stroke="#545FD9" stroke-linecap="round"/>
<path d="M12.5 2.50001L6 14.5" stroke="#545FD9" stroke-linecap="round"/>
<path opacity="0.4" d="M6 10.5H15.5" stroke="#545FD9" stroke-dasharray="1"/>
</svg>
