<svg width="18" height="18" viewBox="0 0 18 18" fill="none" xmlns="http://www.w3.org/2000/svg">
<path d="M3 3.45673L15 15.4567" stroke="#F7F7F7" stroke-linecap="square"/>
<path opacity="0.4" d="M15 3.45673L3 15.4567" stroke="#F7F7F7" stroke-dasharray="1"/>
<path d="M2.5 12.4567L4 9.95673" stroke="#F7F7F7" stroke-linecap="round"/>
<path d="M2.5 12.4567L0.5 10.9567" stroke="#F7F7F7" stroke-linecap="round"/>
<path d="M2.00004 9.45667L1.57578 9.45667L1.57578 9.45667L2.00004 9.45667ZM2.15974 12.4095C2.27293 12.683 2.531 12.7825 2.73617 12.6316C2.94133 12.4806 3.01589 12.1365 2.90271 11.863L2.15974 12.4095ZM3.33077 6.20223C3.47752 5.95867 3.44839 5.60261 3.26572 5.40695C3.08305 5.21129 2.816 5.25012 2.66926 5.49368L3.33077 6.20223ZM16 9.45673L16.4243 9.45673L16.4243 9.45673L16 9.45673ZM15.8403 6.5039C15.7272 6.23035 15.4691 6.13093 15.2639 6.28185C15.0588 6.43276 14.9842 6.77686 15.0974 7.05041L15.8403 6.5039ZM14.6693 12.7112C14.5225 12.9548 14.5517 13.3108 14.7343 13.5065C14.917 13.7021 15.1841 13.6633 15.3308 13.4198L14.6693 12.7112ZM1.57578 9.45667C1.57578 10.468 1.77244 11.4734 2.15974 12.4095L2.90271 11.863C2.58177 11.0873 2.4243 10.2691 2.4243 9.45667L1.57578 9.45667ZM2.66926 5.49368C1.94679 6.69281 1.57578 8.06705 1.57578 9.45667L2.4243 9.45667C2.4243 8.34406 2.71994 7.21607 3.33077 6.20223L2.66926 5.49368ZM16.4243 9.45673C16.4243 8.44541 16.2276 7.43996 15.8403 6.5039L15.0974 7.05041C15.4183 7.82607 15.5758 8.64434 15.5758 9.45673L16.4243 9.45673ZM15.3308 13.4198C16.0533 12.2206 16.4243 10.8464 16.4243 9.45673L15.5758 9.45673C15.5758 10.5694 15.2801 11.6974 14.6693 12.7112L15.3308 13.4198Z" fill="#F7F7F7"/>
<path d="M15.5 6.45673L14 8.95673" stroke="#F7F7F7" stroke-linecap="round"/>
<path d="M15.5 6.45673L17.5 7.95673" stroke="#F7F7F7" stroke-linecap="round"/>
</svg>
