<svg width="18" height="18" viewBox="0 0 18 18" fill="none" xmlns="http://www.w3.org/2000/svg">
<path d="M1 16H16" stroke="#FFAE93" stroke-width="2" stroke-linecap="square"/>
<path fill-rule="evenodd" clip-rule="evenodd" d="M14 14H18V18H14V14ZM15 17H17V15H15V17Z" fill="#CC8B76"/>
<path fill-rule="evenodd" clip-rule="evenodd" d="M14.0179 1.00005L10.1542 2.03532L10.4131 3.00125L14.2768 1.96597L14.0179 1.00005ZM10.6719 3.96721L14.5356 2.93193L17.1238 12.5912L15.9684 16.0066L13.2601 13.6265L10.6719 3.96721ZM16.0795 12.5576L13.8285 4.15669L11.8966 4.67433L14.1476 13.0752L16.0795 12.5576Z" fill="#F7F7F7"/>
<path fill-rule="evenodd" clip-rule="evenodd" d="M0 14H4V18H0V14ZM1 17H3V15H1V17Z" fill="#CC8B76"/>
</svg>
