<svg width="20" height="20" viewBox="0 0 20 20" fill="none" xmlns="http://www.w3.org/2000/svg">
<path fill-rule="evenodd" clip-rule="evenodd" d="M13.5788 10.7716L6.21372 4.18481L9.26146 1.21672L8.02817 0L4.53577 0.983954L1.88153 3.56954L2.09198 4.45471L1.19574 4.2376L0 5.40241L2.48234 7.82006L3.50141 6.82707L3.29783 5.9484L4.08814 6.25536L4.86105 5.50223L11.7116 12.5892C12.2252 13.1224 13.0812 13.1399 13.6117 12.6221C14.1431 12.1055 14.1262 11.2718 13.5788 10.7716Z" fill="#252525"/>
<g opacity="0.4" filter="url(#filter0_d)">
<path fill-rule="evenodd" clip-rule="evenodd" d="M8 11.9001C8.39768 9.94102 9.94085 8.39785 11.9 8.00017V10.0709C11.0476 10.3721 10.372 11.0477 10.0707 11.9001H8ZM8 13.9001C8.39768 15.8593 9.94085 17.4024 11.9 17.8001V15.7294C11.0476 15.4282 10.372 14.7526 10.0707 13.9001H8ZM15.7293 13.9001C15.428 14.7526 14.7524 15.4282 13.9 15.7294V17.8001C15.8591 17.4024 17.4023 15.8593 17.8 13.9001H15.7293ZM17.8 11.9001C17.4023 9.94102 15.8591 8.39785 13.9 8.00017V10.0709C14.7524 10.3721 15.428 11.0477 15.7293 11.9001H17.8Z" fill="#FFAE93"/>
<path d="M11.9 8.00017H12.4V7.38848L11.8005 7.51016L11.9 8.00017ZM8 11.9001L7.50999 11.8007L7.38831 12.4001H8V11.9001ZM11.9 10.0709L12.0666 10.5423L12.4 10.4244V10.0709H11.9ZM10.0707 11.9001V12.4001H10.4243L10.5421 12.0668L10.0707 11.9001ZM8 13.9001V13.4001H7.38831L7.50999 13.9996L8 13.9001ZM11.9 17.8001L11.8005 18.2901L12.4 18.4118V17.8001H11.9ZM11.9 15.7294H12.4V15.3759L12.0666 15.258L11.9 15.7294ZM10.0707 13.9001L10.5421 13.7335L10.4243 13.4001H10.0707V13.9001ZM13.9 15.7294L13.7334 15.258L13.4 15.3759V15.7294H13.9ZM15.7293 13.9001V13.4001H15.3757L15.2579 13.7335L15.7293 13.9001ZM13.9 17.8001H13.4V18.4118L13.9994 18.2901L13.9 17.8001ZM17.8 13.9001L18.29 13.9996L18.4117 13.4001H17.8V13.9001ZM13.9 8.00017L13.9994 7.51016L13.4 7.38848V8.00017H13.9ZM17.8 11.9001V12.4001H18.4117L18.29 11.8007L17.8 11.9001ZM13.9 10.0709H13.4V10.4244L13.7334 10.5423L13.9 10.0709ZM15.7293 11.9001L15.2579 12.0668L15.3757 12.4001H15.7293V11.9001ZM11.8005 7.51016C9.64459 7.94779 7.94762 9.64476 7.50999 11.8007L8.49001 11.9996C8.84774 10.2373 10.2371 8.84791 11.9994 8.49017L11.8005 7.51016ZM12.4 10.0709V8.00017H11.4V10.0709H12.4ZM10.5421 12.0668C10.7931 11.3568 11.3566 10.7932 12.0666 10.5423L11.7334 9.59944C10.7385 9.95106 9.95089 10.7387 9.59927 11.7335L10.5421 12.0668ZM10.0707 11.4001H8V12.4001H10.0707V11.4001ZM7.50999 13.9996C7.94762 16.1555 9.64459 17.8525 11.8005 18.2901L11.9994 17.3101C10.2371 16.9524 8.84774 15.563 8.49001 13.8007L7.50999 13.9996ZM12.4 17.8001V15.7294H11.4V17.8001H12.4ZM12.0666 15.258C11.3566 15.0071 10.7931 14.4435 10.5421 13.7335L9.59927 14.0668C9.95089 15.0616 10.7385 15.8492 11.7334 16.2009L12.0666 15.258ZM8 14.4001H10.0707V13.4001H8V14.4001ZM14.0666 16.2009C15.0614 15.8492 15.8491 15.0616 16.2007 14.0668L15.2579 13.7335C15.0069 14.4435 14.4433 15.0071 13.7334 15.258L14.0666 16.2009ZM14.4 17.8001V15.7294H13.4V17.8001H14.4ZM17.31 13.8007C16.9522 15.563 15.5629 16.9524 13.8005 17.3101L13.9994 18.2901C16.1554 17.8525 17.8523 16.1555 18.29 13.9996L17.31 13.8007ZM15.7293 14.4001H17.8V13.4001H15.7293V14.4001ZM13.8005 8.49017C15.5629 8.84791 16.9522 10.2373 17.31 11.9996L18.29 11.8007C17.8523 9.64476 16.1554 7.94779 13.9994 7.51016L13.8005 8.49017ZM14.4 10.0709V8.00017H13.4V10.0709H14.4ZM16.2007 11.7335C15.8491 10.7387 15.0614 9.95106 14.0666 9.59944L13.7334 10.5423C14.4433 10.7932 15.0069 11.3568 15.2579 12.0668L16.2007 11.7335ZM17.8 11.4001H15.7293V12.4001H17.8V11.4001Z" fill="#CC8B76"/>
</g>
<defs>
<filter id="filter0_d" x="6.38843" y="6.38848" width="13.0233" height="13.0233" filterUnits="userSpaceOnUse" color-interpolation-filters="sRGB">
<feFlood flood-opacity="0" result="BackgroundImageFix"/>
<feColorMatrix in="SourceAlpha" type="matrix" values="0 0 0 0 0 0 0 0 0 0 0 0 0 0 0 0 0 0 127 0"/>
<feOffset/>
<feGaussianBlur stdDeviation="0.5"/>
<feColorMatrix type="matrix" values="0 0 0 0 1 0 0 0 0 1 0 0 0 0 1 0 0 0 0.5 0"/>
<feBlend mode="normal" in2="BackgroundImageFix" result="effect1_dropShadow"/>
<feBlend mode="normal" in="SourceGraphic" in2="effect1_dropShadow" result="shape"/>
</filter>
</defs>
</svg>
