<svg width="18" height="18" viewBox="0 0 18 18" fill="none" xmlns="http://www.w3.org/2000/svg">
<path opacity="0.4" fill-rule="evenodd" clip-rule="evenodd" d="M4.77322 5.26923L3.08094 9.49992L4.77322 13.7306L9.00391 15.4229L13.2346 13.7306L14.9269 9.49992L13.2346 5.26923L9.00391 3.57695L4.77322 5.26923ZM9.00391 2.49992L4.00391 4.49992L2.00391 9.49992L4.00391 14.4999L9.00391 16.4999L14.0039 14.4999L16.0039 9.49992L14.0039 4.49992L9.00391 2.49992Z" fill="#FFAE93"/>
<path fill-rule="evenodd" clip-rule="evenodd" d="M8.00391 2H10.0039V4H8.00391V2Z" fill="#FFAE93"/>
<path fill-rule="evenodd" clip-rule="evenodd" d="M12.5039 3.99992H14.5039V5.99992H12.5039V3.99992Z" fill="#FFAE93"/>
<path fill-rule="evenodd" clip-rule="evenodd" d="M14.5039 8.49992H16.5039V10.4999H14.5039V8.49992Z" fill="#FFAE93"/>
<path fill-rule="evenodd" clip-rule="evenodd" d="M12.5039 12.9999H14.5039V14.9999H12.5039V12.9999Z" fill="#FFAE93"/>
<path fill-rule="evenodd" clip-rule="evenodd" d="M8.00391 15.0001H10.0039V17.0001H8.00391V15.0001Z" fill="#FFAE93"/>
<path fill-rule="evenodd" clip-rule="evenodd" d="M3.50391 12.9999H5.50391V14.9999H3.50391V12.9999Z" fill="#FFAE93"/>
<path fill-rule="evenodd" clip-rule="evenodd" d="M1.50391 8.49992H3.50391V10.4999H1.50391V8.49992Z" fill="#FFAE93"/>
<path fill-rule="evenodd" clip-rule="evenodd" d="M3.50391 3.99992H5.50391V5.99992H3.50391V3.99992Z" fill="#FFAE93"/>
</svg>
