<svg width="18" height="36" viewBox="0 0 18 36" fill="none" xmlns="http://www.w3.org/2000/svg">
<path d="M1 17H11C11.5523 17 12 16.5523 12 16C12 15.4477 11.5523 15 11 15H1C0.447715 15 0 15.4477 0 16C0 16.5523 0.447715 17 1 17Z" fill="#FFAE93"/>
<path fill-rule="evenodd" clip-rule="evenodd" d="M9.01782 1L5.15412 2.03528L5.41294 3.0012L9.27664 1.96593L9.01782 1ZM5.67176 3.96716L9.53546 2.93188L12.1236 12.5911L10.9683 16.0066L8.25995 13.6264L5.67176 3.96716ZM11.0794 12.5575L8.82835 4.15665L6.8965 4.67429L9.14751 13.0752L11.0794 12.5575Z" fill="#F7F7F7"/>
<path fill-rule="evenodd" clip-rule="evenodd" d="M0 13.9999H4V17.9999H0V13.9999ZM1 16.9999H3V14.9999H1V16.9999Z" fill="#CC8B76"/>
</svg>
