<svg width="18" height="19" viewBox="0 0 18 19" fill="none" xmlns="http://www.w3.org/2000/svg">
<path fill-rule="evenodd" clip-rule="evenodd" d="M4.5 14.5264L11.8194 2.52637H16.5V11.0264L12.5 14.5264H4.5Z" fill="#FFAE93"/>
<path opacity="0.4" d="M1.5 14.5264L5.5 10.5264" stroke="#F7F7F7" stroke-dasharray="1"/>
<path opacity="0.4" d="M6 10.5264H15.5" stroke="#F7F7F7" stroke-dasharray="1"/>
<path opacity="0.4" d="M5.5 7.02637V10.0264" stroke="#F7F7F7" stroke-dasharray="1"/>
<path d="M16.4999 2.52637H16.9999C16.9999 2.25023 16.7761 2.02637 16.4999 2.02637L16.4999 2.52637ZM16.4999 10.5264L16.8535 10.8799C16.9473 10.7862 16.9999 10.659 16.9999 10.5264H16.4999ZM12.4999 14.5264V15.0264C12.6325 15.0264 12.7597 14.9737 12.8535 14.8799L12.4999 14.5264ZM3.49994 14.0264C3.2238 14.0264 2.99994 14.2502 2.99994 14.5264C2.99994 14.8025 3.2238 15.0264 3.49994 15.0264V14.0264ZM6.49994 6.02636C6.2238 6.02636 5.99994 6.25022 5.99994 6.52636C5.99994 6.8025 6.2238 7.02636 6.49994 7.02636L6.49994 6.02636ZM8.49994 2.02636C8.2238 2.02636 7.99994 2.25022 7.99994 2.52636C7.99994 2.8025 8.2238 3.02636 8.49994 3.02636L8.49994 2.02636ZM1.99994 9.52636C1.99994 9.25022 1.77608 9.02636 1.49994 9.02636C1.2238 9.02636 0.999939 9.25022 0.999939 9.52636H1.99994ZM1.49994 14.5264H0.999939C0.999939 14.8025 1.2238 15.0264 1.49994 15.0264V14.5264ZM5.03715 15.0264C5.3133 15.0264 5.53715 14.8025 5.53715 14.5264C5.53715 14.2502 5.3133 14.0264 5.03715 14.0264V15.0264ZM12.751 1.24093C12.884 0.998956 12.7957 0.694934 12.5538 0.561874C12.3118 0.428814 12.0078 0.517103 11.8747 0.759074L12.751 1.24093ZM3.06181 16.7854C2.92875 17.0274 3.01704 17.3314 3.25901 17.4644C3.50098 17.5975 3.80501 17.5092 3.93807 17.2672L3.06181 16.7854ZM3.99994 1.69299C3.99994 1.41685 3.77608 1.19299 3.49994 1.19299C3.2238 1.19299 2.99994 1.41685 2.99994 1.69299H3.99994ZM2.99994 7.49169C2.99994 7.76783 3.2238 7.99169 3.49994 7.99169C3.77608 7.99169 3.99994 7.76783 3.99994 7.49169H2.99994ZM6.39928 5.09241C6.67542 5.09241 6.89928 4.86855 6.89928 4.59241C6.89928 4.31626 6.67542 4.09241 6.39928 4.09241V5.09241ZM0.600586 4.09241C0.324444 4.09241 0.100586 4.31626 0.100586 4.59241C0.100586 4.86855 0.324444 5.09241 0.600586 5.09241V4.09241ZM12.8535 6.87992L16.8535 2.87992L16.1464 2.17281L12.1464 6.17281L12.8535 6.87992ZM15.9999 2.52637V10.5264H16.9999V2.52637H15.9999ZM11.9999 6.52637V14.5264H12.9999V6.52637H11.9999ZM3.49994 15.0264H12.4999V14.0264H3.49994V15.0264ZM12.8535 14.8799L16.8535 10.8799L16.1464 10.1728L12.1464 14.1728L12.8535 14.8799ZM0.999939 9.52636V14.5264H1.99994V9.52636H0.999939ZM1.49994 15.0264H5.03715V14.0264H1.49994V15.0264ZM11.8747 0.759074L3.06181 16.7854L3.93807 17.2672L12.751 1.24093L11.8747 0.759074ZM2.99994 1.69299V7.49169H3.99994V1.69299H2.99994ZM6.39928 4.09241H0.600586V5.09241H6.39928V4.09241ZM8.49994 3.02636L16.4999 3.02637L16.4999 2.02637L8.49994 2.02636L8.49994 3.02636ZM6.49994 7.02636L12.4999 7.02637L12.4999 6.02637L6.49994 6.02636L6.49994 7.02636Z" fill="#F7F7F7"/>
</svg>
