<svg width="18" height="18" viewBox="0 0 18 18" fill="none" xmlns="http://www.w3.org/2000/svg">
<path d="M15 3.4566L3 15.4566" stroke="#FFAE93" stroke-linecap="square"/>
<path d="M2.5 12.4566L4 9.9566" stroke="#FFAE93" stroke-linecap="round"/>
<path d="M2.5 12.4566L0.5 10.9566" stroke="#FFAE93" stroke-linecap="round"/>
<path d="M2.00004 9.45655L1.57577 9.45655L1.57577 9.45655L2.00004 9.45655ZM2.15974 12.4094C2.27293 12.6829 2.531 12.7823 2.73617 12.6314C2.94133 12.4805 3.01589 12.1364 2.90271 11.8629L2.15974 12.4094ZM3.33077 6.20211C3.47752 5.95855 3.44839 5.60249 3.26572 5.40683C3.08305 5.21117 2.816 5.25 2.66926 5.49356L3.33077 6.20211ZM16 9.45661L16.4243 9.45661L16.4243 9.45661L16 9.45661ZM15.8403 6.50378C15.7272 6.23023 15.4691 6.13081 15.2639 6.28173C15.0588 6.43264 14.9842 6.77674 15.0974 7.05029L15.8403 6.50378ZM14.6693 12.7111C14.5225 12.9546 14.5517 13.3107 14.7343 13.5064C14.917 13.702 15.1841 13.6632 15.3308 13.4196L14.6693 12.7111ZM1.57577 9.45655C1.57578 10.4679 1.77244 11.4733 2.15974 12.4094L2.90271 11.8629C2.58177 11.0872 2.4243 10.2689 2.4243 9.45655L1.57577 9.45655ZM2.66926 5.49356C1.94679 6.69269 1.57577 8.06693 1.57577 9.45655L2.4243 9.45655C2.4243 8.34394 2.71994 7.21595 3.33077 6.20211L2.66926 5.49356ZM16.4243 9.45661C16.4243 8.44529 16.2276 7.43984 15.8403 6.50378L15.0974 7.05029C15.4183 7.82595 15.5758 8.64422 15.5758 9.45661L16.4243 9.45661ZM15.3308 13.4196C16.0533 12.2205 16.4243 10.8462 16.4243 9.45661L15.5758 9.45661C15.5758 10.5692 15.2801 11.6972 14.6693 12.7111L15.3308 13.4196Z" fill="#FFAE93"/>
<path d="M15.5 6.4566L14 8.9566" stroke="#FFAE93" stroke-linecap="round"/>
<path d="M15.5 6.4566L17.5 7.9566" stroke="#FFAE93" stroke-linecap="round"/>
</svg>
