<svg width="18" height="18" viewBox="0 0 18 18" fill="none" xmlns="http://www.w3.org/2000/svg">
<path d="M3 3.00001L15 15" stroke="#252525" stroke-linecap="square"/>
<path opacity="0.4" d="M15 3.00001L3 15" stroke="#252525" stroke-dasharray="1"/>
<path d="M2.5 12L4 9.50001" stroke="#252525" stroke-linecap="round"/>
<path d="M2.5 12L0.5 10.5" stroke="#252525" stroke-linecap="round"/>
<path d="M2.00004 8.99996L1.57578 8.99996L1.57578 8.99996L2.00004 8.99996ZM2.15974 11.9528C2.27293 12.2263 2.531 12.3258 2.73617 12.1748C2.94133 12.0239 3.01589 11.6798 2.90271 11.4063L2.15974 11.9528ZM3.33077 5.74552C3.47752 5.50196 3.44839 5.1459 3.26572 4.95024C3.08305 4.75458 2.816 4.79341 2.66926 5.03697L3.33077 5.74552ZM16 9.00002L16.4243 9.00002L16.4243 9.00002L16 9.00002ZM15.8403 6.04719C15.7272 5.77364 15.4691 5.67422 15.2639 5.82514C15.0588 5.97605 14.9842 6.32015 15.0974 6.5937L15.8403 6.04719ZM14.6693 12.2545C14.5225 12.498 14.5517 12.8541 14.7343 13.0498C14.917 13.2454 15.1841 13.2066 15.3308 12.963L14.6693 12.2545ZM1.57578 8.99996C1.57578 10.0113 1.77244 11.0167 2.15974 11.9528L2.90271 11.4063C2.58177 10.6306 2.4243 9.81235 2.4243 8.99996L1.57578 8.99996ZM2.66926 5.03697C1.94679 6.2361 1.57578 7.61034 1.57578 8.99996L2.4243 8.99996C2.4243 7.88735 2.71994 6.75936 3.33077 5.74552L2.66926 5.03697ZM16.4243 9.00002C16.4243 7.9887 16.2276 6.98325 15.8403 6.04719L15.0974 6.5937C15.4183 7.36936 15.5758 8.18762 15.5758 9.00002L16.4243 9.00002ZM15.3308 12.963C16.0533 11.7639 16.4243 10.3897 16.4243 9.00002L15.5758 9.00002C15.5758 10.1126 15.2801 11.2406 14.6693 12.2545L15.3308 12.963Z" fill="#252525"/>
<path d="M15.5 6.00001L14 8.50001" stroke="#252525" stroke-linecap="round"/>
<path d="M15.5 6.00001L17.5 7.50001" stroke="#252525" stroke-linecap="round"/>
</svg>
