<svg width="18" height="18" viewBox="0 0 18 18" fill="none" xmlns="http://www.w3.org/2000/svg">
<path opacity="0.4" fill-rule="evenodd" clip-rule="evenodd" d="M2.30242 6L4 4.31639V5H4.73081L3 6.71656V6H2.30242ZM1 14H2V9H1V14ZM2.30242 14H3V14.7166L4.73081 13H4V12.3164L2.30242 14ZM6.0332 5V10H5.0332V5H6.0332Z" fill="#F7F7F7"/>
<path d="M4.5 2.5H6.5V4.5H4.5V2.5Z" stroke="#F7F7F7"/>
<path d="M0.5 6.5H2.5V8.5H0.5V6.5Z" stroke="#F7F7F7"/>
<path d="M4.5 10.5H6.5V12.5H4.5V10.5Z" stroke="#F7F7F7"/>
<path d="M0.5 14.5H2.5V16.5H0.5V14.5Z" stroke="#F7F7F7"/>
<path opacity="0.4" fill-rule="evenodd" clip-rule="evenodd" d="M13.3024 6.00001L15 4.31641V5.00001H15.7308L14 6.71658V6.00001H13.3024ZM12 14H13V9.00001H12V14ZM13.3024 14H14V14.7166L15.7308 13H15V12.3164L13.3024 14ZM17.0332 5.00001V10H16.0332V5.00001H17.0332Z" fill="#F7F7F7"/>
<path d="M15.5 2.5H17.5V4.5H15.5V2.5Z" stroke="#F7F7F7"/>
<path d="M11.5 6.5H13.5V8.5H11.5V6.5Z" stroke="#F7F7F7"/>
<path d="M15.5 10.5H17.5V12.5H15.5V10.5Z" stroke="#F7F7F7"/>
<path d="M11.5 14.5H13.5V16.5H11.5V14.5Z" stroke="#F7F7F7"/>
</svg>
