<svg width="18" height="18" viewBox="0 0 18 18" fill="none" xmlns="http://www.w3.org/2000/svg">
<path opacity="0.4" d="M1.5 16L5.5 12" stroke="#F7F7F7" stroke-dasharray="1"/>
<path opacity="0.4" d="M6 12H16" stroke="#F7F7F7" stroke-dasharray="1"/>
<path opacity="0.4" d="M5.5 4.5V11.5" stroke="#F7F7F7" stroke-dasharray="1"/>
<path d="M16.5 6V12" stroke="#F7F7F7" stroke-linecap="round"/>
<path d="M12.5 10V16" stroke="#F7F7F7" stroke-linecap="round"/>
<path d="M1.5 16H12.5" stroke="#F7F7F7" stroke-linecap="round"/>
<path d="M14.5 4L16.5 6L12.5 10L10.5 8L14.5 4Z" fill="#FFAE93"/>
<path d="M14.5 4L16.5 6L12.5 10L10.5 8L14.5 4Z" stroke="#FFAE93"/>
<path d="M12.5 16L16.5 12" stroke="#F7F7F7" stroke-linecap="round"/>
<path d="M12.5 10L16.5 6" stroke="#F7F7F7" stroke-linecap="round"/>
<path d="M10.5 8L14.5 4" stroke="#F7F7F7" stroke-linecap="round"/>
<path d="M1.5 8H10.5" stroke="#F7F7F7" stroke-linecap="round"/>
<path d="M5.5 4H14.5" stroke="#F7F7F7" stroke-linecap="round"/>
<path d="M1.5 8L5.5 4" stroke="#F7F7F7" stroke-linecap="round"/>
<path d="M1.5 8V16" stroke="#F7F7F7" stroke-linecap="round" stroke-linejoin="round"/>
<path d="M12.5 10L10.5 8" stroke="#F7F7F7" stroke-linecap="round"/>
<path d="M16.5 6L14.5 4" stroke="#F7F7F7" stroke-linecap="round"/>
</svg>
