<svg width="18" height="18" viewBox="0 0 18 18" fill="none" xmlns="http://www.w3.org/2000/svg">
<path opacity="0.4" d="M2.54242 8.99988L4.38856 4.38453L9.00391 2.53839L13.6193 4.38453L15.4654 8.99988L13.6193 13.6152L9.00391 15.4614L4.38856 13.6152L2.54242 8.99988Z" stroke="#545FD9"/>
<path fill-rule="evenodd" clip-rule="evenodd" d="M8.00391 1.5H10.0039V3.5H8.00391V1.5Z" fill="#545FD9"/>
<path fill-rule="evenodd" clip-rule="evenodd" d="M12.5039 3.49988H14.5039V5.49988H12.5039V3.49988Z" fill="#545FD9"/>
<path fill-rule="evenodd" clip-rule="evenodd" d="M14.5039 7.99988H16.5039V9.99988H14.5039V7.99988Z" fill="#545FD9"/>
<path fill-rule="evenodd" clip-rule="evenodd" d="M12.5039 12.4999H14.5039V14.4999H12.5039V12.4999Z" fill="#545FD9"/>
<path fill-rule="evenodd" clip-rule="evenodd" d="M8.00391 14.5001H10.0039V16.5001H8.00391V14.5001Z" fill="#545FD9"/>
<path fill-rule="evenodd" clip-rule="evenodd" d="M3.50391 12.4999H5.50391V14.4999H3.50391V12.4999Z" fill="#545FD9"/>
<path fill-rule="evenodd" clip-rule="evenodd" d="M1.50391 7.99988H3.50391V9.99988H1.50391V7.99988Z" fill="#545FD9"/>
<path fill-rule="evenodd" clip-rule="evenodd" d="M3.50391 3.49988H5.50391V5.49988H3.50391V3.49988Z" fill="#545FD9"/>
</svg>
