<svg width="18" height="18" viewBox="0 0 18 18" fill="none" xmlns="http://www.w3.org/2000/svg">
<path fill-rule="evenodd" clip-rule="evenodd" d="M6 14.5L12.5 2.49996H16.5V11L12.5 14.5H6Z" fill="#FFAE93"/>
<path opacity="0.4" d="M1.5 14.5L5.5 10.5" stroke="#545FD9" stroke-dasharray="1"/>
<path opacity="0.5" d="M5.5 6.99996V9.99996" stroke="#545FD9" stroke-dasharray="1"/>
<path d="M12.5 2.49996H16.5" stroke="#545FD9" stroke-linecap="round"/>
<path d="M10.5 6.49996H12.5" stroke="#545FD9" stroke-linecap="round"/>
<path d="M12.5 6.49996L16.5 2.49996" stroke="#545FD9" stroke-linecap="round"/>
<path d="M16.5 2.49996V10.5" stroke="#545FD9" stroke-linecap="round"/>
<path d="M12.5 6.49996V14.5" stroke="#545FD9" stroke-linecap="round"/>
<path d="M6 14.5H12.5" stroke="#545FD9" stroke-linecap="round"/>
<path d="M12.5 14.5L16.5 10.5" stroke="#545FD9" stroke-linecap="round"/>
<path d="M6.5 6.49996H8" stroke="#545FD9" stroke-linecap="round"/>
<path d="M8.5 2.49996H10.5" stroke="#545FD9" stroke-linecap="round"/>
<path d="M1.5 9.49996L1.5 14.5H4" stroke="#545FD9" stroke-linecap="round" stroke-linejoin="round"/>
<path d="M3.5 1.66663V7.46532" stroke="#545FD9" stroke-linecap="round"/>
<path d="M6.39928 4.56604H0.600586" stroke="#545FD9" stroke-linecap="round"/>
<path d="M10.5 2.5L4 14.5" stroke="#545FD9" stroke-linecap="round"/>
<path d="M12.5 2.5L6 14.5" stroke="#545FD9" stroke-linecap="round"/>
<path opacity="0.4" d="M6 10.5H15.5" stroke="#545FD9" stroke-dasharray="1"/>
</svg>
