<svg width="18" height="36" viewBox="0 0 18 36" fill="none" xmlns="http://www.w3.org/2000/svg">
<path d="M2.5 13.5H4.5V15.5H2.5V13.5Z" stroke="#F7F7F7"/>
<path d="M1.5 7.5H3.5V9.5H1.5V7.5Z" stroke="#F7F7F7"/>
<path d="M6.5 4.5H8.5V6.5H6.5V4.5Z" stroke="#F7F7F7"/>
<path d="M12.5 1.5H14.5V3.5H12.5V1.5Z" stroke="#F7F7F7"/>
<path d="M13.5 9.5H15.5V11.5H13.5V9.5Z" stroke="#F7F7F7"/>
<path d="M9.5 14.5H11.5V16.5H9.5V14.5Z" stroke="#F7F7F7"/>
<path fill-rule="evenodd" clip-rule="evenodd" d="M12 2.69101L9.00003 4.19101V5.30905L12 3.80905V2.69101ZM13.1837 4L13.8087 9H14.8165L14.1915 4H13.1837ZM11.0598 14L13 11.5747V12H13.9404L12 14.4254V14H11.0598ZM9.00003 14.7806L5.00003 14.2092V15.2194L9.00003 15.7908V14.7806ZM6.00003 6.98313V5.81694L4.00003 7.01694V8.18313L6.00003 6.98313ZM2.24316 10L2.74316 13H3.75696L3.25696 10H2.24316Z" fill="#F7F7F7"/>
</svg>
