<svg width="18" height="18" viewBox="0 0 18 18" fill="none" xmlns="http://www.w3.org/2000/svg">
<path d="M5.5 5.5H12.5V12.5H5.5V5.5Z" stroke="#FFAE93"/>
<mask id="path-2-inside-1" fill="white">
<path fill-rule="evenodd" clip-rule="evenodd" d="M15.5 6H12.5C12.224 6 12 5.776 12 5.5V2.5C12 2.224 12.224 2 12.5 2C12.776 2 13 2.224 13 2.5V5H15.5C15.776 5 16 5.224 16 5.5C16 5.776 15.776 6 15.5 6Z"/>
</mask>
<path d="M13 5H12V6H13V5ZM15.5 5H12.5V7H15.5V5ZM12.5 5C12.7763 5 13 5.22372 13 5.5H11C11 6.32828 11.6717 7 12.5 7V5ZM13 5.5V2.5H11V5.5H13ZM13 2.5C13 2.77628 12.7763 3 12.5 3V1C11.6717 1 11 1.67172 11 2.5H13ZM12.5 3C12.2237 3 12 2.77628 12 2.5H14C14 1.67172 13.3283 1 12.5 1V3ZM12 2.5V5H14V2.5H12ZM13 6H15.5V4H13V6ZM15.5 6C15.2237 6 15 5.77628 15 5.5H17C17 4.67172 16.3283 4 15.5 4V6ZM15 5.5C15 5.22372 15.2237 5 15.5 5V7C16.3283 7 17 6.32828 17 5.5H15Z" fill="#F7F7F7" mask="url(#path-2-inside-1)"/>
<mask id="path-4-inside-2" fill="white">
<path fill-rule="evenodd" clip-rule="evenodd" d="M2.5 12H5.5C5.776 12 6 12.224 6 12.5V15.5C6 15.776 5.776 16 5.5 16C5.224 16 5 15.776 5 15.5V13H2.5C2.224 13 2 12.776 2 12.5C2 12.224 2.224 12 2.5 12Z"/>
</mask>
<path d="M5 13H6V12H5V13ZM2.5 13H5.5V11H2.5V13ZM5.5 13C5.22372 13 5 12.7763 5 12.5H7C7 11.6717 6.32828 11 5.5 11V13ZM5 12.5V15.5H7V12.5H5ZM5 15.5C5 15.2237 5.22372 15 5.5 15V17C6.32828 17 7 16.3283 7 15.5H5ZM5.5 15C5.77628 15 6 15.2237 6 15.5H4C4 16.3283 4.67172 17 5.5 17V15ZM6 15.5V13H4V15.5H6ZM5 12H2.5V14H5V12ZM2.5 12C2.77628 12 3 12.2237 3 12.5H1C1 13.3283 1.67172 14 2.5 14V12ZM3 12.5C3 12.7763 2.77628 13 2.5 13V11C1.67172 11 1 11.6717 1 12.5H3Z" fill="#F7F7F7" mask="url(#path-4-inside-2)"/>
<path d="M5.47758 12.5057L5.47845 12.5066C5.48618 12.5143 5.48618 12.5267 5.47845 12.5344L2.53545 15.4774C2.52819 15.4847 2.5151 15.486 2.50568 15.4766C2.4986 15.4695 2.49734 15.4578 2.50652 15.4486C2.50653 15.4486 2.50654 15.4486 2.50655 15.4486L5.45043 12.5067L5.45043 12.5067L5.45142 12.5057C5.45896 12.4981 5.47004 12.4981 5.47758 12.5057Z" stroke="#F7F7F7"/>
<path d="M12.5224 5.49432L12.5216 5.49345C12.5138 5.48571 12.5138 5.47329 12.5216 5.46555L15.4646 2.52255C15.4718 2.51529 15.4849 2.51405 15.4943 2.52342C15.5014 2.53047 15.5027 2.5422 15.4935 2.55141C15.4935 2.55142 15.4935 2.55144 15.4934 2.55145L12.5496 5.49333L12.5496 5.49333L12.5486 5.49432C12.541 5.50189 12.53 5.50189 12.5224 5.49432Z" stroke="#F7F7F7"/>
<path fill-rule="evenodd" clip-rule="evenodd" d="M8 8H10V10H8V8Z" fill="#FFAE93"/>
</svg>
