<svg width="18" height="18" viewBox="0 0 18 18" fill="none" xmlns="http://www.w3.org/2000/svg">
<path opacity="0.4" d="M1.5 15.5L5.5 11.5" stroke="#252525" stroke-dasharray="1"/>
<path opacity="0.4" d="M6 11.5H16" stroke="#252525" stroke-dasharray="1"/>
<path opacity="0.4" d="M5.5 3.99996V11" stroke="#252525" stroke-dasharray="1"/>
<path fill-rule="evenodd" clip-rule="evenodd" d="M10.5 7.49996L14.5 3.49996L16.5 5.49996L12.5 9.49996L10.5 7.49996Z" fill="#FFAE93"/>
<path d="M16.5 5.49996V11.5" stroke="#252525" stroke-linecap="round"/>
<path d="M12.5 9.49996V15.5" stroke="#252525" stroke-linecap="round"/>
<path d="M1.5 15.5H12.5" stroke="#252525" stroke-linecap="round"/>
<path d="M12.5 15.5L16.5 11.5" stroke="#252525" stroke-linecap="round"/>
<path d="M12.5 9.49996L16.5 5.49996" stroke="#252525" stroke-linecap="round"/>
<path d="M10.5 7.49996L14.5 3.49996" stroke="#252525" stroke-linecap="round"/>
<path d="M1.5 7.49996H10.5" stroke="#252525" stroke-linecap="round"/>
<path d="M5.5 3.49996H14.5" stroke="#252525" stroke-linecap="round"/>
<path d="M1.5 7.49996L5.5 3.49996" stroke="#252525" stroke-linecap="round"/>
<path d="M1.5 7.49996V15.5" stroke="#252525" stroke-linecap="round" stroke-linejoin="round"/>
<path d="M12.5 9.49996L10.5 7.49996" stroke="#252525" stroke-linecap="round"/>
<path d="M16.5 5.49996L14.5 3.49996" stroke="#252525" stroke-linecap="round"/>
</svg>
