<svg width="18" height="18" viewBox="0 0 18 18" fill="none" xmlns="http://www.w3.org/2000/svg">
<path d="M15.4571 14.0178C14.1283 15.4153 12.8045 15.782 11.146 15.4374C10.3758 15.2773 9.65117 15.0105 8.38675 14.4609C5.94809 13.4008 5.21816 13.1519 4.02351 13.2017C2.29669 13.2738 0.994396 14.3873 0.0753403 16.6192C-0.134942 17.1299 0.108583 17.7144 0.619269 17.9247C1.12995 18.135 1.71441 17.8914 1.9247 17.3807C2.57022 15.813 3.24517 15.236 4.10691 15.2C4.86182 15.1685 5.49274 15.3836 7.58943 16.2951C8.97346 16.8967 9.79595 17.1995 10.739 17.3955C13.0524 17.8763 15.0829 17.3137 16.9065 15.396C17.287 14.9958 17.2711 14.3628 16.8709 13.9822C16.4706 13.6017 15.8377 13.6176 15.4571 14.0178Z" fill="url(#paint0_linear)"/>
<path fill-rule="evenodd" clip-rule="evenodd" d="M9.01788 0.999947L5.15417 2.03522L5.41299 3.00115L9.2767 1.96587L9.01788 0.999947ZM5.67181 3.96711L9.53552 2.93183L12.1237 12.5911L10.9683 16.0065L8.26 13.6264L5.67181 3.96711ZM11.0794 12.5575L8.82841 4.15659L6.89656 4.67423L9.14757 13.0751L11.0794 12.5575Z" fill="#252525"/>
<defs>
<linearGradient id="paint0_linear" x1="4.75872" y1="17.2865" x2="16.8352" y2="17.2865" gradientUnits="userSpaceOnUse">
<stop stop-color="#FFAE93"/>
<stop offset="1" stop-color="white"/>
</linearGradient>
</defs>
</svg>
