<svg width="18" height="18" viewBox="0 0 18 18" fill="none" xmlns="http://www.w3.org/2000/svg">
<path fill-rule="evenodd" clip-rule="evenodd" d="M4.5 14.5L11.8194 2.50001H16.5V11L12.5 14.5H4.5Z" fill="#FFAE93"/>
<path opacity="0.4" d="M1.5 14.5L5.5 10.5" stroke="#252525" stroke-dasharray="1"/>
<path opacity="0.4" d="M6 10.5H15.5" stroke="#252525" stroke-dasharray="1"/>
<path opacity="0.4" d="M5.5 3.00001V10" stroke="#252525" stroke-dasharray="1"/>
<path d="M11.5 2.50001H16.5" stroke="#252525" stroke-linecap="round"/>
<path d="M9.5 6.50001H12.5" stroke="#252525" stroke-linecap="round"/>
<path d="M12.5 6.50001L16.5 2.50001" stroke="#252525" stroke-linecap="round"/>
<path d="M16.5 2.50001V10.5" stroke="#252525" stroke-linecap="round"/>
<path d="M12.5 6.50001V14.5" stroke="#252525" stroke-linecap="round"/>
<path d="M3.5 14.5H12.5" stroke="#252525" stroke-linecap="round"/>
<path d="M12.5 14.5L16.5 10.5" stroke="#252525" stroke-linecap="round"/>
<path d="M1.5 6.5H9.5" stroke="#252525" stroke-linecap="round"/>
<path d="M5.5 2.5H11.5" stroke="#252525" stroke-linecap="round"/>
<path d="M1.5 6.5L5.5 2.5" stroke="#252525" stroke-linecap="round"/>
<path d="M1.5 6.5V14.5H5.03721" stroke="#252525" stroke-linecap="round" stroke-linejoin="round"/>
<path d="M12.3129 0.97364L3.5 17" stroke="#252525" stroke-linecap="round"/>
</svg>
