<svg width="18" height="18" viewBox="0 0 18 18" fill="none" xmlns="http://www.w3.org/2000/svg">
<path d="M15.4571 13.5987C14.1283 14.9961 12.8045 15.3629 11.146 15.0182C10.3758 14.8581 9.65117 14.5913 8.38675 14.0417C5.94809 12.9816 5.21816 12.7327 4.02351 12.7826C2.29669 12.8547 0.994396 13.9681 0.0753403 16.2001C-0.134942 16.7108 0.108583 17.2952 0.619269 17.5055C1.12995 17.7158 1.71441 17.4723 1.9247 16.9616C2.57022 15.3939 3.24517 14.8168 4.10691 14.7808C4.86182 14.7493 5.49274 14.9645 7.58943 15.8759C8.97346 16.4775 9.79595 16.7804 10.739 16.9764C13.0524 17.4571 15.0829 16.8946 16.9065 14.9768C17.287 14.5766 17.2711 13.9436 16.8709 13.5631C16.4706 13.1825 15.8377 13.1984 15.4571 13.5987Z" fill="url(#paint0_linear)"/>
<path fill-rule="evenodd" clip-rule="evenodd" d="M9.01788 0.580813L5.15417 1.61609L5.41299 2.58201L9.2767 1.54674L9.01788 0.580813ZM5.67181 3.54797L9.53552 2.5127L12.1237 12.172L10.9683 15.5874L8.26 13.2072L5.67181 3.54797ZM11.0794 12.1383L8.82841 3.73746L6.89656 4.2551L9.14757 12.656L11.0794 12.1383Z" fill="#F7F7F7"/>
<defs>
<linearGradient id="paint0_linear" x1="4.75872" y1="16.8673" x2="16.8352" y2="16.8673" gradientUnits="userSpaceOnUse">
<stop stop-color="#FFAE93"/>
<stop offset="1" stop-color="white"/>
</linearGradient>
</defs>
</svg>
