<svg width="18" height="18" viewBox="0 0 18 18" fill="none" xmlns="http://www.w3.org/2000/svg">
<path opacity="0.4" fill-rule="evenodd" clip-rule="evenodd" d="M12.5 7.50008L16.5332 3.50008V11.5001L12.5 15.5001V7.50008Z" stroke="#252525" stroke-linecap="round" stroke-linejoin="round"/>
<path opacity="0.4" fill-rule="evenodd" clip-rule="evenodd" d="M1.5 7.50008L5.5332 3.50008V11.5001L1.5 15.5001V7.50008Z" stroke="#252525" stroke-linecap="round" stroke-linejoin="round"/>
<path d="M15.5 2.50004H17.5V4.50004H15.5V2.50004Z" fill="#F7F7F7" stroke="#252525"/>
<path d="M4.5 2.50004H6.5V4.50004H4.5V2.50004Z" fill="#F7F7F7" stroke="#252525"/>
<path d="M0.5 6.50004H2.5V8.50004H0.5V6.50004Z" fill="#F7F7F7" stroke="#252525"/>
<path d="M4.5 10.5H6.5V12.5H4.5V10.5Z" fill="#F7F7F7" stroke="#252525"/>
<path d="M0.5 14.5H2.5V16.5H0.5V14.5Z" fill="#F7F7F7" stroke="#252525"/>
<path d="M11.5 14.5H13.5V16.5H11.5V14.5Z" fill="#F7F7F7" stroke="#252525"/>
<path d="M11.5 6.50004H13.5V8.50004H11.5V6.50004Z" fill="#F7F7F7" stroke="#252525"/>
<path d="M15.5 10.5H17.5V12.5H15.5V10.5Z" fill="#F7F7F7" stroke="#252525"/>
</svg>
