<svg width="18" height="19" viewBox="0 0 18 19" fill="none" xmlns="http://www.w3.org/2000/svg">
<g opacity="0.8">
<path d="M12.5 14C12.5 14.8284 10.933 15.5 9 15.5C7.067 15.5 5.5 14.8284 5.5 14" stroke="#F7F7F7" stroke-linecap="round"/>
<path d="M5.5 7V14" stroke="#F7F7F7" stroke-linecap="round"/>
<path d="M12.5 7V14" stroke="#F7F7F7" stroke-linecap="round"/>
<path fill-rule="evenodd" clip-rule="evenodd" d="M9 8.5C10.933 8.5 12.5 7.82843 12.5 7C12.5 6.17157 10.933 5.5 9 5.5C7.067 5.5 5.5 6.17157 5.5 7C5.5 7.82843 7.067 8.5 9 8.5Z" stroke="#F7F7F7"/>
</g>
<g opacity="0.4">
<path d="M6 13.5C5.89181 13.5 5.78655 13.5351 5.7 13.6L1.7 16.6C1.52783 16.7291 1.4576 16.9539 1.52566 17.1581C1.59372 17.3623 1.78478 17.5 2 17.5H16C16.2152 17.5 16.4063 17.3623 16.4743 17.1581C16.5424 16.9539 16.4722 16.7291 16.3 16.6L12.3 13.6C12.2135 13.5351 12.1082 13.5 12 13.5H6Z" stroke="#F7F7F7" stroke-linecap="round" stroke-linejoin="round"/>
<line x1="8.13868" y1="13.6934" x2="5.58397" y2="17.5254" stroke="#F7F7F7" stroke-linecap="round"/>
<line x1="0.5" y1="-0.5" x2="5.10555" y2="-0.5" transform="matrix(0.5547 0.83205 0.83205 -0.5547 10 13)" stroke="#F7F7F7" stroke-linecap="round"/>
<line x1="3.5" y1="15.5" x2="14.5" y2="15.5" stroke="#F7F7F7" stroke-linecap="round"/>
</g>
</svg>
