<svg width="18" height="19" viewBox="0 0 18 19" fill="none" xmlns="http://www.w3.org/2000/svg">
<g opacity="0.4">
<path d="M6 13.5C5.89181 13.5 5.78655 13.5351 5.7 13.6L1.7 16.6C1.52783 16.7291 1.4576 16.9539 1.52566 17.1581C1.59372 17.3623 1.78478 17.5 2 17.5H16C16.2152 17.5 16.4063 17.3623 16.4743 17.1581C16.5424 16.9539 16.4722 16.7291 16.3 16.6L12.3 13.6C12.2135 13.5351 12.1082 13.5 12 13.5H6Z" stroke="#FFAE93" stroke-linecap="round" stroke-linejoin="round"/>
<line x1="8.13868" y1="13.6934" x2="5.58397" y2="17.5254" stroke="#FFAE93" stroke-linecap="round"/>
<line x1="0.5" y1="-0.5" x2="5.10555" y2="-0.5" transform="matrix(0.5547 0.83205 0.83205 -0.5547 10 13)" stroke="#FFAE93" stroke-linecap="round"/>
<line x1="3.5" y1="15.5" x2="14.5" y2="15.5" stroke="#FFAE93" stroke-linecap="round"/>
</g>
<g opacity="0.8">
<path d="M9.00004 10.9602C8.41425 11.5459 6.83134 10.9128 5.46451 9.54594C4.09767 8.17911 3.46451 6.59619 4.05029 6.01041" stroke="#FFAE93" stroke-linecap="round"/>
<path d="M9 1.06066L4.05025 6.01041" stroke="#FFAE93" stroke-linecap="round"/>
<path d="M13.9497 6.01041L8.99996 10.9602" stroke="#FFAE93" stroke-linecap="round"/>
<path fill-rule="evenodd" clip-rule="evenodd" d="M10.4142 4.59619C11.7811 5.96303 13.364 6.59619 13.9498 6.01041C14.5355 5.42462 13.9024 3.84171 12.5355 2.47487C11.1687 1.10804 9.5858 0.474874 9.00001 1.06066C8.41422 1.64645 9.04739 3.22936 10.4142 4.59619Z" stroke="#FFAE93"/>
</g>
</svg>
