<svg width="19" height="20" viewBox="0 0 19 20" fill="none" xmlns="http://www.w3.org/2000/svg">
<path opacity="0.4" fill-rule="evenodd" clip-rule="evenodd" d="M11.2446 8.68407C9.56764 7.18431 6.21372 4.18481 6.21372 4.18481L9.26146 1.21672L8.02817 0L4.53577 0.983954L1.88153 3.56954L2.09198 4.45471L1.19574 4.2376L0 5.40241L2.48234 7.82006L3.50141 6.82707L3.29783 5.9484L4.08814 6.25536L4.86105 5.50223C4.86105 5.50223 7.89245 8.63825 9.40815 10.2063C10.176 11.0006 12.0227 9.37992 11.2446 8.68407Z" fill="#F7F7F7"/>
<g filter="url(#filter0_d)">
<path fill-rule="evenodd" clip-rule="evenodd" d="M7.58911 11.5001C7.98679 9.54095 9.52996 7.99778 11.4891 7.6001V9.67079C10.6367 9.97207 9.96108 10.6477 9.6598 11.5001H7.58911ZM7.58911 13.5001C7.98679 15.4592 9.52996 17.0024 11.4891 17.4001V15.3294C10.6367 15.0281 9.96108 14.3525 9.6598 13.5001H7.58911ZM15.3184 13.5001C15.0171 14.3525 14.3415 15.0281 13.4891 15.3294V17.4001C15.4482 17.0024 16.9914 15.4592 17.3891 13.5001H15.3184ZM17.3891 11.5001C16.9914 9.54095 15.4482 7.99778 13.4891 7.6001V9.67079C14.3415 9.97207 15.0171 10.6477 15.3184 11.5001H17.3891Z" fill="#FFAE93"/>
<path d="M11.4891 7.6001H11.9891V6.98841L11.3896 7.11009L11.4891 7.6001ZM7.58911 11.5001L7.0991 11.4006L6.97742 12.0001H7.58911V11.5001ZM11.4891 9.67079L11.6557 10.1422L11.9891 10.0244V9.67079H11.4891ZM9.6598 11.5001V12.0001H10.0134L10.1312 11.6667L9.6598 11.5001ZM7.58911 13.5001V13.0001H6.97742L7.0991 13.5995L7.58911 13.5001ZM11.4891 17.4001L11.3896 17.8901L11.9891 18.0118V17.4001H11.4891ZM11.4891 15.3294H11.9891V14.9758L11.6557 14.858L11.4891 15.3294ZM9.6598 13.5001L10.1312 13.3335L10.0134 13.0001H9.6598V13.5001ZM13.4891 15.3294L13.3225 14.858L12.9891 14.9758V15.3294H13.4891ZM15.3184 13.5001V13.0001H14.9648L14.847 13.3335L15.3184 13.5001ZM13.4891 17.4001H12.9891V18.0118L13.5886 17.8901L13.4891 17.4001ZM17.3891 13.5001L17.8791 13.5995L18.0008 13.0001H17.3891V13.5001ZM13.4891 7.6001L13.5886 7.11009L12.9891 6.98841V7.6001H13.4891ZM17.3891 11.5001V12.0001H18.0008L17.8791 11.4006L17.3891 11.5001ZM13.4891 9.67079H12.9891V10.0244L13.3225 10.1422L13.4891 9.67079ZM15.3184 11.5001L14.847 11.6667L14.9648 12.0001H15.3184V11.5001ZM11.3896 7.11009C9.2337 7.54772 7.53673 9.24469 7.0991 11.4006L8.07912 11.5995C8.43685 9.83721 9.82622 8.44784 11.5886 8.0901L11.3896 7.11009ZM11.9891 9.67079V7.6001H10.9891V9.67079H11.9891ZM10.1312 11.6667C10.3822 10.9567 10.9457 10.3932 11.6557 10.1422L11.3225 9.19937C10.3276 9.55099 9.54 10.3386 9.18838 11.3335L10.1312 11.6667ZM9.6598 11.0001H7.58911V12.0001H9.6598V11.0001ZM7.0991 13.5995C7.53673 15.7555 9.2337 17.4524 11.3896 17.8901L11.5886 16.9101C9.82622 16.5523 8.43685 15.163 8.07912 13.4006L7.0991 13.5995ZM11.9891 17.4001V15.3294H10.9891V17.4001H11.9891ZM11.6557 14.858C10.9457 14.607 10.3822 14.0434 10.1312 13.3335L9.18838 13.6667C9.54 14.6615 10.3276 15.4492 11.3225 15.8008L11.6557 14.858ZM7.58911 14.0001H9.6598V13.0001H7.58911V14.0001ZM13.6557 15.8008C14.6506 15.4492 15.4382 14.6615 15.7898 13.6667L14.847 13.3335C14.596 14.0434 14.0325 14.607 13.3225 14.858L13.6557 15.8008ZM13.9891 17.4001V15.3294H12.9891V17.4001H13.9891ZM16.8991 13.4006C16.5413 15.163 15.152 16.5523 13.3896 16.9101L13.5886 17.8901C15.7445 17.4524 17.4415 15.7555 17.8791 13.5995L16.8991 13.4006ZM15.3184 14.0001H17.3891V13.0001H15.3184V14.0001ZM13.3896 8.0901C15.152 8.44784 16.5413 9.83721 16.8991 11.5995L17.8791 11.4006C17.4415 9.24469 15.7445 7.54772 13.5886 7.11009L13.3896 8.0901ZM13.9891 9.67079V7.6001H12.9891V9.67079H13.9891ZM15.7898 11.3335C15.4382 10.3386 14.6506 9.55099 13.6557 9.19937L13.3225 10.1422C14.0325 10.3932 14.596 10.9567 14.847 11.6667L15.7898 11.3335ZM17.3891 11.0001H15.3184V12.0001H17.3891V11.0001Z" fill="#CC8B76"/>
</g>
<defs>
<filter id="filter0_d" x="5.97754" y="5.9884" width="13.0233" height="13.0233" filterUnits="userSpaceOnUse" color-interpolation-filters="sRGB">
<feFlood flood-opacity="0" result="BackgroundImageFix"/>
<feColorMatrix in="SourceAlpha" type="matrix" values="0 0 0 0 0 0 0 0 0 0 0 0 0 0 0 0 0 0 127 0"/>
<feOffset/>
<feGaussianBlur stdDeviation="0.5"/>
<feColorMatrix type="matrix" values="0 0 0 0 1 0 0 0 0 1 0 0 0 0 1 0 0 0 0.5 0"/>
<feBlend mode="normal" in2="BackgroundImageFix" result="effect1_dropShadow"/>
<feBlend mode="normal" in="SourceGraphic" in2="effect1_dropShadow" result="shape"/>
</filter>
</defs>
</svg>
