<svg width="18" height="18" viewBox="0 0 18 18" fill="none" xmlns="http://www.w3.org/2000/svg">
<path fill-rule="evenodd" clip-rule="evenodd" d="M12 1H17V6H12V1ZM13 5H16V2H13V5ZM14 3H15V4H14V3Z" fill="#CC8B76"/>
<path fill-rule="evenodd" clip-rule="evenodd" d="M1 11.9999H6V16.9999H1V11.9999ZM2 15.9999H5V12.9999H2V15.9999ZM3 13.9999H4V14.9999H3V13.9999Z" fill="#CC8B76"/>
<mask id="path-3-inside-1" fill="white">
<path fill-rule="evenodd" clip-rule="evenodd" d="M5.5 9H8.5C8.776 9 9 9.224 9 9.5V12.5C9 12.776 8.776 13 8.5 13C8.224 13 8 12.776 8 12.5V10H5.5C5.224 10 5 9.776 5 9.5C5 9.224 5.224 9 5.5 9Z"/>
</mask>
<path d="M8 10H9V9H8V10ZM5.5 10H8.5V8H5.5V10ZM8.5 10C8.22372 10 8 9.77628 8 9.5H10C10 8.67172 9.32828 8 8.5 8V10ZM8 9.5V12.5H10V9.5H8ZM8 12.5C8 12.2237 8.22372 12 8.5 12V14C9.32828 14 10 13.3283 10 12.5H8ZM8.5 12C8.77628 12 9 12.2237 9 12.5H7C7 13.3283 7.67172 14 8.5 14V12ZM9 12.5V10H7V12.5H9ZM8 9H5.5V11H8V9ZM5.5 9C5.77628 9 6 9.22372 6 9.5H4C4 10.3283 4.67172 11 5.5 11V9ZM6 9.5C6 9.77628 5.77628 10 5.5 10V8C4.67172 8 4 8.67172 4 9.5H6Z" fill="#252525" mask="url(#path-3-inside-1)"/>
<path d="M8.47758 9.50568L8.47845 9.50655C8.48618 9.51429 8.48618 9.52671 8.47845 9.53445L5.53545 12.4774C5.52819 12.4847 5.5151 12.486 5.50568 12.4766C5.4986 12.4695 5.49734 12.4578 5.50652 12.4486C5.50653 12.4486 5.50654 12.4486 5.50655 12.4486L8.45043 9.50667L8.45043 9.50667L8.45142 9.50568C8.45896 9.49811 8.47004 9.49811 8.47758 9.50568Z" stroke="#252525"/>
<mask id="path-6-inside-2" fill="white">
<path fill-rule="evenodd" clip-rule="evenodd" d="M12.5 9H9.5C9.224 9 9 8.776 9 8.5V5.5C9 5.224 9.224 5 9.5 5C9.776 5 10 5.224 10 5.5V8H12.5C12.776 8 13 8.224 13 8.5C13 8.776 12.776 9 12.5 9Z"/>
</mask>
<path d="M10 8H9V9H10V8ZM12.5 8H9.5V10H12.5V8ZM9.5 8C9.77628 8 10 8.22372 10 8.5H8C8 9.32828 8.67172 10 9.5 10V8ZM10 8.5V5.5H8V8.5H10ZM10 5.5C10 5.77628 9.77628 6 9.5 6V4C8.67172 4 8 4.67172 8 5.5H10ZM9.5 6C9.22372 6 9 5.77628 9 5.5H11C11 4.67172 10.3283 4 9.5 4V6ZM9 5.5V8H11V5.5H9ZM10 9H12.5V7H10V9ZM12.5 9C12.2237 9 12 8.77628 12 8.5H14C14 7.67172 13.3283 7 12.5 7V9ZM12 8.5C12 8.22372 12.2237 8 12.5 8V10C13.3283 10 14 9.32828 14 8.5H12Z" fill="#252525" mask="url(#path-6-inside-2)"/>
<path d="M9.52242 8.49432L9.52155 8.49345C9.51382 8.48571 9.51382 8.47329 9.52155 8.46555L12.4646 5.52255C12.4718 5.51529 12.4849 5.51405 12.4943 5.52342C12.5014 5.53047 12.5027 5.5422 12.4935 5.55141C12.4935 5.55142 12.4935 5.55144 12.4934 5.55145L9.54957 8.49333L9.54957 8.49333L9.54858 8.49432C9.54104 8.50189 9.52996 8.50189 9.52242 8.49432Z" stroke="#252525"/>
</svg>
