<svg width="18" height="18" viewBox="0 0 18 18" fill="none" xmlns="http://www.w3.org/2000/svg">
<path fill-rule="evenodd" clip-rule="evenodd" d="M7.5 5.49998L13 1.99998L14.5 10.5L10 15L3 14L2 7.99998L7.5 5.49998Z" fill="#FFAE93"/>
<path opacity="0.4" d="M12.5 3L10.5 15.5L7.5 5.5L4 13" stroke="#CC8B76" stroke-linecap="square" stroke-linejoin="round"/>
<path fill-rule="evenodd" clip-rule="evenodd" d="M7.5 5.49996L13.5 2.49996L14.5 10.5L10.5 15.5L3.5 14.5L2.5 8.49996L7.5 5.49996Z" stroke="#545FD9"/>
<path d="M2.5 13.5H4.5V15.5H2.5V13.5Z" fill="#F7F7F7" stroke="#545FD9"/>
<path d="M1.5 7.49996H3.5V9.49996H1.5V7.49996Z" fill="#F7F7F7" stroke="#545FD9"/>
<path d="M6.5 4.49996H8.5V6.49996H6.5V4.49996Z" fill="#F7F7F7" stroke="#545FD9"/>
<path d="M12.5 1.49996H14.5V3.49996H12.5V1.49996Z" fill="#F7F7F7" stroke="#545FD9"/>
<path d="M13.5 9.49996H15.5V11.5H13.5V9.49996Z" fill="#F7F7F7" stroke="#545FD9"/>
<path d="M9.5 14.5H11.5V16.5H9.5V14.5Z" fill="#F7F7F7" stroke="#545FD9"/>
</svg>
