<svg width="18" height="18" viewBox="0 0 18 18" fill="none" xmlns="http://www.w3.org/2000/svg">
<path fill-rule="evenodd" clip-rule="evenodd" d="M12.5 9.5H1.5V13.5H12.5V9.5V13.5L16.5 9.5V5.5L12.5 9.5Z" fill="#CC8B76"/>
<path d="M1.5 9.5V14.5" stroke="#545FD9" stroke-linecap="round"/>
<path d="M12.5 9.5V14.5" stroke="#545FD9" stroke-linecap="round"/>
<path d="M16.5 5.5V10.5" stroke="#545FD9" stroke-linecap="round"/>
<path fill-rule="evenodd" clip-rule="evenodd" d="M12.5 13.5H1.5V17.5H12.5V13.5V17.5L16.5 13.5V9.5L12.5 13.5Z" stroke="#545FD9" stroke-linecap="round" stroke-linejoin="round"/>
<path d="M16.5 5.5L12.5 9.5V9.5H1.5" stroke="#545FD9" stroke-linecap="round" stroke-linejoin="round"/>
<path fill-rule="evenodd" clip-rule="evenodd" d="M5.5 5H16.5L12.5 9H1.5L5.5 5Z" fill="#FFAE93"/>
<path d="M1.5 9.5L5.5 5.5H16.5" stroke="#545FD9" stroke-linecap="round" stroke-linejoin="round"/>
<path d="M9.5 0.5L12.5 3.5" stroke="#545FD9" stroke-linecap="round"/>
<path d="M9.5 0.5L6.5 3.5" stroke="#545FD9" stroke-linecap="round"/>
<path d="M9.5 1.5V7.5" stroke="#545FD9" stroke-linecap="square"/>
</svg>
