<svg width="18" height="18" viewBox="0 0 18 18" fill="none" xmlns="http://www.w3.org/2000/svg">
<path d="M1 15H16" stroke="#FFAE93" stroke-width="2" stroke-linecap="square"/>
<path fill-rule="evenodd" clip-rule="evenodd" d="M14 13H18V17H14V13ZM15 16H17V14H15V16Z" fill="#CC8B76"/>
<path fill-rule="evenodd" clip-rule="evenodd" d="M14.0179 4.61927e-05L10.1542 1.03532L10.4131 2.00125L14.2768 0.965971L14.0179 4.61927e-05ZM10.6719 2.96721L14.5356 1.93193L17.1238 11.5912L15.9684 15.0066L13.2601 12.6265L10.6719 2.96721ZM16.0795 11.5576L13.8285 3.15669L11.8966 3.67433L14.1476 12.0752L16.0795 11.5576Z" fill="#545FD9"/>
<path fill-rule="evenodd" clip-rule="evenodd" d="M0 13H4V17H0V13ZM1 16H3V14H1V16Z" fill="#CC8B76"/>
</svg>
