<svg width="18" height="18" viewBox="0 0 18 18" fill="none" xmlns="http://www.w3.org/2000/svg">
<path fill-rule="evenodd" clip-rule="evenodd" d="M6 13.5263L12.5 1.52632H16.5V10.0263L12.5 13.5263H6Z" fill="#FFAE93"/>
<path opacity="0.4" d="M1.5 13.5263L5.5 9.52632" stroke="#F7F7F7" stroke-dasharray="1"/>
<path opacity="0.4" d="M5.5 6.02632V9.02632" stroke="#F7F7F7" stroke-dasharray="1"/>
<path d="M12.5 1.52632H16.5" stroke="#F7F7F7" stroke-linecap="round"/>
<path d="M10.5 5.02634C10.2239 5.02634 10 5.25019 10 5.52634C10 5.80248 10.2239 6.02634 10.5 6.02634V5.02634ZM16.5 1.52634H17C17 1.32411 16.8782 1.14179 16.6913 1.0644C16.5045 0.987006 16.2894 1.02978 16.1464 1.17278L16.5 1.52634ZM16.5 9.52634L16.8536 9.87989C16.9473 9.78612 17 9.65894 17 9.52634H16.5ZM12.5 13.5263V14.0263C12.6326 14.0263 12.7598 13.9737 12.8536 13.8799L12.5 13.5263ZM6 13.0263C5.72386 13.0263 5.5 13.2502 5.5 13.5263C5.5 13.8025 5.72386 14.0263 6 14.0263V13.0263ZM10.5 6.02634H12.5V5.02634H10.5V6.02634ZM12.8536 5.87989L16.8536 1.87989L16.1464 1.17278L12.1464 5.17278L12.8536 5.87989ZM16 1.52634V9.52634H17V1.52634H16ZM12 5.52634V13.5263H13V5.52634H12ZM6 14.0263H12.5V13.0263H6V14.0263ZM12.8536 13.8799L16.8536 9.87989L16.1464 9.17278L12.1464 13.1728L12.8536 13.8799Z" fill="#F7F7F7"/>
<path d="M6.5 5.52632H8" stroke="#F7F7F7" stroke-linecap="round"/>
<path d="M8.5 1.52632H10.5" stroke="#F7F7F7" stroke-linecap="round"/>
<path d="M1.5 8.52632L1.5 13.5263H4" stroke="#F7F7F7" stroke-linecap="round" stroke-linejoin="round"/>
<path d="M3.5 0.692993V6.49169" stroke="#F7F7F7" stroke-linecap="round"/>
<path d="M6.39928 3.59241H0.600586" stroke="#F7F7F7" stroke-linecap="round"/>
<path d="M10.5 1.52637L4 13.5264" stroke="#F7F7F7" stroke-linecap="round"/>
<path d="M12.5 1.52637L6 13.5264" stroke="#F7F7F7" stroke-linecap="round"/>
<path opacity="0.4" d="M6 9.52637H15.5" stroke="#F7F7F7" stroke-dasharray="1"/>
</svg>
