<svg width="18" height="18" viewBox="0 0 18 18" fill="none" xmlns="http://www.w3.org/2000/svg">
<path fill-rule="evenodd" clip-rule="evenodd" d="M12.5 7.50004L16.5332 3.50004V11.5L12.5 15.5V7.50004Z" stroke="#545FD9" stroke-linecap="round" stroke-linejoin="round"/>
<path d="M1.5 15.5V7.50004V7.50004L5.5332 3.50004" stroke="#545FD9" stroke-linecap="round" stroke-linejoin="round"/>
<path fill-rule="evenodd" clip-rule="evenodd" d="M2 7.36367L6.5 3.50004H16L12 7.36367V15H2V7.36367Z" fill="#FFAE93"/>
<path fill-rule="evenodd" clip-rule="evenodd" d="M2 7.36369L12 7.36369V15H2V7.36369Z" fill="#FFAE93"/>
<path d="M15.5 2.50004H17.5V4.50004H15.5V2.50004Z" fill="#F7F7F7" stroke="#545FD9"/>
<path d="M4.5 2.50004H6.5V4.50004H4.5V2.50004Z" fill="#F7F7F7" stroke="#545FD9"/>
<path d="M0.5 6.50004H2.5V8.50004H0.5V6.50004Z" fill="#F7F7F7" stroke="#545FD9"/>
<path d="M0.5 14.5H2.5V16.5H0.5V14.5Z" fill="#F7F7F7" stroke="#545FD9"/>
<path d="M11.5 14.5H13.5V16.5H11.5V14.5Z" fill="#F7F7F7" stroke="#545FD9"/>
<path d="M11.5 6.50004H13.5V8.50004H11.5V6.50004Z" fill="#F7F7F7" stroke="#545FD9"/>
<path d="M15.5 10.5H17.5V12.5H15.5V10.5Z" fill="#F7F7F7" stroke="#545FD9"/>
<path d="M2 7.50004H12" stroke="#545FD9"/>
<path d="M6 3.50004H16" stroke="#545FD9"/>
<path d="M2 15.5H12" stroke="#545FD9"/>
</svg>
