<svg width="18" height="18" viewBox="0 0 18 18" fill="none" xmlns="http://www.w3.org/2000/svg">
<path opacity="0.4" d="M1.5 16L5.5 12" stroke="#F7F7F7" stroke-dasharray="1"/>
<path opacity="0.4" d="M6 12H14" stroke="#F7F7F7" stroke-dasharray="1"/>
<path opacity="0.4" d="M5.5 4.5V11.5" stroke="#F7F7F7" stroke-dasharray="1"/>
<path fill-rule="evenodd" clip-rule="evenodd" d="M7 8L11 4L16.5 10.5L12.5 14L7 8Z" fill="#FFAE93"/>
<path d="M16.5 10V12" stroke="#F7F7F7" stroke-linecap="round"/>
<path d="M12.5 14V16" stroke="#F7F7F7" stroke-linecap="round"/>
<path d="M1.5 16H12.5" stroke="#F7F7F7" stroke-linecap="round"/>
<path d="M12.5 16L16.5 12" stroke="#F7F7F7" stroke-linecap="round"/>
<path d="M12.5 14L16.5 10" stroke="#F7F7F7" stroke-linecap="round"/>
<path d="M6.5 8L10.5 4" stroke="#F7F7F7" stroke-linecap="round"/>
<path d="M1.5 8H6.5" stroke="#F7F7F7" stroke-linecap="round"/>
<path d="M5.5 4H10.5" stroke="#F7F7F7" stroke-linecap="round"/>
<path d="M1.5 8L5.5 4" stroke="#F7F7F7" stroke-linecap="round"/>
<path d="M1.5 8V16" stroke="#F7F7F7" stroke-linecap="round" stroke-linejoin="round"/>
<path d="M12.5 14L6.5 8" stroke="#F7F7F7" stroke-linecap="round"/>
<path d="M16.5 10L10.5 4" stroke="#F7F7F7" stroke-linecap="round"/>
</svg>
