<svg width="18" height="18" viewBox="0 0 18 18" fill="none" xmlns="http://www.w3.org/2000/svg">
<path d="M3.88655 4.57936L6.0651 5.88005L4.80731 8.13291L2.62877 6.83222L3.88655 4.57936Z" stroke="#F7F7F7"/>
<path d="M7.74216 2.49658L10.2577 2.49658L10.2577 5.09796L7.74216 5.09796L7.74216 2.49658Z" stroke="#F7F7F7"/>
<path d="M13.1925 8.1329L15.3711 6.83221L14.1133 4.57935L11.9348 5.88004L13.1925 8.1329Z" stroke="#F7F7F7"/>
<path d="M14.1134 13.4206L11.9349 12.12L13.1927 9.8671L15.3712 11.1678L14.1134 13.4206Z" stroke="#F7F7F7"/>
<path d="M10.2579 15.5034L7.74228 15.5034L7.74228 12.902L10.2579 12.902L10.2579 15.5034Z" stroke="#F7F7F7"/>
<path d="M4.80745 9.86708L2.62891 11.1678L3.88669 13.4206L6.06524 12.1199L4.80745 9.86708Z" stroke="#F7F7F7"/>
<path d="M8 10L8 8L10 8L10 10L8 10Z" stroke="#FFAE93"/>
</svg>
