<svg width="18" height="18" viewBox="0 0 18 18" fill="none" xmlns="http://www.w3.org/2000/svg">
<path opacity="0.4" fill-rule="evenodd" clip-rule="evenodd" d="M5 4.19092L8 2.69092V3.80895L5 5.30895V4.19092ZM14 5.30895L11 3.80895V2.69092L14 4.19092V5.30895ZM14 5.69092L11 7.19092V8.30895L14 6.80895V5.69092ZM5 5.69092L8 7.19092V8.30895L5 6.80895V5.69092ZM8 15H8.61816L5 13.1909V14.309L8 15.809V15ZM10 15H9V10H10V15ZM11 15H10.3818L14 13.1909V14.309L11 15.809V15ZM16 12V7H15V12H16ZM4 7V12H3V7H4Z" fill="#F7F7F7"/>
<path fill-rule="evenodd" clip-rule="evenodd" d="M4 5H3V6H4V5ZM2 4V7H5V4H2Z" fill="#F7F7F7"/>
<path fill-rule="evenodd" clip-rule="evenodd" d="M16 13H15V14H16V13ZM14 12V15H17V12H14Z" fill="#F7F7F7"/>
<path fill-rule="evenodd" clip-rule="evenodd" d="M4 13H3V14H4V13ZM2 12V15H5V12H2Z" fill="#FFAE93"/>
<path fill-rule="evenodd" clip-rule="evenodd" d="M10 16H9V17H10V16ZM8 15V18H11V15H8Z" fill="#F7F7F7"/>
<path fill-rule="evenodd" clip-rule="evenodd" d="M10 8H9V9H10V8ZM8 7V10H11V7H8Z" fill="#F7F7F7"/>
<path fill-rule="evenodd" clip-rule="evenodd" d="M16 5H15V6H16V5ZM14 4V7H17V4H14Z" fill="#F7F7F7"/>
<path fill-rule="evenodd" clip-rule="evenodd" d="M10 2H9V3H10V2ZM8 1V4H11V1H8Z" fill="#F7F7F7"/>
</svg>
