<svg width="18" height="18" viewBox="0 0 18 18" fill="none" xmlns="http://www.w3.org/2000/svg">
<path d="M3.88657 4.57936L6.06511 5.88005L4.80733 8.1329L2.62878 6.83222L3.88657 4.57936Z" stroke="#545FD9"/>
<path d="M7.74217 2.49658L10.2577 2.49658V5.09796L7.74217 5.09796L7.74217 2.49658Z" stroke="#545FD9"/>
<path d="M13.1926 8.1329L15.3711 6.83221L14.1133 4.57935L11.9348 5.88004L13.1926 8.1329Z" stroke="#545FD9"/>
<path d="M14.1135 13.4206L11.9349 12.12L13.1927 9.8671L15.3713 11.1678L14.1135 13.4206Z" stroke="#545FD9"/>
<path d="M10.2579 15.5034L7.7423 15.5034L7.7423 12.902H10.2579L10.2579 15.5034Z" stroke="#545FD9"/>
<path d="M4.80747 9.86708L2.62892 11.1678L3.88671 13.4206L6.06525 12.1199L4.80747 9.86708Z" stroke="#545FD9"/>
<path opacity="0.4" d="M8 10L8 8L10 8L10 10L8 10Z" stroke="#252525"/>
</svg>
