<svg width="18" height="18" viewBox="0 0 18 18" fill="none" xmlns="http://www.w3.org/2000/svg">
<rect opacity="0.4" x="2.5" y="2.5" width="3" height="3" stroke="#252525"/>
<path d="M7.5 2.5H10.5V5.5H7.5V2.5Z" stroke="#545FD9"/>
<path d="M12.5 2.5H15.5V5.5H12.5V2.5Z" stroke="#545FD9"/>
<path d="M7.5 7.5H10.5V10.5H7.5V7.5Z" stroke="#545FD9"/>
<path d="M2.5 7.5H5.5V10.5H2.5V7.5Z" stroke="#545FD9"/>
<path d="M2.5 7.5H5.5V10.5H2.5V7.5Z" stroke="#545FD9"/>
<path d="M2.5 7.5H5.5V10.5H2.5V7.5Z" stroke="#545FD9"/>
<path d="M2.5 12.5H5.5V15.5H2.5V12.5Z" stroke="#545FD9"/>
<path d="M2.5 12.5H5.5V15.5H2.5V12.5Z" stroke="#545FD9"/>
<path d="M2.5 12.5H5.5V15.5H2.5V12.5Z" stroke="#545FD9"/>
<path d="M7.5 12.5H10.5V15.5H7.5V12.5Z" stroke="#545FD9"/>
<path d="M7.5 12.5H10.5V15.5H7.5V12.5Z" stroke="#545FD9"/>
<path d="M7.5 12.5H10.5V15.5H7.5V12.5Z" stroke="#545FD9"/>
<path d="M12.5 12.5H15.5V15.5H12.5V12.5Z" stroke="#545FD9"/>
<path d="M12.5 12.5H15.5V15.5H12.5V12.5Z" stroke="#545FD9"/>
<path d="M12.5 12.5H15.5V15.5H12.5V12.5Z" stroke="#545FD9"/>
<path d="M12.5 7.5H15.5V10.5H12.5V7.5Z" stroke="#545FD9"/>
</svg>
