<svg width="18" height="18" viewBox="0 0 18 18" fill="none" xmlns="http://www.w3.org/2000/svg">
<path opacity="0.4" fill-rule="evenodd" clip-rule="evenodd" d="M5 4.19086L8 2.69086V3.80889L5 5.30889V4.19086ZM14 5.30889L11 3.80889V2.69086L14 4.19086V5.30889ZM14 5.69086L11 7.19086V8.30889L14 6.80889V5.69086ZM5 5.69086L8 7.19086V8.30889L5 6.80889V5.69086ZM8 14.9999H8.61816L5 13.1909V14.3089L8 15.8089V14.9999ZM10 14.9999H9V9.99994H10V14.9999ZM11 14.9999H10.3818L14 13.1909V14.3089L11 15.8089V14.9999ZM16 11.9999V6.99994H15V11.9999H16ZM4 6.99994V11.9999H3V6.99994H4Z" fill="#252525"/>
<path fill-rule="evenodd" clip-rule="evenodd" d="M4 5H3V6H4V5ZM2 4V7H5V4H2Z" fill="#252525"/>
<path fill-rule="evenodd" clip-rule="evenodd" d="M16 13H15V14H16V13ZM14 12V15H17V12H14Z" fill="#252525"/>
<path opacity="0.4" fill-rule="evenodd" clip-rule="evenodd" d="M4 13H3V14H4V13ZM2 12V15H5V12H2Z" fill="#252525"/>
<path fill-rule="evenodd" clip-rule="evenodd" d="M10 16H9V17H10V16ZM8 15V18H11V15H8Z" fill="#252525"/>
<path fill-rule="evenodd" clip-rule="evenodd" d="M10 8H9V9H10V8ZM8 7V10H11V7H8Z" fill="#252525"/>
<path fill-rule="evenodd" clip-rule="evenodd" d="M16 5H15V6H16V5ZM14 4V7H17V4H14Z" fill="#252525"/>
<path fill-rule="evenodd" clip-rule="evenodd" d="M10 2H9V3H10V2ZM8 1V4H11V1H8Z" fill="#252525"/>
</svg>
