<svg width="18" height="18" viewBox="0 0 18 18" fill="none" xmlns="http://www.w3.org/2000/svg">
<path opacity="0.4" d="M9.5 1V0.5H8.5V1H9.5ZM8.5 17V17.5H9.5V17H8.5ZM8.5 1V1.5H9.5V1H8.5ZM8.5 2.5V3.5H9.5V2.5H8.5ZM8.5 4.5V5.5H9.5V4.5H8.5ZM8.5 6.5V7.5H9.5V6.5H8.5ZM8.5 8.5V9.5H9.5V8.5H8.5ZM8.5 10.5V11.5H9.5V10.5H8.5ZM8.5 12.5V13.5H9.5V12.5H8.5ZM8.5 14.5V15.5H9.5V14.5H8.5ZM8.5 16.5V17H9.5V16.5H8.5Z" fill="#F7F7F7"/>
<path opacity="0.4" d="M16.5 12.5C16.5 13.3284 15.3807 14 14 14C12.6193 14 11.5 13.3284 11.5 12.5C11.5 11.6716 12.6193 11 14 11C15.3807 11 16.5 11.6716 16.5 12.5Z" stroke="#F7F7F7"/>
<path opacity="0.4" d="M4 14C5.38071 14 6.5 13.3284 6.5 12.5V5C6.5 4.17157 5.38071 3.5 4 3.5C2.61929 3.5 1.5 4.17157 1.5 5V12.5C1.5 13.3284 2.61929 14 4 14Z" fill="#FFAE93"/>
<path d="M1.5 5V12.5C1.5 13.3284 2.61929 14 4 14C5.38071 14 6.5 13.3284 6.5 12.5V5" stroke="#FFAE93"/>
<path d="M4 6.5C5.38071 6.5 6.5 5.82843 6.5 5C6.5 4.17157 5.38071 3.5 4 3.5C2.61929 3.5 1.5 4.17157 1.5 5C1.5 5.82843 2.61929 6.5 4 6.5Z" stroke="#FFAE93"/>
<path d="M11.5 5V12.5C11.5 13.3284 12.6193 14 14 14C15.3807 14 16.5 13.3284 16.5 12.5V5" stroke="#F7F7F7"/>
<path d="M16.5 5C16.5 5.82843 15.3807 6.5 14 6.5C12.6193 6.5 11.5 5.82843 11.5 5C11.5 4.17157 12.6193 3.5 14 3.5C15.3807 3.5 16.5 4.17157 16.5 5Z" stroke="#F7F7F7"/>
</svg>
