<svg width="18" height="18" viewBox="0 0 18 18" fill="none" xmlns="http://www.w3.org/2000/svg">
<circle cx="13" cy="4" r="1.5" transform="rotate(-90 13 4)" stroke="#252525"/>
<circle cx="13" cy="14" r="1.5" transform="rotate(-90 13 14)" stroke="#252525"/>
<circle cx="4" cy="9" r="1.5" transform="rotate(-90 4 9)" stroke="#252525"/>
<path fill-rule="evenodd" clip-rule="evenodd" d="M4.33179 7.02741C4.67495 7.08472 4.98852 7.22941 5.24887 7.43782C5.90489 5.44145 7.78411 4 10 4C10.3433 4 10.6786 4.03461 11.0025 4.10052C11.0008 4.06722 11 4.03371 11 4C11 3.6845 11.0731 3.38605 11.2032 3.12067C10.8145 3.04154 10.4121 3 10 3C7.37732 3 5.14767 4.68272 4.33179 7.02741ZM5.24887 10.5622C4.98852 10.7706 4.67495 10.9153 4.33179 10.9726C5.14767 13.3173 7.37732 15 10 15C10.4121 15 10.8145 14.9585 11.2032 14.8793C11.0731 14.6139 11 14.3155 11 14C11 13.9663 11.0008 13.9328 11.0025 13.8995C10.6786 13.9654 10.3433 14 10 14C7.78411 14 5.90489 12.5586 5.24887 10.5622ZM13.8508 5.81053C14.5686 6.67613 15 7.78768 15 9C15 10.2123 14.5686 11.3239 13.8508 12.1895C14.1584 12.3343 14.4231 12.5551 14.6206 12.8278C15.4821 11.789 16 10.455 16 9C16 7.54503 15.4821 6.21101 14.6206 5.17224C14.4231 5.4449 14.1584 5.66575 13.8508 5.81053Z" fill="#252525"/>
</svg>
