<svg width="18" height="18" viewBox="0 0 18 18" fill="none" xmlns="http://www.w3.org/2000/svg">
<path fill-rule="evenodd" clip-rule="evenodd" d="M3.5 8C3.22386 8 3 8.22386 3 8.5V15.5C3 15.7761 3.22386 16 3.5 16H13.5C13.7761 16 14 15.7761 14 15.5V8.5C14 8.22386 13.7761 8 13.5 8H11.5C11.2239 8 11 7.77614 11 7.5C11 7.22386 11.2239 7 11.5 7H13.5C14.3284 7 15 7.67157 15 8.5V15.5C15 16.3284 14.3284 17 13.5 17H3.5C2.67157 17 2 16.3284 2 15.5V8.5C2 7.67157 2.67157 7 3.5 7H5.5C5.77614 7 6 7.22386 6 7.5C6 7.77614 5.77614 8 5.5 8H3.5Z" fill="#545FD9"/>
<path d="M8.5 1.5V11.5" stroke="#545FD9" stroke-linecap="round" stroke-linejoin="round"/>
<path d="M11.5 4.5L8.5 1.5L5.5 4.5" stroke="#545FD9" stroke-linecap="round" stroke-linejoin="round"/>
</svg>
