<svg width="18" height="18" viewBox="0 0 18 18" fill="none" xmlns="http://www.w3.org/2000/svg">
<path d="M10.4615 14L14.8169 14C15.4521 14 15.9696 13.4394 15.9696 12.7513L15.9616 4.24C15.9616 3.55626 15.4481 3 14.8169 3L10.4956 3C10.2405 3 10.034 3.22375 10.034 3.50001C10.034 3.77626 10.2405 4.00001 10.4956 4.00001L14.8169 4C14.9392 4 15.0385 4.1075 15.0385 4.24L15.0465 12.7506C15.0465 12.8856 14.9415 13 14.8169 13L10.4615 13C10.2065 13 10 13.2237 10 13.5C10 13.7763 10.2065 14 10.4615 14Z" fill="#FFAE93"/>
<path d="M8.5 16C8.22386 16 8 15.7761 8 15.5V1.5C8 1.22386 8.22386 1 8.5 1C8.77614 1 9 1.22386 9 1.5V15.5C9 15.7761 8.77614 16 8.5 16Z" fill="#FFAE93"/>
<path d="M1.75 3.5V3.75H1.5C1.08579 3.75 0.75 4.08579 0.75 4.5C0.75 4.91421 1.08579 5.25 1.5 5.25C1.91421 5.25 2.25 4.91421 2.25 4.5V4.25H2.5C2.91421 4.25 3.25 3.91421 3.25 3.5C3.25 3.08579 2.91421 2.75 2.5 2.75C2.08579 2.75 1.75 3.08579 1.75 3.5Z" fill="#FFAE93"/>
<path d="M1.5 13.25H1.75V13.5C1.75 13.9142 2.08579 14.25 2.5 14.25C2.91421 14.25 3.25 13.9142 3.25 13.5C3.25 13.0858 2.91421 12.75 2.5 12.75H2.25V12.5C2.25 12.0858 1.91421 11.75 1.5 11.75C1.08579 11.75 0.75 12.0858 0.75 12.5C0.75 12.9142 1.08579 13.25 1.5 13.25Z" fill="#FFAE93"/>
<path d="M5.75 13.5C5.75 13.9142 6.08579 14.25 6.5 14.25C6.91421 14.25 7.25 13.9142 7.25 13.5C7.25 13.0858 6.91421 12.75 6.5 12.75C6.08579 12.75 5.75 13.0858 5.75 13.5Z" fill="#FFAE93"/>
<path d="M3.75 13.5C3.75 13.9142 4.08579 14.25 4.5 14.25C4.91421 14.25 5.25 13.9142 5.25 13.5C5.25 13.0858 4.91421 12.75 4.5 12.75C4.08579 12.75 3.75 13.0858 3.75 13.5Z" fill="#FFAE93"/>
<path d="M0.75 10.5C0.75 10.9142 1.08579 11.25 1.5 11.25C1.91421 11.25 2.25 10.9142 2.25 10.5C2.25 10.0858 1.91421 9.75 1.5 9.75C1.08579 9.75 0.75 10.0858 0.75 10.5Z" fill="#FFAE93"/>
<path d="M0.75 8.5C0.75 8.91421 1.08579 9.25 1.5 9.25C1.91421 9.25 2.25 8.91421 2.25 8.5C2.25 8.08579 1.91421 7.75 1.5 7.75C1.08579 7.75 0.75 8.08579 0.75 8.5Z" fill="#FFAE93"/>
<path d="M0.75 6.5C0.75 6.91421 1.08579 7.25 1.5 7.25C1.91421 7.25 2.25 6.91421 2.25 6.5C2.25 6.08579 1.91421 5.75 1.5 5.75C1.08579 5.75 0.75 6.08579 0.75 6.5Z" fill="#FFAE93"/>
<path d="M3.75 3.5C3.75 3.91421 4.08579 4.25 4.5 4.25C4.91421 4.25 5.25 3.91421 5.25 3.5C5.25 3.08579 4.91421 2.75 4.5 2.75C4.08579 2.75 3.75 3.08579 3.75 3.5Z" fill="#FFAE93"/>
<path d="M5.75 3.5C5.75 3.91421 6.08579 4.25 6.5 4.25C6.91421 4.25 7.25 3.91421 7.25 3.5C7.25 3.08579 6.91421 2.75 6.5 2.75C6.08579 2.75 5.75 3.08579 5.75 3.5Z" fill="#FFAE93"/>
</svg>
