<svg width="18" height="18" viewBox="0 0 18 18" fill="none" xmlns="http://www.w3.org/2000/svg">
<path fill-rule="evenodd" clip-rule="evenodd" d="M3.98343 4.44731C2.71841 5.33282 2 6.50819 2 7.75C2 9.27137 3.08597 10.7026 4.91897 11.6025C5.14927 11.7155 5.25663 11.9846 5.16745 12.2251C4.79728 13.2236 4.25742 14.0901 3.79558 14.7225C5.75722 14.2317 7.11292 13.4862 8.15641 12.6054C8.25294 12.524 8.37673 12.482 8.5029 12.4881C8.66707 12.496 8.83283 12.5 9 12.5C10.9811 12.5 12.7531 11.9371 14.0166 11.0527C15.2816 10.1672 16 8.99181 16 7.75C16 6.50819 15.2816 5.33282 14.0166 4.44731C12.7531 3.5629 10.9811 3 9 3C7.01894 3 5.24687 3.5629 3.98343 4.44731ZM3.40997 3.62807C4.86099 2.61236 6.83893 2 9 2C11.1611 2 13.139 2.61236 14.59 3.62807C16.0395 4.64268 17 6.09231 17 7.75C17 9.40769 16.0395 10.8573 14.59 11.8719C13.139 12.8876 11.1611 13.5 9 13.5C8.88286 13.5 8.76629 13.4982 8.65034 13.4946C7.37809 14.527 5.72704 15.3531 3.37173 15.8453C2.9997 15.9231 2.69982 15.7154 2.56147 15.4738C2.42458 15.2347 2.39741 14.8825 2.62742 14.6002C3.04643 14.0858 3.63749 13.2637 4.06586 12.2833C2.25073 11.263 1 9.64664 1 7.75C1 6.09231 1.96052 4.64268 3.40997 3.62807Z" fill="#252525"/>
</svg>
