<svg width="18" height="18" viewBox="0 0 18 18" fill="none" xmlns="http://www.w3.org/2000/svg">
<circle cx="13" cy="4" r="1.5" transform="rotate(-90 13 4)" stroke="#FFAE93"/>
<circle cx="13" cy="14" r="1.5" transform="rotate(-90 13 14)" stroke="#FFAE93"/>
<circle cx="4" cy="9" r="1.5" transform="rotate(-90 4 9)" stroke="#FFAE93"/>
<path fill-rule="evenodd" clip-rule="evenodd" d="M4.33179 7.0274C4.67495 7.0847 4.98853 7.22938 5.24888 7.43778C5.90491 5.44143 7.78412 4 9.99998 4C10.3433 4 10.6786 4.03461 11.0025 4.10053C11.0009 4.06723 11 4.03371 11 4C11 3.6845 11.0731 3.38606 11.2032 3.12067C10.8145 3.04154 10.4121 3 9.99998 3C7.37732 3 5.14767 4.68271 4.33179 7.0274ZM5.24888 10.5622C4.98853 10.7706 4.67495 10.9153 4.33179 10.9726C5.14767 13.3173 7.37732 15 9.99998 15C10.4121 15 10.8145 14.9585 11.2032 14.8793C11.0731 14.6139 11 14.3155 11 14C11 13.9663 11.0009 13.9328 11.0025 13.8995C10.6786 13.9654 10.3433 14 9.99998 14C7.78412 14 5.90491 12.5586 5.24888 10.5622ZM13.8508 5.81055C14.5685 6.67614 15 7.78768 15 9C15 10.2123 14.5685 11.3239 13.8508 12.1895C14.1584 12.3342 14.4231 12.5551 14.6206 12.8277C15.4821 11.789 16 10.455 16 9C16 7.54504 15.4821 6.21104 14.6206 5.17227C14.4231 5.44493 14.1584 5.66577 13.8508 5.81055Z" fill="#FFAE93"/>
</svg>
