<svg width="18" height="18" viewBox="0 0 18 18" fill="none" xmlns="http://www.w3.org/2000/svg">
<path fill-rule="evenodd" clip-rule="evenodd" d="M3 4V14C3 15.1046 3.89543 16 5 16H14.5C14.7761 16 15 15.7761 15 15.5C15 15.2239 14.7761 15 14.5 15H5C4.44772 15 4 14.5523 4 14C4 13.4477 4.44772 13 5 13H13C14.1046 13 15 12.1046 15 11V4C15 2.89543 14.1046 2 13 2H5C3.89543 2 3 2.89543 3 4ZM13 3H5C4.44772 3 4 3.44772 4 4V12.1166C4.267 12.0399 4.54566 12 4.82843 12H13C13.5523 12 14 11.5523 14 11V4C14 3.44772 13.5523 3 13 3Z" fill="#F7F7F7"/>
</svg>
