<svg width="18" height="18" viewBox="0 0 18 18" fill="none" xmlns="http://www.w3.org/2000/svg">
<mask id="path-1-inside-1" fill="white">
<path fill-rule="evenodd" clip-rule="evenodd" d="M4 4H6V6H4V4ZM8 4H10V6H8V4ZM14 4H12V6H14V4ZM4 8H6V10H4V8ZM10 8H8V10H10V8ZM12 8H14V10H12V8ZM6 12H4V14H6V12ZM8 12H10V14H8V12ZM14 12H12V14H14V12Z"/>
</mask>
<path fill-rule="evenodd" clip-rule="evenodd" d="M4 4H6V6H4V4ZM8 4H10V6H8V4ZM14 4H12V6H14V4ZM4 8H6V10H4V8ZM10 8H8V10H10V8ZM12 8H14V10H12V8ZM6 12H4V14H6V12ZM8 12H10V14H8V12ZM14 12H12V14H14V12Z" fill="#545FD9"/>
<path d="M6 4H7V3H6V4ZM4 4V3H3V4H4ZM6 6V7H7V6H6ZM4 6H3V7H4V6ZM10 4H11V3H10V4ZM8 4V3H7V4H8ZM10 6V7H11V6H10ZM8 6H7V7H8V6ZM12 4V3H11V4H12ZM14 4H15V3H14V4ZM12 6H11V7H12V6ZM14 6V7H15V6H14ZM6 8H7V7H6V8ZM4 8V7H3V8H4ZM6 10V11H7V10H6ZM4 10H3V11H4V10ZM8 8V7H7V8H8ZM10 8H11V7H10V8ZM8 10H7V11H8V10ZM10 10V11H11V10H10ZM14 8H15V7H14V8ZM12 8V7H11V8H12ZM14 10V11H15V10H14ZM12 10H11V11H12V10ZM4 12V11H3V12H4ZM6 12H7V11H6V12ZM4 14H3V15H4V14ZM6 14V15H7V14H6ZM10 12H11V11H10V12ZM8 12V11H7V12H8ZM10 14V15H11V14H10ZM8 14H7V15H8V14ZM12 12V11H11V12H12ZM14 12H15V11H14V12ZM12 14H11V15H12V14ZM14 14V15H15V14H14ZM6 3H4V5H6V3ZM7 6V4H5V6H7ZM4 7H6V5H4V7ZM3 4V6H5V4H3ZM10 3H8V5H10V3ZM11 6V4H9V6H11ZM8 7H10V5H8V7ZM7 4V6H9V4H7ZM12 5H14V3H12V5ZM13 6V4H11V6H13ZM14 5H12V7H14V5ZM13 4V6H15V4H13ZM6 7H4V9H6V7ZM7 10V8H5V10H7ZM4 11H6V9H4V11ZM3 8V10H5V8H3ZM8 9H10V7H8V9ZM9 10V8H7V10H9ZM10 9H8V11H10V9ZM9 8V10H11V8H9ZM14 7H12V9H14V7ZM15 10V8H13V10H15ZM12 11H14V9H12V11ZM11 8V10H13V8H11ZM4 13H6V11H4V13ZM5 14V12H3V14H5ZM6 13H4V15H6V13ZM5 12V14H7V12H5ZM10 11H8V13H10V11ZM11 14V12H9V14H11ZM8 15H10V13H8V15ZM7 12V14H9V12H7ZM12 13H14V11H12V13ZM13 14V12H11V14H13ZM14 13H12V15H14V13ZM13 12V14H15V12H13Z" fill="#FFAE93" mask="url(#path-1-inside-1)"/>
<rect x="1.5" y="1.5" width="15" height="15" rx="2.5" stroke="#FFAE93"/>
</svg>
