<svg width="18" height="18" viewBox="0 0 18 18" fill="none" xmlns="http://www.w3.org/2000/svg">
<mask id="path-1-inside-1" fill="white">
<path fill-rule="evenodd" clip-rule="evenodd" d="M5 4C4.44772 4 4 4.44772 4 5V7C4 7.55228 4.44772 8 5 8H7C7.55228 8 8 7.55228 8 7V5C8 4.44772 7.55228 4 7 4H5ZM11 4C10.4477 4 10 4.44772 10 5V7C10 7.55228 10.4477 8 11 8H13C13.5523 8 14 7.55228 14 7V5C14 4.44772 13.5523 4 13 4H11ZM10 11C10 10.4477 10.4477 10 11 10H13C13.5523 10 14 10.4477 14 11V13C14 13.5523 13.5523 14 13 14H11C10.4477 14 10 13.5523 10 13V11ZM5 10C4.44772 10 4 10.4477 4 11V13C4 13.5523 4.44772 14 5 14H7C7.55228 14 8 13.5523 8 13V11C8 10.4477 7.55228 10 7 10H5Z"/>
</mask>
<path fill-rule="evenodd" clip-rule="evenodd" d="M5 4C4.44772 4 4 4.44772 4 5V7C4 7.55228 4.44772 8 5 8H7C7.55228 8 8 7.55228 8 7V5C8 4.44772 7.55228 4 7 4H5ZM11 4C10.4477 4 10 4.44772 10 5V7C10 7.55228 10.4477 8 11 8H13C13.5523 8 14 7.55228 14 7V5C14 4.44772 13.5523 4 13 4H11ZM10 11C10 10.4477 10.4477 10 11 10H13C13.5523 10 14 10.4477 14 11V13C14 13.5523 13.5523 14 13 14H11C10.4477 14 10 13.5523 10 13V11ZM5 10C4.44772 10 4 10.4477 4 11V13C4 13.5523 4.44772 14 5 14H7C7.55228 14 8 13.5523 8 13V11C8 10.4477 7.55228 10 7 10H5Z" fill="#FFAE93"/>
<path d="M5 5V3C3.89543 3 3 3.89543 3 5H5ZM5 7V5H3V7H5ZM5 7H3C3 8.10457 3.89543 9 5 9V7ZM7 7H5V9H7V7ZM7 7V9C8.10457 9 9 8.10457 9 7H7ZM7 5V7H9V5H7ZM7 5H9C9 3.89543 8.10457 3 7 3V5ZM5 5H7V3H5V5ZM11 5V3C9.89543 3 9 3.89543 9 5H11ZM11 7V5H9V7H11ZM11 7H9C9 8.10457 9.89543 9 11 9V7ZM13 7H11V9H13V7ZM13 7V9C14.1046 9 15 8.10457 15 7H13ZM13 5V7H15V5H13ZM13 5H15C15 3.89543 14.1046 3 13 3V5ZM11 5H13V3H11V5ZM11 9C9.89543 9 9 9.89543 9 11H11V9ZM13 9H11V11H13V9ZM15 11C15 9.89543 14.1046 9 13 9V11H15ZM15 13V11H13V13H15ZM13 15C14.1046 15 15 14.1046 15 13H13V15ZM11 15H13V13H11V15ZM9 13C9 14.1046 9.89543 15 11 15V13H9ZM9 11V13H11V11H9ZM5 11V9C3.89543 9 3 9.89543 3 11H5ZM5 13V11H3V13H5ZM5 13H3C3 14.1046 3.89543 15 5 15V13ZM7 13H5V15H7V13ZM7 13V15C8.10457 15 9 14.1046 9 13H7ZM7 11V13H9V11H7ZM7 11H9C9 9.89543 8.10457 9 7 9V11ZM5 11H7V9H5V11Z" fill="#FFAE93" mask="url(#path-1-inside-1)"/>
<rect x="1.5" y="1.5" width="15" height="15" rx="2.5" stroke="#FFAE93"/>
</svg>
