<svg width="18" height="18" viewBox="0 0 18 18" fill="none" xmlns="http://www.w3.org/2000/svg">
<path opacity="0.4" fill-rule="evenodd" clip-rule="evenodd" d="M4 5C4 4.44772 4.44772 4 5 4H13C13.5523 4 14 4.44772 14 5C14 5.55228 13.5523 6 13 6H5C4.44772 6 4 5.55228 4 5ZM4 9C4 8.44772 4.44772 8 5 8H13C13.5523 8 14 8.44772 14 9C14 9.55228 13.5523 10 13 10H5C4.44772 10 4 9.55228 4 9ZM5 12C4.44772 12 4 12.4477 4 13C4 13.5523 4.44772 14 5 14H13C13.5523 14 14 13.5523 14 13C14 12.4477 13.5523 12 13 12H5Z" fill="#252525"/>
</svg>
