<svg width="18" height="18" viewBox="0 0 18 18" fill="none" xmlns="http://www.w3.org/2000/svg">
<mask id="path-1-inside-1" fill="white">
<path fill-rule="evenodd" clip-rule="evenodd" d="M4 5C4 4.44772 4.44772 4 5 4H13C13.5523 4 14 4.44772 14 5C14 5.55228 13.5523 6 13 6H5C4.44772 6 4 5.55228 4 5ZM4 9C4 8.44772 4.44772 8 5 8H13C13.5523 8 14 8.44772 14 9C14 9.55228 13.5523 10 13 10H5C4.44772 10 4 9.55228 4 9ZM5 12C4.44772 12 4 12.4477 4 13C4 13.5523 4.44772 14 5 14H13C13.5523 14 14 13.5523 14 13C14 12.4477 13.5523 12 13 12H5Z"/>
</mask>
<path fill-rule="evenodd" clip-rule="evenodd" d="M4 5C4 4.44772 4.44772 4 5 4H13C13.5523 4 14 4.44772 14 5C14 5.55228 13.5523 6 13 6H5C4.44772 6 4 5.55228 4 5ZM4 9C4 8.44772 4.44772 8 5 8H13C13.5523 8 14 8.44772 14 9C14 9.55228 13.5523 10 13 10H5C4.44772 10 4 9.55228 4 9ZM5 12C4.44772 12 4 12.4477 4 13C4 13.5523 4.44772 14 5 14H13C13.5523 14 14 13.5523 14 13C14 12.4477 13.5523 12 13 12H5Z" fill="#545FD9"/>
<path d="M5 3C3.89543 3 3 3.89543 3 5H5V3ZM13 3H5V5H13V3ZM15 5C15 3.89543 14.1046 3 13 3V5H15ZM13 7C14.1046 7 15 6.10457 15 5H13V7ZM5 7H13V5H5V7ZM3 5C3 6.10457 3.89543 7 5 7V5H5H3ZM5 7C3.89543 7 3 7.89543 3 9H5V7ZM13 7H5V9H13V7ZM15 9C15 7.89543 14.1046 7 13 7V9H15ZM13 11C14.1046 11 15 10.1046 15 9H13V11ZM5 11H13V9H5V11ZM3 9C3 10.1046 3.89543 11 5 11V9H5H3ZM5 13V11C3.89543 11 3 11.8954 3 13H5ZM5 13H5H3C3 14.1046 3.89543 15 5 15V13ZM13 13H5V15H13V13ZM13 13V15C14.1046 15 15 14.1046 15 13H13ZM13 13H15C15 11.8954 14.1046 11 13 11V13ZM5 13H13V11H5V13Z" fill="#FFAE93" mask="url(#path-1-inside-1)"/>
<rect x="1.5" y="1.5" width="15" height="15" rx="2.5" stroke="#FFAE93"/>
</svg>
