<svg width="18" height="18" viewBox="0 0 18 18" fill="none" xmlns="http://www.w3.org/2000/svg">
<path d="M8.54757 2.96425C8.72753 2.58086 9.27284 2.58086 9.4528 2.96425L11.0499 6.36662C11.1207 6.51755 11.2621 6.62323 11.4269 6.64842L15.0382 7.20037C15.4404 7.26186 15.6047 7.75254 15.3205 8.04382L12.6764 10.7537C12.5656 10.8673 12.5153 11.0267 12.5408 11.1834L13.1605 14.9837C13.2277 15.3957 12.7904 15.7037 12.4251 15.5018L9.24212 13.7419C9.09157 13.6586 8.9088 13.6586 8.75825 13.7419L5.57526 15.5018C5.20999 15.7037 4.77267 15.3957 4.83985 14.9837L5.45957 11.1834C5.48512 11.0268 5.43478 10.8673 5.32395 10.7537L2.6796 8.04383C2.39538 7.75256 2.55962 7.26186 2.96192 7.20037L6.57344 6.64842C6.73825 6.62323 6.87967 6.51755 6.95051 6.36662L8.54757 2.96425Z" fill="#F7F7F7"/>
</svg>
