<svg width="18" height="18" viewBox="0 0 18 18" fill="none" xmlns="http://www.w3.org/2000/svg">
<path d="M7.5 0C7.22386 0 7 0.223858 7 0.5C7 0.776142 7.22386 1 7.5 1C12.7467 1 17 5.25329 17 10.5C17 10.7761 17.2239 11 17.5 11C17.7761 11 18 10.7761 18 10.5C18 4.70101 13.299 0 7.5 0Z" fill="#F7F7F7"/>
<path d="M3.41934 13.8733L5.64614 11.6464C5.84141 11.4512 6.15799 11.4512 6.35325 11.6464C6.54851 11.8417 6.54851 12.1583 6.35325 12.3536L4.12624 14.5806C3.87149 14.3648 3.63497 14.1281 3.41934 13.8733Z" fill="#F7F7F7"/>
<path d="M5.06129 15.2313L7.64614 12.6464C7.84141 12.4512 8.15799 12.4512 8.35325 12.6464C8.54851 12.8417 8.54851 13.1583 8.35325 13.3536L6.03613 15.6707C5.69628 15.5529 5.37029 15.4054 5.06129 15.2313Z" fill="#F7F7F7"/>
<path d="M2.76906 12.9377C2.59512 12.6286 2.44779 12.3024 2.33018 11.9624L4.64614 9.64645C4.84141 9.45119 5.15799 9.45119 5.35325 9.64645C5.54851 9.84171 5.54851 10.1583 5.35325 10.3536L2.76906 12.9377Z" fill="#F7F7F7"/>
<path d="M2.03872 10.6681C2.01442 10.4488 2.00195 10.2259 2.00195 10.0001C2.00195 9.7438 2.01803 9.49123 2.04922 9.24337L4.14614 7.14645C4.34141 6.95118 4.65799 6.95118 4.85325 7.14645C5.04851 7.34171 5.04851 7.65829 4.85325 7.85355L2.03872 10.6681Z" fill="#F7F7F7"/>
<path fill-rule="evenodd" clip-rule="evenodd" d="M8 17C11.866 17 15 13.866 15 10C15 6.13401 11.866 3 8 3C4.13401 3 1 6.13401 1 10C1 13.866 4.13401 17 8 17ZM7.32971 15.9629C7.42515 15.9735 7.52128 15.9819 7.61802 15.988C4.48229 15.791 2 13.1854 2 10C2 6.68629 4.68629 4 8 4C11.3137 4 14 6.68629 14 10C14 13.0584 11.7116 15.5824 8.75368 15.9531L10.8533 13.8536C11.0485 13.6583 11.0485 13.3417 10.8533 13.1464C10.658 12.9512 10.3414 12.9512 10.1461 13.1464L7.32971 15.9629Z" fill="#F7F7F7"/>
</svg>
