<svg width="18" height="18" viewBox="0 0 18 18" fill="none" xmlns="http://www.w3.org/2000/svg">
<path fill-rule="evenodd" clip-rule="evenodd" d="M8.85718 12.3569C8.85714 12.3569 8.8571 12.3569 8.85706 12.3569C6.92406 12.3569 5.35706 10.7899 5.35706 8.85693C5.35706 6.92394 6.92406 5.35693 8.85706 5.35693C8.8571 5.35693 8.85714 5.35693 8.85718 5.35693V4.35693C8.85714 4.35693 8.8571 4.35693 8.85706 4.35693C6.37177 4.35693 4.35706 6.37165 4.35706 8.85693C4.35706 11.3422 6.37177 13.3569 8.85706 13.3569C8.8571 13.3569 8.85714 13.3569 8.85718 13.3569V12.3569Z" fill="#545FD9"/>
<path opacity="0.4" d="M13.3572 8.85693C13.3572 11.3422 11.3425 13.3569 8.85718 13.3569V4.35693C11.3425 4.35693 13.3572 6.37165 13.3572 8.85693Z" fill="#252525"/>
<path d="M5.59447 16.7058L6.74597 13.9355" stroke="#252525"/>
<path d="M5.59447 16.7059L6.74597 13.9357M1.00823 5.59434L3.77844 6.74584M3.77307 10.9554L1 12.1M5.61407 1L6.75867 3.77307" stroke="#545FD9"/>
<path opacity="0.4" d="M13.9358 10.968L16.706 12.1195M10.9554 13.9409L12.1 16.714M10.9681 3.77826L12.1196 1.00806M16.7139 5.61394L13.9409 6.75854" stroke="#252525"/>
</svg>
