<svg width="18" height="18" viewBox="0 0 18 18" fill="none" xmlns="http://www.w3.org/2000/svg">
<path fill-rule="evenodd" clip-rule="evenodd" d="M3.89042 7.00001C3.54754 7.00001 3.29985 6.67136 3.43364 6.35565C3.99016 5.04244 5.04235 3.99024 6.35557 3.43372C6.67127 3.29992 6.99992 3.54761 6.99992 3.89049V3.89049C6.99992 4.10959 6.8605 4.30222 6.66058 4.39187C5.65385 4.84331 4.84323 5.65393 4.39179 6.66067C4.30215 6.86058 4.10951 7.00001 3.89042 7.00001V7.00001ZM3.89042 10C3.54754 10 3.29985 10.3287 3.43364 10.6444C3.99017 11.9576 5.04236 13.0098 6.35557 13.5663C6.67127 13.7001 6.99992 13.4524 6.99992 13.1095V13.1095C6.99992 12.8904 6.8605 12.6978 6.66058 12.6081C5.65386 12.1567 4.84323 11.3461 4.39179 10.3394C4.30215 10.1394 4.10952 10 3.89042 10V10ZM13.1095 10C12.8904 10 12.6977 10.1394 12.6081 10.3394C12.1566 11.3461 11.346 12.1567 10.3393 12.6082C10.1393 12.6978 9.99992 12.8904 9.99992 13.1095V13.1095C9.99992 13.4524 10.3286 13.7001 10.6443 13.5663C11.9575 13.0098 13.0097 11.9576 13.5662 10.6444C13.7 10.3287 13.4523 10 13.1095 10V10ZM13.1095 7.00001C13.4523 7.00001 13.7 6.67136 13.5662 6.35565C13.0097 5.04243 11.9575 3.99022 10.6443 3.4337C10.3286 3.29991 9.99992 3.5476 9.99992 3.89048V3.89048C9.99992 4.10957 10.1393 4.30221 10.3393 4.39185C11.346 4.84329 12.1566 5.65393 12.6081 6.66067C12.6977 6.86058 12.8904 7.00001 13.1095 7.00001V7.00001Z" fill="#F7F7F7"/>
<line x1="1.5" y1="8.5" x2="5.5" y2="8.5" stroke="#F7F7F7" stroke-linecap="round"/>
<line x1="8.5" y1="1.5" x2="8.5" y2="5.5" stroke="#F7F7F7" stroke-linecap="round"/>
<line x1="15.5" y1="8.5" x2="11.5" y2="8.5" stroke="#F7F7F7" stroke-linecap="round"/>
<line x1="8.5" y1="15.5" x2="8.5" y2="11.5" stroke="#F7F7F7" stroke-linecap="round"/>
<circle cx="8.5" cy="8.5" r="0.5" fill="#F7F7F7"/>
</svg>
