<svg width="18" height="18" viewBox="0 0 18 18" fill="none" xmlns="http://www.w3.org/2000/svg">
<path fill-rule="evenodd" clip-rule="evenodd" d="M2.00005 13.2H4.80005V14.1334H2.00005V13.2Z" fill="#F7F7F7"/>
<path fill-rule="evenodd" clip-rule="evenodd" d="M7.60002 13.2L16.9333 13.2V14.1334L7.60002 14.1334V13.2Z" fill="#F7F7F7"/>
<path fill-rule="evenodd" clip-rule="evenodd" d="M6.20011 12.2667C5.42692 12.2667 4.80011 12.8935 4.80011 13.6667C4.80011 14.4399 5.42692 15.0667 6.20011 15.0667C6.97331 15.0667 7.60011 14.4399 7.60011 13.6667C7.60011 12.8935 6.97331 12.2667 6.20011 12.2667ZM6.20011 11.3333C4.91145 11.3333 3.86678 12.378 3.86678 13.6667C3.86678 14.9553 4.91145 16 6.20011 16C7.48878 16 8.53345 14.9553 8.53345 13.6667C8.53345 12.378 7.48878 11.3333 6.20011 11.3333Z" fill="#F7F7F7"/>
<path fill-rule="evenodd" clip-rule="evenodd" d="M14.1333 8.53334H16.9333V9.46667H14.1333V8.53334Z" fill="#F7F7F7"/>
<path fill-rule="evenodd" clip-rule="evenodd" d="M1.99992 8.53334L11.3333 8.53334V9.46667L1.99992 9.46667V8.53334Z" fill="#F7F7F7"/>
<path fill-rule="evenodd" clip-rule="evenodd" d="M12.7333 7.59998C11.9601 7.59998 11.3333 8.22678 11.3333 8.99998C11.3333 9.77318 11.9601 10.4 12.7333 10.4C13.5065 10.4 14.1333 9.77318 14.1333 8.99998C14.1333 8.22678 13.5065 7.59998 12.7333 7.59998ZM12.7333 6.66665C11.4447 6.66665 10.4 7.71132 10.4 8.99998C10.4 10.2886 11.4447 11.3333 12.7333 11.3333C14.022 11.3333 15.0667 10.2886 15.0667 8.99998C15.0667 7.71132 14.022 6.66665 12.7333 6.66665Z" fill="#F7F7F7"/>
<path fill-rule="evenodd" clip-rule="evenodd" d="M7.60002 3.86665L16.9333 3.86665V4.79999L7.60002 4.79999V3.86665Z" fill="#F7F7F7"/>
<path fill-rule="evenodd" clip-rule="evenodd" d="M2.00005 3.86665L4.80005 3.86665V4.79999H2.00005V3.86665Z" fill="#F7F7F7"/>
<path fill-rule="evenodd" clip-rule="evenodd" d="M6.20011 2.93335C5.42692 2.93335 4.80011 3.56016 4.80011 4.33335C4.80011 5.10655 5.42692 5.73335 6.20011 5.73335C6.97331 5.73335 7.60011 5.10655 7.60011 4.33335C7.60011 3.56016 6.97331 2.93335 6.20011 2.93335ZM6.20011 2.00002C4.91145 2.00002 3.86678 3.04469 3.86678 4.33335C3.86678 5.62202 4.91145 6.66669 6.20011 6.66669C7.48878 6.66669 8.53345 5.62202 8.53345 4.33335C8.53345 3.04469 7.48878 2.00002 6.20011 2.00002Z" fill="#F7F7F7"/>
</svg>
