<svg width="18" height="18" viewBox="0 0 18 18" fill="none" xmlns="http://www.w3.org/2000/svg">
<path d="M9.44272 2.00296C9.38089 2.01077 9.32036 2.03029 9.26569 2.06023L2.26751 5.72579C2.10284 5.81235 2 5.98288 2 6.16835C2 6.3545 2.10284 6.52436 2.26751 6.61092L4.12636 7.58459L2.26751 8.55826C2.10284 8.64482 2 8.81535 2 9.00083C2 9.18697 2.10284 9.35684 2.26751 9.44339L4.12636 10.4171L2.26751 11.3907C2.10284 11.4773 2 11.6478 2 11.8333C2 12.0194 2.10284 12.1893 2.26751 12.2759L9.26569 15.9414C9.41213 16.0195 9.58787 16.0195 9.73431 15.9414L16.7325 12.2759C16.8972 12.1893 17 12.0194 17 11.8333C17 11.6478 16.8972 11.4773 16.7325 11.3907L14.8736 10.4171L16.7325 9.44339C16.8972 9.35683 17 9.18696 17 9.00083C17 8.81533 16.8972 8.64482 16.7325 8.55826L14.8736 7.58459L16.7325 6.61092C16.8972 6.52436 17 6.35448 17 6.16835C17 5.98286 16.8972 5.81234 16.7325 5.72579L9.73431 2.06023C9.64514 2.01207 9.54361 1.99189 9.44272 2.00296ZM9.5 3.07033L15.4203 6.1684L9.5 9.26646L3.57971 6.1684L9.5 3.07033ZM5.20429 8.14696L9.26573 10.2765C9.41217 10.3546 9.58791 10.3546 9.73436 10.2765L13.7958 8.14696L15.4204 9.00087L9.50008 12.0989L3.5798 9.00087L5.20429 8.14696ZM5.20429 10.9794L9.26573 13.109C9.41217 13.1871 9.58791 13.1871 9.73436 13.109L13.7958 10.9794L15.4204 11.8333L9.50008 14.9314L3.5798 11.8333L5.20429 10.9794Z" fill="#545FD9"/>
</svg>
