<svg width="18" height="18" viewBox="0 0 18 18" fill="none" xmlns="http://www.w3.org/2000/svg">
<path d="M6.35018 15.1682C5.76769 14.885 5.32031 14.3625 5.05385 13.6536C4.78735 12.9452 4.7102 12.0752 4.83101 11.1312C5.07621 9.21006 6.10924 7.19882 7.54073 5.85449C8.24449 5.19424 9.00521 4.73229 9.74783 4.51481C10.4904 4.29732 11.1878 4.332 11.7709 4.61578" stroke="#FFAE93"/>
<path d="M6.34912 4.61572C7.2295 4.18696 8.3594 4.33194 9.49031 5.01856C10.6207 5.70521 11.6601 6.87706 12.3788 8.27624C13.0974 9.67542 13.4373 11.188 13.323 12.4805C13.2086 13.7731 12.65 14.7398 11.7697 15.1681" stroke="#FFAE93"/>
<path d="M11.8872 15.1127C11.1515 15.4902 10.1297 15.704 9.06043 15.704C7.99118 15.704 6.96933 15.4902 6.23364 15.1127" stroke="#FFAE93"/>
<path d="M14.9963 8.70935C15.1096 9.24996 14.9096 9.79525 14.4186 10.283C13.927 10.7713 13.1642 11.1825 12.2168 11.4699C11.2699 11.7573 10.1756 11.91 9.0591 11.91C7.94257 11.91 6.84827 11.7573 5.90143 11.4699C4.95402 11.1825 4.19116 10.7713 3.69963 10.283C3.20864 9.79519 3.00863 9.24991 3.12192 8.70935" stroke="#FFAE93"/>
<path d="M15.12 9.89119C15.12 13.1494 12.407 15.7904 9.06 15.7904C5.71299 15.7904 3 13.1494 3 9.89119C3 6.633 5.71299 3.992 9.06 3.992C12.407 3.992 15.12 6.633 15.12 9.89119Z" stroke="#FFAE93"/>
<path opacity="0.4" d="M2 5.26595V14.084L9.16279 17.35M2 5.26595L9.16279 2L16 5.26595M2 5.26595L9.16279 8.5319M9.16279 17.35L16 14.084V5.26595M9.16279 17.35V8.5319M16 5.26595L9.16279 8.5319" stroke="#FFAE93" stroke-width="0.5" stroke-dasharray="2 1"/>
</svg>
