<svg width="18" height="18" viewBox="0 0 18 18" fill="none" xmlns="http://www.w3.org/2000/svg">
<path fill-rule="evenodd" clip-rule="evenodd" d="M3.89042 7.00004C3.54754 7.00004 3.29985 6.67139 3.43364 6.35568C3.99016 5.04247 5.04235 3.99027 6.35557 3.43375C6.67127 3.29995 6.99992 3.54764 6.99992 3.89052V3.89052C6.99992 4.10962 6.8605 4.30225 6.66058 4.3919C5.65385 4.84334 4.84323 5.65397 4.39179 6.6607C4.30215 6.86061 4.10951 7.00004 3.89042 7.00004V7.00004ZM3.89042 10C3.54754 10 3.29985 10.3287 3.43364 10.6444C3.99017 11.9576 5.04236 13.0098 6.35557 13.5663C6.67127 13.7001 6.99992 13.4524 6.99992 13.1095V13.1095C6.99992 12.8905 6.8605 12.6978 6.66058 12.6082C5.65386 12.1567 4.84323 11.3461 4.39179 10.3394C4.30215 10.1395 4.10952 10 3.89042 10V10ZM13.1095 10C12.8904 10 12.6977 10.1395 12.6081 10.3394C12.1566 11.3461 11.346 12.1568 10.3393 12.6082C10.1393 12.6978 9.99992 12.8905 9.99992 13.1096V13.1096C9.99992 13.4524 10.3286 13.7001 10.6443 13.5663C11.9575 13.0098 13.0097 11.9576 13.5662 10.6444C13.7 10.3287 13.4523 10 13.1095 10V10ZM13.1095 7.00004C13.4523 7.00004 13.7 6.67139 13.5662 6.35569C13.0097 5.04246 11.9575 3.99025 10.6443 3.43373C10.3286 3.29994 9.99992 3.54763 9.99992 3.89051V3.89051C9.99992 4.1096 10.1393 4.30224 10.3393 4.39188C11.346 4.84332 12.1566 5.65396 12.6081 6.6607C12.6977 6.86061 12.8904 7.00004 13.1095 7.00004V7.00004Z" fill="#252525"/>
<line x1="1.5" y1="8.5" x2="5.5" y2="8.5" stroke="#252525" stroke-linecap="round"/>
<line x1="8.5" y1="1.5" x2="8.5" y2="5.5" stroke="#252525" stroke-linecap="round"/>
<line x1="15.5" y1="8.5" x2="11.5" y2="8.5" stroke="#252525" stroke-linecap="round"/>
<line x1="8.5" y1="15.5" x2="8.5" y2="11.5" stroke="#252525" stroke-linecap="round"/>
<circle cx="8.5" cy="8.5" r="0.5" fill="#252525"/>
</svg>
