<svg width="18" height="18" viewBox="0 0 18 18" fill="none" xmlns="http://www.w3.org/2000/svg">
<path fill-rule="evenodd" clip-rule="evenodd" d="M2 13.25H4.8125V14.1875H2V13.25Z" fill="#252525"/>
<path fill-rule="evenodd" clip-rule="evenodd" d="M7.625 13.25L17 13.25V14.1875L7.625 14.1875V13.25Z" fill="#252525"/>
<path fill-rule="evenodd" clip-rule="evenodd" d="M6.21875 12.3125C5.4421 12.3125 4.8125 12.9421 4.8125 13.7188C4.8125 14.4954 5.4421 15.125 6.21875 15.125C6.9954 15.125 7.625 14.4954 7.625 13.7188C7.625 12.9421 6.9954 12.3125 6.21875 12.3125ZM6.21875 11.375C4.92433 11.375 3.875 12.4243 3.875 13.7188C3.875 15.0132 4.92433 16.0625 6.21875 16.0625C7.51317 16.0625 8.5625 15.0132 8.5625 13.7188C8.5625 12.4243 7.51317 11.375 6.21875 11.375Z" fill="#252525"/>
<path fill-rule="evenodd" clip-rule="evenodd" d="M14.1875 8.5625H17V9.5H14.1875V8.5625Z" fill="#252525"/>
<path fill-rule="evenodd" clip-rule="evenodd" d="M2 8.5625L11.375 8.5625V9.5L2 9.5V8.5625Z" fill="#252525"/>
<path fill-rule="evenodd" clip-rule="evenodd" d="M12.7812 7.625C12.0046 7.625 11.375 8.2546 11.375 9.03125C11.375 9.8079 12.0046 10.4375 12.7812 10.4375C13.5579 10.4375 14.1875 9.8079 14.1875 9.03125C14.1875 8.2546 13.5579 7.625 12.7812 7.625ZM12.7812 6.6875C11.4868 6.6875 10.4375 7.73683 10.4375 9.03125C10.4375 10.3257 11.4868 11.375 12.7812 11.375C14.0757 11.375 15.125 10.3257 15.125 9.03125C15.125 7.73683 14.0757 6.6875 12.7812 6.6875Z" fill="#252525"/>
<path fill-rule="evenodd" clip-rule="evenodd" d="M7.625 3.875L17 3.875V4.8125L7.625 4.8125V3.875Z" fill="#252525"/>
<path fill-rule="evenodd" clip-rule="evenodd" d="M2 3.875L4.8125 3.875V4.8125H2V3.875Z" fill="#252525"/>
<path fill-rule="evenodd" clip-rule="evenodd" d="M6.21875 2.9375C5.4421 2.9375 4.8125 3.5671 4.8125 4.34375C4.8125 5.1204 5.4421 5.75 6.21875 5.75C6.9954 5.75 7.625 5.1204 7.625 4.34375C7.625 3.5671 6.9954 2.9375 6.21875 2.9375ZM6.21875 2C4.92433 2 3.875 3.04933 3.875 4.34375C3.875 5.63817 4.92433 6.6875 6.21875 6.6875C7.51317 6.6875 8.5625 5.63817 8.5625 4.34375C8.5625 3.04933 7.51317 2 6.21875 2Z" fill="#252525"/>
</svg>
