<svg width="18" height="18" viewBox="0 0 18 18" fill="none" xmlns="http://www.w3.org/2000/svg">
<path d="M2.00317 8.00635C2.11639 4.61597 5.26715 2 9 2C12.7328 2 15.8836 4.61597 15.9968 8.00635L16 8V8.80273C15.683 8.61938 15.3478 8.46423 14.9977 8.34058C14.9986 8.31287 14.9992 8.28503 14.9996 8.2572C14.9999 8.23657 15 8.21594 15 8.19519C15 5.38599 12.3778 3 9 3C5.62219 3 3 5.38599 3 8.19519C3 10.4381 4.67157 12.4114 7.0647 13.1157C7.02209 13.4043 7 13.6996 7 14C7 14.0444 7.00049 14.0889 7.00146 14.1331C5.51703 13.7413 4.22644 12.9243 3.32825 11.8308C3.92169 13.1713 5.27747 14.2722 7.04608 14.7474C7.07495 14.9797 7.11707 15.2079 7.17169 15.4312C7.20435 15.5646 7.24146 15.6963 7.2829 15.826C4.30762 15.2133 2 13.0436 2 10.3097V8L2.00317 8.00635Z" fill="#F7F7F7"/>
<path d="M10.0488 9.60938C10.0488 9.39624 9.96649 9.22729 9.80176 9.10254C9.64062 8.9751 9.36493 8.85815 8.97461 8.75159C8.58429 8.64502 8.24774 8.53967 7.96484 8.43567C7.89758 8.41028 7.83258 8.38416 7.76978 8.35718C7.62299 8.29419 7.48834 8.22681 7.36584 8.15503C7.32031 8.1283 7.27649 8.10095 7.23438 8.073C7.03387 7.9353 6.87628 7.77405 6.76172 7.58948C6.6507 7.40503 6.59521 7.1853 6.59521 6.93054C6.59521 6.49121 6.78857 6.13123 7.17529 5.85046C7.56201 5.5697 8.07587 5.40588 8.7168 5.35913V4.52466H9.57617V5.37085C10.21 5.43579 10.7059 5.62817 11.064 5.94788C11.4221 6.26501 11.6011 6.67712 11.6011 7.18396H10.0488C10.0488 6.87207 9.95929 6.6394 9.78027 6.48608C9.6048 6.33008 9.36847 6.25208 9.07129 6.25208C8.77765 6.25208 8.55029 6.31311 8.38916 6.4353C8.22803 6.55493 8.14746 6.72131 8.14746 6.93445C8.14746 7.13196 8.22626 7.29065 8.38379 7.41016C8.54132 7.52979 8.83319 7.65198 9.25928 7.77673C9.4278 7.82568 9.58453 7.87366 9.72937 7.92053C9.95386 7.99329 10.1498 8.0636 10.3174 8.13159C10.5931 8.24072 10.8259 8.36548 11.0156 8.50586C11.0953 8.56372 11.1671 8.62524 11.231 8.69043C11.3193 8.78052 11.3925 8.87756 11.4507 8.98157C11.551 9.15833 11.6011 9.36499 11.6011 9.60156C11.6011 10.0436 11.4113 10.4022 11.0317 10.6779C10.6522 10.9534 10.1294 11.1158 9.46338 11.1653V11.9412H8.60938V11.1692C7.87531 11.1119 7.30597 10.9235 6.90137 10.6038C6.50031 10.2814 6.2998 9.85376 6.2998 9.3208H7.85205C7.85205 9.63025 7.95233 9.86804 8.15283 10.0344C8.35693 10.1982 8.64874 10.28 9.02832 10.28C9.34344 10.28 9.59229 10.2203 9.7749 10.1007C9.95752 9.97852 10.0488 9.81482 10.0488 9.60938Z" fill="#F7F7F7"/>
<path d="M16.5001 12.3535C16.6953 12.1582 16.6953 11.8417 16.5001 11.6464C16.3047 11.4512 15.9882 11.4512 15.7929 11.6464L12 15.4393L10.3536 13.7928C10.1583 13.5977 9.84174 13.5977 9.64642 13.7928C9.45117 13.9882 9.45117 14.3047 9.64642 14.5L11.6464 16.5C11.8417 16.6953 12.1583 16.6953 12.3536 16.5L16.5001 12.3535Z" fill="#F7F7F7"/>
</svg>
