<svg width="18" height="18" viewBox="0 0 18 18" fill="none" xmlns="http://www.w3.org/2000/svg">
<path fill-rule="evenodd" clip-rule="evenodd" d="M7.18853 12.6428C7.54553 12.8853 7.98724 13.0348 8.51367 13.0913V14.1548H9.36768V13.0859C10.0337 13.0179 10.5565 12.7941 10.936 12.4146C11.3156 12.035 11.5054 11.5409 11.5054 10.9321C11.5054 10.6063 11.4552 10.3216 11.355 10.0781C11.2547 9.83105 11.1097 9.61263 10.9199 9.42285C10.8375 9.33888 10.747 9.25896 10.6484 9.18309L9.64635 10.1851C9.66775 10.2047 9.68765 10.2246 9.70605 10.2446C9.87077 10.4165 9.95312 10.6493 9.95312 10.9429C9.95312 11.2257 9.86182 11.4513 9.6792 11.6196C9.49658 11.7843 9.24772 11.8667 8.93262 11.8667C8.62629 11.8667 8.37711 11.7932 8.18507 11.6463L7.18853 12.6428ZM6.95703 8.63172L8.0777 7.51109C8.0604 7.43272 8.05176 7.34846 8.05176 7.2583C8.05176 6.96468 8.13232 6.73551 8.29346 6.5708C8.45459 6.40251 8.68197 6.31836 8.97559 6.31836C9.06925 6.31836 9.15688 6.32903 9.23845 6.35037L10.2554 5.33343C10.0253 5.22127 9.76695 5.14496 9.48047 5.10449V3.93896H8.62109V5.08838C7.98014 5.15283 7.46631 5.37842 7.07959 5.76514C6.69287 6.15186 6.49951 6.64779 6.49951 7.25293C6.49951 7.60384 6.55501 7.90641 6.66602 8.16064C6.74342 8.33238 6.84042 8.4894 6.95703 8.63172Z" fill="#F7F7F7"/>
<path fill-rule="evenodd" clip-rule="evenodd" d="M13.0637 5.35357L5.0632 13.3538L4.3561 12.6467L12.3566 4.64645L13.0637 5.35357Z" fill="#F7F7F7"/>
</svg>
