<svg width="18" height="18" viewBox="0 0 18 18" fill="none" xmlns="http://www.w3.org/2000/svg">
<path fill-rule="evenodd" clip-rule="evenodd" d="M7.18853 12.7039C7.54553 12.9464 7.98724 13.0958 8.51367 13.1523V14.2158H9.36768V13.147C10.0337 13.0789 10.5565 12.8551 10.936 12.4756C11.3156 12.096 11.5054 11.6019 11.5054 10.9932C11.5054 10.6673 11.4552 10.3826 11.355 10.1392C11.2547 9.89209 11.1097 9.67367 10.9199 9.48389C10.8375 9.39991 10.747 9.31999 10.6484 9.24412L9.64635 10.2461C9.66775 10.2658 9.68765 10.2856 9.70605 10.3057C9.87077 10.4775 9.95312 10.7103 9.95312 11.0039C9.95312 11.2868 9.86182 11.5124 9.6792 11.6807C9.49658 11.8454 9.24772 11.9277 8.93262 11.9277C8.62629 11.9277 8.37711 11.8543 8.18507 11.7073L7.18853 12.7039ZM6.95703 8.69276L8.0777 7.57213C8.0604 7.49376 8.05176 7.40949 8.05176 7.31934C8.05176 7.02572 8.13232 6.79655 8.29346 6.63184C8.45459 6.46354 8.68197 6.37939 8.97559 6.37939C9.06925 6.37939 9.15688 6.39006 9.23845 6.41141L10.2554 5.39447C10.0253 5.2823 9.76695 5.20599 9.48047 5.16553V4H8.62109V5.14941C7.98014 5.21387 7.46631 5.43945 7.07959 5.82617C6.69287 6.21289 6.49951 6.70882 6.49951 7.31396C6.49951 7.66488 6.55501 7.96745 6.66602 8.22168C6.74342 8.39341 6.84042 8.55044 6.95703 8.69276Z" fill="#FFAE93"/>
<path fill-rule="evenodd" clip-rule="evenodd" d="M13.0637 5.4146L5.0632 13.4148L4.3561 12.7077L12.3566 4.70749L13.0637 5.4146Z" fill="#FFAE93"/>
</svg>
