<svg width="19" height="18" viewBox="0 0 19 18" fill="none" xmlns="http://www.w3.org/2000/svg">
<g opacity="0.8">
<path d="M8.75032 7.5H13.1343L10.2497 12.5H5.8657L8.75032 7.5Z" stroke="#FFAE93"/>
<path d="M13.212 7.5H17.596L14.7114 12.5H10.3274L13.212 7.5Z" stroke="#FFAE93"/>
<path d="M4.28889 7.5H8.67286L5.78825 12.5H1.40427L4.28889 7.5Z" stroke="#FFAE93"/>
</g>
<path opacity="0.8" d="M2.14645 4.14648C1.95118 4.34167 1.95118 4.65833 2.14645 4.85352C2.3417 5.04883 2.65829 5.04883 2.85354 4.85352L4 3.70703V9.5C4 9.77612 4.22386 10 4.5 10C4.77613 10 5 9.77612 5 9.5V3.70703L6.14645 4.85352C6.3417 5.04883 6.65829 5.04883 6.85354 4.85352C7.04881 4.65833 7.04881 4.34167 6.85354 4.14648L4.85354 2.14648C4.65829 1.95117 4.3417 1.95117 4.14645 2.14648L2.14645 4.14648Z" fill="#F7F7F7"/>
<path opacity="0.8" d="M7.14645 4.14648C6.95118 4.34167 6.95118 4.65833 7.14645 4.85352C7.3417 5.04883 7.65829 5.04883 7.85354 4.85352L9 3.70703V9.5C9 9.77612 9.22386 10 9.5 10C9.77613 10 10 9.77612 10 9.5V3.70703L11.1465 4.85352C11.3417 5.04883 11.6583 5.04883 11.8535 4.85352C12.0488 4.65833 12.0488 4.34167 11.8535 4.14648L9.85354 2.14648C9.65829 1.95117 9.3417 1.95117 9.14645 2.14648L7.14645 4.14648Z" fill="#F7F7F7"/>
<path opacity="0.8" d="M12.1465 4.14648C11.9512 4.34167 11.9512 4.65833 12.1465 4.85352C12.3417 5.04883 12.6583 5.04883 12.8535 4.85352L14 3.70703V9.5C14 9.77612 14.2239 10 14.5 10C14.7761 10 15 9.77612 15 9.5V3.70703L16.1465 4.85352C16.3417 5.04883 16.6583 5.04883 16.8535 4.85352C17.0488 4.65833 17.0488 4.34167 16.8535 4.14648L14.8535 2.14648C14.6583 1.95117 14.3417 1.95117 14.1465 2.14648L12.1465 4.14648Z" fill="#F7F7F7"/>
</svg>
