<svg width="18" height="18" viewBox="0 0 18 18" fill="none" xmlns="http://www.w3.org/2000/svg">
<path fill-rule="evenodd" clip-rule="evenodd" d="M5.49869 3.5004H4.49863V2.5004H5.49869V3.5004ZM7.49882 3.5004H6.49876V2.5004H7.49882V3.5004ZM9.49895 3.5004H8.49889V2.5004H9.49895V3.5004ZM11.4991 3.5004H10.499V2.5004H11.4991V3.5004ZM13.4992 3.5004H12.4991V2.5004H13.4992V3.5004ZM3.49854 4.50038V5.50038H2.49854V4.50038H3.49854ZM3.49854 6.50037V7.50036H2.49854V6.50037H3.49854ZM3.49854 8.50036V9.50035H2.49854V8.50036H3.49854ZM3.49854 10.5003V11.5003H2.49854V10.5003H3.49854ZM3.49854 12.5003V13.5003H2.49854V12.5003H3.49854Z" fill="#545FD9"/>
<path fill-rule="evenodd" clip-rule="evenodd" d="M12.5023 14.5153H13.5023V15.5153H12.5023V14.5153ZM10.5022 14.5153H11.5022V15.5153H10.5022V14.5153ZM8.50203 14.5153H9.50209V15.5153H8.50203V14.5153ZM6.5019 14.5153H7.50196V15.5153H6.5019V14.5153ZM4.50177 14.5153H5.50184V15.5153H4.50177V14.5153ZM14.5024 13.5153V12.5153H15.5024V13.5153H14.5024ZM14.5024 11.5153V10.5153H15.5024V11.5153H14.5024ZM14.5024 9.51533V8.51533H15.5024V9.51533H14.5024ZM14.5024 7.51534L14.5024 6.51535H15.5024V7.51534H14.5024ZM14.5024 5.51536V4.51536H15.5024V5.51536H14.5024Z" fill="#545FD9"/>
<path fill-rule="evenodd" clip-rule="evenodd" d="M4.84009 13.054C4.84009 8.57236 8.47231 4.87408 12.9636 4.87408V5.87408C9.03417 5.87408 5.84009 9.11503 5.84009 13.054H4.84009Z" fill="#545FD9"/>
<path fill-rule="evenodd" clip-rule="evenodd" d="M1.5 1.50012H4.50013V4.50011H1.5V1.50012ZM2.5 2.50012V3.50011H3.50013V2.50012H2.5Z" fill="#545FD9"/>
<path fill-rule="evenodd" clip-rule="evenodd" d="M1.5 13.5H4.50013V16.5H1.5V13.5ZM2.5 14.5V15.5H3.50013V14.5H2.5Z" fill="#545FD9"/>
<path fill-rule="evenodd" clip-rule="evenodd" d="M13.4993 13.4999H16.4994V16.4999H13.4993V13.4999ZM14.4993 14.4999V15.4999H15.4994V14.4999H14.4993Z" fill="#545FD9"/>
<path fill-rule="evenodd" clip-rule="evenodd" d="M13.5 1.5H16.5001V4.49999H13.5V1.5ZM14.5 2.5V3.49999H15.5001V2.5H14.5Z" fill="#545FD9"/>
</svg>
