<svg width="18" height="18" viewBox="0 0 18 18" fill="none" xmlns="http://www.w3.org/2000/svg">
<path d="M6.53257 6.5L15.7452 6.5L10.4674 11.5L1.25479 11.5L6.53257 6.5Z" stroke="#FFAE93"/>
<path d="M8.5 8.5V1.5" stroke="#545FD9" stroke-linecap="round"/>
<path opacity="0.4" fill-rule="evenodd" clip-rule="evenodd" d="M8.5 9C8.77614 9 9 9.22386 9 9.5V16.2929L10.1464 15.1464C10.3417 14.9512 10.6583 14.9512 10.8536 15.1464C11.0488 15.3417 11.0488 15.6583 10.8536 15.8536L8.85355 17.8536C8.65829 18.0488 8.34171 18.0488 8.14645 17.8536L6.14645 15.8536C5.95118 15.6583 5.95118 15.3417 6.14645 15.1464C6.34171 14.9512 6.65829 14.9512 6.85355 15.1464L8 16.2929V9.5C8 9.22386 8.22386 9 8.5 9Z" fill="#252525"/>
<path d="M8.5 0.5L10.5 2.5" stroke="#545FD9" stroke-linecap="round"/>
<path d="M8.5 0.5L6.5 2.5" stroke="#545FD9" stroke-linecap="round"/>
</svg>
