<svg width="18" height="18" viewBox="0 0 18 18" fill="none" xmlns="http://www.w3.org/2000/svg">
<path d="M2.53287 4.41527C4.53747 6.67045 5.97993 8.00128 7.47049 8.74656C8.98307 9.50285 10.4829 9.62505 12.5 9.62505V8.37505C10.5171 8.37505 9.26693 8.24724 8.02951 7.62853C6.77007 6.99881 5.46253 5.82965 3.46713 3.58482L2.53287 4.41527ZM12.5 9.62505H14.5V8.37505H12.5V9.62505ZM3.46713 14.4153C5.46253 12.1704 6.77007 11.0013 8.02951 10.3716C9.26693 9.75285 10.5171 9.62505 12.5 9.62505V8.37505C10.4829 8.37505 8.98307 8.49724 7.47049 9.25353C5.97993 9.99881 4.53747 11.3296 2.53287 13.5848L3.46713 14.4153ZM12.5 9.62505H14.5V8.37505H12.5V9.62505Z" fill="#545FD9"/>
<path d="M11.5 6L14.5 9L11.5 12" stroke="#545FD9" stroke-width="1.25" stroke-linecap="round"/>
</svg>
