<svg width="18" height="18" viewBox="0 0 18 18" fill="none" xmlns="http://www.w3.org/2000/svg">
<path d="M10.8177 13.4133C11.0501 13.4103 11.2446 13.2297 11.2648 12.9951C11.2833 12.7587 11.5343 12.3039 11.7781 11.8633C12.2332 11.0382 12.7991 10.011 12.7991 8.9295C12.7984 7.88804 12.3874 6.88882 11.6559 6.15188C10.925 5.41484 9.93326 5.00084 8.89891 5.00013L10.8177 13.4133ZM10.8177 13.4133L10.8516 12.9627L11.2648 12.995L10.8519 12.9593L10.852 12.9573C10.862 12.8244 10.9124 12.6531 11.0153 12.424C11.1169 12.1976 11.2527 11.951 11.4122 11.6616L11.7781 11.8633L11.4126 11.661L10.8177 13.4133Z" stroke="#F7F7F7"/>
<mask id="path-2-inside-1" fill="white">
<path d="M10.4059 15.6408C9.9637 15.9444 9.43619 16.0999 8.90085 16.082C8.36551 16.0999 7.83799 15.9444 7.39578 15.6408C7.19458 15.4882 6.90949 15.5297 6.75878 15.7324C6.60806 15.9344 6.64858 16.2217 6.84978 16.3742C7.44982 16.7968 8.16858 17.016 8.90094 16.9988C9.63535 17.016 10.3562 16.7961 10.9577 16.3699C11.1589 16.2181 11.1995 15.9308 11.0487 15.7281C10.898 15.5261 10.6129 15.4846 10.4117 15.6364L10.4059 15.6408Z"/>
</mask>
<path d="M10.4059 15.6408L10.972 16.4651L10.9865 16.4551L11.0007 16.4446L10.4059 15.6408ZM8.90085 16.082L8.93429 15.0825L8.90086 15.0814L8.86742 15.0825L8.90085 16.082ZM7.39578 15.6408L6.79158 16.4376L6.8103 16.4518L6.82967 16.4651L7.39578 15.6408ZM6.75878 15.7324L7.56025 16.3305L7.56126 16.3291L6.75878 15.7324ZM6.84978 16.3742L6.24557 17.171L6.25959 17.1817L6.27397 17.1918L6.84978 16.3742ZM8.90094 16.9988L8.92434 15.9991L8.9009 15.9985L8.87746 15.9991L8.90094 16.9988ZM10.9577 16.3699L11.5359 17.1859L11.5481 17.1772L11.5601 17.1681L10.9577 16.3699ZM11.0487 15.7281L11.8512 15.1315L11.8502 15.1301L11.0487 15.7281ZM10.4117 15.6364L11.0065 16.4404L11.0141 16.4346L10.4117 15.6364ZM9.8398 14.8164C9.57204 15.0003 9.25431 15.0932 8.93429 15.0825L8.8674 17.0814C9.61807 17.1065 10.3554 16.8886 10.972 16.4651L9.8398 14.8164ZM8.86742 15.0825C8.54738 15.0932 8.22964 15.0003 7.96189 14.8164L6.82967 16.4651C7.44634 16.8886 8.18363 17.1065 8.93428 17.0814L8.86742 15.0825ZM7.99999 14.8439C7.35254 14.353 6.4363 14.4902 5.95629 15.1358L7.56126 16.3291C7.38268 16.5693 7.03662 16.6234 6.79158 16.4376L7.99999 14.8439ZM5.9573 15.1344C5.47794 15.7768 5.60692 16.6868 6.24557 17.171L7.45398 15.5774C7.69024 15.7565 7.73817 16.092 7.56025 16.3305L5.9573 15.1344ZM6.27397 17.1918C7.04839 17.7372 7.97707 18.0208 8.92442 17.9985L8.87746 15.9991C8.3601 16.0112 7.85125 15.8564 7.42559 15.5566L6.27397 17.1918ZM8.87754 17.9985C9.82708 18.0207 10.7589 17.7364 11.5359 17.1859L10.3796 15.554C9.95359 15.8558 9.44363 16.0112 8.92434 15.9991L8.87754 17.9985ZM11.5601 17.1681C12.2027 16.6831 12.3277 15.7724 11.8512 15.1315L10.2462 16.3248C10.0712 16.0893 10.1152 15.753 10.3553 15.5717L11.5601 17.1681ZM11.8502 15.1301C11.37 14.4866 10.4559 14.3503 9.80935 14.8382L11.0141 16.4346C10.77 16.6189 10.426 16.5657 10.2473 16.3262L11.8502 15.1301ZM9.81695 14.8326L9.81113 14.8369L11.0007 16.4446L11.0065 16.4403L9.81695 14.8326Z" fill="#F7F7F7" mask="url(#path-2-inside-1)"/>
<mask id="path-4-inside-2" fill="white">
<path d="M10.4059 14.1926C9.9637 14.4971 9.43619 14.6518 8.90085 14.6346C8.36551 14.6518 7.83799 14.4971 7.39578 14.1926C7.19458 14.0408 6.90949 14.0816 6.75877 14.2843C6.60806 14.487 6.64858 14.7743 6.84978 14.9261C7.44982 15.3487 8.16858 15.5679 8.90094 15.5514C9.63606 15.5679 10.3562 15.3466 10.9577 14.9204C11.1589 14.7685 11.1995 14.4813 11.0487 14.2786C10.898 14.0766 10.6129 14.0351 10.4117 14.1869L10.4059 14.1926Z"/>
</mask>
<path d="M10.4059 14.1926L10.973 15.0163L11.0446 14.967L11.1067 14.906L10.4059 14.1926ZM8.90085 14.6346L8.93292 13.6351L8.90084 13.6341L8.86875 13.6351L8.90085 14.6346ZM7.39578 14.1926L6.79338 14.9908L6.81078 15.004L6.82874 15.0163L7.39578 14.1926ZM6.84978 14.9261L6.24738 15.7243L6.26051 15.7342L6.27396 15.7437L6.84978 14.9261ZM8.90094 15.5514L8.92334 14.5517L8.9009 14.5512L8.87846 14.5517L8.90094 15.5514ZM10.9577 14.9204L11.5359 15.7363L11.5481 15.7276L11.5601 15.7186L10.9577 14.9204ZM11.0487 14.2786L11.8512 13.6819L11.8502 13.6806L11.0487 14.2786ZM10.4117 14.1869L9.80935 13.3887L9.75741 13.4279L9.71098 13.4735L10.4117 14.1869ZM9.83887 13.369C9.57236 13.5524 9.25476 13.6454 8.93292 13.6351L8.86877 15.6341C9.61762 15.6581 10.355 15.4417 10.973 15.0163L9.83887 13.369ZM8.86875 13.6351C8.54694 13.6454 8.22935 13.5524 7.96282 13.369L6.82874 15.0163C7.44664 15.4417 8.18407 15.6581 8.93294 15.6341L8.86875 13.6351ZM7.99818 13.3944C7.35353 12.9079 6.43792 13.0399 5.95629 13.6877L7.56126 14.881C7.38106 15.1234 7.03563 15.1737 6.79338 14.9908L7.99818 13.3944ZM5.95629 13.6877C5.47977 14.3285 5.60482 15.2394 6.24738 15.7243L7.45218 14.1279C7.69233 14.3092 7.73635 14.6455 7.56126 14.881L5.95629 13.6877ZM6.27396 15.7437C7.04841 16.2891 7.97677 16.5724 8.92342 16.5512L8.87846 14.5517C8.36039 14.5633 7.85123 14.4083 7.42559 14.1085L6.27396 15.7437ZM8.87853 16.5512C9.8295 16.5725 10.76 16.286 11.5359 15.7363L10.3796 14.1044C9.95245 14.4071 9.44263 14.5633 8.92334 14.5517L8.87853 16.5512ZM11.5601 15.7186C12.2027 15.2336 12.3277 14.3228 11.8512 13.6819L10.2462 14.8753C10.0712 14.6398 10.1152 14.3034 10.3553 14.1222L11.5601 15.7186ZM11.8502 13.6806C11.37 13.037 10.4559 12.9008 9.80935 13.3887L11.0141 14.9851C10.77 15.1694 10.426 15.1162 10.2473 14.8766L11.8502 13.6806ZM9.71098 13.4735L9.70516 13.4792L11.1067 14.906L11.1125 14.9003L9.71098 13.4735Z" fill="#F7F7F7" mask="url(#path-4-inside-2)"/>
<path d="M9 4V1.5M5.5 5.5L4 4M4 9H2M5 12L3.5 13M12.5 5.5L14 4M14 9H16M13 12L14.5 13" stroke="#F7F7F7"/>
</svg>
