<svg width="18" height="18" viewBox="0 0 18 18" fill="none" xmlns="http://www.w3.org/2000/svg">
<path d="M10.8177 12.9133C11.0501 12.9103 11.2446 12.7297 11.2648 12.4951C11.2833 12.2587 11.5343 11.8039 11.7781 11.3633C12.2332 10.5382 12.7991 9.51098 12.7991 8.4295C12.7984 7.38804 12.3874 6.38882 11.6559 5.65188C10.925 4.91484 9.93326 4.50084 8.89891 4.50013L10.8177 12.9133ZM10.8177 12.9133L10.8516 12.4627L11.2648 12.495L10.8519 12.4593L10.852 12.4573C10.862 12.3244 10.9124 12.1531 11.0153 11.924C11.1169 11.6976 11.2527 11.451 11.4122 11.1616L11.7781 11.3633L11.4126 11.161L10.8177 12.9133Z" stroke="#FFAE93"/>
<mask id="path-2-inside-1" fill="white">
<path d="M10.4059 15.1408C9.9637 15.4444 9.43619 15.5999 8.90085 15.582C8.36551 15.5999 7.83799 15.4444 7.39578 15.1408C7.19458 14.9882 6.90949 15.0297 6.75878 15.2324C6.60806 15.4344 6.64858 15.7217 6.84978 15.8742C7.44982 16.2968 8.16858 16.516 8.90094 16.4988C9.63535 16.516 10.3562 16.2961 10.9577 15.8699C11.1589 15.7181 11.1995 15.4308 11.0487 15.2281C10.898 15.0261 10.6129 14.9846 10.4117 15.1364L10.4059 15.1408Z"/>
</mask>
<path d="M10.4059 15.1408L10.972 15.9651L10.9865 15.9551L11.0007 15.9446L10.4059 15.1408ZM8.90085 15.582L8.93429 14.5825L8.90086 14.5814L8.86742 14.5825L8.90085 15.582ZM7.39578 15.1408L6.79158 15.9376L6.8103 15.9518L6.82967 15.9651L7.39578 15.1408ZM6.75878 15.2324L7.56025 15.8305L7.56126 15.8291L6.75878 15.2324ZM6.84978 15.8742L6.24557 16.671L6.25959 16.6817L6.27397 16.6918L6.84978 15.8742ZM8.90094 16.4988L8.92434 15.4991L8.9009 15.4985L8.87746 15.4991L8.90094 16.4988ZM10.9577 15.8699L11.5359 16.6859L11.5481 16.6772L11.5601 16.6681L10.9577 15.8699ZM11.0487 15.2281L11.8512 14.6315L11.8502 14.6301L11.0487 15.2281ZM10.4117 15.1364L11.0065 15.9404L11.0141 15.9346L10.4117 15.1364ZM9.8398 14.3164C9.57204 14.5003 9.25431 14.5932 8.93429 14.5825L8.8674 16.5814C9.61807 16.6065 10.3554 16.3886 10.972 15.9651L9.8398 14.3164ZM8.86742 14.5825C8.54738 14.5932 8.22964 14.5003 7.96189 14.3164L6.82967 15.9651C7.44634 16.3886 8.18363 16.6065 8.93428 16.5814L8.86742 14.5825ZM7.99999 14.3439C7.35254 13.853 6.4363 13.9902 5.95629 14.6358L7.56126 15.8291C7.38268 16.0693 7.03662 16.1234 6.79158 15.9376L7.99999 14.3439ZM5.9573 14.6344C5.47794 15.2768 5.60692 16.1868 6.24557 16.671L7.45398 15.0774C7.69024 15.2565 7.73817 15.592 7.56025 15.8305L5.9573 14.6344ZM6.27397 16.6918C7.04839 17.2372 7.97707 17.5208 8.92442 17.4985L8.87746 15.4991C8.3601 15.5112 7.85125 15.3564 7.42559 15.0566L6.27397 16.6918ZM8.87754 17.4985C9.82708 17.5207 10.7589 17.2364 11.5359 16.6859L10.3796 15.054C9.95359 15.3558 9.44363 15.5112 8.92434 15.4991L8.87754 17.4985ZM11.5601 16.6681C12.2027 16.1831 12.3277 15.2724 11.8512 14.6315L10.2462 15.8248C10.0712 15.5893 10.1152 15.253 10.3553 15.0717L11.5601 16.6681ZM11.8502 14.6301C11.37 13.9866 10.4559 13.8503 9.80935 14.3382L11.0141 15.9346C10.77 16.1189 10.426 16.0657 10.2473 15.8262L11.8502 14.6301ZM9.81695 14.3326L9.81113 14.3369L11.0007 15.9446L11.0065 15.9403L9.81695 14.3326Z" fill="#FFAE93" mask="url(#path-2-inside-1)"/>
<mask id="path-4-inside-2" fill="white">
<path d="M10.4059 13.6926C9.9637 13.9971 9.43619 14.1518 8.90085 14.1346C8.36551 14.1518 7.83799 13.9971 7.39578 13.6926C7.19458 13.5408 6.90949 13.5816 6.75877 13.7843C6.60806 13.987 6.64858 14.2743 6.84978 14.4261C7.44982 14.8487 8.16858 15.0679 8.90094 15.0514C9.63606 15.0679 10.3562 14.8466 10.9577 14.4204C11.1589 14.2685 11.1995 13.9813 11.0487 13.7786C10.898 13.5766 10.6129 13.5351 10.4117 13.6869L10.4059 13.6926Z"/>
</mask>
<path d="M10.4059 13.6926L10.973 14.5163L11.0446 14.467L11.1067 14.406L10.4059 13.6926ZM8.90085 14.1346L8.93292 13.1351L8.90084 13.1341L8.86875 13.1351L8.90085 14.1346ZM7.39578 13.6926L6.79338 14.4908L6.81078 14.504L6.82874 14.5163L7.39578 13.6926ZM6.84978 14.4261L6.24738 15.2243L6.26051 15.2342L6.27396 15.2437L6.84978 14.4261ZM8.90094 15.0514L8.92334 14.0517L8.9009 14.0512L8.87846 14.0517L8.90094 15.0514ZM10.9577 14.4204L11.5359 15.2363L11.5481 15.2276L11.5601 15.2186L10.9577 14.4204ZM11.0487 13.7786L11.8512 13.1819L11.8502 13.1806L11.0487 13.7786ZM10.4117 13.6869L9.80935 12.8887L9.75741 12.9279L9.71098 12.9735L10.4117 13.6869ZM9.83887 12.869C9.57236 13.0524 9.25476 13.1454 8.93292 13.1351L8.86877 15.1341C9.61762 15.1581 10.355 14.9417 10.973 14.5163L9.83887 12.869ZM8.86875 13.1351C8.54694 13.1454 8.22935 13.0524 7.96282 12.869L6.82874 14.5163C7.44664 14.9417 8.18407 15.1581 8.93294 15.1341L8.86875 13.1351ZM7.99818 12.8944C7.35353 12.4079 6.43792 12.5399 5.95629 13.1877L7.56126 14.381C7.38106 14.6234 7.03563 14.6737 6.79338 14.4908L7.99818 12.8944ZM5.95629 13.1877C5.47977 13.8285 5.60482 14.7394 6.24738 15.2243L7.45218 13.6279C7.69233 13.8092 7.73635 14.1455 7.56126 14.381L5.95629 13.1877ZM6.27396 15.2437C7.04841 15.7891 7.97677 16.0724 8.92342 16.0512L8.87846 14.0517C8.36039 14.0633 7.85123 13.9083 7.42559 13.6085L6.27396 15.2437ZM8.87853 16.0512C9.8295 16.0725 10.76 15.786 11.5359 15.2363L10.3796 13.6044C9.95245 13.9071 9.44263 14.0633 8.92334 14.0517L8.87853 16.0512ZM11.5601 15.2186C12.2027 14.7336 12.3277 13.8228 11.8512 13.1819L10.2462 14.3753C10.0712 14.1398 10.1152 13.8034 10.3553 13.6222L11.5601 15.2186ZM11.8502 13.1806C11.37 12.537 10.4559 12.4008 9.80935 12.8887L11.0141 14.4851C10.77 14.6694 10.426 14.6162 10.2473 14.3766L11.8502 13.1806ZM9.71098 12.9735L9.70516 12.9792L11.1067 14.406L11.1125 14.4003L9.71098 12.9735Z" fill="#FFAE93" mask="url(#path-4-inside-2)"/>
<path d="M9 3.5V1M5.5 5L4 3.5M4 8.5H2M5 11.5L3.5 12.5M12.5 5L14 3.5M14 8.5H16M13 11.5L14.5 12.5" stroke="#FFAE93"/>
</svg>
