<svg width="18" height="18" viewBox="0 0 18 18" fill="none" xmlns="http://www.w3.org/2000/svg">
<path d="M8.89888 5C7.86588 5.00143 6.87484 5.41543 6.14392 6.15104C5.41307 6.88736 5.00215 7.88512 5 8.9259C5 10.0153 5.56592 11.0418 6.02092 11.8597C6.26477 12.2995 6.51575 12.7544 6.53422 12.9915H6.53493C6.55413 13.2443 6.77381 13.4341 7.02477 13.4141C7.27645 13.394 7.46414 13.1734 7.44494 12.9198C7.41224 12.4851 7.1371 11.9887 6.82073 11.4142C6.39701 10.6443 5.91072 9.76396 5.91072 8.91883H5.91001C5.91001 7.84299 6.48019 6.84955 7.40441 6.31156C8.32934 5.77364 9.46831 5.77364 10.3932 6.31156C11.3175 6.84948 11.8876 7.84295 11.8876 8.91883C11.8876 9.77118 11.4056 10.6443 10.9776 11.4142C10.6613 11.988 10.3861 12.4851 10.3534 12.9198H10.3527C10.3435 13.0409 10.3826 13.1612 10.4608 13.2536C10.539 13.3467 10.6513 13.404 10.7715 13.4133H10.8063C11.0437 13.4162 11.2442 13.2336 11.2648 12.9951C11.2833 12.7587 11.5343 12.3039 11.7781 11.8633C12.2331 11.0382 12.7991 10.011 12.7991 8.9295C12.7984 7.88804 12.3874 6.88882 11.6559 6.15188C10.925 5.41484 9.93326 5.00084 8.89891 5.00013L8.89888 5Z" fill="#252525"/>
<path d="M10.4059 15.6408C9.9637 15.9444 9.43619 16.0999 8.90085 16.082C8.36551 16.0999 7.83799 15.9444 7.39578 15.6408C7.19458 15.4882 6.90949 15.5297 6.75878 15.7324C6.60806 15.9344 6.64858 16.2217 6.84978 16.3742C7.44982 16.7968 8.16858 17.016 8.90094 16.9988C9.63535 17.016 10.3562 16.7961 10.9577 16.3699C11.1589 16.2181 11.1995 15.9308 11.0487 15.7281C10.898 15.5261 10.6129 15.4846 10.4117 15.6364L10.4059 15.6408Z" fill="#252525"/>
<path d="M10.4059 14.1926C9.9637 14.4971 9.43619 14.6518 8.90085 14.6346C8.36551 14.6518 7.83799 14.4971 7.39578 14.1926C7.19458 14.0408 6.90949 14.0816 6.75877 14.2843C6.60806 14.487 6.64858 14.7743 6.84978 14.9261C7.44982 15.3487 8.16858 15.5679 8.90094 15.5514C9.63606 15.5679 10.3562 15.3466 10.9577 14.9204C11.1589 14.7685 11.1995 14.4813 11.0487 14.2786C10.898 14.0766 10.6129 14.0351 10.4117 14.1869L10.4059 14.1926Z" fill="#252525"/>
<path d="M9 4V1.5M5.5 5.5L4 4M4 9H2M5 12L3.5 13M12.5 5.5L14 4M14 9H16M13 12L14.5 13" stroke="#252525"/>
</svg>
