<svg width="18" height="18" viewBox="0 0 18 18" fill="none" xmlns="http://www.w3.org/2000/svg">
<path fill-rule="evenodd" clip-rule="evenodd" d="M6.5 3C7.47937 3 8.36475 3.40222 9 4.05054C9.63525 3.40222 10.5206 3 11.5 3C13.433 3 15 4.56702 15 6.5C15 8.21606 13.765 9.64368 12.1352 9.9425C12.3687 10.4116 12.5 10.9404 12.5 11.5C12.5 13.433 10.933 15 9 15C7.06702 15 5.5 13.433 5.5 11.5C5.5 10.9404 5.63135 10.4116 5.86481 9.9425C4.23511 9.64368 3 8.21606 3 6.5C3 4.56702 4.56702 3 6.5 3ZM11.4489 8.99951C11.4659 8.99988 11.4829 9 11.5 9C12.8807 9 14 7.88074 14 6.5C14 5.11926 12.8807 4 11.5 4C10.7399 4 10.059 4.33923 9.60046 4.87451C9.22614 5.31152 9 5.87939 9 6.5C9 7.86365 10.0918 8.97229 11.4489 8.99951ZM10.9695 9.96008C10.228 9.84729 9.56287 9.50183 9.05103 9.00049C9.03406 9.00012 9.01703 9 9 9L8.9704 9.00024L8.94897 9.00049C8.43713 9.50183 7.77203 9.84729 7.03046 9.96008C6.69812 10.3845 6.5 10.9191 6.5 11.5C6.5 12.8807 7.61926 14 9 14C10.3807 14 11.5 12.8807 11.5 11.5C11.5 10.9191 11.3019 10.3845 10.9695 9.96008ZM8.39954 4.87451C7.94104 4.33923 7.26013 4 6.5 4C5.11926 4 4 5.11926 4 6.5C4 7.88074 5.11926 9 6.5 9C7.26013 9 7.94104 8.66077 8.39954 8.12549C8.14435 7.63977 8 7.08667 8 6.5C8 5.91333 8.14435 5.36023 8.39954 4.87451Z" fill="#545FD9"/>
</svg>
