<svg width="18" height="18" viewBox="0 0 18 18" fill="none" xmlns="http://www.w3.org/2000/svg">
<path fill-rule="evenodd" clip-rule="evenodd" d="M13 6H5V14H9V15H5C4.447 15 4 14.552 4 14V13H3C2.447 13 2 12.552 2 12V4C2 3.448 2.447 3 3 3H11C11.552 3 12 3.448 12 4V5H13C13.552 5 14 5.448 14 6V10H13V6V6ZM11 4H3V12H4V6C4 5.448 4.447 5 5 5H11V4V4ZM14.005 14.2876L9.90606 10.177C9.70406 9.97403 9.37706 9.97403 9.17506 10.177C8.97306 10.38 8.97306 10.71 9.17506 10.913L13.2488 15H11.519C11.243 15 11.02 15.224 11.02 15.5C11.02 15.776 11.243 16 11.519 16H14.3765C14.4561 16.0144 14.5384 16.01 14.6163 15.9869C14.8359 15.9353 15 15.7368 15 15.5V12.5C15 12.224 14.777 12 14.503 12C14.227 12 14.005 12.224 14.005 12.5V14.2876Z" fill="#F7F7F7"/>
</svg>
