<svg width="18" height="18" viewBox="0 0 18 18" fill="none" xmlns="http://www.w3.org/2000/svg">
<path fill-rule="evenodd" clip-rule="evenodd" d="M4.00003 4.95C5.14115 4.71838 6.00013 3.70953 6.00013 2.5C6.00013 1.11923 4.88072 0 3.50006 0C2.11941 0 1 1.11923 1 2.5C1 3.70951 1.85895 4.71834 3.00003 4.94998V13H1V18H6.00013V13H4.04941C4.51847 8.27559 8.2756 4.51846 13 4.04938V6H18.0001V1H13V3.04485C8.99389 3.40587 5.60712 5.91471 4.00003 9.41103V4.95ZM3.50006 4C2.67164 4 2 3.32843 2 2.5C2 1.67157 2.67164 1 3.50006 1C4.32849 1 5.00013 1.67157 5.00013 2.5C5.00013 3.32843 4.32849 4 3.50006 4ZM2 14H5.00013V17H2V14ZM14 5V2H17.0001V5H14Z" fill="#252525"/>
</svg>
