<svg width="18" height="18" viewBox="0 0 18 18" fill="none" xmlns="http://www.w3.org/2000/svg">
<path fill-rule="evenodd" clip-rule="evenodd" d="M3.5 3C3.22386 3 3 3.22386 3 3.5V14.5C3 14.7761 3.22386 15 3.5 15H14.5C14.7761 15 15 14.7761 15 14.5V9C15 8.72386 14.7761 8.5 14.5 8.5C14.2239 8.5 14 8.72386 14 9V14H4V4H9C9.27614 4 9.5 3.77614 9.5 3.5C9.5 3.22386 9.27614 3 9 3H3.5ZM9.90606 8.85605L14.005 4.74545V6.53308C14.005 6.80908 14.227 7.03308 14.503 7.03308C14.777 7.03308 15 6.80908 15 6.53308V3.53308C15 3.29631 14.8359 3.09781 14.6163 3.04616C14.5384 3.02306 14.4561 3.01869 14.3765 3.03308H11.519C11.243 3.03308 11.02 3.25708 11.02 3.53308C11.02 3.80908 11.243 4.03308 11.519 4.03308H13.2488L9.17506 8.12005C8.97306 8.32305 8.97306 8.65305 9.17506 8.85605C9.37706 9.05905 9.70406 9.05905 9.90606 8.85605Z" fill="#FFAE93"/>
</svg>
