<svg width="18" height="18" viewBox="0 0 18 18" fill="none" xmlns="http://www.w3.org/2000/svg">
<path d="M2.53287 4.41526C4.53747 6.67043 5.97993 8.00127 7.47049 8.74655C8.98307 9.50284 10.4829 9.62503 12.5 9.62503V8.37503C10.5171 8.37503 9.26693 8.24722 8.02951 7.62851C6.77007 6.99879 5.46253 5.82963 3.46713 3.5848L2.53287 4.41526ZM12.5 9.62503H14.5V8.37503H12.5V9.62503ZM3.46713 14.4153C5.46253 12.1704 6.77007 11.0013 8.02951 10.3715C9.26693 9.75284 10.5171 9.62503 12.5 9.62503V8.37503C10.4829 8.37503 8.98307 8.49722 7.47049 9.25351C5.97993 9.99879 4.53747 11.3296 2.53287 13.5848L3.46713 14.4153ZM12.5 9.62503H14.5V8.37503H12.5V9.62503Z" fill="#FFAE93"/>
<path d="M11.5 6L14.5 9L11.5 12" stroke="#FFAE93" stroke-width="1.25" stroke-linecap="round"/>
</svg>
