<svg width="18" height="18" viewBox="0 0 18 18" fill="none" xmlns="http://www.w3.org/2000/svg">
<path fill-rule="evenodd" clip-rule="evenodd" d="M14 13H13V14C13 14.552 12.552 15 12 15H8V14H12V6H4V10H3V6C3 5.448 3.447 5 4 5H5V4C5 3.448 5.447 3 6 3H14C14.552 3 15 3.448 15 4V12C15 12.552 14.552 13 14 13V13ZM14 4H6V5H12C12.552 5 13 5.448 13 6V12H14V4V4ZM8.23263 9H6.5C6.224 9 6 8.776 6 8.5C6 8.224 6.224 8 6.5 8H9.36463C9.43296 7.98787 9.50324 7.98954 9.57104 8.00502C9.81343 8.03954 10 8.24812 10 8.5V11.5C10 11.776 9.776 12 9.5 12C9.224 12 9 11.776 9 11.5V9.70297L4.87997 13.823C4.67697 14.026 4.34797 14.026 4.14397 13.823C3.93997 13.62 3.93997 13.291 4.14397 13.087L8.23263 9Z" fill="#FFAE93"/>
</svg>
