<svg width="18" height="18" viewBox="0 0 18 18" fill="none" xmlns="http://www.w3.org/2000/svg">
<path d="M10.5 9.92563V9.07437C10.5 8.89654 10.5945 8.73209 10.7481 8.64248L14.7481 6.30915C15.0814 6.11471 15.5 6.35514 15.5 6.74104V12.259C15.5 12.6449 15.0814 12.8853 14.7481 12.6909L10.7481 10.3575C10.5945 10.2679 10.5 10.1035 10.5 9.92563Z" stroke="#F7F7F7"/>
<path d="M3.00007 6.5H9.99992C10.2757 6.5 10.5 6.72403 10.5 7.00038V12.0001C10.5 12.2763 10.2764 12.5 9.99992 12.5H3.00007C2.72392 12.5 2.5 12.2762 2.5 12.0001V6.99986C2.5 6.72368 2.72358 6.5 3.00007 6.5Z" stroke="#F7F7F7"/>
<path d="M8.5 6.5V4.5H4" stroke="#F7F7F7" stroke-linecap="round" stroke-linejoin="round"/>
</svg>
