<svg width="18" height="18" viewBox="0 0 18 18" fill="none" xmlns="http://www.w3.org/2000/svg">
<path fill-rule="evenodd" clip-rule="evenodd" d="M5.50002 10C7.9853 10 10 7.98528 10 5.5C10 4.97405 9.90978 4.46917 9.74396 4L10.364 4L17 10.636V17L10.636 17L4 10.364L4 9.74394C4.46917 9.90977 4.97406 10 5.50002 10Z" fill="url(#paint0_linear)"/>
<circle cx="5.5" cy="5.5" r="4" stroke="#545FD9"/>
<path fill-rule="evenodd" clip-rule="evenodd" d="M4 9.74394C3.64397 9.6181 3.30851 9.44873 3 9.24223V16V17H4H16H17V16V4V3H16H9.24223C9.44873 3.30851 9.6181 3.64397 9.74394 4H16V16H4V9.74394Z" fill="#545FD9"/>
<defs>
<linearGradient id="paint0_linear" x1="5.00001" y1="5" x2="19" y2="18" gradientUnits="userSpaceOnUse">
<stop stop-opacity="0.55"/>
<stop offset="0.88223" stop-opacity="0"/>
</linearGradient>
</defs>
</svg>
