<svg width="18" height="18" viewBox="0 0 18 18" fill="none" xmlns="http://www.w3.org/2000/svg">
<path d="M3.5 4.5V13.3985C3.5 15.1114 5.96243 16.5 9 16.5C12.0376 16.5 14.5 15.1114 14.5 13.3985V4.5" stroke="#F7F7F7" stroke-linecap="round" stroke-linejoin="round"/>
<path d="M14.5 4.5C14.5 5.21484 13.9996 5.95444 12.9907 6.54298C11.9941 7.12437 10.5842 7.5 9 7.5C7.41576 7.5 6.00595 7.12437 5.00929 6.54298C4.00037 5.95444 3.5 5.21484 3.5 4.5C3.5 3.78516 4.00037 3.04556 5.00929 2.45702C6.00595 1.87563 7.41576 1.5 9 1.5C10.5842 1.5 11.9941 1.87563 12.9907 2.45702C13.9996 3.04556 14.5 3.78516 14.5 4.5Z" stroke="#F7F7F7"/>
<path d="M11.5 4.5C11.5 4.6228 11.3875 4.86858 10.8977 5.11345C10.4379 5.34336 9.76764 5.5 9 5.5C8.23236 5.5 7.56212 5.34336 7.10229 5.11345C6.61255 4.86858 6.5 4.6228 6.5 4.5C6.5 4.3772 6.61255 4.13142 7.10229 3.88655C7.56212 3.65664 8.23236 3.5 9 3.5C9.76764 3.5 10.4379 3.65664 10.8977 3.88655C11.3875 4.13142 11.5 4.3772 11.5 4.5Z" stroke="#F7F7F7"/>
</svg>
