<svg width="18" height="18" viewBox="0 0 18 18" fill="none" xmlns="http://www.w3.org/2000/svg">
<path d="M14.5 4C14.5 5.38071 12.2614 6.5 9.5 6.5C6.73858 6.5 4.5 5.38071 4.5 4C4.5 2.61929 6.73858 1.5 9.5 1.5C12.2614 1.5 14.5 2.61929 14.5 4Z" stroke="#F7F7F7"/>
<path d="M5 4C5 3.72386 4.77614 3.5 4.5 3.5C4.22386 3.5 4 3.72386 4 4H5ZM15 4C15 3.72386 14.7761 3.5 14.5 3.5C14.2239 3.5 14 3.72386 14 4H15ZM14 14C14 14.3989 13.6636 14.8947 12.8119 15.3206C11.9902 15.7314 10.8199 16 9.5 16V17C10.9415 17 12.2713 16.7089 13.2591 16.215C14.2171 15.736 15 14.9818 15 14H14ZM9.5 16C8.18008 16 7.00984 15.7314 6.18807 15.3206C5.3364 14.8947 5 14.3989 5 14H4C4 14.9818 4.78288 15.736 5.74086 16.215C6.72874 16.7089 8.0585 17 9.5 17V16ZM4 4V14H5V4H4ZM15 14V4H14V14H15Z" fill="#F7F7F7"/>
<path d="M14.5 4C14.5 5.38071 12.2614 6.5 9.5 6.5C6.73858 6.5 4.5 5.38071 4.5 4C4.5 2.61929 6.73858 1.5 9.5 1.5C12.2614 1.5 14.5 2.61929 14.5 4Z" stroke="#F7F7F7"/>
<path d="M14.5 4C14.5 5.38071 12.2614 6.5 9.5 6.5C6.73858 6.5 4.5 5.38071 4.5 4" stroke="#F7F7F7"/>
</svg>
