<svg width="18" height="18" viewBox="0 0 18 18" fill="none" xmlns="http://www.w3.org/2000/svg">
<path d="M2.5 5L9.5 4M2.5 5V12.5M2.5 5L9.5 1M2.5 5L5.5 10.5M9.5 4L16.5 4.5M9.5 4L5.5 10.5M9.5 4L13.5 10.5M9.5 4V1M16.5 4.5V12.5M16.5 4.5L9.5 1M16.5 4.5L13.5 10.5M16.5 12.5L13.5 10.5M16.5 12.5L9.5 16M13.5 10.5H5.5M13.5 10.5L9.5 16M5.5 10.5L2.5 12.5M5.5 10.5L9.5 16M2.5 12.5L9.5 16" stroke="#FFAE93"/>
<path d="M2.5 5L9.5 4M2.5 5V12.5M2.5 5L9.5 1M2.5 5L5.5 10.5M9.5 4L16.5 4.5M9.5 4L5.5 10.5M9.5 4L13.5 10.5M9.5 4V1M16.5 4.5V12.5M16.5 4.5L9.5 1M16.5 4.5L13.5 10.5M16.5 12.5L13.5 10.5M16.5 12.5L9.5 16M13.5 10.5H5.5M13.5 10.5L9.5 16M5.5 10.5L2.5 12.5M5.5 10.5L9.5 16M2.5 12.5L9.5 16" stroke="#FFAE93"/>
</svg>
