<svg width="18" height="18" viewBox="0 0 18 18" fill="none" xmlns="http://www.w3.org/2000/svg">
<path d="M9 14L8.71674 14.412C8.88736 14.5293 9.11264 14.5293 9.28326 14.412L9 14ZM1 8.5L0.716736 8.08798C0.581058 8.18126 0.5 8.33535 0.5 8.5C0.5 8.66465 0.581058 8.81874 0.716736 8.91202L1 8.5ZM9 3L9.28326 2.58798C9.11264 2.47067 8.88736 2.47067 8.71674 2.58798L9 3ZM17 8.5L17.2833 8.91202C17.4189 8.81874 17.5 8.66465 17.5 8.5C17.5 8.33535 17.4189 8.18126 17.2833 8.08798L17 8.5ZM13 5.75L13.2833 5.33798L13.2833 5.33798L13 5.75ZM8.71674 3.41202L12.7167 6.16202L13.2833 5.33798L9.28326 2.58798L8.71674 3.41202ZM12.7167 6.16202L16.7167 8.91202L17.2833 8.08798L13.2833 5.33798L12.7167 6.16202ZM1.28326 8.91202L5.28326 6.16202L4.71674 5.33798L0.716736 8.08798L1.28326 8.91202ZM5.28326 6.16202L9.28326 3.41202L8.71674 2.58798L4.71674 5.33798L5.28326 6.16202ZM16.7167 8.08798L12.7167 10.838L13.2833 11.662L17.2833 8.91202L16.7167 8.08798ZM12.7167 10.838L8.71674 13.588L9.28326 14.412L13.2833 11.662L12.7167 10.838ZM9.28326 13.588L5.28326 10.838L4.71674 11.662L8.71674 14.412L9.28326 13.588ZM5.28326 10.838L1.28326 8.08798L0.716736 8.91202L4.71674 11.662L5.28326 10.838ZM4.71674 6.16202L12.7167 11.662L13.2833 10.838L5.28326 5.33798L4.71674 6.16202ZM12.7167 5.33798L4.71674 10.838L5.28326 11.662L13.2833 6.16202L12.7167 5.33798Z" fill="#F7F7F7"/>
</svg>
