<svg width="18" height="18" viewBox="0 0 18 18" fill="none" xmlns="http://www.w3.org/2000/svg">
<circle cx="5.5" cy="5.5" r="4" stroke="#FFAE93"/>
<path fill-rule="evenodd" clip-rule="evenodd" d="M4 9.74394C3.64397 9.6181 3.30851 9.44873 3 9.24223V17H17V3H9.24223C9.44873 3.30851 9.6181 3.64397 9.74394 4H16V16H4V9.74394Z" fill="#FFAE93"/>
<path fill-rule="evenodd" clip-rule="evenodd" d="M5.50002 9.99997C7.9853 9.99997 10 7.98525 10 5.49997C10 4.97403 9.90979 4.46916 9.74397 4L10.364 4L17 10.636V17L10.636 17L4 10.364L4 9.74391C4.46917 9.90974 4.97406 9.99997 5.50002 9.99997Z" fill="url(#paint0_linear)"/>
<defs>
<linearGradient id="paint0_linear" x1="5.00001" y1="5" x2="19" y2="18" gradientUnits="userSpaceOnUse">
<stop stop-color="white" stop-opacity="0.55"/>
<stop offset="0.88223" stop-color="white" stop-opacity="0"/>
</linearGradient>
</defs>
</svg>
