<svg width="18" height="18" viewBox="0 0 18 18" fill="none" xmlns="http://www.w3.org/2000/svg">
<path d="M16.5 9C16.5 13 12.912 15.5 9 15.5C5.08798 15.5 1.5 13 1.5 9C1.5 5 5.08798 2.5 9 2.5C12.912 2.5 16.5 5 16.5 9Z" stroke="#545FD9"/>
<path d="M11 7.5C11 7.77614 11.2239 8 11.5 8C11.7761 8 12 7.77614 12 7.5H11ZM6 7.5C6 7.77614 6.22386 8 6.5 8C6.77614 8 7 7.77614 7 7.5H6ZM7 7.5C7 7.5696 6.9626 7.56784 7.03625 7.49962C7.10515 7.43579 7.23088 7.3543 7.42367 7.2744C7.80597 7.11596 8.36432 7 9 7V6C8.25497 6 7.56331 6.13404 7.0408 6.3506C6.78117 6.4582 6.54079 6.59546 6.35668 6.76601C6.17731 6.93216 6 7.1804 6 7.5H7ZM9 7C9.63568 7 10.194 7.11596 10.5763 7.2744C10.7691 7.3543 10.8949 7.43579 10.9638 7.49962C11.0374 7.56784 11 7.5696 11 7.5H12C12 7.1804 11.8227 6.93216 11.6433 6.76601C11.4592 6.59546 11.2188 6.4582 10.9592 6.3506C10.4367 6.13404 9.74503 6 9 6V7Z" fill="#545FD9"/>
<path d="M12.5 7C12.5 6.72386 12.2761 6.5 12 6.5C11.7239 6.5 11.5 6.72386 11.5 7H12.5ZM6.5 7C6.5 6.72386 6.27614 6.5 6 6.5C5.72386 6.5 5.5 6.72386 5.5 7H6.5ZM11.5 7C11.5 6.97234 11.5055 7.02323 11.4148 7.14229C11.3321 7.25086 11.1925 7.38384 10.985 7.5135C10.573 7.77103 9.91683 8 9 8V9C10.0832 9 10.927 8.72897 11.515 8.3615C11.8075 8.17866 12.0429 7.96789 12.2102 7.74833C12.3695 7.53927 12.5 7.27766 12.5 7H11.5ZM9 8C8.08317 8 7.42705 7.77103 7.015 7.5135C6.80754 7.38384 6.66794 7.25086 6.58522 7.14229C6.4945 7.02323 6.5 6.97234 6.5 7H5.5C5.5 7.27766 5.6305 7.53927 5.78978 7.74833C5.95706 7.96789 6.19246 8.17866 6.485 8.3615C7.07295 8.72897 7.91683 9 9 9V8Z" fill="#545FD9"/>
<path d="M16.5 8.5C16.5 10.5 13.1728 12.5 9 12.5C4.82718 12.5 1.5 10.5 1.5 8.5" stroke="#545FD9" stroke-linecap="round"/>
</svg>
