<svg width="18" height="18" viewBox="0 0 18 18" fill="none" xmlns="http://www.w3.org/2000/svg">
<path d="M9 1.5C6.51472 1.5 4.5 3.567 4.5 5.5V13C4.5 14.933 6.51472 16.5 9 16.5C11.4853 16.5 13.5 14.933 13.5 13V5.5C13.5 3.567 11.4853 1.5 9 1.5Z" stroke="#FFAE93" stroke-linecap="round"/>
<path d="M9 1.5C8 2 7.5 4 7.5 6C7.5 8.4 7.5 12.3333 7.5 14C7.5 15 8 16.5 9 16.5" stroke="#FFAE93"/>
<path d="M13.5 5C13.5 5.82843 11.4853 6.5 9 6.5C6.51472 6.5 4.5 5.82843 4.5 5" stroke="#FFAE93"/>
<path d="M13.5 12C13.5 12.8284 11.4853 13.5 9 13.5C6.51472 13.5 4.5 12.8284 4.5 12" stroke="#FFAE93"/>
</svg>
