<svg width="18" height="18" viewBox="0 0 18 18" fill="none" xmlns="http://www.w3.org/2000/svg">
<path fill-rule="evenodd" clip-rule="evenodd" d="M4 1V2H14V1H17V4H16V14H17V17H14V16H4V17H1V14H2V4H1V1H4ZM2 2H3V3H2V2ZM4 4V3H14V4H15V6.85873L14.6699 7.14887C14.3015 7.47266 14.0261 7.87977 13.7942 8.26942C13.6848 8.45304 13.5921 8.61923 13.5032 8.77859C13.3853 8.98999 13.2741 9.18936 13.1397 9.40146C12.9212 9.74627 12.7021 10.0177 12.4442 10.2046C12.1973 10.3835 11.8941 10.5 11.4733 10.5C10.9882 10.5 10.6509 10.3195 10.3561 10.0227C10.0412 9.70549 9.79052 9.27318 9.49414 8.76198L9.47216 8.72407C8.91573 7.76414 8.18295 6.5 6.51507 6.5C5.88685 6.5 5.3792 6.68116 4.9613 6.98281C4.5543 7.2766 4.25467 7.66876 4.0087 8.05593C3.86735 8.27843 3.72164 8.53806 3.58505 8.78143C3.49894 8.93485 3.41646 9.08181 3.341 9.20892C3.22786 9.39948 3.11624 9.57238 3 9.7255V4H4ZM3 11.1348V14H4V15H14V14H15V8.25931C14.8817 8.41339 14.7683 8.58801 14.6534 8.78097C14.5768 8.90959 14.4922 9.0603 14.4038 9.21784C14.2679 9.45978 14.123 9.71787 13.9844 9.93668C13.7382 10.3251 13.4385 10.7191 13.0309 11.0144C12.6124 11.3177 12.1036 11.5 11.4733 11.5C10.6789 11.5 10.0965 11.1805 9.64655 10.7273C9.2387 10.3166 8.93072 9.78463 8.65983 9.31675L8.62162 9.25079C8.02028 8.21363 7.55164 7.5 6.51507 7.5C6.09556 7.5 5.79296 7.6158 5.54658 7.79364C5.28932 7.97934 5.07065 8.2492 4.85278 8.59216C4.71779 8.80465 4.6049 9.0069 4.48509 9.22156C4.39777 9.37801 4.30678 9.54104 4.20087 9.71943C3.97025 10.1079 3.69705 10.5142 3.33245 10.8388L3 11.1348ZM16 3H15V2H16V3ZM15 16V15H16V16H15ZM2 15H3V16H2V15Z" fill="#545FD9"/>
</svg>
