<svg width="18" height="18" viewBox="0 0 18 18" fill="none" xmlns="http://www.w3.org/2000/svg">
<path d="M8.89888 4.5C7.86588 4.50143 6.87484 4.91543 6.14392 5.65104C5.41307 6.38736 5.00215 7.38512 5 8.4259C5 9.51535 5.56592 10.5418 6.02092 11.3597C6.26477 11.7995 6.51575 12.2544 6.53422 12.4915H6.53493C6.55413 12.7443 6.77381 12.9341 7.02477 12.9141C7.27645 12.894 7.46414 12.6734 7.44494 12.4198C7.41224 11.9851 7.1371 11.4887 6.82073 10.9142C6.39701 10.1443 5.91072 9.26396 5.91072 8.41883H5.91001C5.91001 7.34299 6.48019 6.34955 7.40441 5.81156C8.32934 5.27364 9.46831 5.27364 10.3932 5.81156C11.3175 6.34948 11.8876 7.34295 11.8876 8.41883C11.8876 9.27118 11.4056 10.1443 10.9776 10.9142C10.6613 11.488 10.3861 11.9851 10.3534 12.4198H10.3527C10.3435 12.5409 10.3826 12.6612 10.4608 12.7536C10.539 12.8467 10.6513 12.904 10.7715 12.9133H10.8063C11.0437 12.9162 11.2442 12.7336 11.2648 12.4951C11.2833 12.2587 11.5343 11.8039 11.7781 11.3633C12.2331 10.5382 12.7991 9.51098 12.7991 8.4295C12.7984 7.38804 12.3874 6.38882 11.6559 5.65188C10.925 4.91484 9.93326 4.50084 8.89891 4.50013L8.89888 4.5Z" fill="#252525"/>
<path d="M10.4058 15.1408C9.96358 15.4444 9.43607 15.5999 8.90073 15.582C8.36539 15.5999 7.83787 15.4444 7.39566 15.1408C7.19446 14.9882 6.90937 15.0297 6.75865 15.2324C6.60793 15.4344 6.64846 15.7217 6.84966 15.8742C7.4497 16.2968 8.16846 16.516 8.90082 16.4988C9.63523 16.516 10.3561 16.2961 10.9576 15.8699C11.1588 15.7181 11.1993 15.4308 11.0486 15.2281C10.8979 15.0261 10.6128 14.9846 10.4116 15.1364L10.4058 15.1408Z" fill="#252525"/>
<path d="M10.4058 13.6926C9.96358 13.9971 9.43607 14.1518 8.90072 14.1346C8.36538 14.1518 7.83787 13.9971 7.39566 13.6926C7.19446 13.5408 6.90937 13.5816 6.75865 13.7843C6.60794 13.987 6.64846 14.2743 6.84965 14.4261C7.4497 14.8487 8.16846 15.0679 8.90082 15.0514C9.63594 15.0679 10.3561 14.8466 10.9576 14.4204C11.1588 14.2685 11.1993 13.9813 11.0486 13.7786C10.8979 13.5766 10.6128 13.5351 10.4116 13.6869L10.4058 13.6926Z" fill="#252525"/>
<path d="M9 3.5V1M5.5 5L4 3.5M4 8.5H2M5 11.5L3.5 12.5M12.5 5L14 3.5M14 8.5H16M13 11.5L14.5 12.5" stroke="#252525"/>
</svg>
