<svg width="18" height="18" viewBox="0 0 18 18" fill="none" xmlns="http://www.w3.org/2000/svg">
<path d="M5.46051 12.0714V11.5714H4.96051H2.80023C2.08453 11.5714 1.5 10.9858 1.5 10.2857V2.7857C1.5 2.08561 2.08453 1.5 2.80023 1.5H5.68061L5.68061 1.50005L5.68783 1.49994C5.69964 1.49977 5.71037 1.50438 5.7177 1.51156L5.71893 1.51275C5.72487 1.51852 5.7284 1.52635 5.7284 1.5357C5.7284 1.54506 5.72487 1.55289 5.71893 1.55866L5.7177 1.55986C5.71037 1.56703 5.69965 1.57164 5.68783 1.57147L5.68783 1.57141H5.68061H2.80023C2.11935 1.57141 1.58014 2.10048 1.58014 2.7857V10.2857C1.58014 10.9709 2.11935 11.5 2.80023 11.5H10.3612C11.0421 11.5 11.5813 10.9709 11.5813 10.2857V2.7857C11.5813 2.10048 11.0421 1.57141 10.3612 1.57141H7.48084V1.57136L7.47362 1.57147C7.46181 1.57164 7.45107 1.56703 7.44374 1.55985L7.44252 1.55866C7.43658 1.55289 7.43304 1.54506 7.43304 1.5357C7.43304 1.52635 7.43658 1.51852 7.44252 1.51275L7.44374 1.51155C7.45107 1.50438 7.4618 1.49977 7.47362 1.49994L7.47362 1.5H7.48084H10.3612C11.0769 1.5 11.6614 2.08561 11.6614 2.7857V4.92855V5.42855H12.1614H14.3217C14.4702 5.42855 14.6131 5.45376 14.7462 5.49998H14.2768H12.9154H12.7095L12.5633 5.64499L11.8094 6.39276L11.6615 6.53945V6.74774V8.09818V9.29841L12.5137 8.45317L14.6289 6.35496L15.2094 5.7792C15.2285 5.79701 15.2471 5.81537 15.2651 5.83426L14.69 6.40358L11.8097 9.25514L11.6614 9.40188V9.61046V10.2857C11.6614 10.5398 11.5844 10.7797 11.4513 10.9816L11.5374 11.052L11.0717 11.3573C10.8646 11.493 10.6223 11.5712 10.3612 11.5712H9.68616H9.48052L9.33439 11.7159L6.44843 14.573L5.86963 15.146C5.85068 15.1283 5.83227 15.11 5.81442 15.0912L6.39239 14.5194L8.50767 12.4267L9.37235 11.5712H8.15602H6.79459H6.58866L6.44246 11.7163L5.68861 12.4641L5.54074 12.6108V12.8191V14.1639V14.6551C5.48887 14.5171 5.46051 14.3684 5.46051 14.2142V12.0714ZM15.5418 6.7589V6.27359C15.5936 6.41158 15.622 6.56015 15.622 6.71426V14.2142C15.622 14.9143 15.0374 15.4999 14.3217 15.4999H6.76075C6.61206 15.4999 6.46903 15.4747 6.33573 15.4283H6.80021H8.16727H8.37319L8.51939 15.2833L11.6979 12.1305L11.8458 11.9838V11.7755V11.7755V11.3045L12.221 11.6116L15.3939 8.46433L15.5418 8.31764V8.10934V6.7589ZM15.5418 9.62157V8.42134L14.6897 9.26659L9.33968 14.5735L8.47775 15.4285H9.6918H11.0532H11.2589L11.4051 15.2837L15.3937 11.3328L15.5418 11.1861V10.9776V9.62157ZM15.5418 12.4842V11.282L14.6893 12.1296L12.2309 14.5738L11.3713 15.4284H12.5834H14.3217C15.0026 15.4284 15.5418 14.8993 15.5418 14.2141V12.4842Z" stroke="#545FD9"/>
</svg>
