<svg width="18" height="18" viewBox="0 0 18 18" fill="none" xmlns="http://www.w3.org/2000/svg">
<path d="M2.80023 0.999996C1.81221 0.999996 1 1.80565 1 2.7857V10.2857C1 11.2657 1.81221 12.0714 2.80023 12.0714H4.96051V14.2142C4.96051 15.1943 5.77272 15.9999 6.76075 15.9999H14.3217C15.3097 15.9999 16.122 15.1943 16.122 14.2142V6.71426C16.122 5.73421 15.3097 4.92855 14.3217 4.92855H12.1614V2.7857C12.1614 1.80565 11.3492 0.999996 10.3612 0.999996H7.48084C7.33598 0.997903 7.19674 1.05371 7.09408 1.15415C6.9907 1.2546 6.93304 1.39201 6.93304 1.5357C6.93304 1.6794 6.9907 1.81681 7.09408 1.91726C7.19675 2.0177 7.33599 2.07351 7.48084 2.07141H10.3612C10.7698 2.07141 11.0813 2.38043 11.0813 2.7857V10.2857C11.0813 10.6909 10.7698 11 10.3612 11H2.80023C2.39167 11 2.08014 10.6909 2.08014 10.2857V2.7857C2.08014 2.38043 2.39167 2.07141 2.80023 2.07141H5.68061C5.82547 2.07351 5.9647 2.0177 6.06737 1.91726C6.17074 1.81681 6.2284 1.6794 6.2284 1.5357C6.2284 1.39201 6.17074 1.2546 6.06737 1.15415C5.9647 1.05371 5.82545 0.997903 5.68061 0.999996H2.80023ZM12.9154 5.99998H14.2768L12.1615 8.09818V6.74774L12.9154 5.99998ZM15.0418 6.7589V8.10934L11.8689 11.2567C12.0531 10.9769 12.1614 10.6421 12.1614 10.2857V9.61046L15.0418 6.7589ZM15.0418 9.62157V10.9776L11.0532 14.9285H9.6918L15.0418 9.62157ZM11.3458 11.7755L8.16727 14.9283H6.80021L9.68616 12.0712H10.3612C10.7248 12.0712 11.0616 11.9617 11.3458 11.7755V11.7755ZM6.79459 12.0712H8.15602L6.04074 14.1639V12.8191L6.79459 12.0712ZM15.0418 12.4842V14.2141C15.0418 14.6194 14.7303 14.9284 14.3217 14.9284H12.5834L15.0418 12.4842Z" fill="#252525"/>
</svg>
