<svg width="18" height="18" viewBox="0 0 18 18" fill="none" xmlns="http://www.w3.org/2000/svg">
<path d="M14.6464 2.64645L2.64645 14.6464L3.35355 15.3536L15.3536 3.35355L14.6464 2.64645ZM2.85355 11.8536L11.8536 2.85355L11.5 2.5H14C14.8284 2.5 15.5 3.17157 15.5 4V6.5L15.1464 6.14645L6.14645 15.1464L6.5 15.5H4C3.17157 15.5 2.5 14.8284 2.5 14V11.5L2.85355 11.8536ZM10.7929 2.5L2.5 10.7929V7.5L2.85355 7.85355L7.85355 2.85355L7.5 2.5H10.7929ZM4 2.5H6.79289L2.5 6.79289V4C2.5 3.17157 3.17157 2.5 4 2.5ZM7.20711 15.5L15.5 7.20711V10.5L15.1464 10.1464L10.1464 15.1464L10.5 15.5H7.20711ZM11.2071 15.5L15.5 11.2071V14C15.5 14.8284 14.8284 15.5 14 15.5H11.2071Z" stroke="#FFAE93"/>
</svg>
