<svg width="18" height="18" viewBox="0 0 18 18" fill="none" xmlns="http://www.w3.org/2000/svg">
<g opacity="0.8">
<rect x="10.9297" y="13.3574" width="1" height="2.47509" transform="rotate(-22 10.9297 13.3574)" fill="#F7F7F7"/>
<rect x="6.23828" y="1.74609" width="1" height="2.44042" transform="rotate(-22 6.23828 1.74609)" fill="#F7F7F7"/>
<rect x="11.8574" y="1.37109" width="1" height="2.83424" transform="rotate(22 11.8574 1.37109)" fill="#F7F7F7"/>
<rect x="7.13281" y="13.0625" width="1" height="2.38939" transform="rotate(22 7.13281 13.0625)" fill="#F7F7F7"/>
<rect x="16.1602" y="5.00391" width="1" height="2.3704" transform="rotate(66 16.1602 5.00391)" fill="#F7F7F7"/>
<rect x="4.56055" y="10.1699" width="1" height="2.3026" transform="rotate(66 4.56055 10.1699)" fill="#F7F7F7"/>
<rect x="16.8594" y="10.0977" width="1" height="2.49579" transform="rotate(106 16.8594 10.0977)" fill="#F7F7F7"/>
<rect x="4.70898" y="6.61523" width="1" height="2.36103" transform="rotate(106 4.70898 6.61523)" fill="#F7F7F7"/>
<circle cx="9.51272" cy="8.51272" r="2" transform="rotate(-30 9.51272 8.51272)" stroke="#F7F7F7"/>
<circle cx="9.51314" cy="8.51314" r="5" transform="rotate(-30 9.51314 8.51314)" stroke="#F7F7F7"/>
</g>
</svg>
