<svg width="18" height="18" viewBox="0 0 18 18" fill="none" xmlns="http://www.w3.org/2000/svg">
<path d="M4.31807 12.2158C4.03682 12.0201 3.75147 11.8373 3.48427 11.6299C2.78875 11.0949 2.211 10.4551 1.85704 9.64177C1.608 9.07058 1.49117 8.50799 1.5 7.95535C1.51156 7.23241 1.73818 6.52651 2.16525 5.8407C2.9469 4.58559 4.10703 3.80036 5.46591 3.30055C6.63811 2.86907 7.81743 2.65103 9 2.64874C10.0898 2.64663 11.1824 2.82775 12.2747 3.19391C13.6071 3.64041 14.7685 4.35701 15.6292 5.5002C16.8632 7.14093 16.7771 9.23857 15.4212 10.7936C14.3225 12.0534 12.9016 12.7378 11.3084 13.1146C10.1951 13.3783 9.06722 13.4217 7.9299 13.3221C7.83322 13.3139 7.70958 13.3742 7.62989 13.4393C6.41699 14.46 5.0254 15.1056 3.47962 15.4314C3.33899 15.4607 3.19485 15.4795 3.05245 15.5C2.87199 15.5264 2.72432 15.4766 2.63174 15.3078C2.53975 15.1391 2.57315 14.9855 2.68799 14.8461C2.82159 14.6844 2.95753 14.5238 3.10342 14.375C3.69289 13.7762 4.11182 13.0304 4.31807 12.2158Z" stroke="#545FD9"/>
</svg>
