<svg width="18" height="18" viewBox="0 0 18 18" fill="none" xmlns="http://www.w3.org/2000/svg">
<g opacity="0.8">
<path fill-rule="evenodd" clip-rule="evenodd" d="M8.85186 4L4.00001 9.54498V10.5285L9.00001 13.4035L9 13H12V16H9L9.00001 14.4715L4.00001 11.5965L4 12H1V9L3.1481 8.99999L8 3.45496V1H11V4H10.1384L10.3809 7H9.37674L9.13431 4H8.85186ZM9.61916 10L9.86159 13H10.8657L10.6233 10H9.61916ZM10 2H9V3H10V2ZM2 10H3V11H2V10ZM11 14H10V15H11V14Z" fill="#FFAE93"/>
<path d="M13 9V12H14V9H17V8H14V5H13V8H10V9H13Z" fill="#FFAE93"/>
</g>
</svg>
