<svg width="18" height="18" viewBox="0 0 18 18" fill="none" xmlns="http://www.w3.org/2000/svg">
<path d="M10.8177 12.9133C11.0501 12.9103 11.2446 12.7297 11.2648 12.4951C11.2833 12.2587 11.5343 11.8039 11.7781 11.3633C12.2332 10.5382 12.7991 9.51098 12.7991 8.4295C12.7984 7.38804 12.3874 6.38882 11.6559 5.65188C10.925 4.91484 9.93326 4.50084 8.89891 4.50013L10.8177 12.9133ZM10.8177 12.9133L10.8516 12.4627L11.2648 12.495L10.8519 12.4593L10.852 12.4573C10.862 12.3244 10.9124 12.1531 11.0153 11.924C11.1169 11.6976 11.2527 11.451 11.4122 11.1616L11.7781 11.3633L11.4126 11.161L10.8177 12.9133Z" fill="#F7F7F7" stroke="#FFAE93"/>
<mask id="path-2-inside-1" fill="white">
<path d="M10.4058 15.1408C9.96358 15.4444 9.43607 15.5999 8.90073 15.582C8.36539 15.5999 7.83787 15.4444 7.39566 15.1408C7.19446 14.9882 6.90937 15.0297 6.75865 15.2324C6.60793 15.4344 6.64846 15.7217 6.84966 15.8742C7.4497 16.2968 8.16846 16.516 8.90082 16.4988C9.63523 16.516 10.3561 16.2961 10.9576 15.8699C11.1588 15.7181 11.1993 15.4308 11.0486 15.2281C10.8979 15.0261 10.6128 14.9846 10.4116 15.1364L10.4058 15.1408Z"/>
</mask>
<path d="M10.4058 15.1408C9.96358 15.4444 9.43607 15.5999 8.90073 15.582C8.36539 15.5999 7.83787 15.4444 7.39566 15.1408C7.19446 14.9882 6.90937 15.0297 6.75865 15.2324C6.60793 15.4344 6.64846 15.7217 6.84966 15.8742C7.4497 16.2968 8.16846 16.516 8.90082 16.4988C9.63523 16.516 10.3561 16.2961 10.9576 15.8699C11.1588 15.7181 11.1993 15.4308 11.0486 15.2281C10.8979 15.0261 10.6128 14.9846 10.4116 15.1364L10.4058 15.1408Z" fill="#F7F7F7"/>
<path d="M10.4058 15.1408L10.9719 15.9651L10.9864 15.9551L11.0006 15.9446L10.4058 15.1408ZM8.90073 15.582L8.93417 14.5825L8.90073 14.5814L8.8673 14.5825L8.90073 15.582ZM7.39566 15.1408L6.79145 15.9376L6.81018 15.9518L6.82955 15.9651L7.39566 15.1408ZM6.75865 15.2324L7.56013 15.8305L7.56114 15.8291L6.75865 15.2324ZM6.84966 15.8742L6.24545 16.671L6.25947 16.6817L6.27384 16.6918L6.84966 15.8742ZM8.90082 16.4988L8.92422 15.4991L8.90078 15.4985L8.87734 15.4991L8.90082 16.4988ZM10.9576 15.8699L11.5357 16.6859L11.548 16.6772L11.56 16.6681L10.9576 15.8699ZM11.0486 15.2281L11.8511 14.6315L11.8501 14.6301L11.0486 15.2281ZM10.4116 15.1364L11.0064 15.9404L11.014 15.9346L10.4116 15.1364ZM9.83968 14.3164C9.57192 14.5003 9.25419 14.5932 8.93417 14.5825L8.86728 16.5814C9.61795 16.6065 10.3552 16.3886 10.9719 15.9651L9.83968 14.3164ZM8.8673 14.5825C8.54726 14.5932 8.22952 14.5003 7.96177 14.3164L6.82955 15.9651C7.44622 16.3886 8.18351 16.6065 8.93416 16.5814L8.8673 14.5825ZM7.99987 14.3439C7.35241 13.853 6.43618 13.9902 5.95617 14.6358L7.56114 15.8291C7.38256 16.0693 7.0365 16.1234 6.79145 15.9376L7.99987 14.3439ZM5.95718 14.6344C5.47782 15.2768 5.60679 16.1868 6.24545 16.671L7.45386 15.0774C7.69012 15.2565 7.73805 15.592 7.56013 15.8305L5.95718 14.6344ZM6.27384 16.6918C7.04827 17.2372 7.97695 17.5208 8.9243 17.4985L8.87734 15.4991C8.35997 15.5112 7.85112 15.3564 7.42547 15.0566L6.27384 16.6918ZM8.87742 17.4985C9.82696 17.5207 10.7588 17.2364 11.5357 16.6859L10.3795 15.054C9.95346 15.3558 9.44351 15.5112 8.92422 15.4991L8.87742 17.4985ZM11.56 16.6681C12.2026 16.1831 12.3276 15.2724 11.8511 14.6315L10.2461 15.8248C10.0711 15.5893 10.1151 15.253 10.3552 15.0717L11.56 16.6681ZM11.8501 14.6301C11.3699 13.9866 10.4557 13.8503 9.80923 14.3382L11.014 15.9346C10.7699 16.1189 10.4259 16.0657 10.2471 15.8262L11.8501 14.6301ZM9.81683 14.3326L9.81101 14.3369L11.0006 15.9446L11.0064 15.9403L9.81683 14.3326Z" fill="#FFAE93" mask="url(#path-2-inside-1)"/>
<mask id="path-4-inside-2" fill="white">
<path d="M10.4058 13.6926C9.96358 13.9971 9.43607 14.1518 8.90072 14.1346C8.36538 14.1518 7.83787 13.9971 7.39566 13.6926C7.19446 13.5408 6.90937 13.5816 6.75865 13.7843C6.60794 13.987 6.64846 14.2743 6.84965 14.4261C7.4497 14.8487 8.16846 15.0679 8.90082 15.0514C9.63594 15.0679 10.3561 14.8466 10.9576 14.4204C11.1588 14.2685 11.1993 13.9813 11.0486 13.7786C10.8979 13.5766 10.6128 13.5351 10.4116 13.6869L10.4058 13.6926Z"/>
</mask>
<path d="M10.4058 13.6926C9.96358 13.9971 9.43607 14.1518 8.90072 14.1346C8.36538 14.1518 7.83787 13.9971 7.39566 13.6926C7.19446 13.5408 6.90937 13.5816 6.75865 13.7843C6.60794 13.987 6.64846 14.2743 6.84965 14.4261C7.4497 14.8487 8.16846 15.0679 8.90082 15.0514C9.63594 15.0679 10.3561 14.8466 10.9576 14.4204C11.1588 14.2685 11.1993 13.9813 11.0486 13.7786C10.8979 13.5766 10.6128 13.5351 10.4116 13.6869L10.4058 13.6926Z" fill="#F7F7F7"/>
<path d="M10.4058 13.6926L10.9728 14.5163L11.0445 14.467L11.1065 14.406L10.4058 13.6926ZM8.90072 14.1346L8.9328 13.1351L8.90072 13.1341L8.86863 13.1351L8.90072 14.1346ZM7.39566 13.6926L6.79326 14.4908L6.81066 14.504L6.82862 14.5163L7.39566 13.6926ZM6.84965 14.4261L6.24725 15.2243L6.26039 15.2342L6.27384 15.2437L6.84965 14.4261ZM8.90082 15.0514L8.92322 14.0517L8.90078 14.0512L8.87834 14.0517L8.90082 15.0514ZM10.9576 14.4204L11.5357 15.2363L11.548 15.2276L11.56 15.2186L10.9576 14.4204ZM11.0486 13.7786L11.8511 13.1819L11.8501 13.1806L11.0486 13.7786ZM10.4116 13.6869L9.80922 12.8887L9.75728 12.9279L9.71086 12.9735L10.4116 13.6869ZM9.83875 12.869C9.57224 13.0524 9.25464 13.1454 8.9328 13.1351L8.86865 15.1341C9.61749 15.1581 10.3549 14.9417 10.9728 14.5163L9.83875 12.869ZM8.86863 13.1351C8.54682 13.1454 8.22922 13.0524 7.9627 12.869L6.82862 14.5163C7.44652 14.9417 8.18395 15.1581 8.93282 15.1341L8.86863 13.1351ZM7.99806 12.8944C7.35341 12.4079 6.4378 12.5399 5.95617 13.1877L7.56114 14.381C7.38094 14.6234 7.0355 14.6737 6.79326 14.4908L7.99806 12.8944ZM5.95617 13.1877C5.47965 13.8285 5.6047 14.7394 6.24725 15.2243L7.45205 13.6279C7.69221 13.8092 7.73623 14.1455 7.56114 14.381L5.95617 13.1877ZM6.27384 15.2437C7.04829 15.7891 7.97664 16.0724 8.92329 16.0512L8.87834 14.0517C8.36027 14.0633 7.85111 13.9083 7.42547 13.6085L6.27384 15.2437ZM8.87841 16.0512C9.82938 16.0725 10.7599 15.786 11.5357 15.2363L10.3795 13.6044C9.95233 13.9071 9.4425 14.0633 8.92322 14.0517L8.87841 16.0512ZM11.56 15.2186C12.2026 14.7336 12.3276 13.8228 11.8511 13.1819L10.2461 14.3753C10.0711 14.1398 10.1151 13.8034 10.3552 13.6222L11.56 15.2186ZM11.8501 13.1806C11.3699 12.537 10.4557 12.4008 9.80922 12.8887L11.014 14.4851C10.7699 14.6694 10.4259 14.6162 10.2471 14.3766L11.8501 13.1806ZM9.71086 12.9735L9.70504 12.9792L11.1065 14.406L11.1124 14.4003L9.71086 12.9735Z" fill="#FFAE93" mask="url(#path-4-inside-2)"/>
<path d="M9 3.5V1M5.5 5L4 3.5M4 8.5H2M5 11.5L3.5 12.5M12.5 5L14 3.5M14 8.5H16M13 11.5L14.5 12.5" stroke="#FFAE93"/>
</svg>
