<svg width="18" height="18" viewBox="0 0 18 18" fill="none" xmlns="http://www.w3.org/2000/svg">
<path d="M2.80023 1.00006C1.81221 1.00006 1 1.80571 1 2.78576V10.2857C1 11.2658 1.81221 12.0714 2.80023 12.0714H4.96051V14.2143C4.96051 15.1943 5.77272 16 6.76075 16H14.3217C15.3097 16 16.122 15.1943 16.122 14.2143V6.71432C16.122 5.73427 15.3097 4.92861 14.3217 4.92861H12.1614V2.78576C12.1614 1.80571 11.3492 1.00006 10.3612 1.00006H7.48084C7.33598 0.997964 7.19674 1.05377 7.09408 1.15421C6.9907 1.25466 6.93304 1.39207 6.93304 1.53577C6.93304 1.67946 6.9907 1.81687 7.09408 1.91732C7.19675 2.01776 7.33599 2.07357 7.48084 2.07147H10.3612C10.7698 2.07147 11.0813 2.38049 11.0813 2.78576V10.2857C11.0813 10.691 10.7698 11 10.3612 11H2.80023C2.39167 11 2.08014 10.691 2.08014 10.2857V2.78576C2.08014 2.38049 2.39167 2.07147 2.80023 2.07147H5.68061C5.82547 2.07357 5.9647 2.01776 6.06737 1.91732C6.17074 1.81687 6.2284 1.67946 6.2284 1.53577C6.2284 1.39207 6.17074 1.25466 6.06737 1.15421C5.9647 1.05377 5.82545 0.997964 5.68061 1.00006H2.80023ZM12.9154 6.00004H14.2768L12.1615 8.09824V6.7478L12.9154 6.00004ZM15.0418 6.75896V8.1094L11.8689 11.2567C12.0531 10.977 12.1614 10.6422 12.1614 10.2857V9.61052L15.0418 6.75896ZM15.0418 9.62163V10.9777L11.0532 14.9285H9.6918L15.0418 9.62163ZM11.3458 11.7756L8.16727 14.9284H6.80021L9.68616 12.0713H10.3612C10.7248 12.0713 11.0616 11.9617 11.3458 11.7755V11.7756ZM6.79459 12.0713H8.15602L6.04074 14.164V12.8191L6.79459 12.0713ZM15.0418 12.4842V14.2141C15.0418 14.6194 14.7303 14.9284 14.3217 14.9284H12.5834L15.0418 12.4842Z" fill="#F7F7F7"/>
</svg>
