<svg width="18" height="18" viewBox="0 0 18 18" fill="none" xmlns="http://www.w3.org/2000/svg">
<rect x="11.2551" y="13.4956" width="0.5" height="1.97509" transform="rotate(-22 11.2551 13.4956)" stroke="#545FD9" stroke-width="0.5"/>
<rect x="6.56373" y="1.88424" width="0.5" height="1.94042" transform="rotate(-22 6.56373 1.88424)" stroke="#545FD9" stroke-width="0.5"/>
<rect x="11.9956" y="1.69654" width="0.5" height="2.33424" transform="rotate(22 11.9956 1.69654)" stroke="#545FD9" stroke-width="0.5"/>
<rect x="7.27096" y="13.3879" width="0.5" height="1.88939" transform="rotate(22 7.27096 13.3879)" stroke="#545FD9" stroke-width="0.5"/>
<rect x="16.0335" y="5.33398" width="0.5" height="1.8704" transform="rotate(66 16.0335 5.33398)" stroke="#545FD9" stroke-width="0.5"/>
<rect x="4.43384" y="10.5" width="0.5" height="1.8026" transform="rotate(66 4.43384 10.5)" stroke="#545FD9" stroke-width="0.5"/>
<rect x="16.5502" y="10.2691" width="0.5" height="1.99579" transform="rotate(106 16.5502 10.2691)" stroke="#545FD9" stroke-width="0.5"/>
<rect x="4.39976" y="6.78664" width="0.5" height="1.86103" transform="rotate(106 4.39976 6.78664)" stroke="#545FD9" stroke-width="0.5"/>
<circle cx="9.51272" cy="8.51272" r="2" transform="rotate(-30 9.51272 8.51272)" stroke="#545FD9"/>
<circle cx="9.51314" cy="8.51314" r="5" transform="rotate(-30 9.51314 8.51314)" stroke="#545FD9"/>
</svg>
