<svg width="18" height="18" viewBox="0 0 18 18" fill="none" xmlns="http://www.w3.org/2000/svg">
<path d="M4.31807 12.5671C4.03682 12.3714 3.75147 12.1886 3.48427 11.9812C2.78875 11.4462 2.211 10.8063 1.85704 9.99303C1.608 9.42184 1.49117 8.85925 1.5 8.30661C1.51156 7.58367 1.73818 6.87777 2.16525 6.19196C2.9469 4.93685 4.10703 4.15162 5.46591 3.65181C6.63811 3.22033 7.81743 3.00228 9 2.99999C10.0898 2.99788 11.1824 3.179 12.2747 3.54516C13.6071 3.99166 14.7685 4.70827 15.6292 5.85146C16.8632 7.49219 16.7771 9.58983 15.4212 11.1449C14.3225 12.4047 12.9016 13.0891 11.3084 13.4659C10.1951 13.7296 9.06722 13.7729 7.9299 13.6733C7.83322 13.6651 7.70958 13.7255 7.62989 13.7905C6.41699 14.8112 5.0254 15.4569 3.47962 15.7827C3.33899 15.812 3.19485 15.8307 3.05245 15.8513C2.87199 15.8776 2.72432 15.8278 2.63174 15.6591C2.53975 15.4903 2.57315 15.3368 2.68799 15.1973C2.82159 15.0356 2.95753 14.8751 3.10342 14.7263C3.69289 14.1274 4.11182 13.3816 4.31807 12.5671Z" stroke="#FFAE93"/>
</svg>
