<svg width="18" height="18" viewBox="0 0 18 18" fill="none" xmlns="http://www.w3.org/2000/svg">
<path d="M7.10005 16.9161V16.2161C6.90031 16.2306 6.69978 16.2306 6.50005 16.2161C6.29795 16.1969 6.09745 16.1634 5.90005 16.1161L5.80005 16.8161C6.03153 16.8613 6.26517 16.8947 6.50005 16.9161C6.69977 16.931 6.90033 16.931 7.10005 16.9161V16.9161Z" fill="#F7F7F7"/>
<path d="M9.5001 16.616L9.3001 15.916L8.1001 16.116L8.2001 16.816C8.63957 16.7984 9.07566 16.7313 9.5001 16.616V16.616Z" fill="#F7F7F7"/>
<path d="M11.3001 15.0161L10.6001 14.8161C10.5509 14.9574 10.4837 15.0919 10.4001 15.2161C10.3152 15.3301 10.2141 15.4311 10.1001 15.5161L10.5001 16.1161C10.6707 15.9807 10.823 15.8237 10.9531 15.6491C11.0901 15.4505 11.2063 15.2384 11.3001 15.0161V15.0161Z" fill="#F7F7F7"/>
<path d="M1.49995 13.316L2.19995 13.116L1.99995 12.516C1.93825 12.3218 1.90457 12.1198 1.89995 11.916L1.19995 12.016C1.20732 12.2524 1.24086 12.4871 1.29995 12.716L1.49995 13.316Z" fill="#F7F7F7"/>
<path d="M2.60005 15.5161L3.10005 15.0161C2.97172 14.8738 2.85658 14.7202 2.75605 14.5571C2.65593 14.3841 2.57031 14.2031 2.50005 14.0161L1.80005 14.3161C1.91085 14.5578 2.03815 14.7917 2.18105 15.0161C2.30207 15.1975 2.44258 15.3652 2.60005 15.5161V15.5161Z" fill="#F7F7F7"/>
<path d="M4.8 16.616L5 15.916C4.79582 15.8626 4.59539 15.7958 4.4 15.716C4.19441 15.6276 3.99408 15.5275 3.8 15.416L3.5 16.116C3.69079 16.2335 3.89157 16.3339 4.1 16.416C4.32816 16.4997 4.56211 16.5665 4.8 16.616V16.616Z" fill="#F7F7F7"/>
<path d="M1.80005 6.31605L2.40005 6.71605C2.45687 6.56672 2.54365 6.43059 2.65505 6.31605C2.75329 6.24034 2.87655 6.20461 3.00005 6.21605V5.51605C2.76212 5.5177 2.52913 5.58408 2.32605 5.70805C2.11197 5.87367 1.93314 6.08038 1.80005 6.31605Z" fill="#F7F7F7"/>
<path d="M1 8.61607L1.7 8.71607C1.7 8.71607 1.721 8.39807 1.771 8.09807C1.821 7.79807 1.9 7.51607 1.9 7.51607L1.3 7.31607C1.22596 7.51399 1.1645 7.71639 1.116 7.92207C1.041 8.24707 1 8.61607 1 8.61607Z" fill="#F7F7F7"/>
<path d="M1 11.0161L1.7 10.9161V9.71606H1V10.4161C1 10.7161 1 11.0161 1 11.0161Z" fill="#F7F7F7"/>
<path d="M5.00005 10.5161L4.30005 10.7161C4.31854 10.9527 4.35939 11.1871 4.42205 11.4161C4.49443 11.6569 4.58744 11.8911 4.70005 12.1161L5.40005 11.7161C5.286 11.5372 5.19273 11.346 5.12205 11.1461C5.0582 10.9412 5.01728 10.7299 5.00005 10.5161Z" fill="#F7F7F7"/>
<path d="M4.99995 8.31607H4.19995V9.61607H4.89995L4.99995 8.31607Z" fill="#F7F7F7"/>
<path d="M4.1001 6.01605L3.6001 6.51605C3.71611 6.63659 3.81687 6.77093 3.9001 6.91605C3.98385 7.07537 4.05088 7.24293 4.1001 7.41605L4.8001 7.21605C4.74664 6.97198 4.65983 6.73643 4.5421 6.51605C4.42555 6.32451 4.27589 6.15521 4.1001 6.01605V6.01605Z" fill="#F7F7F7"/>
<path d="M5.80005 12.6161L5.30005 13.2161C5.44456 13.4035 5.61261 13.5716 5.80005 13.7161C5.98446 13.8446 6.18657 13.9457 6.40005 14.0161L6.80005 13.3161C6.62705 13.227 6.46003 13.1268 6.30005 13.0161C6.05005 12.8411 5.80005 12.5161 5.80005 12.6161Z" fill="#F7F7F7"/>
<path fill-rule="evenodd" clip-rule="evenodd" d="M10.7849 9.76006C11.201 9.81946 11.5868 10.0117 11.8849 10.3081L11.8889 10.3091C12.2184 10.5734 12.4812 10.9115 12.6559 11.2961L17.2559 5.37606C17.4759 5.04706 17.6949 4.49906 17.3659 4.17006L17.2559 4.06006C16.9229 3.73106 16.4849 3.95006 16.1559 4.27906L10.7849 9.76006ZM6.3999 14.9121C7.89964 14.9735 9.39508 14.712 10.7849 14.1451C11.4116 13.7782 11.8801 13.1921 12.0999 12.5001C12.192 11.5038 11.46 10.621 10.4639 10.5271C10.0828 10.4371 9.68146 10.517 9.3639 10.7461C8.56543 11.3035 8.46195 12.0338 8.38145 12.6019C8.35105 12.8164 8.32393 13.0078 8.2639 13.1581C7.98026 14.021 7.2785 14.6814 6.3999 14.9121Z" fill="#F7F7F7"/>
<path fill-rule="evenodd" clip-rule="evenodd" d="M8.50806 1.5C8.50806 1.225 8.73206 1 9.00806 1C9.28406 1 9.50806 1.225 9.50806 1.5L9.50806 7.5C9.50806 7.775 9.28406 8 9.00806 8C8.73206 8 8.50806 7.775 8.50806 7.5L8.50806 1.5Z" fill="#F7F7F7"/>
<path fill-rule="evenodd" clip-rule="evenodd" d="M6.00806 5C5.73306 5 5.50806 4.776 5.50806 4.5C5.50806 4.224 5.73306 4 6.00806 4H12.0081C12.2831 4 12.5081 4.224 12.5081 4.5C12.5081 4.776 12.2831 5 12.0081 5H6.00806Z" fill="#F7F7F7"/>
</svg>
