<svg width="18" height="18" viewBox="0 0 18 18" fill="none" xmlns="http://www.w3.org/2000/svg">
<path fill-rule="evenodd" clip-rule="evenodd" d="M1.48233 15.8389C1.54233 15.8409 1.60233 15.8419 1.66233 15.8419C3.64133 15.8419 5.86333 14.7219 6.96633 13.2569C7.16433 13.2489 7.37533 13.2339 7.59733 13.2129C8.65033 13.1079 9.34533 12.9439 10.1233 12.7139C14.2653 11.5009 16.5813 7.65987 15.8843 5.03587C15.5743 3.87387 14.6813 2.81587 13.3693 2.05787C11.5453 1.00387 9.19433 0.716868 7.07333 1.28987C2.97033 2.39887 0.601334 6.33087 1.30433 8.97187C1.39833 9.32887 1.55233 9.68187 1.75833 10.0209C1.90033 10.2559 2.20833 10.3299 2.44533 10.1859C2.68133 10.0429 2.75533 9.73487 2.61133 9.49887C2.45533 9.24287 2.34133 8.97887 2.27033 8.71487C1.69833 6.56387 3.83033 3.20287 7.33533 2.25487C9.20033 1.74887 11.2693 2.00087 12.8693 2.92387C13.9343 3.53887 14.6813 4.40187 14.9173 5.29287C15.4843 7.42687 13.3913 10.7149 9.84133 11.7549C9.10533 11.9729 8.48933 12.1179 7.52733 12.2149C7.81033 11.3559 7.62333 10.5569 6.99033 9.93987C6.33533 9.30087 5.43933 9.21187 4.65833 9.70787C3.85733 10.2159 3.46933 11.1429 3.73433 11.9109C3.88733 12.3529 4.34033 12.9899 5.67933 13.1959C4.68233 14.1379 3.05633 14.8949 1.51833 14.8389C1.23933 14.8449 1.01033 15.0459 1.00033 15.3209C0.990334 15.5979 1.20633 15.8289 1.48233 15.8389ZM5.19333 10.5529C5.31233 10.4779 5.49333 10.3919 5.70133 10.3919C5.88533 10.3919 6.09033 10.4579 6.29333 10.6559C6.68533 11.0379 6.75833 11.4989 6.51633 12.0649C6.48733 12.1309 6.45633 12.1949 6.42133 12.2609C5.31633 12.2279 4.79433 11.9179 4.68033 11.5849C4.56933 11.2659 4.80033 10.8029 5.19333 10.5529ZM6.78733 6.91687C6.78733 7.19287 7.01133 7.41687 7.28733 7.41687H11.2873C11.5633 7.41687 11.7873 7.19287 11.7873 6.91687C11.7873 6.64187 11.5633 6.41687 11.2873 6.41687H7.28733C7.01133 6.41687 6.78733 6.64187 6.78733 6.91687Z" fill="#F7F7F7"/>
</svg>
