<svg width="18" height="18" viewBox="0 0 18 18" fill="none" xmlns="http://www.w3.org/2000/svg">
<path fill-rule="evenodd" clip-rule="evenodd" d="M16.008 16H13.008V15H16.008V12H17.008V16H16.008V16ZM16.008 7H17.008V10H16.008V7ZM16.016 2H13.008V1H17.008V5H16.008L16.016 2V2ZM12.508 9H10.008V11.5C10.008 11.776 9.784 12 9.508 12C9.233 12 9.008 11.776 9.008 11.5V9H6.508C6.233 9 6.008 8.776 6.008 8.5C6.008 8.224 6.233 8 6.508 8H9.008V5.5C9.008 5.224 9.233 5 9.508 5C9.784 5 10.008 5.224 10.008 5.5V8H12.508C12.783 8 13.008 8.224 13.008 8.5C13.008 8.776 12.783 9 12.508 9V9ZM8.008 1H11.008V2H8.008V1ZM3.008 5H2.008V1H6.008V2H3.008V5V5ZM2.008 7H3.008V10H2.008V7ZM3.008 12L3 15H6.008V16H2V15H2.002L2.008 12H3.008V12ZM8.008 15H11.008V16H8.008V15Z" fill="#FFAE93"/>
</svg>
