<svg width="18" height="18" viewBox="0 0 18 18" fill="none" xmlns="http://www.w3.org/2000/svg">
<path fill-rule="evenodd" clip-rule="evenodd" d="M14.0065 7.26812C14.0065 7.26812 2.17554 4.29812 2.00554 4.00512C1.83554 3.71312 5.63154 16.0021 5.63154 16.0021L7.62554 9.34812L14.0065 7.26812ZM14.0033 17.5011V16.0011H15.5033C15.7783 16.0011 16.0033 15.7771 16.0033 15.5011C16.0033 15.2251 15.7783 15.0011 15.5033 15.0011H14.0033V13.5011C14.0033 13.2251 13.7793 13.0011 13.5033 13.0011C13.2283 13.0011 13.0033 13.2251 13.0033 13.5011V15.0011H11.5033C11.2283 15.0011 11.0033 15.2251 11.0033 15.5011C11.0033 15.7771 11.2283 16.0011 11.5033 16.0011H13.0033V17.5011C13.0033 17.7771 13.2283 18.0011 13.5033 18.0011C13.7793 18.0011 14.0033 17.7771 14.0033 17.5011Z" fill="#545FD9"/>
</svg>
