<svg width="18" height="18" viewBox="0 0 18 18" fill="none" xmlns="http://www.w3.org/2000/svg">
<path d="M7.10005 17.0188V16.3188C6.90031 16.3334 6.69978 16.3334 6.50005 16.3188C6.29795 16.2996 6.09745 16.2662 5.90005 16.2188L5.80005 16.9188C6.03153 16.9641 6.26517 16.9974 6.50005 17.0188C6.69977 17.0338 6.90033 17.0338 7.10005 17.0188V17.0188Z" fill="#252525"/>
<path d="M9.5001 16.7188L9.3001 16.0188L8.1001 16.2188L8.2001 16.9188C8.63957 16.9012 9.07566 16.8341 9.5001 16.7188V16.7188Z" fill="#252525"/>
<path d="M11.3001 15.1189L10.6001 14.9189C10.5509 15.0602 10.4837 15.1947 10.4001 15.3189C10.3152 15.4329 10.2141 15.5339 10.1001 15.6189L10.5001 16.2189C10.6707 16.0835 10.823 15.9265 10.9531 15.7519C11.0901 15.5533 11.2063 15.3411 11.3001 15.1189V15.1189Z" fill="#252525"/>
<path d="M1.49995 13.4188L2.19995 13.2188L1.99995 12.6188C1.93825 12.4246 1.90457 12.2226 1.89995 12.0188L1.19995 12.1188C1.20732 12.3551 1.24086 12.5899 1.29995 12.8188L1.49995 13.4188Z" fill="#252525"/>
<path d="M2.60005 15.6188L3.10005 15.1188C2.97172 14.9766 2.85658 14.8229 2.75605 14.6598C2.65593 14.4869 2.57031 14.3059 2.50005 14.1188L1.80005 14.4188C1.91085 14.6606 2.03815 14.8945 2.18105 15.1188C2.30207 15.3003 2.44258 15.4679 2.60005 15.6188V15.6188Z" fill="#252525"/>
<path d="M4.8 16.7188L5 16.0188C4.79582 15.9654 4.59539 15.8986 4.4 15.8188C4.19441 15.7304 3.99408 15.6303 3.8 15.5188L3.5 16.2188C3.69079 16.3363 3.89157 16.4367 4.1 16.5188C4.32816 16.6024 4.56211 16.6693 4.8 16.7188V16.7188Z" fill="#252525"/>
<path d="M1.80005 6.41884L2.40005 6.81884C2.45687 6.6695 2.54365 6.53338 2.65505 6.41884C2.75329 6.34312 2.87655 6.3074 3.00005 6.31884V5.61884C2.76212 5.62049 2.52913 5.68686 2.32605 5.81084C2.11197 5.97645 1.93314 6.18316 1.80005 6.41884Z" fill="#252525"/>
<path d="M1 8.71885L1.7 8.81885C1.7 8.81885 1.721 8.50085 1.771 8.20085C1.821 7.90085 1.9 7.61885 1.9 7.61885L1.3 7.41885C1.22596 7.61677 1.1645 7.81918 1.116 8.02485C1.041 8.34985 1 8.71885 1 8.71885Z" fill="#252525"/>
<path d="M1 11.1188L1.7 11.0188V9.81885H1V10.5188C1 10.8188 1 11.1188 1 11.1188Z" fill="#252525"/>
<path d="M5.00005 10.6188L4.30005 10.8188C4.31854 11.0555 4.35939 11.2899 4.42205 11.5188C4.49443 11.7597 4.58744 11.9939 4.70005 12.2188L5.40005 11.8188C5.286 11.64 5.19273 11.4488 5.12205 11.2488C5.0582 11.044 5.01728 10.8327 5.00005 10.6188Z" fill="#252525"/>
<path d="M4.99995 8.41885H4.19995V9.71885H4.89995L4.99995 8.41885Z" fill="#252525"/>
<path d="M4.1001 6.11884L3.6001 6.61884C3.71611 6.73937 3.81687 6.87371 3.9001 7.01884C3.98385 7.17815 4.05088 7.34571 4.1001 7.51884L4.8001 7.31884C4.74664 7.07476 4.65983 6.83922 4.5421 6.61884C4.42555 6.4273 4.27589 6.258 4.1001 6.11884V6.11884Z" fill="#252525"/>
<path d="M5.80005 12.7189L5.30005 13.3189C5.44456 13.5063 5.61261 13.6743 5.80005 13.8189C5.98446 13.9474 6.18657 14.0484 6.40005 14.1189L6.80005 13.4189C6.62705 13.3298 6.46003 13.2296 6.30005 13.1189C6.05005 12.9439 5.80005 12.6189 5.80005 12.7189Z" fill="#252525"/>
<path fill-rule="evenodd" clip-rule="evenodd" d="M10.7849 9.86284C11.201 9.92224 11.5868 10.1144 11.8849 10.4108L11.8889 10.4118C12.2184 10.6762 12.4812 11.0143 12.6559 11.3988L17.2559 5.47884C17.4759 5.14984 17.6949 4.60184 17.3659 4.27284L17.2559 4.16284C16.9229 3.83384 16.4849 4.05284 16.1559 4.38184L10.7849 9.86284ZM6.3999 15.0148C7.89964 15.0763 9.39508 14.8148 10.7849 14.2478C11.4116 13.881 11.8801 13.2949 12.0999 12.6028C12.192 11.6065 11.46 10.7238 10.4639 10.6298C10.0828 10.5399 9.68146 10.6198 9.3639 10.8488C8.56543 11.4063 8.46195 12.1366 8.38145 12.7047C8.35105 12.9192 8.32393 13.1106 8.2639 13.2608C7.98026 14.1238 7.2785 14.7841 6.3999 15.0148Z" fill="#252525"/>
</svg>
