<svg width="18" height="18" viewBox="0 0 18 18" fill="none" xmlns="http://www.w3.org/2000/svg">
<path fill-rule="evenodd" clip-rule="evenodd" d="M14.022 16.011V15.011H15.022V14.011H16.022V16.011H15.022H14.022ZM15.022 11.011H16.022V13.011H15.022V11.011ZM15.022 8.011H16.022V10.011H15.022V8.011ZM15.022 5.011H16.022V7.011H15.022V5.011ZM14.022 3.011V2.011H16.022V4.011H15.022V3.011H14.022ZM12.01 6V11H14.01V12H11.01V6H12.01ZM11.022 2.011H13.022V3.011H11.022V2.011ZM8.022 15.011H10.022V16.011H8.022V15.011ZM8.022 2.011H10.022V3.011H8.022V2.011ZM7.01 12V6H8.01V11H10.01V12H7.01ZM5.022 2.011H7.022V3.011H5.022V2.011ZM2.01 4V2H3.01V2.011H4.022V3.011H3.01V4H2.01ZM6.01 12H5.01L4.323 10H2.729L2.01 12L1 12.005L2.948 6H4.01L6.01 12ZM3.51 6.969L3.01 9H4.01L3.51 6.969ZM4.022 15.011V16.011H2.022V14.011H3.022V15.011H4.022ZM5.022 15.011H7.022V16.011H5.022V15.011ZM11.022 15.011H13.022V16.011H11.022V15.011Z" fill="#FFAE93"/>
</svg>
