<svg width="20" height="20" viewBox="0 0 20 20" fill="none" xmlns="http://www.w3.org/2000/svg">
<path fill-rule="evenodd" clip-rule="evenodd" d="M1 0.5C1 0.776142 0.776142 1 0.5 1C0.223858 1 0 0.776142 0 0.5C0 0.223858 0.223858 0 0.5 0C0.776142 0 1 0.223858 1 0.5ZM5.01744 2.94195C4.83838 2.89714 4.69857 2.75733 4.65376 2.57827L4.24374 0.939609C4.1174 0.434693 3.39981 0.434793 3.27361 0.939744L2.86413 2.57816C2.81936 2.75728 2.67953 2.89716 2.50042 2.94197L0.861849 3.35197C0.356933 3.47831 0.357033 4.1959 0.861984 4.3221L2.50031 4.73155C2.67948 4.77633 2.81938 4.91623 2.86415 5.0954L3.27361 6.73373C3.39981 7.23868 4.1174 7.23877 4.24374 6.73386L4.54181 5.54262L11.5045 12.509L12.4222 11.5917L5.45613 4.62196L6.65597 4.3221C7.16092 4.1959 7.16101 3.47831 6.6561 3.35197L5.01744 2.94195ZM10 1.5C10 1.77614 9.77614 2 9.5 2C9.22386 2 9 1.77614 9 1.5C9 1.22386 9.22386 1 9.5 1C9.77614 1 10 1.22386 10 1.5ZM2.5 12C2.77614 12 3 11.7761 3 11.5C3 11.2239 2.77614 11 2.5 11C2.22386 11 2 11.2239 2 11.5C2 11.7761 2.22386 12 2.5 12ZM5 8.5C5 8.77614 4.77614 9 4.5 9C4.22386 9 4 8.77614 4 8.5C4 8.22386 4.22386 8 4.5 8C4.77614 8 5 8.22386 5 8.5ZM9.5 5C9.77614 5 10 4.77614 10 4.5C10 4.22386 9.77614 4 9.5 4C9.22386 4 9 4.22386 9 4.5C9 4.77614 9.22386 5 9.5 5ZM7 2C7.55228 2 8 1.55228 8 1C8 0.447715 7.55228 0 7 0C6.44772 0 6 0.447715 6 1C6 1.55228 6.44772 2 7 2ZM2 8C2 8.55229 1.55228 9 1 9C0.447715 9 0 8.55229 0 8C0 7.44772 0.447715 7 1 7C1.55228 7 2 7.44772 2 8Z" fill="#252525"/>
<g opacity="0.4" filter="url(#filter0_d)">
<path fill-rule="evenodd" clip-rule="evenodd" d="M8 11.9C8.39768 9.94085 9.94085 8.39768 11.9 8V10.0707C11.0476 10.372 10.372 11.0476 10.0707 11.9H8ZM8 13.9C8.39768 15.8591 9.94085 17.4023 11.9 17.8V15.7293C11.0476 15.428 10.372 14.7524 10.0707 13.9H8ZM15.7293 13.9C15.428 14.7524 14.7524 15.428 13.9 15.7293V17.8C15.8591 17.4023 17.4023 15.8591 17.8 13.9H15.7293ZM17.8 11.9C17.4023 9.94085 15.8591 8.39768 13.9 8V10.0707C14.7524 10.372 15.428 11.0476 15.7293 11.9H17.8Z" fill="#FFAE93"/>
<path d="M11.9 8H12.4V7.38831L11.8005 7.50999L11.9 8ZM8 11.9L7.50999 11.8005L7.38831 12.4H8V11.9ZM11.9 10.0707L12.0666 10.5421L12.4 10.4243V10.0707H11.9ZM10.0707 11.9V12.4H10.4243L10.5421 12.0666L10.0707 11.9ZM8 13.9V13.4H7.38831L7.50999 13.9994L8 13.9ZM11.9 17.8L11.8005 18.29L12.4 18.4117V17.8H11.9ZM11.9 15.7293H12.4V15.3757L12.0666 15.2579L11.9 15.7293ZM10.0707 13.9L10.5421 13.7334L10.4243 13.4H10.0707V13.9ZM13.9 15.7293L13.7334 15.2579L13.4 15.3757V15.7293H13.9ZM15.7293 13.9V13.4H15.3757L15.2579 13.7334L15.7293 13.9ZM13.9 17.8H13.4V18.4117L13.9994 18.29L13.9 17.8ZM17.8 13.9L18.29 13.9994L18.4117 13.4H17.8V13.9ZM13.9 8L13.9994 7.50999L13.4 7.38831V8H13.9ZM17.8 11.9V12.4H18.4117L18.29 11.8005L17.8 11.9ZM13.9 10.0707H13.4V10.4243L13.7334 10.5421L13.9 10.0707ZM15.7293 11.9L15.2579 12.0666L15.3757 12.4H15.7293V11.9ZM11.8005 7.50999C9.64459 7.94762 7.94762 9.64459 7.50999 11.8005L8.49001 11.9994C8.84774 10.2371 10.2371 8.84774 11.9994 8.49001L11.8005 7.50999ZM12.4 10.0707V8H11.4V10.0707H12.4ZM10.5421 12.0666C10.7931 11.3566 11.3566 10.7931 12.0666 10.5421L11.7334 9.59927C10.7385 9.95089 9.95089 10.7385 9.59927 11.7334L10.5421 12.0666ZM10.0707 11.4H8V12.4H10.0707V11.4ZM7.50999 13.9994C7.94762 16.1554 9.64459 17.8523 11.8005 18.29L11.9994 17.31C10.2371 16.9522 8.84774 15.5629 8.49001 13.8005L7.50999 13.9994ZM12.4 17.8V15.7293H11.4V17.8H12.4ZM12.0666 15.2579C11.3566 15.0069 10.7931 14.4433 10.5421 13.7334L9.59927 14.0666C9.95089 15.0614 10.7385 15.8491 11.7334 16.2007L12.0666 15.2579ZM8 14.4H10.0707V13.4H8V14.4ZM14.0666 16.2007C15.0614 15.8491 15.8491 15.0614 16.2007 14.0666L15.2579 13.7334C15.0069 14.4433 14.4433 15.0069 13.7334 15.2579L14.0666 16.2007ZM14.4 17.8V15.7293H13.4V17.8H14.4ZM17.31 13.8005C16.9522 15.5629 15.5629 16.9522 13.8005 17.31L13.9994 18.29C16.1554 17.8523 17.8523 16.1554 18.29 13.9994L17.31 13.8005ZM15.7293 14.4H17.8V13.4H15.7293V14.4ZM13.8005 8.49001C15.5629 8.84774 16.9522 10.2371 17.31 11.9994L18.29 11.8005C17.8523 9.64459 16.1554 7.94762 13.9994 7.50999L13.8005 8.49001ZM14.4 10.0707V8H13.4V10.0707H14.4ZM16.2007 11.7334C15.8491 10.7385 15.0614 9.95089 14.0666 9.59927L13.7334 10.5421C14.4433 10.7931 15.0069 11.3566 15.2579 12.0666L16.2007 11.7334ZM17.8 11.4H15.7293V12.4H17.8V11.4Z" fill="#CC8B76"/>
</g>
<defs>
<filter id="filter0_d" x="6.38843" y="6.38831" width="13.0233" height="13.0233" filterUnits="userSpaceOnUse" color-interpolation-filters="sRGB">
<feFlood flood-opacity="0" result="BackgroundImageFix"/>
<feColorMatrix in="SourceAlpha" type="matrix" values="0 0 0 0 0 0 0 0 0 0 0 0 0 0 0 0 0 0 127 0"/>
<feOffset/>
<feGaussianBlur stdDeviation="0.5"/>
<feColorMatrix type="matrix" values="0 0 0 0 1 0 0 0 0 1 0 0 0 0 1 0 0 0 0.5 0"/>
<feBlend mode="normal" in2="BackgroundImageFix" result="effect1_dropShadow"/>
<feBlend mode="normal" in="SourceGraphic" in2="effect1_dropShadow" result="shape"/>
</filter>
</defs>
</svg>
