<svg width="18" height="18" viewBox="0 0 18 18" fill="none" xmlns="http://www.w3.org/2000/svg">
<path fill-rule="evenodd" clip-rule="evenodd" d="M1.66233 15.8419C1.60233 15.8419 1.54233 15.8409 1.48233 15.8389C1.20633 15.8289 0.990334 15.5979 1.00033 15.3209C1.01033 15.0459 1.23933 14.8449 1.51833 14.8389C3.05633 14.8949 4.68233 14.1379 5.67933 13.1959C4.34033 12.9899 3.88733 12.3529 3.73433 11.9109C3.46933 11.1429 3.85733 10.2159 4.65833 9.70787C5.43933 9.21187 6.33533 9.30087 6.99033 9.93987C7.62333 10.5569 7.81033 11.3559 7.52733 12.2149C8.48933 12.1179 9.10533 11.9729 9.84133 11.7549C13.3913 10.7149 15.4843 7.42687 14.9173 5.29287C14.6813 4.40187 13.9343 3.53887 12.8693 2.92387C11.2693 2.00087 9.20033 1.74887 7.33533 2.25487C3.83033 3.20287 1.69833 6.56387 2.27033 8.71487C2.34133 8.97887 2.45533 9.24287 2.61133 9.49887C2.75533 9.73487 2.68133 10.0429 2.44533 10.1859C2.20833 10.3299 1.90033 10.2559 1.75833 10.0209C1.55233 9.68187 1.39833 9.32887 1.30433 8.97187C0.601334 6.33087 2.97033 2.39887 7.07333 1.28987C9.19433 0.716868 11.5453 1.00387 13.3693 2.05787C14.6813 2.81587 15.5743 3.87387 15.8843 5.03587C16.5813 7.65987 14.2653 11.5009 10.1233 12.7139C9.34533 12.9439 8.65033 13.1079 7.59733 13.2129C7.37533 13.2339 7.16433 13.2489 6.96633 13.2569C5.86333 14.7219 3.64133 15.8419 1.66233 15.8419V15.8419ZM5.70133 10.3919C5.49333 10.3919 5.31233 10.4779 5.19333 10.5529C4.80033 10.8029 4.56933 11.2659 4.68033 11.5849C4.79433 11.9179 5.31633 12.2279 6.42133 12.2609C6.45633 12.1949 6.48733 12.1309 6.51633 12.0649C6.75833 11.4989 6.68533 11.0379 6.29333 10.6559C6.09033 10.4579 5.88533 10.3919 5.70133 10.3919V10.3919Z" fill="#545FD9"/>
</svg>
