<svg width="18" height="18" viewBox="0 0 18 18" fill="none" xmlns="http://www.w3.org/2000/svg">
<path fill-rule="evenodd" clip-rule="evenodd" d="M7.47957 14.0204L6.23223 15.2678C6.03707 15.4629 6.03707 15.7797 6.23223 15.9749C6.42739 16.17 6.74418 16.17 6.93934 15.9749L9.06066 13.8536C9.25582 13.6584 9.25582 13.3416 9.06066 13.1464L6.93934 11.0251C6.74418 10.83 6.42739 10.83 6.23223 11.0251C6.03707 11.2203 6.03707 11.5371 6.23223 11.7322L7.47957 12.9796H3.02209L3.04086 9C3.04086 8.7115 2.80822 8.47886 2.52043 8.47957C2.23264 8.48028 2 8.71292 2 9L1.98067 13.3911C1.97328 13.426 1.96939 13.4622 1.96939 13.4993C1.96868 13.7871 2.20132 14.0197 2.48911 14.019L7.47957 14.0204V14.0204ZM10.5211 3.97887L11.7678 2.73223C11.9629 2.53707 11.9629 2.22029 11.7678 2.02513C11.5726 1.82996 11.2558 1.82996 11.0607 2.02513L8.93934 4.14645C8.74418 4.34161 8.74418 4.65839 8.93934 4.85355L11.0607 6.97487C11.2558 7.17004 11.5726 7.17004 11.7678 6.97487C11.9629 6.77971 11.9629 6.46293 11.7678 6.26777L10.5197 5.01972H14.9779L14.9591 9C14.9591 9.2885 15.1918 9.52114 15.4796 9.52043C15.7674 9.51972 16 9.28709 16 9L16.0197 4.51972C16.0197 4.3762 15.9616 4.24628 15.8676 4.15224C15.7724 4.04632 15.6343 3.9799 15.4803 3.98028L10.5211 3.97887V3.97887ZM8 1V8H1V1H8V1ZM10 17V10H17V17H10V17ZM11 16H16V11L11 16V16V16ZM7 2H2V7L7 2V2V2Z" fill="#FFAE93"/>
</svg>
