<svg width="18" height="18" viewBox="0 0 18 18" fill="none" xmlns="http://www.w3.org/2000/svg">
<path d="M8.43408 10.5806V10.2368C8.43408 9.84294 8.5057 9.5153 8.64893 9.25391C8.79215 8.99251 9.04281 8.72217 9.40088 8.44287C9.82699 8.10628 10.1009 7.84489 10.2227 7.65869C10.348 7.47249 10.4106 7.25049 10.4106 6.99268C10.4106 6.69189 10.3104 6.46094 10.1099 6.2998C9.90934 6.13867 9.62109 6.05811 9.24512 6.05811C8.90495 6.05811 8.58984 6.10645 8.2998 6.20312C8.00977 6.2998 7.72689 6.41618 7.45117 6.55225L7 5.60693C7.72689 5.20231 8.5057 5 9.33643 5C10.0382 5 10.5951 5.17188 11.0068 5.51562C11.4186 5.85938 11.6245 6.33382 11.6245 6.93896C11.6245 7.20752 11.5851 7.44743 11.5063 7.65869C11.4276 7.86637 11.3076 8.0651 11.1465 8.25488C10.9889 8.44466 10.715 8.69173 10.3247 8.99609C9.9917 9.25749 9.7679 9.47412 9.65332 9.646C9.54232 9.81787 9.48682 10.0488 9.48682 10.3389V10.5806H8.43408ZM8.21387 12.2939C8.21387 11.7533 8.47705 11.4829 9.00342 11.4829C9.26123 11.4829 9.45817 11.5545 9.59424 11.6978C9.73031 11.8374 9.79834 12.0361 9.79834 12.2939C9.79834 12.5482 9.72852 12.7505 9.58887 12.9009C9.4528 13.0477 9.25765 13.1211 9.00342 13.1211C8.74919 13.1211 8.55404 13.0495 8.41797 12.9062C8.2819 12.7594 8.21387 12.5553 8.21387 12.2939Z" fill="#252525"/>
</svg>
