<svg width="18" height="18" viewBox="0 0 18 18" fill="none" xmlns="http://www.w3.org/2000/svg">
<path fill-rule="evenodd" clip-rule="evenodd" d="M13 14H5C4.448 14 4 13.552 4 13V4.99995C4 4.44795 4.448 3.99995 5 3.99995H13C13.552 3.99995 14 4.44795 14 4.99995V13C14 13.552 13.552 14 13 14V14ZM5 6.99995H7V4.99995H5V6.99995ZM5 9.99995H7V7.99995H5V9.99995ZM5 13H7V11H5V13ZM8 6.99995H10V4.99995H8V6.99995ZM8 9.99995H10V7.99995H8V9.99995ZM8 13H10V11H8V13ZM11 6.99995H13V4.99995H11V6.99995ZM11 9.99995H13V7.99995H11V9.99995ZM11 13H13V11H11V13Z" fill="#545FD9"/>
</svg>
