<svg width="18" height="18" viewBox="0 0 18 18" fill="none" xmlns="http://www.w3.org/2000/svg">
<path fill-rule="evenodd" clip-rule="evenodd" d="M13 11H17V15H13V11ZM14 14H16V12H14V14ZM14.988 3.38305L14.796 3.57605C14.733 3.66205 14.661 3.73305 14.575 3.79605L13 5.37205V10H8.371L2.796 15.576C2.733 15.662 2.661 15.733 2.575 15.796L2.383 15.989L2.328 15.934C2.224 15.97 2.116 16 2 16C1.447 16 1 15.552 1 15C1 14.884 1.029 14.776 1.066 14.672L1.012 14.617L1.204 14.425C1.267 14.338 1.339 14.267 1.425 14.204L7 8.62905V4.00005H11.629L13.204 2.42405C13.267 2.33805 13.339 2.26705 13.425 2.20405L13.617 2.01105L13.672 2.06605C13.776 2.03005 13.884 2.00005 14 2.00005C14.553 2.00005 15 2.44805 15 3.00005C15 3.11605 14.971 3.22405 14.934 3.32805L14.988 3.38305V3.38305ZM8 9.00005H12V5.00005H8V9.00005ZM9 6.00005H11V8.00005H9V6.00005Z" fill="#252525"/>
</svg>
