<svg width="18" height="18" viewBox="0 0 18 18" fill="none" xmlns="http://www.w3.org/2000/svg">
<path fill-rule="evenodd" clip-rule="evenodd" d="M12.8853 6.33333L11.6667 7.55289V11.6667H7.552L6.33333 12.8862V17H1V11.6667H5.11467L6.33333 10.4471V6.33333H10.448L11.6667 5.11378V1H17V6.33333H12.8853V6.33333ZM1.88889 16.1111H5.44444V12.5556H1.88889V16.1111ZM7.22222 10.7778H10.7778V7.22222H7.22222V10.7778ZM12.5556 5.44444H16.1111V1.88889H12.5556V5.44444ZM13.4444 2.77778H15.2222V4.55556H13.4444V2.77778ZM8.11111 8.11111H9.88889V9.88889H8.11111V8.11111ZM2.77778 13.4444H4.55556V15.2222H2.77778V13.4444Z" fill="#252525"/>
</svg>
