<svg width="18" height="18" viewBox="0 0 18 18" fill="none" xmlns="http://www.w3.org/2000/svg">
<path fill-rule="evenodd" clip-rule="evenodd" d="M13 11H17V15H13V11ZM14 14H16V12H14V14ZM14.988 3.38304L14.796 3.57604C14.733 3.66204 14.661 3.73304 14.575 3.79604L13 5.37204V10H8.371L2.796 15.576C2.733 15.662 2.661 15.733 2.575 15.796L2.383 15.989L2.328 15.934C2.224 15.97 2.116 16 2 16C1.447 16 1 15.552 1 15C1 14.884 1.029 14.776 1.066 14.672L1.012 14.617L1.204 14.425C1.267 14.338 1.339 14.267 1.425 14.204L7 8.62904V4.00004H11.629L13.204 2.42404C13.267 2.33804 13.339 2.26704 13.425 2.20404L13.617 2.01104L13.672 2.06604C13.776 2.03004 13.884 2.00004 14 2.00004C14.553 2.00004 15 2.44804 15 3.00004C15 3.11604 14.971 3.22404 14.934 3.32804L14.988 3.38304V3.38304ZM8 9.00004H12V5.00004H8V9.00004ZM9 6.00004H11V8.00004H9V6.00004Z" fill="#545FD9"/>
</svg>
