<svg width="18" height="18" viewBox="0 0 18 18" fill="none" xmlns="http://www.w3.org/2000/svg">
<g opacity="0.4">
<mask id="path-1-outside-1" maskUnits="userSpaceOnUse" x="0" y="0" width="17" height="17" fill="black">
<rect fill="white" width="17" height="17"/>
<path fill-rule="evenodd" clip-rule="evenodd" d="M5.65087 14.4705C6.82979 15.4955 8.28853 16 9.74641 16C11.3431 16 12.9408 15.3949 14.1707 14.1636C16.5014 11.8305 16.6049 8.09737 14.4815 5.63986L13.8681 6.25327C15.6984 8.36464 15.605 11.5821 13.5877 13.5805C11.5905 15.5798 8.37456 15.6716 6.2655 13.8558L5.65087 14.4705ZM5.64645 10.2322L5.01982 9.60472L3.50907 11.1171L4.1349 11.7438L3.51954 12.3591L2.58135 11.42L2.55943 11.398L2.53751 11.3761L1.37242 10.2098C0.875859 9.69158 0.875859 8.87042 1.37242 8.37333L2.2787 7.46609C2.79633 6.969 3.61662 6.969 4.11318 7.46609L5.23528 8.58938C5.2448 8.59423 5.25324 8.59801 5.26085 8.60142C5.28765 8.61343 5.30421 8.62084 5.32127 8.65436C5.34319 8.6974 5.36427 8.7185 5.38619 8.74044L6.26161 9.61707L5.64645 10.2322ZM7.78388 12.3374C9.06096 13.3351 10.9001 13.2453 12.077 12.0681C13.2521 10.8918 13.3424 9.05239 12.348 7.77329L11.7275 8.39378C12.3909 9.32411 12.3058 10.6287 11.4724 11.4631C10.6383 12.2981 9.33375 12.3827 8.40423 11.7171L7.78388 12.3374ZM9.63034 6.24833L10.2455 5.63323L9.61617 5.0035L11.1269 3.49115L11.757 4.12168L12.3727 3.50601L11.4504 2.58303L11.4285 2.56109L10.2415 1.37282C9.74494 0.875728 8.92464 0.875728 8.40702 1.37282L7.50158 2.28089C7.00502 2.77798 7.00502 3.59914 7.50158 4.11732L8.62368 5.2406C8.63444 5.25137 8.64499 5.26722 8.65554 5.28307C8.66649 5.29951 8.67743 5.31594 8.68859 5.32669C8.71051 5.34863 8.73159 5.36973 8.77459 5.39167L9.63034 6.24833ZM9.01148 1.97876L8.1052 2.886C7.93322 3.05901 7.93322 3.3181 8.1052 3.49111L8.99042 4.37726L10.5012 2.86491L9.61595 1.97876C9.46505 1.80575 9.18431 1.80575 9.01148 1.97876ZM1.99822 9.00034C1.91139 9.08641 1.86839 9.19444 1.86839 9.30246L1.86837 9.30249C1.86837 9.4105 1.91137 9.51853 1.99736 9.60545L2.88257 10.4916L4.39332 8.97925L3.50811 8.0931C3.42213 8.00618 3.31421 7.96314 3.2063 7.96314C3.0984 7.96314 2.99049 8.00702 2.9045 8.0931L1.99822 9.00034Z"/>
</mask>
<path fill-rule="evenodd" clip-rule="evenodd" d="M5.65087 14.4705C6.82979 15.4955 8.28853 16 9.74641 16C11.3431 16 12.9408 15.3949 14.1707 14.1636C16.5014 11.8305 16.6049 8.09737 14.4815 5.63986L13.8681 6.25327C15.6984 8.36464 15.605 11.5821 13.5877 13.5805C11.5905 15.5798 8.37456 15.6716 6.2655 13.8558L5.65087 14.4705ZM5.64645 10.2322L5.01982 9.60472L3.50907 11.1171L4.1349 11.7438L3.51954 12.3591L2.58135 11.42L2.55943 11.398L2.53751 11.3761L1.37242 10.2098C0.875859 9.69158 0.875859 8.87042 1.37242 8.37333L2.2787 7.46609C2.79633 6.969 3.61662 6.969 4.11318 7.46609L5.23528 8.58938C5.2448 8.59423 5.25324 8.59801 5.26085 8.60142C5.28765 8.61343 5.30421 8.62084 5.32127 8.65436C5.34319 8.6974 5.36427 8.7185 5.38619 8.74044L6.26161 9.61707L5.64645 10.2322ZM7.78388 12.3374C9.06096 13.3351 10.9001 13.2453 12.077 12.0681C13.2521 10.8918 13.3424 9.05239 12.348 7.77329L11.7275 8.39378C12.3909 9.32411 12.3058 10.6287 11.4724 11.4631C10.6383 12.2981 9.33375 12.3827 8.40423 11.7171L7.78388 12.3374ZM9.63034 6.24833L10.2455 5.63323L9.61617 5.0035L11.1269 3.49115L11.757 4.12168L12.3727 3.50601L11.4504 2.58303L11.4285 2.56109L10.2415 1.37282C9.74494 0.875728 8.92464 0.875728 8.40702 1.37282L7.50158 2.28089C7.00502 2.77798 7.00502 3.59914 7.50158 4.11732L8.62368 5.2406C8.63444 5.25137 8.64499 5.26722 8.65554 5.28307C8.66649 5.29951 8.67743 5.31594 8.68859 5.32669C8.71051 5.34863 8.73159 5.36973 8.77459 5.39167L9.63034 6.24833ZM9.01148 1.97876L8.1052 2.886C7.93322 3.05901 7.93322 3.3181 8.1052 3.49111L8.99042 4.37726L10.5012 2.86491L9.61595 1.97876C9.46505 1.80575 9.18431 1.80575 9.01148 1.97876ZM1.99822 9.00034C1.91139 9.08641 1.86839 9.19444 1.86839 9.30246L1.86837 9.30249C1.86837 9.4105 1.91137 9.51853 1.99736 9.60545L2.88257 10.4916L4.39332 8.97925L3.50811 8.0931C3.42213 8.00618 3.31421 7.96314 3.2063 7.96314C3.0984 7.96314 2.99049 8.00702 2.9045 8.0931L1.99822 9.00034Z" fill="#252525"/>
<path d="M5.65087 14.4705L5.61551 14.4351L5.57761 14.473L5.61806 14.5082L5.65087 14.4705ZM14.1707 14.1636L14.1354 14.1282L14.1354 14.1282L14.1707 14.1636ZM14.4815 5.63986L14.5193 5.60717L14.4841 5.56647L14.4461 5.6045L14.4815 5.63986ZM13.8681 6.25327L13.8327 6.21791L13.7998 6.25083L13.8303 6.28602L13.8681 6.25327ZM13.5877 13.5805L13.5525 13.5449L13.5523 13.5451L13.5877 13.5805ZM6.2655 13.8558L6.29812 13.8179L6.26296 13.7877L6.23015 13.8205L6.2655 13.8558ZM5.01982 9.60472L5.0552 9.56939L5.01982 9.53396L4.98444 9.56938L5.01982 9.60472ZM5.64645 10.2322L5.61107 10.2676L5.64642 10.303L5.6818 10.2676L5.64645 10.2322ZM3.50907 11.1171L3.47369 11.0817L3.4384 11.1171L3.47369 11.1524L3.50907 11.1171ZM4.1349 11.7438L4.17025 11.7791L4.20559 11.7438L4.17028 11.7084L4.1349 11.7438ZM3.51954 12.3591L3.48416 12.3945L3.51952 12.4299L3.55489 12.3945L3.51954 12.3591ZM2.58135 11.42L2.54597 11.4553L2.54598 11.4553L2.58135 11.42ZM2.55943 11.398L2.59481 11.3627L2.59481 11.3627L2.55943 11.398ZM2.53751 11.3761L2.57289 11.3407L2.57289 11.3407L2.53751 11.3761ZM1.37242 10.2098L1.33631 10.2444L1.33705 10.2451L1.37242 10.2098ZM1.37242 8.37333L1.4078 8.40866L1.4078 8.40866L1.37242 8.37333ZM2.2787 7.46609L2.24406 7.43002L2.24333 7.43075L2.2787 7.46609ZM4.11318 7.46609L4.07781 7.50143L4.11318 7.46609ZM5.23528 8.58938L5.19991 8.62471L5.2055 8.63031L5.21255 8.63391L5.23528 8.58938ZM5.26085 8.60142L5.24041 8.64706L5.24041 8.64706L5.26085 8.60142ZM5.32127 8.65436L5.27672 8.67705L5.27672 8.67705L5.32127 8.65436ZM5.38619 8.74044L5.42157 8.70511L5.42156 8.70511L5.38619 8.74044ZM6.26161 9.61707L6.29696 9.65242L6.3323 9.61709L6.29699 9.58174L6.26161 9.61707ZM7.78388 12.3374L7.74852 12.3021L7.70856 12.3421L7.7531 12.3768L7.78388 12.3374ZM12.077 12.0681L12.1123 12.1035L12.1123 12.1035L12.077 12.0681ZM12.348 7.77329L12.3875 7.7426L12.3527 7.69788L12.3127 7.73794L12.348 7.77329ZM11.7275 8.39378L11.6922 8.35842L11.6623 8.38835L11.6868 8.4228L11.7275 8.39378ZM11.4724 11.4631L11.5077 11.4984L11.5077 11.4984L11.4724 11.4631ZM8.40423 11.7171L8.43334 11.6764L8.39886 11.6518L8.36887 11.6817L8.40423 11.7171ZM9.63034 6.24833L9.59497 6.28367L9.63033 6.31906L9.6657 6.28369L9.63034 6.24833ZM10.2455 5.63323L10.2808 5.66858L10.3161 5.63324L10.2808 5.59789L10.2455 5.63323ZM9.61617 5.0035L9.58079 4.96817L9.54549 5.00351L9.5808 5.03885L9.61617 5.0035ZM11.1269 3.49115L11.1623 3.45581L11.1269 3.42041L11.0915 3.45582L11.1269 3.49115ZM11.757 4.12168L11.7216 4.15702L11.757 4.1924L11.7924 4.15703L11.757 4.12168ZM12.3727 3.50601L12.408 3.54136L12.4434 3.50602L12.408 3.47067L12.3727 3.50601ZM11.4504 2.58303L11.4151 2.61837L11.4151 2.61837L11.4504 2.58303ZM11.4285 2.56109L11.3931 2.59643L11.3931 2.59643L11.4285 2.56109ZM10.2415 1.37282L10.2769 1.33748L10.2769 1.33748L10.2415 1.37282ZM8.40702 1.37282L8.37238 1.33674L8.37161 1.33751L8.40702 1.37282ZM7.50158 2.28089L7.53695 2.31623L7.53699 2.3162L7.50158 2.28089ZM7.50158 4.11732L7.46547 4.15192L7.46621 4.15266L7.50158 4.11732ZM8.62368 5.2406L8.58831 5.27594L8.58831 5.27594L8.62368 5.2406ZM8.65554 5.28307L8.69716 5.25535L8.69716 5.25535L8.65554 5.28307ZM8.68859 5.32669L8.72398 5.29134L8.72327 5.29067L8.68859 5.32669ZM8.77459 5.39167L8.80996 5.35633L8.80437 5.35073L8.79731 5.34714L8.77459 5.39167ZM8.1052 2.886L8.06983 2.85066L8.06974 2.85075L8.1052 2.886ZM9.01148 1.97876L8.97611 1.94343L8.97611 1.94343L9.01148 1.97876ZM8.1052 3.49111L8.06974 3.52636L8.06983 3.52645L8.1052 3.49111ZM8.99042 4.37726L8.95504 4.4126L8.99042 4.44801L9.02579 4.4126L8.99042 4.37726ZM10.5012 2.86491L10.5365 2.90025L10.5718 2.86491L10.5365 2.82958L10.5012 2.86491ZM9.61595 1.97876L9.57819 2.0117L9.58058 2.0141L9.61595 1.97876ZM1.86839 9.30246L1.90492 9.33661L1.91839 9.32219V9.30246H1.86839ZM1.99822 9.00034L2.03342 9.03585L2.0336 9.03568L1.99822 9.00034ZM1.86837 9.30249L1.83185 9.26834L1.81837 9.28275V9.30249H1.86837ZM1.99736 9.60545L1.96181 9.64062L1.96198 9.64079L1.99736 9.60545ZM2.88257 10.4916L2.8472 10.5269L2.88257 10.5624L2.91795 10.5269L2.88257 10.4916ZM4.39332 8.97925L4.4287 9.01459L4.464 8.97925L4.4287 8.94392L4.39332 8.97925ZM3.50811 8.0931L3.47256 8.12827L3.47274 8.12844L3.50811 8.0931ZM2.9045 8.0931L2.93987 8.12844L2.93987 8.12844L2.9045 8.0931ZM5.61806 14.5082C6.80644 15.5415 8.27696 16.05 9.74641 16.05V15.95C8.3001 15.95 6.85314 15.4495 5.68368 14.4327L5.61806 14.5082ZM9.74641 16.05C11.3558 16.05 12.9664 15.44 14.2061 14.1989L14.1354 14.1282C12.9152 15.3498 11.3304 15.95 9.74641 15.95V16.05ZM14.2061 14.1989C16.5554 11.8472 16.6598 8.08434 14.5193 5.60717L14.4436 5.67255C16.5501 8.1104 16.4473 11.8138 14.1354 14.1282L14.2061 14.1989ZM14.4461 5.6045L13.8327 6.21791L13.9034 6.28862L14.5168 5.67521L14.4461 5.6045ZM13.8303 6.28602C15.6435 8.37767 15.5509 11.5652 13.5525 13.5449L13.6229 13.616C15.659 11.5989 15.7533 8.35161 13.9058 6.22051L13.8303 6.28602ZM13.5523 13.5451C11.5738 15.5257 8.38753 15.6168 6.29812 13.8179L6.23288 13.8937C8.36159 15.7264 11.6072 15.6338 13.6231 13.6158L13.5523 13.5451ZM6.23015 13.8205L5.61551 14.4351L5.68623 14.5058L6.30086 13.8912L6.23015 13.8205ZM4.98444 9.64005L5.61107 10.2676L5.68183 10.1969L5.0552 9.56939L4.98444 9.64005ZM3.54444 11.1524L5.05519 9.64005L4.98444 9.56938L3.47369 11.0817L3.54444 11.1524ZM4.17028 11.7084L3.54445 11.0817L3.47369 11.1524L4.09952 11.7791L4.17028 11.7084ZM3.55489 12.3945L4.17025 11.7791L4.09954 11.7084L3.48418 12.3238L3.55489 12.3945ZM2.54598 11.4553L3.48416 12.3945L3.55491 12.3238L2.61672 11.3846L2.54598 11.4553ZM2.52406 11.4334L2.54597 11.4553L2.61673 11.3846L2.59481 11.3627L2.52406 11.4334ZM2.50214 11.4114L2.52406 11.4334L2.59481 11.3627L2.57289 11.3407L2.50214 11.4114ZM1.33705 10.2451L2.50214 11.4114L2.57289 11.3407L1.4078 10.1744L1.33705 10.2451ZM1.33705 8.33799C0.820589 8.855 0.821621 9.70724 1.33632 10.2443L1.40852 10.1752C0.930098 9.67591 0.93113 8.88583 1.4078 8.40866L1.33705 8.33799ZM2.24333 7.43075L1.33705 8.33799L1.4078 8.40866L2.31407 7.50143L2.24333 7.43075ZM4.14856 7.43075C3.63207 6.91372 2.78063 6.91475 2.24407 7.43003L2.31333 7.50215C2.81202 7.02325 3.60117 7.02429 4.07781 7.50143L4.14856 7.43075ZM5.27066 8.55404L4.14856 7.43075L4.07781 7.50143L5.19991 8.62471L5.27066 8.55404ZM5.28129 8.55579C5.27364 8.55237 5.26626 8.54905 5.25801 8.54484L5.21255 8.63391C5.22333 8.63941 5.23283 8.64366 5.24041 8.64706L5.28129 8.55579ZM5.36583 8.63167C5.35482 8.61006 5.34219 8.59352 5.32556 8.58048C5.31026 8.56848 5.29352 8.56127 5.28129 8.55579L5.24041 8.64706C5.25498 8.65358 5.25992 8.65608 5.26386 8.65917C5.26647 8.66122 5.27066 8.66515 5.27672 8.67705L5.36583 8.63167ZM5.42156 8.70511C5.4007 8.68422 5.38412 8.66759 5.36583 8.63167L5.27672 8.67705C5.30227 8.72722 5.32784 8.75278 5.35082 8.77578L5.42156 8.70511ZM6.29699 9.58174L5.42157 8.70511L5.35081 8.77578L6.22623 9.6524L6.29699 9.58174ZM5.6818 10.2676L6.29696 9.65242L6.22625 9.58171L5.61109 10.1969L5.6818 10.2676ZM7.7531 12.3768C9.04989 13.3899 10.9175 13.2987 12.1123 12.1035L12.0416 12.0328C10.8828 13.1919 9.07202 13.2803 7.81466 12.298L7.7531 12.3768ZM12.1123 12.1035C13.3055 10.9091 13.3972 9.04138 12.3875 7.7426L12.3086 7.80398C13.2877 9.06341 13.1987 10.8744 12.0416 12.0328L12.1123 12.1035ZM12.3127 7.73794L11.6922 8.35842L11.7629 8.42913L12.3834 7.80865L12.3127 7.73794ZM11.6868 8.4228C12.3363 9.33363 12.2529 10.611 11.437 11.4278L11.5077 11.4984C12.3588 10.6465 12.4455 9.3146 11.7683 8.36475L11.6868 8.4228ZM11.437 11.4278C10.6205 12.2452 9.34331 12.3281 8.43334 11.6764L8.37511 11.7577C9.32418 12.4374 10.656 12.3511 11.5077 11.4984L11.437 11.4278ZM8.36887 11.6817L7.74852 12.3021L7.81923 12.3728L8.43958 11.7525L8.36887 11.6817ZM9.6657 6.28369L10.2808 5.66858L10.2101 5.59787L9.59499 6.21298L9.6657 6.28369ZM10.2808 5.59789L9.65154 4.96816L9.5808 5.03885L10.2101 5.66857L10.2808 5.59789ZM9.65154 5.03884L11.1623 3.52649L11.0915 3.45582L9.58079 4.96817L9.65154 5.03884ZM11.0916 3.5265L11.7216 4.15702L11.7924 4.08634L11.1623 3.45581L11.0916 3.5265ZM11.7924 4.15703L12.408 3.54136L12.3373 3.47065L11.7216 4.08632L11.7924 4.15703ZM12.408 3.47067L11.4858 2.54769L11.4151 2.61837L12.3373 3.54135L12.408 3.47067ZM11.4858 2.5477L11.4639 2.52575L11.3931 2.59643L11.4151 2.61837L11.4858 2.5477ZM11.4639 2.52575L10.2769 1.33748L10.2061 1.40815L11.3931 2.59643L11.4639 2.52575ZM10.2769 1.33748C9.76038 0.820444 8.90895 0.821479 8.37238 1.33675L8.44165 1.40888C8.94034 0.929978 9.72949 0.931012 10.2061 1.40815L10.2769 1.33748ZM8.37161 1.33751L7.46617 2.24559L7.53699 2.3162L8.44242 1.40812L8.37161 1.33751ZM7.46621 2.24556C6.94975 2.76256 6.95078 3.61481 7.46548 4.15191L7.53768 4.08272C7.05926 3.58348 7.06029 2.7934 7.53695 2.31623L7.46621 2.24556ZM7.46621 4.15266L8.58831 5.27594L8.65905 5.20527L7.53695 4.08198L7.46621 4.15266ZM8.58831 5.27594C8.59481 5.28245 8.60246 5.29356 8.61392 5.31078L8.69716 5.25535C8.68752 5.24089 8.67406 5.22029 8.65905 5.20527L8.58831 5.27594ZM8.61392 5.31078C8.62382 5.32564 8.63797 5.34736 8.65392 5.36271L8.72327 5.29067C8.71689 5.28453 8.70916 5.27337 8.69716 5.25535L8.61392 5.31078ZM8.65322 5.36202C8.67619 5.38502 8.70173 5.41063 8.75186 5.43621L8.79731 5.34714C8.76145 5.32883 8.74483 5.31224 8.72397 5.29135L8.65322 5.36202ZM8.73921 5.42701L9.59497 6.28367L9.66572 6.213L8.80996 5.35633L8.73921 5.42701ZM8.14058 2.92134L9.04685 2.0141L8.97611 1.94343L8.06983 2.85066L8.14058 2.92134ZM8.14066 3.45586C7.98807 3.30235 7.98807 3.07476 8.14066 2.92125L8.06974 2.85075C7.87837 3.04326 7.87837 3.33385 8.06974 3.52636L8.14066 3.45586ZM9.02579 4.34192L8.14058 3.45577L8.06983 3.52645L8.95504 4.4126L9.02579 4.34192ZM10.4658 2.82958L8.95504 4.34192L9.02579 4.4126L10.5365 2.90025L10.4658 2.82958ZM9.58058 2.0141L10.4658 2.90025L10.5365 2.82958L9.65133 1.94343L9.58058 2.0141ZM9.04685 2.0141C9.20158 1.85921 9.44855 1.8629 9.57827 2.01163L9.65363 1.9459C9.48156 1.74861 9.16703 1.7523 8.97611 1.94343L9.04685 2.0141ZM1.91839 9.30246C1.91839 9.20806 1.95586 9.11273 2.03342 9.03585L1.96302 8.96483C1.86692 9.06009 1.81839 9.18082 1.81839 9.30246H1.91839ZM1.9049 9.33663L1.90492 9.33661L1.83187 9.26832L1.83185 9.26834L1.9049 9.33663ZM2.0329 9.57029C1.95585 9.4924 1.91837 9.39688 1.91837 9.30249H1.81837C1.81837 9.42412 1.86688 9.54466 1.96181 9.64062L2.0329 9.57029ZM2.91795 10.4563L2.03273 9.57011L1.96198 9.64079L2.8472 10.5269L2.91795 10.4563ZM4.35795 8.94392L2.8472 10.4563L2.91795 10.5269L4.4287 9.01459L4.35795 8.94392ZM3.47274 8.12844L4.35795 9.01459L4.4287 8.94392L3.54348 8.05777L3.47274 8.12844ZM3.2063 8.01314C3.30056 8.01314 3.39576 8.05062 3.47256 8.12826L3.54366 8.05794C3.44849 7.96173 3.32786 7.91314 3.2063 7.91314V8.01314ZM2.93987 8.12844C3.01692 8.05131 3.11227 8.01314 3.2063 8.01314V7.91314C3.08454 7.91314 2.96407 7.96272 2.86913 8.05777L2.93987 8.12844ZM2.0336 9.03568L2.93987 8.12844L2.86913 8.05777L1.96285 8.965L2.0336 9.03568Z" fill="#252525" mask="url(#path-1-outside-1)"/>
</g>
<path fill-rule="evenodd" clip-rule="evenodd" d="M16.3536 1.64645C16.5488 1.84171 16.5488 2.15829 16.3536 2.35355L2.35355 16.3536C2.15829 16.5488 1.84171 16.5488 1.64645 16.3536C1.45118 16.1583 1.45118 15.8417 1.64645 15.6464L15.6464 1.64645C15.8417 1.45118 16.1583 1.45118 16.3536 1.64645Z" fill="#252525"/>
</svg>
