<svg width="18" height="18" viewBox="0 0 18 18" fill="none" xmlns="http://www.w3.org/2000/svg">
<g opacity="0.4">
<mask id="path-1-outside-1" maskUnits="userSpaceOnUse" x="0" y="1" width="17" height="17" fill="black">
<rect fill="white" y="1" width="17" height="17"/>
<path fill-rule="evenodd" clip-rule="evenodd" d="M5.65087 15.4705C6.82979 16.4955 8.28853 17 9.74641 17C11.3431 17 12.9408 16.3949 14.1707 15.1636C16.5014 12.8305 16.6049 9.09737 14.4815 6.63986L13.8681 7.25327C15.6984 9.36464 15.605 12.5821 13.5877 14.5805C11.5905 16.5798 8.37456 16.6716 6.2655 14.8558L5.65087 15.4705ZM5.64645 11.2322L5.01982 10.6047L3.50907 12.1171L4.1349 12.7438L3.51954 13.3591L2.58135 12.42L2.55943 12.398L2.53751 12.3761L1.37242 11.2098C0.875859 10.6916 0.875859 9.87042 1.37242 9.37333L2.2787 8.46609C2.79633 7.969 3.61662 7.969 4.11318 8.46609L5.23528 9.58938C5.2448 9.59423 5.25324 9.59801 5.26085 9.60142C5.28765 9.61343 5.30421 9.62084 5.32127 9.65436C5.34319 9.6974 5.36427 9.7185 5.38619 9.74044L6.26161 10.6171L5.64645 11.2322ZM7.78388 13.3374C9.06096 14.3351 10.9001 14.2453 12.077 13.0681C13.2521 11.8918 13.3424 10.0524 12.348 8.77329L11.7275 9.39378C12.3909 10.3241 12.3058 11.6287 11.4724 12.4631C10.6383 13.2981 9.33375 13.3827 8.40423 12.7171L7.78388 13.3374ZM9.63034 7.24833L10.2455 6.63323L9.61617 6.0035L11.1269 4.49115L11.757 5.12168L12.3727 4.50601L11.4504 3.58303L11.4285 3.56109L10.2415 2.37282C9.74494 1.87573 8.92464 1.87573 8.40702 2.37282L7.50158 3.28089C7.00502 3.77798 7.00502 4.59914 7.50158 5.11732L8.62368 6.2406C8.63444 6.25137 8.64499 6.26722 8.65554 6.28307C8.66649 6.29951 8.67743 6.31594 8.68859 6.32669C8.71051 6.34863 8.73159 6.36973 8.77459 6.39167L9.63034 7.24833ZM9.01148 2.97876L8.1052 3.886C7.93322 4.05901 7.93322 4.3181 8.1052 4.49111L8.99042 5.37726L10.5012 3.86491L9.61595 2.97876C9.46505 2.80575 9.18431 2.80575 9.01148 2.97876ZM1.99822 10.0003C1.91139 10.0864 1.86839 10.1944 1.86839 10.3025L1.86837 10.3025C1.86837 10.4105 1.91137 10.5185 1.99736 10.6055L2.88257 11.4916L4.39332 9.97925L3.50811 9.0931C3.42213 9.00618 3.31421 8.96314 3.2063 8.96314C3.0984 8.96314 2.99049 9.00702 2.9045 9.0931L1.99822 10.0003Z"/>
</mask>
<path fill-rule="evenodd" clip-rule="evenodd" d="M5.65087 15.4705C6.82979 16.4955 8.28853 17 9.74641 17C11.3431 17 12.9408 16.3949 14.1707 15.1636C16.5014 12.8305 16.6049 9.09737 14.4815 6.63986L13.8681 7.25327C15.6984 9.36464 15.605 12.5821 13.5877 14.5805C11.5905 16.5798 8.37456 16.6716 6.2655 14.8558L5.65087 15.4705ZM5.64645 11.2322L5.01982 10.6047L3.50907 12.1171L4.1349 12.7438L3.51954 13.3591L2.58135 12.42L2.55943 12.398L2.53751 12.3761L1.37242 11.2098C0.875859 10.6916 0.875859 9.87042 1.37242 9.37333L2.2787 8.46609C2.79633 7.969 3.61662 7.969 4.11318 8.46609L5.23528 9.58938C5.2448 9.59423 5.25324 9.59801 5.26085 9.60142C5.28765 9.61343 5.30421 9.62084 5.32127 9.65436C5.34319 9.6974 5.36427 9.7185 5.38619 9.74044L6.26161 10.6171L5.64645 11.2322ZM7.78388 13.3374C9.06096 14.3351 10.9001 14.2453 12.077 13.0681C13.2521 11.8918 13.3424 10.0524 12.348 8.77329L11.7275 9.39378C12.3909 10.3241 12.3058 11.6287 11.4724 12.4631C10.6383 13.2981 9.33375 13.3827 8.40423 12.7171L7.78388 13.3374ZM9.63034 7.24833L10.2455 6.63323L9.61617 6.0035L11.1269 4.49115L11.757 5.12168L12.3727 4.50601L11.4504 3.58303L11.4285 3.56109L10.2415 2.37282C9.74494 1.87573 8.92464 1.87573 8.40702 2.37282L7.50158 3.28089C7.00502 3.77798 7.00502 4.59914 7.50158 5.11732L8.62368 6.2406C8.63444 6.25137 8.64499 6.26722 8.65554 6.28307C8.66649 6.29951 8.67743 6.31594 8.68859 6.32669C8.71051 6.34863 8.73159 6.36973 8.77459 6.39167L9.63034 7.24833ZM9.01148 2.97876L8.1052 3.886C7.93322 4.05901 7.93322 4.3181 8.1052 4.49111L8.99042 5.37726L10.5012 3.86491L9.61595 2.97876C9.46505 2.80575 9.18431 2.80575 9.01148 2.97876ZM1.99822 10.0003C1.91139 10.0864 1.86839 10.1944 1.86839 10.3025L1.86837 10.3025C1.86837 10.4105 1.91137 10.5185 1.99736 10.6055L2.88257 11.4916L4.39332 9.97925L3.50811 9.0931C3.42213 9.00618 3.31421 8.96314 3.2063 8.96314C3.0984 8.96314 2.99049 9.00702 2.9045 9.0931L1.99822 10.0003Z" fill="#F7F7F7"/>
<path d="M5.65087 15.4705L5.61551 15.4351L5.57761 15.473L5.61806 15.5082L5.65087 15.4705ZM14.1707 15.1636L14.1354 15.1282L14.1354 15.1282L14.1707 15.1636ZM14.4815 6.63986L14.5193 6.60717L14.4841 6.56647L14.4461 6.6045L14.4815 6.63986ZM13.8681 7.25327L13.8327 7.21791L13.7998 7.25083L13.8303 7.28602L13.8681 7.25327ZM13.5877 14.5805L13.5525 14.5449L13.5523 14.5451L13.5877 14.5805ZM6.2655 14.8558L6.29812 14.8179L6.26296 14.7877L6.23015 14.8205L6.2655 14.8558ZM5.01982 10.6047L5.0552 10.5694L5.01982 10.534L4.98444 10.5694L5.01982 10.6047ZM5.64645 11.2322L5.61107 11.2676L5.64642 11.303L5.6818 11.2676L5.64645 11.2322ZM3.50907 12.1171L3.47369 12.0817L3.4384 12.1171L3.47369 12.1524L3.50907 12.1171ZM4.1349 12.7438L4.17025 12.7791L4.20559 12.7438L4.17028 12.7084L4.1349 12.7438ZM3.51954 13.3591L3.48416 13.3945L3.51952 13.4299L3.55489 13.3945L3.51954 13.3591ZM2.58135 12.42L2.54597 12.4553L2.54598 12.4553L2.58135 12.42ZM2.55943 12.398L2.59481 12.3627L2.59481 12.3627L2.55943 12.398ZM2.53751 12.3761L2.57289 12.3407L2.57289 12.3407L2.53751 12.3761ZM1.37242 11.2098L1.33631 11.2444L1.33705 11.2451L1.37242 11.2098ZM1.37242 9.37333L1.4078 9.40866L1.4078 9.40866L1.37242 9.37333ZM2.2787 8.46609L2.24406 8.43002L2.24333 8.43075L2.2787 8.46609ZM4.11318 8.46609L4.07781 8.50143L4.11318 8.46609ZM5.23528 9.58938L5.19991 9.62471L5.2055 9.63031L5.21255 9.63391L5.23528 9.58938ZM5.26085 9.60142L5.24041 9.64706L5.24041 9.64706L5.26085 9.60142ZM5.32127 9.65436L5.27672 9.67705L5.27672 9.67705L5.32127 9.65436ZM5.38619 9.74044L5.42157 9.70511L5.42156 9.70511L5.38619 9.74044ZM6.26161 10.6171L6.29696 10.6524L6.3323 10.6171L6.29699 10.5817L6.26161 10.6171ZM7.78388 13.3374L7.74852 13.3021L7.70856 13.3421L7.7531 13.3768L7.78388 13.3374ZM12.077 13.0681L12.1123 13.1035L12.1123 13.1035L12.077 13.0681ZM12.348 8.77329L12.3875 8.7426L12.3527 8.69788L12.3127 8.73794L12.348 8.77329ZM11.7275 9.39378L11.6922 9.35842L11.6623 9.38835L11.6868 9.4228L11.7275 9.39378ZM11.4724 12.4631L11.5077 12.4984L11.5077 12.4984L11.4724 12.4631ZM8.40423 12.7171L8.43334 12.6764L8.39886 12.6518L8.36887 12.6817L8.40423 12.7171ZM9.63034 7.24833L9.59497 7.28367L9.63033 7.31906L9.6657 7.28369L9.63034 7.24833ZM10.2455 6.63323L10.2808 6.66858L10.3161 6.63324L10.2808 6.59789L10.2455 6.63323ZM9.61617 6.0035L9.58079 5.96817L9.54549 6.00351L9.5808 6.03885L9.61617 6.0035ZM11.1269 4.49115L11.1623 4.45581L11.1269 4.42041L11.0915 4.45582L11.1269 4.49115ZM11.757 5.12168L11.7216 5.15702L11.757 5.1924L11.7924 5.15703L11.757 5.12168ZM12.3727 4.50601L12.408 4.54136L12.4434 4.50602L12.408 4.47067L12.3727 4.50601ZM11.4504 3.58303L11.4151 3.61837L11.4151 3.61837L11.4504 3.58303ZM11.4285 3.56109L11.3931 3.59643L11.3931 3.59643L11.4285 3.56109ZM10.2415 2.37282L10.2769 2.33748L10.2769 2.33748L10.2415 2.37282ZM8.40702 2.37282L8.37238 2.33674L8.37161 2.33751L8.40702 2.37282ZM7.50158 3.28089L7.53695 3.31623L7.53699 3.3162L7.50158 3.28089ZM7.50158 5.11732L7.46547 5.15192L7.46621 5.15266L7.50158 5.11732ZM8.62368 6.2406L8.58831 6.27594L8.58831 6.27594L8.62368 6.2406ZM8.65554 6.28307L8.69716 6.25535L8.69716 6.25535L8.65554 6.28307ZM8.68859 6.32669L8.72398 6.29134L8.72327 6.29067L8.68859 6.32669ZM8.77459 6.39167L8.80996 6.35633L8.80437 6.35073L8.79731 6.34714L8.77459 6.39167ZM8.1052 3.886L8.06983 3.85066L8.06974 3.85075L8.1052 3.886ZM9.01148 2.97876L8.97611 2.94343L8.97611 2.94343L9.01148 2.97876ZM8.1052 4.49111L8.06974 4.52636L8.06983 4.52645L8.1052 4.49111ZM8.99042 5.37726L8.95504 5.4126L8.99042 5.44801L9.02579 5.4126L8.99042 5.37726ZM10.5012 3.86491L10.5365 3.90025L10.5718 3.86491L10.5365 3.82958L10.5012 3.86491ZM9.61595 2.97876L9.57819 3.0117L9.58058 3.0141L9.61595 2.97876ZM1.86839 10.3025L1.90492 10.3366L1.91839 10.3222V10.3025H1.86839ZM1.99822 10.0003L2.03342 10.0358L2.0336 10.0357L1.99822 10.0003ZM1.86837 10.3025L1.83185 10.2683L1.81837 10.2828V10.3025H1.86837ZM1.99736 10.6055L1.96181 10.6406L1.96198 10.6408L1.99736 10.6055ZM2.88257 11.4916L2.8472 11.5269L2.88257 11.5624L2.91795 11.5269L2.88257 11.4916ZM4.39332 9.97925L4.4287 10.0146L4.464 9.97925L4.4287 9.94392L4.39332 9.97925ZM3.50811 9.0931L3.47256 9.12827L3.47274 9.12844L3.50811 9.0931ZM2.9045 9.0931L2.93987 9.12844L2.93987 9.12844L2.9045 9.0931ZM5.61806 15.5082C6.80644 16.5415 8.27696 17.05 9.74641 17.05V16.95C8.3001 16.95 6.85314 16.4495 5.68368 15.4327L5.61806 15.5082ZM9.74641 17.05C11.3558 17.05 12.9664 16.44 14.2061 15.1989L14.1354 15.1282C12.9152 16.3498 11.3304 16.95 9.74641 16.95V17.05ZM14.2061 15.1989C16.5554 12.8472 16.6598 9.08434 14.5193 6.60717L14.4436 6.67255C16.5501 9.1104 16.4473 12.8138 14.1354 15.1282L14.2061 15.1989ZM14.4461 6.6045L13.8327 7.21791L13.9034 7.28862L14.5168 6.67521L14.4461 6.6045ZM13.8303 7.28602C15.6435 9.37767 15.5509 12.5652 13.5525 14.5449L13.6229 14.616C15.659 12.5989 15.7533 9.35161 13.9058 7.22051L13.8303 7.28602ZM13.5523 14.5451C11.5738 16.5257 8.38753 16.6168 6.29812 14.8179L6.23288 14.8937C8.36159 16.7264 11.6072 16.6338 13.6231 14.6158L13.5523 14.5451ZM6.23015 14.8205L5.61551 15.4351L5.68623 15.5058L6.30086 14.8912L6.23015 14.8205ZM4.98444 10.64L5.61107 11.2676L5.68183 11.1969L5.0552 10.5694L4.98444 10.64ZM3.54444 12.1524L5.05519 10.6401L4.98444 10.5694L3.47369 12.0817L3.54444 12.1524ZM4.17028 12.7084L3.54445 12.0817L3.47369 12.1524L4.09952 12.7791L4.17028 12.7084ZM3.55489 13.3945L4.17025 12.7791L4.09954 12.7084L3.48418 13.3238L3.55489 13.3945ZM2.54598 12.4553L3.48416 13.3945L3.55491 13.3238L2.61672 12.3846L2.54598 12.4553ZM2.52406 12.4334L2.54597 12.4553L2.61673 12.3846L2.59481 12.3627L2.52406 12.4334ZM2.50214 12.4114L2.52406 12.4334L2.59481 12.3627L2.57289 12.3407L2.50214 12.4114ZM1.33705 11.2451L2.50214 12.4114L2.57289 12.3407L1.4078 11.1744L1.33705 11.2451ZM1.33705 9.33799C0.820589 9.855 0.821621 10.7072 1.33632 11.2443L1.40852 11.1752C0.930098 10.6759 0.93113 9.88583 1.4078 9.40866L1.33705 9.33799ZM2.24333 8.43075L1.33705 9.33799L1.4078 9.40866L2.31407 8.50143L2.24333 8.43075ZM4.14856 8.43075C3.63207 7.91372 2.78063 7.91475 2.24407 8.43003L2.31333 8.50215C2.81202 8.02325 3.60117 8.02429 4.07781 8.50143L4.14856 8.43075ZM5.27066 9.55404L4.14856 8.43075L4.07781 8.50143L5.19991 9.62471L5.27066 9.55404ZM5.28129 9.55579C5.27364 9.55237 5.26626 9.54905 5.25801 9.54484L5.21255 9.63391C5.22333 9.63941 5.23283 9.64366 5.24041 9.64706L5.28129 9.55579ZM5.36583 9.63167C5.35482 9.61006 5.34219 9.59352 5.32556 9.58048C5.31026 9.56848 5.29352 9.56127 5.28129 9.55579L5.24041 9.64706C5.25498 9.65358 5.25992 9.65608 5.26386 9.65917C5.26647 9.66122 5.27066 9.66515 5.27672 9.67705L5.36583 9.63167ZM5.42156 9.70511C5.4007 9.68422 5.38412 9.66759 5.36583 9.63167L5.27672 9.67705C5.30227 9.72722 5.32784 9.75278 5.35082 9.77578L5.42156 9.70511ZM6.29699 10.5817L5.42157 9.70511L5.35081 9.77578L6.22623 10.6524L6.29699 10.5817ZM5.6818 11.2676L6.29696 10.6524L6.22625 10.5817L5.61109 11.1969L5.6818 11.2676ZM7.7531 13.3768C9.04989 14.3899 10.9175 14.2987 12.1123 13.1035L12.0416 13.0328C10.8828 14.1919 9.07202 14.2803 7.81466 13.298L7.7531 13.3768ZM12.1123 13.1035C13.3055 11.9091 13.3972 10.0414 12.3875 8.7426L12.3086 8.80398C13.2877 10.0634 13.1987 11.8744 12.0416 13.0328L12.1123 13.1035ZM12.3127 8.73794L11.6922 9.35842L11.7629 9.42913L12.3834 8.80865L12.3127 8.73794ZM11.6868 9.4228C12.3363 10.3336 12.2529 11.611 11.437 12.4278L11.5077 12.4984C12.3588 11.6465 12.4455 10.3146 11.7683 9.36475L11.6868 9.4228ZM11.437 12.4278C10.6205 13.2452 9.34331 13.3281 8.43334 12.6764L8.37511 12.7577C9.32418 13.4374 10.656 13.3511 11.5077 12.4984L11.437 12.4278ZM8.36887 12.6817L7.74852 13.3021L7.81923 13.3728L8.43958 12.7525L8.36887 12.6817ZM9.6657 7.28369L10.2808 6.66858L10.2101 6.59787L9.59499 7.21298L9.6657 7.28369ZM10.2808 6.59789L9.65154 5.96816L9.5808 6.03885L10.2101 6.66857L10.2808 6.59789ZM9.65154 6.03884L11.1623 4.52649L11.0915 4.45582L9.58079 5.96817L9.65154 6.03884ZM11.0916 4.5265L11.7216 5.15702L11.7924 5.08634L11.1623 4.45581L11.0916 4.5265ZM11.7924 5.15703L12.408 4.54136L12.3373 4.47065L11.7216 5.08632L11.7924 5.15703ZM12.408 4.47067L11.4858 3.54769L11.4151 3.61837L12.3373 4.54135L12.408 4.47067ZM11.4858 3.5477L11.4639 3.52575L11.3931 3.59643L11.4151 3.61837L11.4858 3.5477ZM11.4639 3.52575L10.2769 2.33748L10.2061 2.40815L11.3931 3.59643L11.4639 3.52575ZM10.2769 2.33748C9.76038 1.82044 8.90895 1.82148 8.37238 2.33675L8.44165 2.40888C8.94034 1.92998 9.72949 1.93101 10.2061 2.40815L10.2769 2.33748ZM8.37161 2.33751L7.46617 3.24559L7.53699 3.3162L8.44242 2.40812L8.37161 2.33751ZM7.46621 3.24556C6.94975 3.76256 6.95078 4.61481 7.46548 5.15191L7.53768 5.08272C7.05926 4.58348 7.06029 3.7934 7.53695 3.31623L7.46621 3.24556ZM7.46621 5.15266L8.58831 6.27594L8.65905 6.20527L7.53695 5.08198L7.46621 5.15266ZM8.58831 6.27594C8.59481 6.28245 8.60246 6.29356 8.61392 6.31078L8.69716 6.25535C8.68752 6.24089 8.67406 6.22029 8.65905 6.20527L8.58831 6.27594ZM8.61392 6.31078C8.62382 6.32564 8.63797 6.34736 8.65392 6.36271L8.72327 6.29067C8.71689 6.28453 8.70916 6.27337 8.69716 6.25535L8.61392 6.31078ZM8.65322 6.36202C8.67619 6.38502 8.70173 6.41063 8.75186 6.43621L8.79731 6.34714C8.76145 6.32883 8.74483 6.31224 8.72397 6.29135L8.65322 6.36202ZM8.73921 6.42701L9.59497 7.28367L9.66572 7.213L8.80996 6.35633L8.73921 6.42701ZM8.14058 3.92134L9.04685 3.0141L8.97611 2.94343L8.06983 3.85066L8.14058 3.92134ZM8.14066 4.45586C7.98807 4.30235 7.98807 4.07476 8.14066 3.92125L8.06974 3.85075C7.87837 4.04326 7.87837 4.33385 8.06974 4.52636L8.14066 4.45586ZM9.02579 5.34192L8.14058 4.45577L8.06983 4.52645L8.95504 5.4126L9.02579 5.34192ZM10.4658 3.82958L8.95504 5.34192L9.02579 5.4126L10.5365 3.90025L10.4658 3.82958ZM9.58058 3.0141L10.4658 3.90025L10.5365 3.82958L9.65133 2.94343L9.58058 3.0141ZM9.04685 3.0141C9.20158 2.85921 9.44855 2.8629 9.57827 3.01163L9.65363 2.9459C9.48156 2.74861 9.16703 2.7523 8.97611 2.94343L9.04685 3.0141ZM1.91839 10.3025C1.91839 10.2081 1.95586 10.1127 2.03342 10.0358L1.96302 9.96483C1.86692 10.0601 1.81839 10.1808 1.81839 10.3025H1.91839ZM1.9049 10.3366L1.90492 10.3366L1.83187 10.2683L1.83185 10.2683L1.9049 10.3366ZM2.0329 10.5703C1.95585 10.4924 1.91837 10.3969 1.91837 10.3025H1.81837C1.81837 10.4241 1.86688 10.5447 1.96181 10.6406L2.0329 10.5703ZM2.91795 11.4563L2.03273 10.5701L1.96198 10.6408L2.8472 11.5269L2.91795 11.4563ZM4.35795 9.94392L2.8472 11.4563L2.91795 11.5269L4.4287 10.0146L4.35795 9.94392ZM3.47274 9.12844L4.35795 10.0146L4.4287 9.94392L3.54348 9.05777L3.47274 9.12844ZM3.2063 9.01314C3.30056 9.01314 3.39576 9.05062 3.47256 9.12826L3.54366 9.05794C3.44849 8.96173 3.32786 8.91314 3.2063 8.91314V9.01314ZM2.93987 9.12844C3.01692 9.05131 3.11227 9.01314 3.2063 9.01314V8.91314C3.08454 8.91314 2.96407 8.96272 2.86913 9.05777L2.93987 9.12844ZM2.0336 10.0357L2.93987 9.12844L2.86913 9.05777L1.96285 9.965L2.0336 10.0357Z" fill="#F7F7F7" mask="url(#path-1-outside-1)"/>
</g>
<path fill-rule="evenodd" clip-rule="evenodd" d="M16.3536 2.64645C16.5488 2.84171 16.5488 3.15829 16.3536 3.35355L2.35355 17.3536C2.15829 17.5488 1.84171 17.5488 1.64645 17.3536C1.45118 17.1583 1.45118 16.8417 1.64645 16.6464L15.6464 2.64645C15.8417 2.45118 16.1583 2.45118 16.3536 2.64645Z" fill="#F7F7F7"/>
</svg>
