<svg width="18" height="18" viewBox="0 0 18 18" fill="none" xmlns="http://www.w3.org/2000/svg">
<path fill-rule="evenodd" clip-rule="evenodd" d="M16.497 15.111C16.507 15.168 16.531 15.221 16.531 15.281C16.531 15.833 16.084 16.281 15.531 16.281C15.498 16.281 15.471 16.265 15.438 16.262L15.43 16.294L1.722 13.072C1.722 13.071 1.722 13.07 1.722 13.069C1.308 12.947 1 12.579 1 12.125C1 11.572 1.447 11.125 2 11.125C2.053 11.125 2.099 11.147 2.15 11.155C2.154 11.144 2.156 11.132 2.16 11.121L6.084 12.043C7.029 9.29196 9.141 7.09496 11.832 6.01896L10.788 2.42196C10.762 2.36696 10.753 2.30696 10.737 2.24796L10.71 2.15196C10.712 2.15096 10.715 2.14996 10.717 2.14896C10.71 2.09796 10.687 2.05296 10.687 1.99996C10.687 1.44696 11.134 0.999962 11.687 0.999962C12.095 0.999962 12.441 1.24496 12.597 1.59496C12.608 1.59196 12.618 1.58896 12.628 1.58696L16.548 15.096L16.497 15.111V15.111ZM12.111 6.98299C9.76302 7.95199 7.91002 9.86999 7.05402 12.271L14.128 13.933L12.111 6.98299V6.98299Z" fill="#252525"/>
</svg>
