<svg width="18" height="18" viewBox="0 0 18 18" fill="none" xmlns="http://www.w3.org/2000/svg">
<path d="M11.4504 2.58303C11.4294 2.56193 11.4294 2.56193 11.4504 2.58303L11.4285 2.56109L10.2415 1.37282C9.74494 0.875728 8.92464 0.875728 8.40702 1.37282L7.50158 2.28089C7.00502 2.77798 7.00502 3.59914 7.50158 4.11732L8.62368 5.2406C8.6456 5.26255 8.66668 5.30559 8.68859 5.32669C8.71051 5.34863 8.73159 5.36973 8.77459 5.39167L11.4724 8.09229C12.4006 9.02148 12.4006 10.5339 11.4724 11.4631C10.5441 12.3923 9.03336 12.3923 8.10511 11.4631L5.38619 8.74044C5.36427 8.7185 5.34319 8.6974 5.32127 8.65436C5.29935 8.61132 5.27828 8.61132 5.23528 8.58938L4.11318 7.46609C3.61662 6.969 2.79633 6.969 2.2787 7.46609L1.37242 8.37333C0.87586 8.87042 0.87586 9.69158 1.37242 10.2098L2.53751 11.3761L2.55943 11.398L2.58135 11.42L5.32207 14.1636C6.55208 15.3949 8.14976 16 9.74641 16C11.3431 16 12.9408 15.3949 14.1707 14.1636C16.6097 11.722 16.6097 7.74711 14.1707 5.30553L11.4504 2.58303ZM8.1052 2.886L9.01148 1.97876C9.18431 1.80575 9.46505 1.80575 9.61595 1.97876L10.5012 2.86491L8.99042 4.37726L8.1052 3.49111C7.93322 3.3181 7.93322 3.05901 8.1052 2.886ZM1.86839 9.30246C1.86839 9.19444 1.91139 9.08641 1.99822 9.00034L2.9045 8.0931C2.99049 8.00702 3.0984 7.96314 3.2063 7.96314C3.31421 7.96314 3.42213 8.00618 3.50811 8.0931L4.39332 8.97925L2.88257 10.4916L1.99736 9.60545C1.91137 9.51853 1.86837 9.4105 1.86837 9.30249L1.86839 9.30246ZM13.5877 13.5805C11.4944 15.676 8.06225 15.676 5.969 13.5805L3.50907 11.1171L5.01982 9.60472L7.47975 12.0681C8.75275 13.3425 10.803 13.3425 12.077 12.0681C13.35 10.7938 13.35 8.74138 12.077 7.46604L9.61617 5.0035L11.1269 3.49115L13.5877 5.95369C15.7029 8.0492 15.7029 11.485 13.5877 13.5805Z" fill="#252525"/>
</svg>
