<svg width="18" height="18" viewBox="0 0 18 18" fill="none" xmlns="http://www.w3.org/2000/svg">
<path fill-rule="evenodd" clip-rule="evenodd" d="M14 11H18V15H14V11ZM15 14H17V12H15V14ZM15.988 3.383L15.796 3.576C15.733 3.662 15.661 3.733 15.575 3.796L14 5.372V10H9.371L3.796 15.576C3.733 15.662 3.661 15.733 3.575 15.796L3.383 15.989L3.328 15.934C3.224 15.97 3.116 16 3 16C2.447 16 2 15.552 2 15C2 14.884 2.029 14.776 2.066 14.672L2.012 14.617L2.204 14.425C2.267 14.338 2.339 14.267 2.425 14.204L8 8.629V4H12.629L14.204 2.424C14.267 2.338 14.339 2.267 14.425 2.204L14.617 2.011L14.672 2.066C14.776 2.03 14.884 2 15 2C15.553 2 16 2.448 16 3C16 3.116 15.971 3.224 15.934 3.328L15.988 3.383V3.383ZM9 9H13V5H9V9ZM10 6H12V8H10V6Z" fill="#FFAE93"/>
</svg>
