<svg width="18" height="18" viewBox="0 0 18 18" fill="none" xmlns="http://www.w3.org/2000/svg">
<path d="M11.4504 3.58303C11.4294 3.56193 11.4294 3.56193 11.4504 3.58303L11.4285 3.56109L10.2415 2.37282C9.74494 1.87573 8.92464 1.87573 8.40702 2.37282L7.50158 3.28089C7.00502 3.77798 7.00502 4.59914 7.50158 5.11732L8.62368 6.2406C8.6456 6.26255 8.66668 6.30559 8.68859 6.32669C8.71051 6.34863 8.73159 6.36973 8.77459 6.39167L11.4724 9.09229C12.4006 10.0215 12.4006 11.5339 11.4724 12.4631C10.5441 13.3923 9.03336 13.3923 8.10511 12.4631L5.38619 9.74044C5.36427 9.7185 5.34319 9.6974 5.32127 9.65436C5.29935 9.61132 5.27828 9.61132 5.23528 9.58938L4.11318 8.46609C3.61662 7.969 2.79633 7.969 2.2787 8.46609L1.37242 9.37333C0.87586 9.87042 0.87586 10.6916 1.37242 11.2098L2.53751 12.3761L2.55943 12.398L2.58135 12.42L5.32207 15.1636C6.55208 16.3949 8.14976 17 9.74641 17C11.3431 17 12.9408 16.3949 14.1707 15.1636C16.6097 12.722 16.6097 8.74711 14.1707 6.30553L11.4504 3.58303ZM8.1052 3.886L9.01148 2.97876C9.18431 2.80575 9.46505 2.80575 9.61595 2.97876L10.5012 3.86491L8.99042 5.37726L8.1052 4.49111C7.93322 4.3181 7.93322 4.05901 8.1052 3.886ZM1.86839 10.3025C1.86839 10.1944 1.91139 10.0864 1.99822 10.0003L2.9045 9.0931C2.99049 9.00702 3.0984 8.96314 3.2063 8.96314C3.31421 8.96314 3.42213 9.00618 3.50811 9.0931L4.39332 9.97925L2.88257 11.4916L1.99736 10.6055C1.91137 10.5185 1.86837 10.4105 1.86837 10.3025L1.86839 10.3025ZM13.5877 14.5805C11.4944 16.676 8.06225 16.676 5.969 14.5805L3.50907 12.1171L5.01982 10.6047L7.47975 13.0681C8.75275 14.3425 10.803 14.3425 12.077 13.0681C13.35 11.7938 13.35 9.74138 12.077 8.46604L9.61617 6.0035L11.1269 4.49115L13.5877 6.95369C15.7029 9.0492 15.7029 12.485 13.5877 14.5805Z" fill="#F7F7F7"/>
</svg>
