<svg width="18" height="18" viewBox="0 0 18 18" fill="none" xmlns="http://www.w3.org/2000/svg">
<path fill-rule="evenodd" clip-rule="evenodd" d="M13 14H5C4.448 14 4 13.552 4 13V4.99996C4 4.44796 4.448 3.99996 5 3.99996H13C13.552 3.99996 14 4.44796 14 4.99996V13C14 13.552 13.552 14 13 14V14ZM5 6.99996H7V4.99996H5V6.99996ZM5 9.99996H7V7.99996H5V9.99996ZM5 13H7V11H5V13ZM8 6.99996H10V4.99996H8V6.99996ZM8 9.99996H10V7.99996H8V9.99996ZM8 13H10V11H8V13ZM11 6.99996H13V4.99996H11V6.99996ZM11 9.99996H13V7.99996H11V9.99996ZM11 13H13V11H11V13Z" fill="#252525"/>
</svg>
