<svg width="18" height="18" viewBox="0 0 18 18" fill="none" xmlns="http://www.w3.org/2000/svg">
<g opacity="0.8">
<path opacity="0.4" fill-rule="evenodd" clip-rule="evenodd" d="M15.1309 4.1276C15.1309 5.8552 13.7293 7.2552 11.9996 7.2552C11.9914 7.2552 11.9832 7.25517 11.9749 7.25511C12.0765 6.89676 12.1309 6.51854 12.1309 6.12756C12.1309 4.36822 11.0294 2.86662 9.47852 2.27236C10.0487 1.50063 10.9655 1 11.9996 1C13.7293 1 15.1309 2.40053 15.1309 4.1276ZM14.8839 13.0015H16.7318C17.344 13.0015 18 12.5515 18 11.7572C18.0005 10.9624 17.0337 8.48376 12.0003 8.48376H12.0002C11.7873 8.48376 11.5818 8.4882 11.3832 8.49675C11.057 8.96094 10.6376 9.35488 10.1521 9.65149C13.1857 10.1618 14.5108 11.7382 14.8839 13.0015Z" fill="#252525"/>
<path fill-rule="evenodd" clip-rule="evenodd" d="M7.99966 9.2552C9.72928 9.2552 11.1309 7.8552 11.1309 6.1276C11.1309 4.40053 9.72928 3 7.99966 3C6.27004 3 4.86841 4.40053 4.86841 6.1276C4.86841 7.8552 6.27004 9.2552 7.99966 9.2552ZM2 13.7572C2 12.9624 2.96673 10.4838 8.0002 10.4838H8.00033C13.0338 10.4838 14.0005 12.9624 14 13.7572C14 14.5515 13.344 15.0015 12.7319 15.0015H3.26815C2.65598 15.0015 2 14.5515 2 13.7572Z" fill="#F7F7F7"/>
</g>
</svg>
