<svg width="18" height="18" viewBox="0 0 18 18" fill="none" xmlns="http://www.w3.org/2000/svg">
<path d="M8.5 6C8.22386 6 8 6.22386 8 6.5V9.5C8 9.77614 8.22386 10 8.5 10H10.5C10.7761 10 11 9.77614 11 9.5C11 9.22386 10.7761 9 10.5 9H9V6.5C9 6.22386 8.77614 6 8.5 6Z" fill="#F7F7F7"/>
<path fill-rule="evenodd" clip-rule="evenodd" d="M14 9C14 11.7614 11.7614 14 9 14C6.23858 14 4 11.7614 4 9C4 6.23858 6.23858 4 9 4C11.7614 4 14 6.23858 14 9ZM13 9C13 11.2091 11.2091 13 9 13C6.79086 13 5 11.2091 5 9C5 6.79086 6.79086 5 9 5C11.2091 5 13 6.79086 13 9Z" fill="#F7F7F7"/>
</svg>
