<svg width="18" height="18" viewBox="0 0 18 18" fill="none" xmlns="http://www.w3.org/2000/svg">
<path d="M5.5 7.5L5.14645 7.14645C5.05268 7.24021 5 7.36739 5 7.5H5.5ZM7.5 5.5V5C7.36739 5 7.24021 5.05268 7.14645 5.14645L7.5 5.5ZM12.5 5.5H13C13 5.22386 12.7761 5 12.5 5V5.5ZM10.5 12.5V13C10.6326 13 10.7598 12.9473 10.8536 12.8536L10.5 12.5ZM12.5 10.5L12.8536 10.8536C12.9473 10.7598 13 10.6326 13 10.5H12.5ZM5.5 12.5H5C5 12.7761 5.22386 13 5.5 13V12.5ZM5.5 8H10.5V7H5.5V8ZM7.5 6H12.5V5H7.5V6ZM10.8536 7.85355L12.8536 5.85355L12.1464 5.14645L10.1464 7.14645L10.8536 7.85355ZM5.85355 7.85355L7.85355 5.85355L7.14645 5.14645L5.14645 7.14645L5.85355 7.85355ZM10.8536 12.8536L12.8536 10.8536L12.1464 10.1464L10.1464 12.1464L10.8536 12.8536ZM5 7.5V12.5H6V7.5H5ZM5.5 13H10.5V12H5.5V13ZM11 12.5V7.5H10V12.5H11ZM13 10.5V5.5H12V10.5H13Z" fill="#545FD9"/>
</svg>
