<svg width="18" height="18" viewBox="0 0 18 18" fill="none" xmlns="http://www.w3.org/2000/svg">
<path d="M5.13672 13.1211C6.07812 13.1211 6.64063 12.6797 6.89844 12.1758H6.94531V13H8.30469V8.98437C8.30469 7.39844 7.01172 6.92188 5.86719 6.92188C4.60547 6.92188 3.63672 7.48437 3.32422 8.57812L4.64453 8.76562C4.78516 8.35547 5.18359 8.00391 5.875 8.00391C6.53125 8.00391 6.89063 8.33984 6.89063 8.92969V8.95312C6.89063 9.35938 6.46484 9.37891 5.40625 9.49219C4.24219 9.61719 3.12891 9.96484 3.12891 11.3164C3.12891 12.4961 3.99219 13.1211 5.13672 13.1211ZM5.50391 12.082C4.91406 12.082 4.49219 11.8125 4.49219 11.293C4.49219 10.75 4.96484 10.5234 5.59766 10.4336C5.96875 10.3828 6.71094 10.2891 6.89453 10.1406V10.8477C6.89453 11.5156 6.35547 12.082 5.50391 12.082ZM11.4531 13.1211C12.3945 13.1211 12.957 12.6797 13.2148 12.1758H13.2617V13H14.6211V8.98437C14.6211 7.39844 13.3281 6.92188 12.1836 6.92188C10.9219 6.92188 9.95312 7.48437 9.64063 8.57812L10.9609 8.76562C11.1016 8.35547 11.5 8.00391 12.1914 8.00391C12.8477 8.00391 13.207 8.33984 13.207 8.92969V8.95312C13.207 9.35938 12.7812 9.37891 11.7227 9.49219C10.5586 9.61719 9.44531 9.96484 9.44531 11.3164C9.44531 12.4961 10.3086 13.1211 11.4531 13.1211ZM11.8203 12.082C11.2305 12.082 10.8086 11.8125 10.8086 11.293C10.8086 10.75 11.2813 10.5234 11.9141 10.4336C12.2852 10.3828 13.0273 10.2891 13.2109 10.1406V10.8477C13.2109 11.5156 12.6719 12.082 11.8203 12.082Z" fill="#252525"/>
</svg>
