<svg width="18" height="18" viewBox="0 0 18 18" fill="none" xmlns="http://www.w3.org/2000/svg">
<path d="M3.67822 13L4.33838 11.0273H7.34619L8.01025 13H9.55713L6.73682 5H4.94775L2.13135 13H3.67822ZM4.729 9.86328L5.81104 6.64062H5.87354L6.95557 9.86328H4.729ZM12.2749 13.1211C13.2163 13.1211 13.7788 12.6797 14.0366 12.1758H14.0835V13H15.4429V8.98437C15.4429 7.39844 14.1499 6.92188 13.0054 6.92188C11.7437 6.92188 10.7749 7.48437 10.4624 8.57812L11.7827 8.76562C11.9233 8.35547 12.3218 8.00391 13.0132 8.00391C13.6694 8.00391 14.0288 8.33984 14.0288 8.92969V8.95312C14.0288 9.35938 13.603 9.37891 12.5444 9.49219C11.3804 9.61719 10.2671 9.96484 10.2671 11.3164C10.2671 12.4961 11.1304 13.1211 12.2749 13.1211ZM12.6421 12.082C12.0522 12.082 11.6304 11.8125 11.6304 11.293C11.6304 10.75 12.103 10.5234 12.7358 10.4336C13.1069 10.3828 13.8491 10.2891 14.0327 10.1406V10.8477C14.0327 11.5156 13.4937 12.082 12.6421 12.082Z" fill="#F7F7F7"/>
</svg>
