<svg width="18" height="18" viewBox="0 0 18 18" fill="none" xmlns="http://www.w3.org/2000/svg">
<path opacity="0.4" fill-rule="evenodd" clip-rule="evenodd" d="M8.05739 10.9153L4.72739 12.6153L4.27271 11.7247L7.60271 10.0247L8.05739 10.9153Z" fill="#F7F7F7"/>
<path opacity="0.4" fill-rule="evenodd" clip-rule="evenodd" d="M10.2739 1.05396L7.27393 2.57396L7.72589 3.46599L9.99991 2.31382V4.54997H10.9999V1.49997H10.4999L10.2739 1.05396Z" fill="#F7F7F7"/>
<path opacity="0.4" fill-rule="evenodd" clip-rule="evenodd" d="M10.5001 9.12004L10.5001 9.11999H10.5001L10.5001 9.12004ZM10.4999 9.68038L8.05571 10.9162L7.60449 10.0238L10.0001 8.8125V4.54999H11.0001V8.81281L13.7261 10.194L13.2742 11.086L10.4999 9.68038Z" fill="#F7F7F7"/>
<path opacity="0.4" fill-rule="evenodd" clip-rule="evenodd" d="M16.7273 11.7246L13.7273 10.1946L13.2729 11.0854L15.3967 12.1685L13.2741 13.244L13.7261 14.136L16.7261 12.616L16.5001 12.17L16.7273 11.7246Z" fill="#F7F7F7"/>
<path fill-rule="evenodd" clip-rule="evenodd" d="M4.49988 1L4.2739 1.94602L6.39649 3.02146L3.99988 4.24373V7.54373L1.72705 6.38458L1.06396 7.0749L4.13838 12.5474L10.4999 15.7705L12.9999 14.5038V17.5L13.9356 17.7452L16.9999 12.301V4.24327L10.6197 1H4.49988ZM9.25594 14.0192L4.86139 11.7926L2.74563 8.02661L4.99988 9.17627V9.17379L7.1386 10.2574L9.25594 14.0192ZM10.7009 14.5476L7.86122 9.50251L4.99988 8.05276V4.85627L7.49987 3.58128L10.3797 5.05H15.6447L12.9999 9.74895V13.3828L10.7009 14.5476ZM13.9999 12.8761V15.5923L15.9999 12.039V6.4577L13.9999 10.011L13.9999 12.8761ZM14.4129 4.05L10.3801 2H6.59301L8.60328 3.01854L8.60041 3.02001L10.62 4.05H14.4129Z" fill="#F7F7F7"/>
</svg>
