<svg width="18" height="18" viewBox="0 0 18 18" fill="none" xmlns="http://www.w3.org/2000/svg">
<path d="M4.55006 6.5H11.1101C11.4121 6.5 11.6591 6.82 11.6591 7.217C11.6591 7.613 11.4131 7.934 11.1091 7.934H4.55006C4.24706 7.934 4.00006 7.613 4.00006 7.217C4.00106 6.82 4.24806 6.5 4.55106 6.5H4.55006Z" fill="#F7F7F7"/>
<path d="M4.55604 3H14.339C14.643 3 14.889 3.321 14.889 3.717C14.889 4.114 14.643 4.434 14.339 4.434H4.55604C4.25304 4.434 4.00604 4.114 4.00604 3.717C4.00604 3.321 4.25304 3 4.55604 3Z" fill="#F7F7F7"/>
<path d="M4.55604 10.1H14.339C14.643 10.1 14.889 10.421 14.889 10.817C14.889 11.214 14.643 11.534 14.339 11.534H4.55604C4.25304 11.534 4.00604 11.214 4.00604 10.817C4.00604 10.421 4.25304 10.1 4.55604 10.1Z" fill="#F7F7F7"/>
<path d="M4.55006 13.6H11.1101C11.4121 13.6 11.6591 13.92 11.6591 14.317C11.6591 14.713 11.4131 15.034 11.1091 15.034H4.55006C4.24706 15.034 4.00006 14.713 4.00006 14.317C4.00106 13.92 4.24806 13.6 4.55106 13.6H4.55006Z" fill="#F7F7F7"/>
</svg>
