<svg width="18" height="18" viewBox="0 0 18 18" fill="none" xmlns="http://www.w3.org/2000/svg">
<rect x="5.84033" y="1.72485" width="7.89591" height="10.6694" transform="rotate(24.599 5.84033 1.72485)" fill="url(#paint0_linear)"/>
<path d="M7 8L2 2H11L16 8H7Z" fill="#F7F7F7"/>
<path d="M5 16.5C6.933 16.5 8.5 14.933 8.5 13C8.5 11.067 6.933 9.5 5 9.5C3.067 9.5 1.5 11.067 1.5 13C1.5 14.933 3.067 16.5 5 16.5Z" fill="#FFAE93"/>
<path fill-rule="evenodd" clip-rule="evenodd" d="M5 10C3.34315 10 2 11.3431 2 13C2 14.6569 3.34315 16 5 16C6.65685 16 8 14.6569 8 13C8 11.3431 6.65685 10 5 10ZM1 13C1 10.7909 2.79086 9 5 9C7.20914 9 9 10.7909 9 13C9 15.2091 7.20914 17 5 17C2.79086 17 1 15.2091 1 13Z" fill="#252525"/>
<path d="M5.12012 2L6.85013 4H9.43011L7.71013 2H5.12012Z" fill="#252525"/>
<path d="M4.26001 4L5.99002 6H8.57002L6.85002 4H4.26001Z" fill="#252525"/>
<path d="M9.42993 4L11.1499 6H13.7399L12.0099 4H9.42993Z" fill="#252525"/>
<path d="M8.57007 6L10.2901 8H12.8801L11.1501 6H8.57007Z" fill="#252525"/>
<path fill-rule="evenodd" clip-rule="evenodd" d="M1.12109 1.82633L1.49992 1H10.6991L16.8787 8.17367L16.4999 9H7.3007L1.12109 1.82633ZM2.59057 2L7.75914 8H15.4093L10.2407 2H2.59057Z" fill="#252525"/>
<path fill-rule="evenodd" clip-rule="evenodd" d="M4.5 11.25C4.5 10.9739 4.72386 10.75 5 10.75C5.59674 10.75 6.16904 10.9871 6.591 11.409C7.01295 11.831 7.25 12.4033 7.25 13C7.25 13.2761 7.02614 13.5 6.75 13.5C6.47386 13.5 6.25 13.2761 6.25 13C6.25 12.6685 6.11831 12.3505 5.88389 12.1161C5.64947 11.8817 5.33152 11.75 5 11.75C4.72386 11.75 4.5 11.5261 4.5 11.25Z" fill="#F7F7F7"/>
<defs>
<linearGradient id="paint0_linear" x1="9.78829" y1="1.72485" x2="9.78829" y2="12.3942" gradientUnits="userSpaceOnUse">
<stop stop-color="#050505"/>
<stop offset="1" stop-color="#9E9E9E" stop-opacity="0"/>
</linearGradient>
</defs>
</svg>
