<svg width="18" height="18" viewBox="0 0 18 18" fill="none" xmlns="http://www.w3.org/2000/svg">
<path d="M5.66503 6.5H11.605C11.88 6.5 12.103 6.82 12.103 7.217C12.103 7.613 11.88 7.934 11.605 7.934H5.66503C5.39003 7.934 5.16703 7.613 5.16703 7.217C5.16703 6.82 5.39003 6.5 5.66503 6.5Z" fill="#545FD9"/>
<path d="M3.55006 3H13.3331C13.6371 3 13.8831 3.321 13.8831 3.717C13.8831 4.114 13.6371 4.434 13.3331 4.434H3.55006C3.24706 4.434 3.00006 4.114 3.00006 3.717C3.00006 3.321 3.24706 3 3.55006 3Z" fill="#545FD9"/>
<path d="M3.55006 10.1H13.3331C13.6371 10.1 13.8831 10.421 13.8831 10.817C13.8831 11.214 13.6371 11.534 13.3331 11.534H3.55006C3.24706 11.534 3.00006 11.214 3.00006 10.817C3.00006 10.421 3.24706 10.1 3.55006 10.1Z" fill="#545FD9"/>
<path d="M5.66503 13.6H11.605C11.88 13.6 12.103 13.92 12.103 14.317C12.103 14.713 11.88 15.034 11.605 15.034H5.66503C5.39003 15.034 5.16703 14.713 5.16703 14.317C5.16703 13.92 5.39003 13.6 5.66503 13.6Z" fill="#545FD9"/>
</svg>
