<svg width="18" height="18" viewBox="0 0 18 18" fill="none" xmlns="http://www.w3.org/2000/svg">
<path d="M4.55006 3H14.3331C14.6371 3 14.8831 3.321 14.8831 3.717C14.8831 4.114 14.6371 4.434 14.3331 4.434H4.55006C4.24706 4.434 4.00006 4.114 4.00006 3.717C4.00006 3.321 4.24706 3 4.55006 3Z" fill="#F7F7F7"/>
<path d="M4.55006 6.5H14.3331C14.6371 6.5 14.8831 6.821 14.8831 7.217C14.8831 7.614 14.6371 7.934 14.3331 7.934H4.55006C4.24706 7.934 4.00006 7.614 4.00006 7.217C4.00006 6.821 4.24706 6.5 4.55006 6.5Z" fill="#F7F7F7"/>
<path d="M4.55006 13.5H14.3331C14.6371 13.5 14.8831 13.821 14.8831 14.217C14.8831 14.614 14.6371 14.934 14.3331 14.934H4.55006C4.24706 14.934 4.00006 14.614 4.00006 14.217C4.00006 13.821 4.24706 13.5 4.55006 13.5Z" fill="#F7F7F7"/>
<path d="M4.55006 10.1001H14.3331C14.6371 10.1001 14.8831 10.4211 14.8831 10.8171C14.8831 11.2141 14.6371 11.5341 14.3331 11.5341H4.55006C4.24706 11.5341 4.00006 11.2141 4.00006 10.8171C4.00006 10.4211 4.24706 10.1001 4.55006 10.1001Z" fill="#F7F7F7"/>
</svg>
