<svg width="18" height="18" viewBox="0 0 18 18" fill="none" xmlns="http://www.w3.org/2000/svg">
<rect opacity="0.8" x="3" y="3" width="3" height="3" fill="#F7F7F7"/>
<rect x="6" y="3" width="3" height="3" fill="#252525"/>
<rect opacity="0.8" x="9" y="3" width="3" height="3" fill="#F7F7F7"/>
<rect x="3" y="6" width="3" height="3" fill="#252525"/>
<rect opacity="0.8" x="6" y="6" width="3" height="3" fill="#F7F7F7"/>
<rect x="9" y="6" width="3" height="3" fill="#252525"/>
<rect opacity="0.8" x="3" y="9" width="3" height="3" fill="#F7F7F7"/>
<rect x="6" y="9" width="3" height="3" fill="#252525"/>
<rect x="12" y="3" width="3" height="3" fill="#252525"/>
<rect opacity="0.8" x="12" y="6" width="3" height="3" fill="#F7F7F7"/>
<rect x="3" y="12" width="3" height="3" fill="#252525"/>
<rect opacity="0.8" x="6" y="12" width="3" height="3" fill="#F7F7F7"/>
<rect x="9" y="12" width="3" height="3" fill="#252525"/>
<rect opacity="0.8" x="12" y="12" width="3" height="3" fill="#F7F7F7"/>
<rect x="12" y="9" width="3" height="3" fill="#252525"/>
<rect opacity="0.8" x="9" y="9" width="3" height="3" fill="#F7F7F7"/>
<rect x="2.5" y="2.5" width="13" height="13" rx="1.5" stroke="#FFAE93"/>
</svg>
