<svg width="18" height="18" viewBox="0 0 18 18" fill="none" xmlns="http://www.w3.org/2000/svg">
<rect x="4" y="6" width="10" height="8" fill="#252525"/>
<path d="M8 6H6V8H8V6Z" fill="#F7F7F7"/>
<path d="M6 8H4V10H6V8Z" fill="#F7F7F7"/>
<path d="M10 8H8V10H10V8Z" fill="#F7F7F7"/>
<path d="M8 10H6V12H8V10Z" fill="#F7F7F7"/>
<path d="M12 6H10V8H12V6Z" fill="#F7F7F7"/>
<path d="M6 12H4V14H6V12Z" fill="#F7F7F7"/>
<path d="M10 12H8V14H10V12Z" fill="#F7F7F7"/>
<path d="M12 10H10V12H12V10Z" fill="#F7F7F7"/>
<path d="M14 8H12V10H14V8Z" fill="#F7F7F7"/>
<path d="M14 12H12V14H14V12Z" fill="#F7F7F7"/>
<path d="M14.65 2C15.0072 2.00262 15.3491 2.14569 15.6017 2.3983C15.8543 2.65091 15.9974 2.99276 16 3.35V14.65C15.9974 15.0072 15.8543 15.3491 15.6017 15.6017C15.3491 15.8543 15.0072 15.9974 14.65 16H3.35C2.99276 15.9974 2.65091 15.8543 2.3983 15.6017C2.14569 15.3491 2.00262 15.0072 2 14.65V3.35C2.00262 2.99276 2.14569 2.65091 2.3983 2.3983C2.65091 2.14569 2.99276 2.00262 3.35 2H14.65V2ZM14.65 1H3.35C2.72674 1 2.12901 1.24759 1.6883 1.6883C1.24759 2.12901 1 2.72674 1 3.35V14.65C1 15.2733 1.24759 15.871 1.6883 16.3117C2.12901 16.7524 2.72674 17 3.35 17H14.65C15.2733 17 15.871 16.7524 16.3117 16.3117C16.7524 15.871 17 15.2733 17 14.65V3.35C17 2.72674 16.7524 2.12901 16.3117 1.6883C15.871 1.24759 15.2733 1 14.65 1V1Z" fill="#FFAE93"/>
<path d="M13.37 6C13.5371 6 13.6973 6.06638 13.8155 6.18452C13.9336 6.30267 14 6.46291 14 6.63V13.37C14 13.5371 13.9336 13.6973 13.8155 13.8155C13.6973 13.9336 13.5371 14 13.37 14H4.63C4.46291 14 4.30267 13.9336 4.18452 13.8155C4.06638 13.6973 4 13.5371 4 13.37V6.63C4 6.46291 4.06638 6.30267 4.18452 6.18452C4.30267 6.06638 4.46291 6 4.63 6H13.37V6ZM13.37 5H4.63C4.19769 5 3.7831 5.17173 3.47742 5.47742C3.17173 5.7831 3 6.1977 3 6.63V13.37C3 13.8023 3.17173 14.2169 3.47742 14.5226C3.7831 14.8283 4.19769 15 4.63 15H13.37C13.5841 15 13.796 14.9578 13.9938 14.8759C14.1915 14.794 14.3712 14.6739 14.5226 14.5226C14.6739 14.3712 14.794 14.1915 14.8759 13.9938C14.9578 13.796 15 13.5841 15 13.37V6.63C15 6.1977 14.8283 5.7831 14.5226 5.47742C14.2169 5.17173 13.8023 5 13.37 5V5Z" fill="#FFAE93"/>
<path d="M4.49996 4.29002C4.93627 4.29002 5.28996 3.93633 5.28996 3.50002C5.28996 3.06372 4.93627 2.71002 4.49996 2.71002C4.06366 2.71002 3.70996 3.06372 3.70996 3.50002C3.70996 3.93633 4.06366 4.29002 4.49996 4.29002Z" fill="#FFAE93"/>
<path d="M7.49996 4.29002C7.93627 4.29002 8.28996 3.93633 8.28996 3.50002C8.28996 3.06372 7.93627 2.71002 7.49996 2.71002C7.06366 2.71002 6.70996 3.06372 6.70996 3.50002C6.70996 3.93633 7.06366 4.29002 7.49996 4.29002Z" fill="#FFAE93"/>
<path d="M10.5 4.29002C10.9363 4.29002 11.29 3.93633 11.29 3.50002C11.29 3.06372 10.9363 2.71002 10.5 2.71002C10.0637 2.71002 9.70996 3.06372 9.70996 3.50002C9.70996 3.93633 10.0637 4.29002 10.5 4.29002Z" fill="#FFAE93"/>
<path d="M13.5 4.29002C13.9363 4.29002 14.29 3.93633 14.29 3.50002C14.29 3.06372 13.9363 2.71002 13.5 2.71002C13.0637 2.71002 12.71 3.06372 12.71 3.50002C12.71 3.93633 13.0637 4.29002 13.5 4.29002Z" fill="#FFAE93"/>
</svg>
