<svg width="18" height="18" viewBox="0 0 18 18" fill="none" xmlns="http://www.w3.org/2000/svg">
<g clip-path="url(#clip0)">
<path d="M13.899 6.5H7.33904C7.03704 6.5 6.79004 6.82 6.79004 7.217C6.79004 7.613 7.03604 7.934 7.34004 7.934H13.899C14.202 7.934 14.449 7.613 14.449 7.217C14.448 6.82 14.201 6.5 13.898 6.5H13.899Z" fill="#252525"/>
<path d="M13.9029 3H4.11995C3.81595 3 3.56995 3.321 3.56995 3.717C3.56995 4.114 3.81595 4.434 4.11995 4.434H13.9029C14.2059 4.434 14.4529 4.114 14.4529 3.717C14.4529 3.321 14.2059 3 13.9029 3Z" fill="#252525"/>
<path d="M13.9029 10.1H4.11995C3.81595 10.1 3.56995 10.421 3.56995 10.817C3.56995 11.214 3.81595 11.534 4.11995 11.534H13.9029C14.2059 11.534 14.4529 11.214 14.4529 10.817C14.4529 10.421 14.2059 10.1 13.9029 10.1Z" fill="#252525"/>
<path d="M13.899 13.6H7.33904C7.03704 13.6 6.79004 13.92 6.79004 14.317C6.79004 14.713 7.03604 15.034 7.34004 15.034H13.899C14.202 15.034 14.449 14.713 14.449 14.317C14.448 13.92 14.201 13.6 13.898 13.6H13.899Z" fill="#252525"/>
</g>
<defs>
<clipPath id="clip0">
<rect width="12" height="12" fill="white" transform="translate(3 3)"/>
</clipPath>
</defs>
</svg>
