<svg width="18" height="18" viewBox="0 0 18 18" fill="none" xmlns="http://www.w3.org/2000/svg">
<path fill-rule="evenodd" clip-rule="evenodd" d="M5 3C5 2.44772 5.44772 2 6 2H7C7.55228 2 8 2.44772 8 3V4C8 4.55228 7.55228 5 7 5H6C5.44772 5 5 4.55228 5 4V3Z" fill="#545FD9"/>
<path fill-rule="evenodd" clip-rule="evenodd" d="M5 11C5 10.4477 5.44772 10 6 10H7C7.55228 10 8 10.4477 8 11V12C8 12.5523 7.55228 13 7 13H6C5.44772 13 5 12.5523 5 12V11Z" fill="#545FD9"/>
<path fill-rule="evenodd" clip-rule="evenodd" d="M13 11C13 10.4477 13.4477 10 14 10H15C15.5523 10 16 10.4477 16 11V12C16 12.5523 15.5523 13 15 13H14C13.4477 13 13 12.5523 13 12V11Z" fill="#545FD9"/>
<path d="M6.5 5.5V11.5" stroke="#545FD9" stroke-linecap="square"/>
<path d="M12.5 11.5H6.5" stroke="#545FD9" stroke-linecap="square"/>
<path fill-rule="evenodd" clip-rule="evenodd" d="M2 11.5C2 9.54067 3.25221 7.87381 5 7.25606V8.33681C3.81753 8.89855 3 10.1038 3 11.5C3 13.433 4.567 15 6.5 15C7.91584 15 9.13533 14.1593 9.68651 12.9499C9.78511 12.9824 9.8905 13 10 13H10.7439C10.1262 14.7478 8.45933 16 6.5 16C4.01472 16 2 13.9853 2 11.5ZM10.7439 10C10.292 8.72138 9.27862 7.70799 8 7.25606V8.33681C8.74448 8.69048 9.3443 9.29923 9.68651 10.0501C9.78511 10.0176 9.8905 10 10 10H10.7439Z" fill="#545FD9"/>
<path d="M12.8086 8.4248V2H14.1709V7.2998H16.7769V8.4248H12.8086Z" fill="#545FD9"/>
</svg>
