<svg width="18" height="18" viewBox="0 0 18 18" fill="none" xmlns="http://www.w3.org/2000/svg">
<path fill-rule="evenodd" clip-rule="evenodd" d="M15 15H14C13.447 15 13 14.552 13 14V13.524L13.06 13.3L8.5 11.043L3.939 13.3L4 13.524V14C4 14.552 3.553 15 3 15H2C1.447 15 1 14.552 1 14V13C1 12.448 1.447 12 2 12H3C3.257 12 3.484 12.103 3.662 12.263L3.69 12.368L8 10.235V5C7.447 5 7 4.552 7 4V3C7 2.448 7.447 2 8 2H9C9.553 2 10 2.448 10 3V4C10 4.552 9.553 5 9 5V10.235L13.31 12.368L13.338 12.263C13.515 12.103 13.743 12 14 12H15C15.553 12 16 12.448 16 13V14C16 14.552 15.553 15 15 15V15ZM10 8.51098V7.34998C11.144 7.89598 11.935 9.03998 11.982 10.38L10.952 10.104C10.846 9.45698 10.503 8.89098 10 8.51098V8.51098ZM7.00007 8.51098C6.49707 8.89098 6.15407 9.45698 6.04807 10.104L5.01807 10.38C5.06407 9.03998 5.85607 7.89598 7.00007 7.34998V8.51098V8.51098ZM8.50009 13C8.83909 13 9.16109 12.931 9.45509 12.809L10.7541 13.157C10.1441 13.675 9.36309 14 8.50009 14C7.63709 14 6.85609 13.675 6.24609 13.157L7.54409 12.809C7.83909 12.931 8.16109 13 8.50009 13V13Z" fill="#FFAE93"/>
<path d="M15.2476 4.90918H17.7964V8.24023C17.3833 8.375 16.9937 8.46875 16.6274 8.52148C16.2642 8.57715 15.8921 8.60498 15.5112 8.60498C14.5415 8.60498 13.8003 8.3208 13.2876 7.75244C12.7778 7.18115 12.5229 6.3623 12.5229 5.2959C12.5229 4.25879 12.8188 3.4502 13.4106 2.87012C14.0054 2.29004 14.8286 2 15.8804 2C16.5396 2 17.1753 2.13184 17.7876 2.39551L17.335 3.48535C16.8662 3.25098 16.3784 3.13379 15.8716 3.13379C15.2827 3.13379 14.811 3.33154 14.4565 3.72705C14.1021 4.12256 13.9248 4.6543 13.9248 5.32227C13.9248 6.01953 14.0669 6.55273 14.3511 6.92188C14.6382 7.28809 15.0542 7.47119 15.5991 7.47119C15.8833 7.47119 16.1719 7.44189 16.4648 7.3833V6.04297H15.2476V4.90918Z" fill="#FFAE93"/>
</svg>
