<svg width="18" height="18" viewBox="0 0 18 18" fill="none" xmlns="http://www.w3.org/2000/svg">
<path fill-rule="evenodd" clip-rule="evenodd" d="M15 15H14C13.447 15 13 14.552 13 14V13.524L13.06 13.3L8.5 11.043L3.939 13.3L4 13.524V14C4 14.552 3.553 15 3 15H2C1.447 15 1 14.552 1 14V13C1 12.448 1.447 12 2 12H3C3.257 12 3.484 12.103 3.662 12.263L3.69 12.368L8 10.235V5C7.447 5 7 4.552 7 4V3C7 2.448 7.447 2 8 2H9C9.553 2 10 2.448 10 3V4C10 4.552 9.553 5 9 5V10.235L13.31 12.368L13.338 12.263C13.515 12.103 13.743 12 14 12H15C15.553 12 16 12.448 16 13V14C16 14.552 15.553 15 15 15V15ZM10 8.511V7.35C11.144 7.896 11.935 9.04 11.982 10.38L10.952 10.104C10.846 9.457 10.503 8.891 10 8.511V8.511ZM7 8.511C6.497 8.891 6.154 9.457 6.048 10.104L5.018 10.38C5.064 9.04 5.856 7.896 7 7.35V8.511V8.511ZM8.5 13C8.839 13 9.161 12.931 9.455 12.809L10.754 13.157C10.144 13.675 9.363 14 8.5 14C7.637 14 6.856 13.675 6.246 13.157L7.544 12.809C7.839 12.931 8.161 13 8.5 13V13Z" fill="#545FD9"/>
</svg>
