<svg width="18" height="18" viewBox="0 0 18 18" fill="none" xmlns="http://www.w3.org/2000/svg">
<path opacity="0.4" d="M3 14L9 12L15 14" stroke="#252525"/>
<path d="M3.48 3.90909L3.25459 3.46278L2.81186 3.68638L3.03189 4.1309L3.48 3.90909ZM9.24 1L9.46541 0.553692L9.24 0.439849L9.01459 0.553692L9.24 1ZM15 3.90909L15.5 3.90909L15.5 3.60147L15.2254 3.46278L15 3.90909ZM8.76 17L8.53459 17.4463L8.76 17.5602L8.98541 17.4463L8.76 17ZM14.52 14.0909L14.7454 14.5372L15.1242 14.3459L14.997 13.9411L14.52 14.0909ZM3 14.0909L2.55189 13.8691L2.33186 14.3136L2.77459 14.5372L3 14.0909ZM14.2502 10.1857C14.2502 9.90959 14.0264 9.68573 13.7502 9.68573C13.4741 9.68573 13.2502 9.90959 13.2502 10.1857L14.2502 10.1857ZM9.46541 6.37187L3.70541 3.46278L3.25459 4.3554L9.01459 7.26449L9.46541 6.37187ZM3.70541 4.3554L9.46541 1.44631L9.01459 0.553692L3.25459 3.46278L3.70541 4.3554ZM9.01459 1.44631L14.7746 4.3554L15.2254 3.46278L9.46541 0.553692L9.01459 1.44631ZM14.7746 3.46278L9.01459 6.37187L9.46541 7.26449L15.2254 4.3554L14.7746 3.46278ZM8.98541 17.4463L14.7454 14.5372L14.2946 13.6446L8.53459 16.5537L8.98541 17.4463ZM8.98541 16.5537L3.22541 13.6446L2.77459 14.5372L8.53459 17.4463L8.98541 16.5537ZM3.22541 14.5372C4.24589 14.0218 5.6113 13.0138 6.84379 11.7067C8.07616 10.3996 9.21168 8.75534 9.72112 6.95427L8.75888 6.68209C8.30832 8.27499 7.28384 9.78224 6.11621 11.0206C4.9487 12.2589 3.67411 13.1903 2.77459 13.6446L3.22541 14.5372ZM14.5 3.90909C14.5 6.72976 13.5668 12.3788 8.44148 16.6146L9.07852 17.3854C14.5132 12.894 15.5 6.90661 15.5 3.90909L14.5 3.90909ZM14.52 14.0909C14.997 13.9411 14.997 13.9411 14.997 13.9411C14.997 13.9411 14.997 13.9411 14.997 13.9411C14.997 13.9411 14.997 13.941 14.997 13.9409C14.9969 13.9408 14.9968 13.9404 14.9967 13.9399C14.9964 13.939 14.9959 13.9374 14.9952 13.9353C14.9939 13.9311 14.9919 13.9245 14.9892 13.9158C14.9838 13.8985 14.9759 13.8724 14.9657 13.8385C14.9452 13.7707 14.9158 13.6716 14.8805 13.5479C14.8097 13.3002 14.7153 12.9552 14.6211 12.5661C14.4293 11.7745 14.2502 10.8485 14.2502 10.1857L13.2502 10.1857C13.2502 10.9775 13.456 12.0041 13.6492 12.8015C13.7474 13.2069 13.8454 13.5654 13.919 13.8227C13.9558 13.9514 13.9865 14.0551 14.0082 14.127C14.019 14.163 14.0276 14.191 14.0335 14.2102C14.0365 14.2198 14.0388 14.2273 14.0404 14.2324C14.0412 14.2349 14.0418 14.2369 14.0422 14.2383C14.0424 14.239 14.0426 14.2396 14.0427 14.24C14.0428 14.2402 14.0429 14.2403 14.0429 14.2405C14.0429 14.2405 14.0429 14.2406 14.0429 14.2406C14.043 14.2407 14.043 14.2407 14.52 14.0909ZM3.03189 4.1309C3.45545 4.98658 3.6996 6.70206 3.64024 8.62092C3.58133 10.5252 3.22709 12.5051 2.55189 13.8691L3.44811 14.3127C4.21291 12.7677 4.57867 10.6264 4.63976 8.65185C4.7004 6.69193 4.46455 4.77103 3.92811 3.68728L3.03189 4.1309Z" fill="#252525"/>
<path d="M3.48 3.90909L3.25459 3.46278L2.81186 3.68638L3.03189 4.1309L3.48 3.90909ZM9.24 1L9.46541 0.553692L9.24 0.439849L9.01459 0.553692L9.24 1ZM15 3.90909L15.5 3.90909L15.5 3.60147L15.2254 3.46278L15 3.90909ZM8.76 17L8.53459 17.4463L8.76 17.5602L8.98541 17.4463L8.76 17ZM14.52 14.0909L14.7454 14.5372L15.1242 14.3459L14.997 13.9411L14.52 14.0909ZM3 14.0909L2.55189 13.8691L2.33186 14.3136L2.77459 14.5372L3 14.0909ZM14.2502 10.1857C14.2502 9.90959 14.0264 9.68573 13.7502 9.68573C13.4741 9.68573 13.2502 9.90959 13.2502 10.1857L14.2502 10.1857ZM9.46541 6.37187L3.70541 3.46278L3.25459 4.3554L9.01459 7.26449L9.46541 6.37187ZM3.70541 4.3554L9.46541 1.44631L9.01459 0.553692L3.25459 3.46278L3.70541 4.3554ZM9.01459 1.44631L14.7746 4.3554L15.2254 3.46278L9.46541 0.553692L9.01459 1.44631ZM14.7746 3.46278L9.01459 6.37187L9.46541 7.26449L15.2254 4.3554L14.7746 3.46278ZM8.98541 17.4463L14.7454 14.5372L14.2946 13.6446L8.53459 16.5537L8.98541 17.4463ZM8.98541 16.5537L3.22541 13.6446L2.77459 14.5372L8.53459 17.4463L8.98541 16.5537ZM3.22541 14.5372C4.24589 14.0218 5.6113 13.0138 6.84379 11.7067C8.07616 10.3996 9.21168 8.75534 9.72112 6.95427L8.75888 6.68209C8.30832 8.27499 7.28384 9.78224 6.11621 11.0206C4.9487 12.2589 3.67411 13.1903 2.77459 13.6446L3.22541 14.5372ZM14.5 3.90909C14.5 6.72976 13.5668 12.3788 8.44148 16.6146L9.07852 17.3854C14.5132 12.894 15.5 6.90661 15.5 3.90909L14.5 3.90909ZM14.52 14.0909C14.997 13.9411 14.997 13.9411 14.997 13.9411C14.997 13.9411 14.997 13.9411 14.997 13.9411C14.997 13.9411 14.997 13.941 14.997 13.9409C14.9969 13.9408 14.9968 13.9404 14.9967 13.9399C14.9964 13.939 14.9959 13.9374 14.9952 13.9353C14.9939 13.9311 14.9919 13.9245 14.9892 13.9159C14.9838 13.8985 14.9759 13.8724 14.9657 13.8385C14.9452 13.7707 14.9158 13.6716 14.8805 13.5479C14.8097 13.3002 14.7153 12.9552 14.6211 12.5661C14.4293 11.7745 14.2502 10.8485 14.2502 10.1857L13.2502 10.1857C13.2502 10.9775 13.456 12.0041 13.6492 12.8015C13.7474 13.2069 13.8454 13.5654 13.919 13.8227C13.9558 13.9514 13.9865 14.0551 14.0082 14.127C14.019 14.163 14.0276 14.191 14.0335 14.2102C14.0365 14.2198 14.0388 14.2273 14.0404 14.2324C14.0412 14.2349 14.0418 14.2369 14.0422 14.2383C14.0424 14.239 14.0426 14.2396 14.0427 14.24C14.0428 14.2402 14.0429 14.2403 14.0429 14.2405C14.0429 14.2405 14.0429 14.2406 14.0429 14.2406C14.043 14.2407 14.043 14.2407 14.52 14.0909ZM3.03189 4.1309C3.45545 4.98658 3.6996 6.70206 3.64024 8.62092C3.58133 10.5252 3.22709 12.5051 2.55189 13.8691L3.44811 14.3127C4.21291 12.7677 4.57867 10.6264 4.63976 8.65185C4.7004 6.69193 4.46455 4.77103 3.92811 3.68728L3.03189 4.1309Z" fill="#252525"/>
</svg>
