<svg width="18" height="72" viewBox="0 0 18 72" fill="none" xmlns="http://www.w3.org/2000/svg">
<path d="M15 14H15.5C15.5 13.9251 15.4832 13.8512 15.4508 13.7836L15 14ZM3 14L2.54924 13.7836C2.51683 13.8512 2.5 13.9251 2.5 14H3ZM9 1.5L9.45076 1.28363L9 0.344548L8.54924 1.28363L9 1.5ZM6 16.1655L5.88284 16.6516L6 16.1655ZM14.5 14C14.5 14.171 14.4189 14.3792 14.1776 14.6169C13.9345 14.8564 13.5571 15.0951 13.0503 15.3062C12.0391 15.7276 10.6073 16 9 16V17C10.7064 17 12.2747 16.7128 13.4349 16.2293C14.014 15.988 14.5153 15.688 14.8794 15.3293C15.2453 14.9689 15.5 14.5194 15.5 14H14.5ZM8.54924 1.28363L2.54924 13.7836L3.45076 14.2164L9.45076 1.71637L8.54924 1.28363ZM15.4508 13.7836L9.45076 1.28363L8.54924 1.71637L14.5492 14.2164L15.4508 13.7836ZM9 16C7.9429 16 6.95788 15.8821 6.11716 15.6795L5.88284 16.6516C6.80716 16.8744 7.87137 17 9 17V16ZM6.11716 15.6795C5.2576 15.4723 4.57303 15.1824 4.11608 14.8594C3.64965 14.5297 3.5 14.2277 3.5 14H2.5C2.5 14.6977 2.95365 15.2623 3.53887 15.676C4.13356 16.0963 4.94899 16.4265 5.88284 16.6516L6.11716 15.6795Z" fill="#252525"/>
<path d="M15 32H15.5C15.5 31.9251 15.4832 31.8512 15.4508 31.7836L15 32ZM3 32L2.54924 31.7836C2.51683 31.8512 2.5 31.9251 2.5 32H3ZM9 19.5L9.45076 19.2836L9 18.3445L8.54924 19.2836L9 19.5ZM6 34.1655L5.88284 34.6516L6 34.1655ZM14.5 32C14.5 32.171 14.4189 32.3792 14.1776 32.6169C13.9345 32.8564 13.5571 33.0951 13.0503 33.3062C12.0391 33.7276 10.6073 34 9 34V35C10.7064 35 12.2747 34.7128 13.4349 34.2293C14.014 33.988 14.5153 33.688 14.8794 33.3293C15.2453 32.9689 15.5 32.5194 15.5 32H14.5ZM8.54924 19.2836L2.54924 31.7836L3.45076 32.2164L9.45076 19.7164L8.54924 19.2836ZM15.4508 31.7836L9.45076 19.2836L8.54924 19.7164L14.5492 32.2164L15.4508 31.7836ZM9 34C7.9429 34 6.95788 33.8821 6.11716 33.6795L5.88284 34.6516C6.80716 34.8744 7.87137 35 9 35V34ZM6.11716 33.6795C5.2576 33.4723 4.57303 33.1824 4.11608 32.8594C3.64965 32.5297 3.5 32.2277 3.5 32H2.5C2.5 32.6977 2.95365 33.2623 3.53887 33.676C4.13356 34.0963 4.94899 34.4265 5.88284 34.6516L6.11716 33.6795Z" fill="#545FD9"/>
<path d="M15 50.5H15.5C15.5 50.4251 15.4832 50.3512 15.4508 50.2836L15 50.5ZM3 50.5L2.54924 50.2836C2.51683 50.3512 2.5 50.4251 2.5 50.5H3ZM9 38L9.45076 37.7836L9 36.8445L8.54924 37.7836L9 38ZM6 52.6655L5.88284 53.1516L6 52.6655ZM14.5 50.5C14.5 50.671 14.4189 50.8792 14.1776 51.1169C13.9345 51.3564 13.5571 51.5951 13.0503 51.8062C12.0391 52.2276 10.6073 52.5 9 52.5V53.5C10.7064 53.5 12.2747 53.2128 13.4349 52.7293C14.014 52.488 14.5153 52.188 14.8794 51.8293C15.2453 51.4689 15.5 51.0194 15.5 50.5H14.5ZM8.54924 37.7836L2.54924 50.2836L3.45076 50.7164L9.45076 38.2164L8.54924 37.7836ZM15.4508 50.2836L9.45076 37.7836L8.54924 38.2164L14.5492 50.7164L15.4508 50.2836ZM9 52.5C7.9429 52.5 6.95788 52.3821 6.11716 52.1795L5.88284 53.1516C6.80716 53.3744 7.87137 53.5 9 53.5V52.5ZM6.11716 52.1795C5.2576 51.9723 4.57303 51.6824 4.11608 51.3594C3.64965 51.0297 3.5 50.7277 3.5 50.5H2.5C2.5 51.1977 2.95365 51.7623 3.53887 52.176C4.13356 52.5963 4.94899 52.9265 5.88284 53.1516L6.11716 52.1795Z" fill="#F7F7F7"/>
<path d="M15 68.5H15.5C15.5 68.4251 15.4832 68.3512 15.4508 68.2836L15 68.5ZM3 68.5L2.54924 68.2836C2.51683 68.3512 2.5 68.4251 2.5 68.5H3ZM9 56L9.45076 55.7836L9 54.8445L8.54924 55.7836L9 56ZM6 70.6655L5.88284 71.1516L6 70.6655ZM14.5 68.5C14.5 68.671 14.4189 68.8792 14.1776 69.1169C13.9345 69.3564 13.5571 69.5951 13.0503 69.8062C12.0391 70.2276 10.6073 70.5 9 70.5V71.5C10.7064 71.5 12.2747 71.2128 13.4349 70.7293C14.014 70.488 14.5153 70.188 14.8794 69.8293C15.2453 69.4689 15.5 69.0194 15.5 68.5H14.5ZM8.54924 55.7836L2.54924 68.2836L3.45076 68.7164L9.45076 56.2164L8.54924 55.7836ZM15.4508 68.2836L9.45076 55.7836L8.54924 56.2164L14.5492 68.7164L15.4508 68.2836ZM9 70.5C7.9429 70.5 6.95788 70.3821 6.11716 70.1795L5.88284 71.1516C6.80716 71.3744 7.87137 71.5 9 71.5V70.5ZM6.11716 70.1795C5.2576 69.9723 4.57303 69.6824 4.11608 69.3594C3.64965 69.0297 3.5 68.7277 3.5 68.5H2.5C2.5 69.1977 2.95365 69.7623 3.53887 70.176C4.13356 70.5963 4.94899 70.9265 5.88284 71.1516L6.11716 70.1795Z" fill="#FFAE93"/>
</svg>
