<svg width="18" height="18" viewBox="0 0 18 18" fill="none" xmlns="http://www.w3.org/2000/svg">
<path d="M1.5 7.00004H11.5C11.7761 7.00004 12 6.77618 12 6.50004C12 6.2239 11.7761 6.00004 11.5 6.00004H1.5C1.22386 6.00004 1 6.2239 1 6.50004C1 6.77618 1.22386 7.00004 1.5 7.00004V7.00004Z" fill="#252525"/>
<path d="M15.5 3.00004C15.7761 3.00004 16 2.77618 16 2.50004C16 2.2239 15.7761 2.00004 15.5 2.00004H5.5C5.22386 2.00004 5 2.2239 5 2.50004C5 2.77618 5.22386 3.00004 5.5 3.00004H15.5Z" fill="#252525"/>
<path d="M11.8536 6.85359L15.8536 2.85359C16.0488 2.65833 16.0488 2.34175 15.8536 2.14648C15.6583 1.95122 15.3417 1.95122 15.1464 2.14648L11.1464 6.14648C10.9512 6.34175 10.9512 6.65833 11.1464 6.85359C11.3417 7.04885 11.6583 7.04885 11.8536 6.85359V6.85359Z" fill="#252525"/>
<path d="M1.85355 6.85359L5.85355 2.85359C6.04882 2.65833 6.04882 2.34175 5.85355 2.14648C5.65829 1.95122 5.34171 1.95122 5.14645 2.14648L1.14645 6.14648C0.951184 6.34175 0.951184 6.65833 1.14645 6.85359C1.34171 7.04885 1.65829 7.04885 1.85355 6.85359V6.85359Z" fill="#252525"/>
<path d="M15 2.50004V6.50004C15 6.77618 15.2239 7.00004 15.5 7.00004C15.7761 7.00004 16 6.77618 16 6.50004V2.50004C16 2.2239 15.7761 2.00004 15.5 2.00004C15.2239 2.00004 15 2.2239 15 2.50004V2.50004Z" fill="#252525"/>
<path d="M1 6.50004V10.5C1 10.7762 1.22386 11 1.5 11C1.77614 11 2 10.7762 2 10.5V6.50004C2 6.2239 1.77614 6.00004 1.5 6.00004C1.22386 6.00004 1 6.2239 1 6.50004V6.50004Z" fill="#252525"/>
<path d="M11 6.50004V10.5C11 10.7762 11.2239 11 11.5 11C11.7761 11 12 10.7762 12 10.5V6.50004C12 6.2239 11.7761 6.00004 11.5 6.00004C11.2239 6.00004 11 6.2239 11 6.50004V6.50004Z" fill="#252525"/>
<path d="M15 11.5C15 11.7762 15.2239 12 15.5 12C15.7761 12 16 11.7762 16 11.5V6.50004C16 6.2239 15.7761 6.00004 15.5 6.00004C15.2239 6.00004 15 6.2239 15 6.50004V11.5Z" fill="#252525"/>
<path d="M1 15.5C1 15.7762 1.22386 16 1.5 16C1.77614 16 2 15.7762 2 15.5V10.5C2 10.2239 1.77614 10 1.5 10C1.22386 10 1 10.2239 1 10.5V15.5Z" fill="#252525"/>
<path d="M11 15.5C11 15.7762 11.2239 16 11.5 16C11.7761 16 12 15.7762 12 15.5V10.5C12 10.2239 11.7761 10 11.5 10C11.2239 10 11 10.2239 11 10.5V15.5Z" fill="#252525"/>
<path d="M1.5 16H11.5C11.7761 16 12 15.7762 12 15.5C12 15.2239 11.7761 15 11.5 15H1.5C1.22386 15 1 15.2239 1 15.5C1 15.7762 1.22386 16 1.5 16V16Z" fill="#252525"/>
<path d="M11.8536 15.8536L15.8536 11.8536C16.0488 11.6583 16.0488 11.3417 15.8536 11.1465C15.6583 10.9512 15.3417 10.9512 15.1464 11.1465L11.1464 15.1465C10.9512 15.3417 10.9512 15.6583 11.1464 15.8536C11.3417 16.0489 11.6583 16.0489 11.8536 15.8536V15.8536Z" fill="#252525"/>
<path opacity="0.4" d="M7.46505 9.06633L4.94005 4.52133L13.5251 2.50133L7.46505 9.06633ZM8.12826 9.82217L14.2489 3.19143L12.7188 12.8825L8.12826 9.82217ZM7.40944 10.5448L11.7482 13.4373L2.58855 14.8836L7.40944 10.5448ZM6.73318 9.80809L1.94105 14.121L4.33711 5.49517L6.73318 9.80809Z" stroke="#252525"/>
</svg>
