<svg width="18" height="18" viewBox="0 0 18 18" fill="none" xmlns="http://www.w3.org/2000/svg">
<g opacity="0.5">
<path d="M5.18182 4.54545L16 2L14.0909 14.0909L2 16L5.18182 4.54545Z" fill="#C865F6"/>
<path d="M5.18182 4.54545L16 2L14.0909 14.0909L2 16L5.18182 4.54545Z" fill="url(#paint0_linear)" style="mix-blend-mode:multiply"/>
</g>
<g style="mix-blend-mode:multiply">
<path opacity="0.3" d="M2 15.9996L5.18182 4.54507L8.36364 10.2723L2 15.9996Z" fill="#BDBDBD"/>
<path opacity="0.8" d="M2 16.0019L8.36364 10.2746L14.0909 14.0928L2 16.0019Z" fill="#252525"/>
<path opacity="0.6" d="M8.3606 10.2727L15.997 2L14.0879 14.0909L8.3606 10.2727Z" fill="#828282"/>
</g>
<g opacity="0.4">
<path d="M2 15.9996L5.18182 4.54504L8.36364 10.2723L2 15.9996Z" fill="#FFAE93"/>
<path d="M2 16.0019L8.36364 10.2747L14.0909 14.0928L2 16.0019Z" fill="#FFAE93"/>
<path d="M8.3606 10.2727L15.997 2L14.0879 14.0909L8.3606 10.2727Z" fill="#FFAE93"/>
</g>
<path opacity="0.8" d="M5.18182 4.54545L16 2L8.36364 10.2727L5.18182 4.54545Z" fill="#FFAE93"/>
<defs>
<linearGradient id="paint0_linear" x1="12.8182" y1="9.63636" x2="8.36364" y2="5.81818" gradientUnits="userSpaceOnUse">
<stop stop-color="#E265F6"/>
<stop offset="1" stop-color="#F2AF4A"/>
</linearGradient>
</defs>
</svg>
