<svg width="18" height="18" viewBox="0 0 18 18" fill="none" xmlns="http://www.w3.org/2000/svg">
<path opacity="0.4" d="M7.46505 9.06633L4.94005 4.52133L13.5251 2.50133L7.46505 9.06633ZM8.12826 9.82217L14.2489 3.19143L12.7188 12.8825L8.12826 9.82217ZM7.40944 10.5448L11.7482 13.4373L2.58855 14.8836L7.40944 10.5448ZM6.73318 9.80809L1.94105 14.121L4.33711 5.49517L6.73318 9.80809Z" stroke="#FFAE93"/>
<path d="M1.5 7H11.5C11.7761 7 12 6.77614 12 6.5C12 6.22386 11.7761 6 11.5 6H1.5C1.22386 6 1 6.22386 1 6.5C1 6.77614 1.22386 7 1.5 7V7Z" fill="#FFAE93"/>
<path d="M15.5 3C15.7761 3 16 2.77614 16 2.5C16 2.22386 15.7761 2 15.5 2H5.5C5.22386 2 5 2.22386 5 2.5C5 2.77614 5.22386 3 5.5 3H15.5Z" fill="#FFAE93"/>
<path d="M11.8536 6.85355L15.8536 2.85355C16.0488 2.65829 16.0488 2.34171 15.8536 2.14645C15.6583 1.95118 15.3417 1.95118 15.1464 2.14645L11.1464 6.14645C10.9512 6.34171 10.9512 6.65829 11.1464 6.85355C11.3417 7.04882 11.6583 7.04882 11.8536 6.85355V6.85355Z" fill="#FFAE93"/>
<path d="M1.85355 6.85355L5.85355 2.85355C6.04882 2.65829 6.04882 2.34171 5.85355 2.14645C5.65829 1.95118 5.34171 1.95118 5.14645 2.14645L1.14645 6.14645C0.951184 6.34171 0.951184 6.65829 1.14645 6.85355C1.34171 7.04882 1.65829 7.04882 1.85355 6.85355V6.85355Z" fill="#FFAE93"/>
<path d="M15 2.5V6.5C15 6.77614 15.2239 7 15.5 7C15.7761 7 16 6.77614 16 6.5V2.5C16 2.22386 15.7761 2 15.5 2C15.2239 2 15 2.22386 15 2.5V2.5Z" fill="#FFAE93"/>
<path d="M1 6.5V10.5C1 10.7761 1.22386 11 1.5 11C1.77614 11 2 10.7761 2 10.5V6.5C2 6.22386 1.77614 6 1.5 6C1.22386 6 1 6.22386 1 6.5V6.5Z" fill="#FFAE93"/>
<path d="M11 6.5V10.5C11 10.7761 11.2239 11 11.5 11C11.7761 11 12 10.7761 12 10.5V6.5C12 6.22386 11.7761 6 11.5 6C11.2239 6 11 6.22386 11 6.5V6.5Z" fill="#FFAE93"/>
<path d="M15 11.5C15 11.7761 15.2239 12 15.5 12C15.7761 12 16 11.7761 16 11.5V6.5C16 6.22386 15.7761 6 15.5 6C15.2239 6 15 6.22386 15 6.5V11.5Z" fill="#FFAE93"/>
<path d="M1 15.5C1 15.7761 1.22386 16 1.5 16C1.77614 16 2 15.7761 2 15.5V10.5C2 10.2239 1.77614 10 1.5 10C1.22386 10 1 10.2239 1 10.5V15.5Z" fill="#FFAE93"/>
<path d="M11 15.5C11 15.7761 11.2239 16 11.5 16C11.7761 16 12 15.7761 12 15.5V10.5C12 10.2239 11.7761 10 11.5 10C11.2239 10 11 10.2239 11 10.5V15.5Z" fill="#FFAE93"/>
<path d="M1.5 16H11.5C11.7761 16 12 15.7761 12 15.5C12 15.2239 11.7761 15 11.5 15H1.5C1.22386 15 1 15.2239 1 15.5C1 15.7761 1.22386 16 1.5 16V16Z" fill="#FFAE93"/>
<path d="M11.8536 15.8536L15.8536 11.8536C16.0488 11.6583 16.0488 11.3417 15.8536 11.1464C15.6583 10.9512 15.3417 10.9512 15.1464 11.1464L11.1464 15.1464C10.9512 15.3417 10.9512 15.6583 11.1464 15.8536C11.3417 16.0488 11.6583 16.0488 11.8536 15.8536V15.8536Z" fill="#FFAE93"/>
</svg>
